M48
; DRILL file {KiCad (5.1.6)-1} date 05/29/20 02:10:19
; FORMAT={3:3/ absolute / metric / suppress leading zeros}
; #@! TF.CreationDate,2020-05-29T02:10:19-04:00
; #@! TF.GenerationSoftware,Kicad,Pcbnew,(5.1.6)-1
FMAT,2
METRIC,TZ
T1C0.400
T2C0.600
T3C0.700
T4C0.800
T5C1.000
T6C1.500
T7C3.000
T8C4.000
%
G90
G05
T1
X34650Y-72700
X37500Y-45000
X37500Y-55000
X37500Y-65000
X37500Y-92500
X37500Y-102500
X37500Y-112500
X38600Y-79300
X42500Y-32500
X42500Y-40000
X42500Y-50000
X42500Y-60000
X42500Y-97500
X42500Y-107500
X42500Y-117500
X42650Y-86450
X43650Y-86450
X43700Y-70750
X44450Y-83300
X44650Y-86475
X45000Y-74500
X45000Y-77500
X45650Y-86450
X45700Y-69700
X45850Y-81200
X46150Y-66000
X48150Y-65000
X48200Y-64050
X48500Y-89300
X49700Y-61650
X50500Y-90300
X52250Y-62600
X52500Y-45000
X52500Y-50000
X52500Y-107500
X53600Y-94200
X53800Y-77500
X53800Y-82900
X54750Y-91500
X55000Y-100000
X55000Y-112500
X55500Y-63500
X56000Y-90400
X56500Y-63500
X57000Y-90400
X57500Y-45000
X57500Y-50000
X57500Y-55000
X59400Y-62000
X60600Y-61850
X61100Y-90350
X61600Y-72850
X61850Y-94200
X62100Y-90350
X63400Y-84700
X64000Y-40400
X65000Y-84700
X65000Y-105000
X65000Y-115000
X66550Y-41900
X66750Y-84700
X67800Y-89100
X68200Y-91250
X68220Y-94110
X68800Y-89100
X69500Y-66100
X70000Y-55000
X70500Y-66100
X71350Y-80000
X71350Y-81050
X71400Y-74500
X71400Y-75500
X72600Y-94100
X74000Y-69200
X75000Y-40000
X75000Y-50000
X75000Y-60000
X75200Y-124700
X76500Y-106000
X77500Y-67500
X77500Y-80000
X77800Y-109900
X78100Y-94200
X80000Y-45000
X80000Y-55000
X80350Y-114500
X85000Y-50000
X94350Y-41950
T2
X32000Y-125000
X32879Y-122879
X32879Y-127121
X35000Y-122000
X35000Y-128000
X37121Y-122879
X37121Y-127121
X38000Y-125000
X99000Y-35000
X99879Y-32879
X99879Y-37121
X102000Y-32000
X102000Y-38000
X104121Y-32879
X104121Y-37121
X105000Y-35000
X32000Y-35000
X32879Y-32879
X32879Y-37121
X35000Y-32000
X35000Y-38000
X37121Y-32879
X37121Y-37121
X38000Y-35000
X99000Y-125000
X99879Y-122879
X99879Y-127121
X102000Y-122000
X102000Y-128000
X104121Y-122879
X104121Y-127121
X105000Y-125000
T3
X71500Y-37500
X71500Y-42580
T4
X37400Y-84400
X41000Y-86100
X71500Y-50600
X79000Y-31100
X79000Y-32300
X79000Y-33500
X80100Y-31100
X80100Y-32300
X80100Y-33500
X81400Y-31100
X82600Y-31100
X83900Y-31100
X85100Y-31100
X87400Y-33700
X87400Y-36800
X89000Y-33700
X89000Y-36800
X91400Y-32300
X91400Y-38200
X100750Y-56850
X100750Y-66400
X102750Y-56850
X102750Y-66400
X104750Y-56850
X104750Y-66400
T5
X56860Y-124760
X56860Y-127300
X59400Y-124760
X59400Y-127300
X61940Y-124760
X61940Y-127300
X67500Y-127000
X70000Y-127000
X49000Y-32460
X49000Y-35000
X51540Y-32460
X51540Y-35000
X54080Y-32460
X54080Y-35000
X56620Y-32460
X56620Y-35000
X59160Y-32460
X59160Y-35000
X61700Y-32460
X61700Y-35000
X64240Y-32460
X64240Y-35000
X48300Y-127000
X50800Y-127000
T6
X92000Y-100000
X94750Y-61500
X102750Y-61500
X102750Y-100000
T7
X92000Y-115400
X102750Y-108200
X92000Y-108200
X102750Y-115400
T8
X102000Y-125000
X35000Y-125000
X102000Y-35000
X35000Y-35000
T0
M30
