G04 #@! TF.GenerationSoftware,KiCad,Pcbnew,(5.1.6)-1*
G04 #@! TF.CreationDate,2020-05-29T02:21:24-04:00*
G04 #@! TF.ProjectId,T-ShirtPress,542d5368-6972-4745-9072-6573732e6b69,rev?*
G04 #@! TF.SameCoordinates,Original*
G04 #@! TF.FileFunction,Legend,Bot*
G04 #@! TF.FilePolarity,Positive*
%FSLAX46Y46*%
G04 Gerber Fmt 4.6, Leading zero omitted, Abs format (unit mm)*
G04 Created by KiCad (PCBNEW (5.1.6)-1) date 2020-05-29 02:21:24*
%MOMM*%
%LPD*%
G01*
G04 APERTURE LIST*
%ADD10C,0.150000*%
%ADD11C,0.010000*%
G04 APERTURE END LIST*
D10*
X65988095Y-33000000D02*
X65892857Y-33047619D01*
X65750000Y-33047619D01*
X65607142Y-33000000D01*
X65511904Y-32904761D01*
X65464285Y-32809523D01*
X65416666Y-32619047D01*
X65416666Y-32476190D01*
X65464285Y-32285714D01*
X65511904Y-32190476D01*
X65607142Y-32095238D01*
X65750000Y-32047619D01*
X65845238Y-32047619D01*
X65988095Y-32095238D01*
X66035714Y-32142857D01*
X66035714Y-32476190D01*
X65845238Y-32476190D01*
X66464285Y-32047619D02*
X66464285Y-33047619D01*
X67035714Y-32047619D01*
X67035714Y-33047619D01*
X67511904Y-32047619D02*
X67511904Y-33047619D01*
X67750000Y-33047619D01*
X67892857Y-33000000D01*
X67988095Y-32904761D01*
X68035714Y-32809523D01*
X68083333Y-32619047D01*
X68083333Y-32476190D01*
X68035714Y-32285714D01*
X67988095Y-32190476D01*
X67892857Y-32095238D01*
X67750000Y-32047619D01*
X67511904Y-32047619D01*
X65892857Y-34928571D02*
X66654761Y-34928571D01*
X66273809Y-34547619D02*
X66273809Y-35309523D01*
X67607142Y-35547619D02*
X67130952Y-35547619D01*
X67083333Y-35071428D01*
X67130952Y-35119047D01*
X67226190Y-35166666D01*
X67464285Y-35166666D01*
X67559523Y-35119047D01*
X67607142Y-35071428D01*
X67654761Y-34976190D01*
X67654761Y-34738095D01*
X67607142Y-34642857D01*
X67559523Y-34595238D01*
X67464285Y-34547619D01*
X67226190Y-34547619D01*
X67130952Y-34595238D01*
X67083333Y-34642857D01*
X62107142Y-37535714D02*
X62154761Y-37488095D01*
X62202380Y-37345238D01*
X62202380Y-37250000D01*
X62154761Y-37107142D01*
X62059523Y-37011904D01*
X61964285Y-36964285D01*
X61773809Y-36916666D01*
X61630952Y-36916666D01*
X61440476Y-36964285D01*
X61345238Y-37011904D01*
X61250000Y-37107142D01*
X61202380Y-37250000D01*
X61202380Y-37345238D01*
X61250000Y-37488095D01*
X61297619Y-37535714D01*
X61202380Y-38154761D02*
X61202380Y-38345238D01*
X61250000Y-38440476D01*
X61345238Y-38535714D01*
X61535714Y-38583333D01*
X61869047Y-38583333D01*
X62059523Y-38535714D01*
X62154761Y-38440476D01*
X62202380Y-38345238D01*
X62202380Y-38154761D01*
X62154761Y-38059523D01*
X62059523Y-37964285D01*
X61869047Y-37916666D01*
X61535714Y-37916666D01*
X61345238Y-37964285D01*
X61250000Y-38059523D01*
X61202380Y-38154761D01*
X62202380Y-39011904D02*
X61202380Y-39011904D01*
X62202380Y-39583333D01*
X61202380Y-39583333D01*
X61202380Y-39916666D02*
X61202380Y-40488095D01*
X62202380Y-40202380D02*
X61202380Y-40202380D01*
X61821428Y-40821428D02*
X61821428Y-41583333D01*
X62202380Y-42630952D02*
X61726190Y-42297619D01*
X62202380Y-42059523D02*
X61202380Y-42059523D01*
X61202380Y-42440476D01*
X61250000Y-42535714D01*
X61297619Y-42583333D01*
X61392857Y-42630952D01*
X61535714Y-42630952D01*
X61630952Y-42583333D01*
X61678571Y-42535714D01*
X61726190Y-42440476D01*
X61726190Y-42059523D01*
X62154761Y-43011904D02*
X62202380Y-43154761D01*
X62202380Y-43392857D01*
X62154761Y-43488095D01*
X62107142Y-43535714D01*
X62011904Y-43583333D01*
X61916666Y-43583333D01*
X61821428Y-43535714D01*
X61773809Y-43488095D01*
X61726190Y-43392857D01*
X61678571Y-43202380D01*
X61630952Y-43107142D01*
X61583333Y-43059523D01*
X61488095Y-43011904D01*
X61392857Y-43011904D01*
X61297619Y-43059523D01*
X61250000Y-43107142D01*
X61202380Y-43202380D01*
X61202380Y-43440476D01*
X61250000Y-43583333D01*
X59702380Y-37642857D02*
X59226190Y-37309523D01*
X59702380Y-37071428D02*
X58702380Y-37071428D01*
X58702380Y-37452380D01*
X58750000Y-37547619D01*
X58797619Y-37595238D01*
X58892857Y-37642857D01*
X59035714Y-37642857D01*
X59130952Y-37595238D01*
X59178571Y-37547619D01*
X59226190Y-37452380D01*
X59226190Y-37071428D01*
X58702380Y-37976190D02*
X59702380Y-38214285D01*
X58988095Y-38404761D01*
X59702380Y-38595238D01*
X58702380Y-38833333D01*
X59321428Y-39214285D02*
X59321428Y-39976190D01*
X59178571Y-40452380D02*
X59178571Y-40785714D01*
X59702380Y-40928571D02*
X59702380Y-40452380D01*
X58702380Y-40452380D01*
X58702380Y-40928571D01*
X59702380Y-41357142D02*
X58702380Y-41357142D01*
X59702380Y-41928571D01*
X58702380Y-41928571D01*
X55952380Y-37357142D02*
X55952380Y-37452380D01*
X56000000Y-37547619D01*
X56047619Y-37595238D01*
X56142857Y-37642857D01*
X56333333Y-37690476D01*
X56571428Y-37690476D01*
X56761904Y-37642857D01*
X56857142Y-37595238D01*
X56904761Y-37547619D01*
X56952380Y-37452380D01*
X56952380Y-37357142D01*
X56904761Y-37261904D01*
X56857142Y-37214285D01*
X56761904Y-37166666D01*
X56571428Y-37119047D01*
X56333333Y-37119047D01*
X56142857Y-37166666D01*
X56047619Y-37214285D01*
X56000000Y-37261904D01*
X55952380Y-37357142D01*
X56571428Y-38119047D02*
X56571428Y-38880952D01*
X56952380Y-39880952D02*
X56952380Y-39309523D01*
X56952380Y-39595238D02*
X55952380Y-39595238D01*
X56095238Y-39500000D01*
X56190476Y-39404761D01*
X56238095Y-39309523D01*
X53547619Y-37119047D02*
X53500000Y-37166666D01*
X53452380Y-37261904D01*
X53452380Y-37500000D01*
X53500000Y-37595238D01*
X53547619Y-37642857D01*
X53642857Y-37690476D01*
X53738095Y-37690476D01*
X53880952Y-37642857D01*
X54452380Y-37071428D01*
X54452380Y-37690476D01*
X54071428Y-38119047D02*
X54071428Y-38880952D01*
X53452380Y-39261904D02*
X53452380Y-39880952D01*
X53833333Y-39547619D01*
X53833333Y-39690476D01*
X53880952Y-39785714D01*
X53928571Y-39833333D01*
X54023809Y-39880952D01*
X54261904Y-39880952D01*
X54357142Y-39833333D01*
X54404761Y-39785714D01*
X54452380Y-39690476D01*
X54452380Y-39404761D01*
X54404761Y-39309523D01*
X54357142Y-39261904D01*
X51285714Y-37595238D02*
X51952380Y-37595238D01*
X50904761Y-37357142D02*
X51619047Y-37119047D01*
X51619047Y-37738095D01*
X51571428Y-38119047D02*
X51571428Y-38880952D01*
X50952380Y-39833333D02*
X50952380Y-39357142D01*
X51428571Y-39309523D01*
X51380952Y-39357142D01*
X51333333Y-39452380D01*
X51333333Y-39690476D01*
X51380952Y-39785714D01*
X51428571Y-39833333D01*
X51523809Y-39880952D01*
X51761904Y-39880952D01*
X51857142Y-39833333D01*
X51904761Y-39785714D01*
X51952380Y-39690476D01*
X51952380Y-39452380D01*
X51904761Y-39357142D01*
X51857142Y-39309523D01*
X48452380Y-37595238D02*
X48452380Y-37404761D01*
X48500000Y-37309523D01*
X48547619Y-37261904D01*
X48690476Y-37166666D01*
X48880952Y-37119047D01*
X49261904Y-37119047D01*
X49357142Y-37166666D01*
X49404761Y-37214285D01*
X49452380Y-37309523D01*
X49452380Y-37500000D01*
X49404761Y-37595238D01*
X49357142Y-37642857D01*
X49261904Y-37690476D01*
X49023809Y-37690476D01*
X48928571Y-37642857D01*
X48880952Y-37595238D01*
X48833333Y-37500000D01*
X48833333Y-37309523D01*
X48880952Y-37214285D01*
X48928571Y-37166666D01*
X49023809Y-37119047D01*
X49071428Y-38119047D02*
X49071428Y-38880952D01*
X48452380Y-39261904D02*
X48452380Y-39928571D01*
X49452380Y-39500000D01*
X62547619Y-123261904D02*
X62547619Y-122690476D01*
X61547619Y-122976190D02*
X62547619Y-122976190D01*
X61547619Y-122357142D02*
X62214285Y-122357142D01*
X62547619Y-122357142D02*
X62500000Y-122404761D01*
X62452380Y-122357142D01*
X62500000Y-122309523D01*
X62547619Y-122357142D01*
X62452380Y-122357142D01*
X61547619Y-121880952D02*
X62214285Y-121880952D01*
X62119047Y-121880952D02*
X62166666Y-121833333D01*
X62214285Y-121738095D01*
X62214285Y-121595238D01*
X62166666Y-121500000D01*
X62071428Y-121452380D01*
X61547619Y-121452380D01*
X62071428Y-121452380D02*
X62166666Y-121404761D01*
X62214285Y-121309523D01*
X62214285Y-121166666D01*
X62166666Y-121071428D01*
X62071428Y-121023809D01*
X61547619Y-121023809D01*
X61595238Y-120166666D02*
X61547619Y-120261904D01*
X61547619Y-120452380D01*
X61595238Y-120547619D01*
X61690476Y-120595238D01*
X62071428Y-120595238D01*
X62166666Y-120547619D01*
X62214285Y-120452380D01*
X62214285Y-120261904D01*
X62166666Y-120166666D01*
X62071428Y-120119047D01*
X61976190Y-120119047D01*
X61880952Y-120595238D01*
X61595238Y-119642857D02*
X61547619Y-119642857D01*
X61452380Y-119690476D01*
X61404761Y-119738095D01*
X62547619Y-118452380D02*
X61738095Y-118452380D01*
X61642857Y-118404761D01*
X61595238Y-118357142D01*
X61547619Y-118261904D01*
X61547619Y-118071428D01*
X61595238Y-117976190D01*
X61642857Y-117928571D01*
X61738095Y-117880952D01*
X62547619Y-117880952D01*
X62214285Y-117404761D02*
X61214285Y-117404761D01*
X62166666Y-117404761D02*
X62214285Y-117309523D01*
X62214285Y-117119047D01*
X62166666Y-117023809D01*
X62119047Y-116976190D01*
X62023809Y-116928571D01*
X61738095Y-116928571D01*
X61642857Y-116976190D01*
X61595238Y-117023809D01*
X61547619Y-117119047D01*
X61547619Y-117309523D01*
X61595238Y-117404761D01*
X61928571Y-116500000D02*
X61928571Y-115738095D01*
X61547619Y-115261904D02*
X62547619Y-115261904D01*
X62547619Y-115023809D01*
X62500000Y-114880952D01*
X62404761Y-114785714D01*
X62309523Y-114738095D01*
X62119047Y-114690476D01*
X61976190Y-114690476D01*
X61785714Y-114738095D01*
X61690476Y-114785714D01*
X61595238Y-114880952D01*
X61547619Y-115023809D01*
X61547619Y-115261904D01*
X61547619Y-114119047D02*
X61595238Y-114214285D01*
X61642857Y-114261904D01*
X61738095Y-114309523D01*
X62023809Y-114309523D01*
X62119047Y-114261904D01*
X62166666Y-114214285D01*
X62214285Y-114119047D01*
X62214285Y-113976190D01*
X62166666Y-113880952D01*
X62119047Y-113833333D01*
X62023809Y-113785714D01*
X61738095Y-113785714D01*
X61642857Y-113833333D01*
X61595238Y-113880952D01*
X61547619Y-113976190D01*
X61547619Y-114119047D01*
X62214285Y-113452380D02*
X61547619Y-113261904D01*
X62023809Y-113071428D01*
X61547619Y-112880952D01*
X62214285Y-112690476D01*
X62214285Y-112309523D02*
X61547619Y-112309523D01*
X62119047Y-112309523D02*
X62166666Y-112261904D01*
X62214285Y-112166666D01*
X62214285Y-112023809D01*
X62166666Y-111928571D01*
X62071428Y-111880952D01*
X61547619Y-111880952D01*
X60047619Y-123238095D02*
X60047619Y-122666666D01*
X59047619Y-122952380D02*
X60047619Y-122952380D01*
X59095238Y-121952380D02*
X59047619Y-122047619D01*
X59047619Y-122238095D01*
X59095238Y-122333333D01*
X59190476Y-122380952D01*
X59571428Y-122380952D01*
X59666666Y-122333333D01*
X59714285Y-122238095D01*
X59714285Y-122047619D01*
X59666666Y-121952380D01*
X59571428Y-121904761D01*
X59476190Y-121904761D01*
X59380952Y-122380952D01*
X59047619Y-121476190D02*
X59714285Y-121476190D01*
X59619047Y-121476190D02*
X59666666Y-121428571D01*
X59714285Y-121333333D01*
X59714285Y-121190476D01*
X59666666Y-121095238D01*
X59571428Y-121047619D01*
X59047619Y-121047619D01*
X59571428Y-121047619D02*
X59666666Y-121000000D01*
X59714285Y-120904761D01*
X59714285Y-120761904D01*
X59666666Y-120666666D01*
X59571428Y-120619047D01*
X59047619Y-120619047D01*
X59714285Y-120142857D02*
X58714285Y-120142857D01*
X59666666Y-120142857D02*
X59714285Y-120047619D01*
X59714285Y-119857142D01*
X59666666Y-119761904D01*
X59619047Y-119714285D01*
X59523809Y-119666666D01*
X59238095Y-119666666D01*
X59142857Y-119714285D01*
X59095238Y-119761904D01*
X59047619Y-119857142D01*
X59047619Y-120047619D01*
X59095238Y-120142857D01*
X60047619Y-118476190D02*
X59238095Y-118476190D01*
X59142857Y-118428571D01*
X59095238Y-118380952D01*
X59047619Y-118285714D01*
X59047619Y-118095238D01*
X59095238Y-118000000D01*
X59142857Y-117952380D01*
X59238095Y-117904761D01*
X60047619Y-117904761D01*
X59714285Y-117428571D02*
X58714285Y-117428571D01*
X59666666Y-117428571D02*
X59714285Y-117333333D01*
X59714285Y-117142857D01*
X59666666Y-117047619D01*
X59619047Y-117000000D01*
X59523809Y-116952380D01*
X59238095Y-116952380D01*
X59142857Y-117000000D01*
X59095238Y-117047619D01*
X59047619Y-117142857D01*
X59047619Y-117333333D01*
X59095238Y-117428571D01*
X59428571Y-116523809D02*
X59428571Y-115761904D01*
X59047619Y-115285714D02*
X60047619Y-115285714D01*
X60047619Y-115047619D01*
X60000000Y-114904761D01*
X59904761Y-114809523D01*
X59809523Y-114761904D01*
X59619047Y-114714285D01*
X59476190Y-114714285D01*
X59285714Y-114761904D01*
X59190476Y-114809523D01*
X59095238Y-114904761D01*
X59047619Y-115047619D01*
X59047619Y-115285714D01*
X59047619Y-114142857D02*
X59095238Y-114238095D01*
X59142857Y-114285714D01*
X59238095Y-114333333D01*
X59523809Y-114333333D01*
X59619047Y-114285714D01*
X59666666Y-114238095D01*
X59714285Y-114142857D01*
X59714285Y-114000000D01*
X59666666Y-113904761D01*
X59619047Y-113857142D01*
X59523809Y-113809523D01*
X59238095Y-113809523D01*
X59142857Y-113857142D01*
X59095238Y-113904761D01*
X59047619Y-114000000D01*
X59047619Y-114142857D01*
X59714285Y-113476190D02*
X59047619Y-113285714D01*
X59523809Y-113095238D01*
X59047619Y-112904761D01*
X59714285Y-112714285D01*
X59714285Y-112333333D02*
X59047619Y-112333333D01*
X59619047Y-112333333D02*
X59666666Y-112285714D01*
X59714285Y-112190476D01*
X59714285Y-112047619D01*
X59666666Y-111952380D01*
X59571428Y-111904761D01*
X59047619Y-111904761D01*
X57297619Y-123011904D02*
X57297619Y-122821428D01*
X57250000Y-122726190D01*
X57154761Y-122630952D01*
X56964285Y-122583333D01*
X56630952Y-122583333D01*
X56440476Y-122630952D01*
X56345238Y-122726190D01*
X56297619Y-122821428D01*
X56297619Y-123011904D01*
X56345238Y-123107142D01*
X56440476Y-123202380D01*
X56630952Y-123250000D01*
X56964285Y-123250000D01*
X57154761Y-123202380D01*
X57250000Y-123107142D01*
X57297619Y-123011904D01*
X56297619Y-122154761D02*
X57297619Y-122154761D01*
X56297619Y-121583333D01*
X57297619Y-121583333D01*
X56678571Y-121107142D02*
X56678571Y-120345238D01*
X57250000Y-119345238D02*
X57297619Y-119440476D01*
X57297619Y-119583333D01*
X57250000Y-119726190D01*
X57154761Y-119821428D01*
X57059523Y-119869047D01*
X56869047Y-119916666D01*
X56726190Y-119916666D01*
X56535714Y-119869047D01*
X56440476Y-119821428D01*
X56345238Y-119726190D01*
X56297619Y-119583333D01*
X56297619Y-119488095D01*
X56345238Y-119345238D01*
X56392857Y-119297619D01*
X56726190Y-119297619D01*
X56726190Y-119488095D01*
X57297619Y-118678571D02*
X57297619Y-118488095D01*
X57250000Y-118392857D01*
X57154761Y-118297619D01*
X56964285Y-118250000D01*
X56630952Y-118250000D01*
X56440476Y-118297619D01*
X56345238Y-118392857D01*
X56297619Y-118488095D01*
X56297619Y-118678571D01*
X56345238Y-118773809D01*
X56440476Y-118869047D01*
X56630952Y-118916666D01*
X56964285Y-118916666D01*
X57154761Y-118869047D01*
X57250000Y-118773809D01*
X57297619Y-118678571D01*
X68000000Y-124511904D02*
X68047619Y-124607142D01*
X68047619Y-124750000D01*
X68000000Y-124892857D01*
X67904761Y-124988095D01*
X67809523Y-125035714D01*
X67619047Y-125083333D01*
X67476190Y-125083333D01*
X67285714Y-125035714D01*
X67190476Y-124988095D01*
X67095238Y-124892857D01*
X67047619Y-124750000D01*
X67047619Y-124654761D01*
X67095238Y-124511904D01*
X67142857Y-124464285D01*
X67476190Y-124464285D01*
X67476190Y-124654761D01*
X67047619Y-124035714D02*
X68047619Y-124035714D01*
X67047619Y-123464285D01*
X68047619Y-123464285D01*
X67047619Y-122988095D02*
X68047619Y-122988095D01*
X68047619Y-122750000D01*
X68000000Y-122607142D01*
X67904761Y-122511904D01*
X67809523Y-122464285D01*
X67619047Y-122416666D01*
X67476190Y-122416666D01*
X67285714Y-122464285D01*
X67190476Y-122511904D01*
X67095238Y-122607142D01*
X67047619Y-122750000D01*
X67047619Y-122988095D01*
X69547619Y-125154761D02*
X70547619Y-125154761D01*
X70547619Y-124773809D01*
X70500000Y-124678571D01*
X70452380Y-124630952D01*
X70357142Y-124583333D01*
X70214285Y-124583333D01*
X70119047Y-124630952D01*
X70071428Y-124678571D01*
X70023809Y-124773809D01*
X70023809Y-125154761D01*
X70547619Y-124250000D02*
X69547619Y-124011904D01*
X70261904Y-123821428D01*
X69547619Y-123630952D01*
X70547619Y-123392857D01*
X69547619Y-123011904D02*
X70547619Y-123011904D01*
X69833333Y-122678571D01*
X70547619Y-122345238D01*
X69547619Y-122345238D01*
D11*
G36*
X102793394Y-76681111D02*
G01*
X102797753Y-76782724D01*
X102804806Y-76851050D01*
X102812500Y-76873173D01*
X102846930Y-76872658D01*
X102928731Y-76862705D01*
X103049888Y-76844755D01*
X103202388Y-76820252D01*
X103378215Y-76790636D01*
X103569355Y-76757350D01*
X103767792Y-76721834D01*
X103965513Y-76685531D01*
X104154503Y-76649883D01*
X104326746Y-76616332D01*
X104474229Y-76586318D01*
X104588936Y-76561285D01*
X104662853Y-76542673D01*
X104679098Y-76537389D01*
X104905858Y-76424290D01*
X105091626Y-76272722D01*
X105235856Y-76083587D01*
X105338003Y-75857788D01*
X105397522Y-75596224D01*
X105414143Y-75322037D01*
X105408349Y-75185414D01*
X105394676Y-75048932D01*
X105375826Y-74937986D01*
X105371338Y-74919842D01*
X105288653Y-74694414D01*
X105174443Y-74512970D01*
X105030353Y-74377305D01*
X104858028Y-74289215D01*
X104771970Y-74265629D01*
X104732400Y-74258549D01*
X104689164Y-74254153D01*
X104637709Y-74253061D01*
X104573483Y-74255893D01*
X104491933Y-74263268D01*
X104388506Y-74275805D01*
X104258649Y-74294125D01*
X104097810Y-74318846D01*
X103901437Y-74350588D01*
X103664976Y-74389971D01*
X103383875Y-74437614D01*
X103053581Y-74494137D01*
X102904222Y-74519792D01*
X102805444Y-74536771D01*
X102797530Y-74915906D01*
X102795478Y-75058282D01*
X102795428Y-75181230D01*
X102797260Y-75273260D01*
X102800853Y-75322882D01*
X102801865Y-75326959D01*
X102827781Y-75333519D01*
X102898131Y-75329771D01*
X103015183Y-75315405D01*
X103181207Y-75290112D01*
X103398471Y-75253584D01*
X103595381Y-75218812D01*
X103829117Y-75177283D01*
X104014282Y-75145483D01*
X104157751Y-75122588D01*
X104266401Y-75107773D01*
X104347109Y-75100215D01*
X104406752Y-75099087D01*
X104452206Y-75103566D01*
X104487216Y-75111874D01*
X104598430Y-75168686D01*
X104666338Y-75260520D01*
X104692166Y-75389262D01*
X104692195Y-75427320D01*
X104668879Y-75566824D01*
X104605905Y-75669418D01*
X104498622Y-75742470D01*
X104491101Y-75745885D01*
X104435865Y-75763222D01*
X104333433Y-75788395D01*
X104192226Y-75819609D01*
X104020667Y-75855071D01*
X103827175Y-75892988D01*
X103620172Y-75931563D01*
X103615690Y-75932377D01*
X103413602Y-75969445D01*
X103229391Y-76004020D01*
X103070458Y-76034651D01*
X102944205Y-76059884D01*
X102858031Y-76078269D01*
X102819338Y-76088352D01*
X102818413Y-76088818D01*
X102808633Y-76121496D01*
X102800968Y-76197648D01*
X102795516Y-76304478D01*
X102792371Y-76429195D01*
X102791632Y-76559004D01*
X102793394Y-76681111D01*
G37*
X102793394Y-76681111D02*
X102797753Y-76782724D01*
X102804806Y-76851050D01*
X102812500Y-76873173D01*
X102846930Y-76872658D01*
X102928731Y-76862705D01*
X103049888Y-76844755D01*
X103202388Y-76820252D01*
X103378215Y-76790636D01*
X103569355Y-76757350D01*
X103767792Y-76721834D01*
X103965513Y-76685531D01*
X104154503Y-76649883D01*
X104326746Y-76616332D01*
X104474229Y-76586318D01*
X104588936Y-76561285D01*
X104662853Y-76542673D01*
X104679098Y-76537389D01*
X104905858Y-76424290D01*
X105091626Y-76272722D01*
X105235856Y-76083587D01*
X105338003Y-75857788D01*
X105397522Y-75596224D01*
X105414143Y-75322037D01*
X105408349Y-75185414D01*
X105394676Y-75048932D01*
X105375826Y-74937986D01*
X105371338Y-74919842D01*
X105288653Y-74694414D01*
X105174443Y-74512970D01*
X105030353Y-74377305D01*
X104858028Y-74289215D01*
X104771970Y-74265629D01*
X104732400Y-74258549D01*
X104689164Y-74254153D01*
X104637709Y-74253061D01*
X104573483Y-74255893D01*
X104491933Y-74263268D01*
X104388506Y-74275805D01*
X104258649Y-74294125D01*
X104097810Y-74318846D01*
X103901437Y-74350588D01*
X103664976Y-74389971D01*
X103383875Y-74437614D01*
X103053581Y-74494137D01*
X102904222Y-74519792D01*
X102805444Y-74536771D01*
X102797530Y-74915906D01*
X102795478Y-75058282D01*
X102795428Y-75181230D01*
X102797260Y-75273260D01*
X102800853Y-75322882D01*
X102801865Y-75326959D01*
X102827781Y-75333519D01*
X102898131Y-75329771D01*
X103015183Y-75315405D01*
X103181207Y-75290112D01*
X103398471Y-75253584D01*
X103595381Y-75218812D01*
X103829117Y-75177283D01*
X104014282Y-75145483D01*
X104157751Y-75122588D01*
X104266401Y-75107773D01*
X104347109Y-75100215D01*
X104406752Y-75099087D01*
X104452206Y-75103566D01*
X104487216Y-75111874D01*
X104598430Y-75168686D01*
X104666338Y-75260520D01*
X104692166Y-75389262D01*
X104692195Y-75427320D01*
X104668879Y-75566824D01*
X104605905Y-75669418D01*
X104498622Y-75742470D01*
X104491101Y-75745885D01*
X104435865Y-75763222D01*
X104333433Y-75788395D01*
X104192226Y-75819609D01*
X104020667Y-75855071D01*
X103827175Y-75892988D01*
X103620172Y-75931563D01*
X103615690Y-75932377D01*
X103413602Y-75969445D01*
X103229391Y-76004020D01*
X103070458Y-76034651D01*
X102944205Y-76059884D01*
X102858031Y-76078269D01*
X102819338Y-76088352D01*
X102818413Y-76088818D01*
X102808633Y-76121496D01*
X102800968Y-76197648D01*
X102795516Y-76304478D01*
X102792371Y-76429195D01*
X102791632Y-76559004D01*
X102793394Y-76681111D01*
G36*
X102753446Y-89074955D02*
G01*
X102802675Y-89324033D01*
X102887430Y-89552618D01*
X103005040Y-89748959D01*
X103055772Y-89810441D01*
X103209888Y-89942431D01*
X103403617Y-90046794D01*
X103625028Y-90118902D01*
X103862188Y-90154128D01*
X103949113Y-90156889D01*
X104086250Y-90144598D01*
X104251634Y-90111548D01*
X104423672Y-90063471D01*
X104580771Y-90006099D01*
X104663159Y-89967333D01*
X104852576Y-89837983D01*
X105028584Y-89663274D01*
X105182416Y-89454102D01*
X105305303Y-89221360D01*
X105345503Y-89119416D01*
X105377196Y-88990237D01*
X105397797Y-88824012D01*
X105406942Y-88639109D01*
X105404265Y-88453900D01*
X105389398Y-88286752D01*
X105364532Y-88164352D01*
X105268464Y-87919176D01*
X105138456Y-87718854D01*
X104972909Y-87561982D01*
X104770226Y-87447155D01*
X104528812Y-87372969D01*
X104447936Y-87358325D01*
X104168702Y-87341916D01*
X104107561Y-87350081D01*
X104107561Y-88222609D01*
X104252078Y-88223273D01*
X104381571Y-88245315D01*
X104473651Y-88286269D01*
X104572425Y-88389491D01*
X104633477Y-88523949D01*
X104654378Y-88676829D01*
X104632696Y-88835315D01*
X104596135Y-88932157D01*
X104508500Y-89060885D01*
X104390161Y-89161256D01*
X104250953Y-89232181D01*
X104100712Y-89272576D01*
X103949272Y-89281354D01*
X103806468Y-89257428D01*
X103682135Y-89199712D01*
X103586109Y-89107120D01*
X103551832Y-89047511D01*
X103504180Y-88880185D01*
X103509740Y-88714671D01*
X103565572Y-88558497D01*
X103668735Y-88419188D01*
X103816286Y-88304269D01*
X103849667Y-88285509D01*
X103967074Y-88243347D01*
X104107561Y-88222609D01*
X104107561Y-87350081D01*
X103899314Y-87377894D01*
X103645172Y-87462378D01*
X103411681Y-87591485D01*
X103204243Y-87761333D01*
X103028261Y-87968041D01*
X102889137Y-88207725D01*
X102792276Y-88476505D01*
X102772245Y-88562333D01*
X102742413Y-88817138D01*
X102753446Y-89074955D01*
G37*
X102753446Y-89074955D02*
X102802675Y-89324033D01*
X102887430Y-89552618D01*
X103005040Y-89748959D01*
X103055772Y-89810441D01*
X103209888Y-89942431D01*
X103403617Y-90046794D01*
X103625028Y-90118902D01*
X103862188Y-90154128D01*
X103949113Y-90156889D01*
X104086250Y-90144598D01*
X104251634Y-90111548D01*
X104423672Y-90063471D01*
X104580771Y-90006099D01*
X104663159Y-89967333D01*
X104852576Y-89837983D01*
X105028584Y-89663274D01*
X105182416Y-89454102D01*
X105305303Y-89221360D01*
X105345503Y-89119416D01*
X105377196Y-88990237D01*
X105397797Y-88824012D01*
X105406942Y-88639109D01*
X105404265Y-88453900D01*
X105389398Y-88286752D01*
X105364532Y-88164352D01*
X105268464Y-87919176D01*
X105138456Y-87718854D01*
X104972909Y-87561982D01*
X104770226Y-87447155D01*
X104528812Y-87372969D01*
X104447936Y-87358325D01*
X104168702Y-87341916D01*
X104107561Y-87350081D01*
X104107561Y-88222609D01*
X104252078Y-88223273D01*
X104381571Y-88245315D01*
X104473651Y-88286269D01*
X104572425Y-88389491D01*
X104633477Y-88523949D01*
X104654378Y-88676829D01*
X104632696Y-88835315D01*
X104596135Y-88932157D01*
X104508500Y-89060885D01*
X104390161Y-89161256D01*
X104250953Y-89232181D01*
X104100712Y-89272576D01*
X103949272Y-89281354D01*
X103806468Y-89257428D01*
X103682135Y-89199712D01*
X103586109Y-89107120D01*
X103551832Y-89047511D01*
X103504180Y-88880185D01*
X103509740Y-88714671D01*
X103565572Y-88558497D01*
X103668735Y-88419188D01*
X103816286Y-88304269D01*
X103849667Y-88285509D01*
X103967074Y-88243347D01*
X104107561Y-88222609D01*
X104107561Y-87350081D01*
X103899314Y-87377894D01*
X103645172Y-87462378D01*
X103411681Y-87591485D01*
X103204243Y-87761333D01*
X103028261Y-87968041D01*
X102889137Y-88207725D01*
X102792276Y-88476505D01*
X102772245Y-88562333D01*
X102742413Y-88817138D01*
X102753446Y-89074955D01*
G36*
X104573155Y-85354425D02*
G01*
X104675742Y-85476280D01*
X104680550Y-85480373D01*
X104751941Y-85529350D01*
X104829362Y-85551912D01*
X104920103Y-85556667D01*
X105078171Y-85532601D01*
X105211256Y-85459021D01*
X105323095Y-85333857D01*
X105323606Y-85333099D01*
X105372134Y-85218507D01*
X105389612Y-85080132D01*
X105375565Y-84941639D01*
X105333646Y-84833238D01*
X105250928Y-84729469D01*
X105151241Y-84672479D01*
X105019668Y-84654072D01*
X105007554Y-84654020D01*
X104842017Y-84679419D01*
X104703986Y-84752550D01*
X104598339Y-84870562D01*
X104578506Y-84904939D01*
X104523274Y-85061627D01*
X104521912Y-85213831D01*
X104573155Y-85354425D01*
G37*
X104573155Y-85354425D02*
X104675742Y-85476280D01*
X104680550Y-85480373D01*
X104751941Y-85529350D01*
X104829362Y-85551912D01*
X104920103Y-85556667D01*
X105078171Y-85532601D01*
X105211256Y-85459021D01*
X105323095Y-85333857D01*
X105323606Y-85333099D01*
X105372134Y-85218507D01*
X105389612Y-85080132D01*
X105375565Y-84941639D01*
X105333646Y-84833238D01*
X105250928Y-84729469D01*
X105151241Y-84672479D01*
X105019668Y-84654072D01*
X105007554Y-84654020D01*
X104842017Y-84679419D01*
X104703986Y-84752550D01*
X104598339Y-84870562D01*
X104578506Y-84904939D01*
X104523274Y-85061627D01*
X104521912Y-85213831D01*
X104573155Y-85354425D01*
G36*
X102795962Y-72842443D02*
G01*
X102809712Y-73109108D01*
X102832373Y-73325847D01*
X102863738Y-73490475D01*
X102890690Y-73573367D01*
X102968168Y-73706881D01*
X103077222Y-73828364D01*
X103199533Y-73918321D01*
X103228536Y-73932922D01*
X103353145Y-73968865D01*
X103507904Y-73983726D01*
X103670473Y-73977185D01*
X103818516Y-73948922D01*
X103841349Y-73941690D01*
X104005610Y-73858259D01*
X104148585Y-73733048D01*
X104253775Y-73580520D01*
X104254049Y-73579971D01*
X104292700Y-73506278D01*
X104321091Y-73458904D01*
X104329813Y-73449333D01*
X104357294Y-73460978D01*
X104427719Y-73493436D01*
X104533195Y-73542997D01*
X104665829Y-73605948D01*
X104817727Y-73678577D01*
X104839907Y-73689222D01*
X104993820Y-73762896D01*
X105129528Y-73827409D01*
X105239146Y-73879050D01*
X105314791Y-73914109D01*
X105348578Y-73928875D01*
X105349518Y-73929111D01*
X105352867Y-73902444D01*
X105355742Y-73828659D01*
X105357941Y-73717083D01*
X105359262Y-73577043D01*
X105359556Y-73465915D01*
X105359556Y-73002719D01*
X105140833Y-72919785D01*
X105006063Y-72868808D01*
X104848758Y-72809492D01*
X104699252Y-72753272D01*
X104675167Y-72744235D01*
X104550907Y-72694625D01*
X104473532Y-72655538D01*
X104435493Y-72622571D01*
X104428222Y-72600199D01*
X104450442Y-72556881D01*
X104519944Y-72532207D01*
X104582320Y-72521111D01*
X104686349Y-72502792D01*
X104818074Y-72479699D01*
X104963539Y-72454284D01*
X104978556Y-72451665D01*
X105345444Y-72387695D01*
X105353290Y-71984765D01*
X105361135Y-71581835D01*
X105282734Y-71598119D01*
X105238391Y-71606450D01*
X105144842Y-71623371D01*
X105008481Y-71647749D01*
X104835700Y-71678447D01*
X104632894Y-71714331D01*
X104406457Y-71754265D01*
X104162781Y-71797115D01*
X104075444Y-71812445D01*
X103859034Y-71850462D01*
X103859034Y-72659111D01*
X103880091Y-72684110D01*
X103890428Y-72748390D01*
X103890363Y-72835879D01*
X103880212Y-72930504D01*
X103860293Y-73016190D01*
X103851526Y-73040013D01*
X103790302Y-73125431D01*
X103699742Y-73163366D01*
X103594668Y-73155271D01*
X103527659Y-73114311D01*
X103486373Y-73029424D01*
X103469319Y-72897089D01*
X103468667Y-72857727D01*
X103468667Y-72721350D01*
X103647367Y-72690231D01*
X103745345Y-72674015D01*
X103822654Y-72662758D01*
X103859034Y-72659111D01*
X103859034Y-71850462D01*
X103827324Y-71856033D01*
X103594257Y-71897092D01*
X103382631Y-71934488D01*
X103198835Y-71967086D01*
X103049257Y-71993754D01*
X102940284Y-72013357D01*
X102878305Y-72024762D01*
X102868944Y-72026597D01*
X102791333Y-72042707D01*
X102791333Y-72528038D01*
X102795962Y-72842443D01*
G37*
X102795962Y-72842443D02*
X102809712Y-73109108D01*
X102832373Y-73325847D01*
X102863738Y-73490475D01*
X102890690Y-73573367D01*
X102968168Y-73706881D01*
X103077222Y-73828364D01*
X103199533Y-73918321D01*
X103228536Y-73932922D01*
X103353145Y-73968865D01*
X103507904Y-73983726D01*
X103670473Y-73977185D01*
X103818516Y-73948922D01*
X103841349Y-73941690D01*
X104005610Y-73858259D01*
X104148585Y-73733048D01*
X104253775Y-73580520D01*
X104254049Y-73579971D01*
X104292700Y-73506278D01*
X104321091Y-73458904D01*
X104329813Y-73449333D01*
X104357294Y-73460978D01*
X104427719Y-73493436D01*
X104533195Y-73542997D01*
X104665829Y-73605948D01*
X104817727Y-73678577D01*
X104839907Y-73689222D01*
X104993820Y-73762896D01*
X105129528Y-73827409D01*
X105239146Y-73879050D01*
X105314791Y-73914109D01*
X105348578Y-73928875D01*
X105349518Y-73929111D01*
X105352867Y-73902444D01*
X105355742Y-73828659D01*
X105357941Y-73717083D01*
X105359262Y-73577043D01*
X105359556Y-73465915D01*
X105359556Y-73002719D01*
X105140833Y-72919785D01*
X105006063Y-72868808D01*
X104848758Y-72809492D01*
X104699252Y-72753272D01*
X104675167Y-72744235D01*
X104550907Y-72694625D01*
X104473532Y-72655538D01*
X104435493Y-72622571D01*
X104428222Y-72600199D01*
X104450442Y-72556881D01*
X104519944Y-72532207D01*
X104582320Y-72521111D01*
X104686349Y-72502792D01*
X104818074Y-72479699D01*
X104963539Y-72454284D01*
X104978556Y-72451665D01*
X105345444Y-72387695D01*
X105353290Y-71984765D01*
X105361135Y-71581835D01*
X105282734Y-71598119D01*
X105238391Y-71606450D01*
X105144842Y-71623371D01*
X105008481Y-71647749D01*
X104835700Y-71678447D01*
X104632894Y-71714331D01*
X104406457Y-71754265D01*
X104162781Y-71797115D01*
X104075444Y-71812445D01*
X103859034Y-71850462D01*
X103859034Y-72659111D01*
X103880091Y-72684110D01*
X103890428Y-72748390D01*
X103890363Y-72835879D01*
X103880212Y-72930504D01*
X103860293Y-73016190D01*
X103851526Y-73040013D01*
X103790302Y-73125431D01*
X103699742Y-73163366D01*
X103594668Y-73155271D01*
X103527659Y-73114311D01*
X103486373Y-73029424D01*
X103469319Y-72897089D01*
X103468667Y-72857727D01*
X103468667Y-72721350D01*
X103647367Y-72690231D01*
X103745345Y-72674015D01*
X103822654Y-72662758D01*
X103859034Y-72659111D01*
X103859034Y-71850462D01*
X103827324Y-71856033D01*
X103594257Y-71897092D01*
X103382631Y-71934488D01*
X103198835Y-71967086D01*
X103049257Y-71993754D01*
X102940284Y-72013357D01*
X102878305Y-72024762D01*
X102868944Y-72026597D01*
X102791333Y-72042707D01*
X102791333Y-72528038D01*
X102795962Y-72842443D01*
G36*
X102868365Y-80465574D02*
G01*
X102913208Y-80457253D01*
X103007018Y-80440419D01*
X103143150Y-80416246D01*
X103314964Y-80385906D01*
X103515816Y-80350571D01*
X103739067Y-80311415D01*
X103978072Y-80269609D01*
X104004889Y-80264925D01*
X104248815Y-80222234D01*
X104480810Y-80181451D01*
X104693660Y-80143858D01*
X104880153Y-80110736D01*
X105033077Y-80083367D01*
X105145218Y-80063031D01*
X105209365Y-80051009D01*
X105211389Y-80050609D01*
X105359556Y-80021109D01*
X105359556Y-79627999D01*
X105358861Y-79470651D01*
X105356117Y-79361308D01*
X105350328Y-79291543D01*
X105340502Y-79252927D01*
X105325645Y-79237031D01*
X105313222Y-79234889D01*
X105273352Y-79240102D01*
X105186413Y-79254735D01*
X105060712Y-79277280D01*
X104904557Y-79306229D01*
X104726255Y-79340072D01*
X104605242Y-79363433D01*
X104418469Y-79399108D01*
X104249713Y-79430178D01*
X104106997Y-79455260D01*
X103998346Y-79472972D01*
X103931782Y-79481931D01*
X103914857Y-79482397D01*
X103931576Y-79467774D01*
X103992820Y-79431064D01*
X104092660Y-79375486D01*
X104225169Y-79304261D01*
X104384416Y-79220606D01*
X104564473Y-79127741D01*
X104622837Y-79097969D01*
X105359556Y-78723122D01*
X105359556Y-78428672D01*
X105358135Y-78307442D01*
X105354295Y-78210452D01*
X105348667Y-78149396D01*
X105343632Y-78134222D01*
X105307454Y-78130012D01*
X105225034Y-78118363D01*
X105105865Y-78100748D01*
X104959443Y-78078640D01*
X104795261Y-78053513D01*
X104622813Y-78026839D01*
X104451594Y-78000092D01*
X104291098Y-77974744D01*
X104150819Y-77952269D01*
X104040252Y-77934140D01*
X103968889Y-77921829D01*
X103948444Y-77917752D01*
X103905899Y-77905226D01*
X103909299Y-77895211D01*
X103963011Y-77881246D01*
X103974917Y-77878580D01*
X104030482Y-77868338D01*
X104132490Y-77851601D01*
X104271504Y-77829836D01*
X104438087Y-77804508D01*
X104622801Y-77777083D01*
X104715750Y-77763514D01*
X105359556Y-77670070D01*
X105359556Y-76887960D01*
X105281944Y-76904070D01*
X105237780Y-76912362D01*
X105144403Y-76929246D01*
X105008202Y-76953589D01*
X104835565Y-76984257D01*
X104632880Y-77020115D01*
X104406535Y-77060031D01*
X104162918Y-77102869D01*
X104075444Y-77118222D01*
X103827324Y-77161811D01*
X103594257Y-77202869D01*
X103382631Y-77240265D01*
X103198835Y-77272864D01*
X103049257Y-77299532D01*
X102940284Y-77319135D01*
X102878305Y-77330540D01*
X102868944Y-77332375D01*
X102791333Y-77348485D01*
X102791333Y-77866688D01*
X102792432Y-78031792D01*
X102795486Y-78176596D01*
X102800132Y-78291984D01*
X102806007Y-78368842D01*
X102812500Y-78397935D01*
X102845172Y-78405770D01*
X102925776Y-78420870D01*
X103046458Y-78441892D01*
X103199366Y-78467490D01*
X103376649Y-78496318D01*
X103518056Y-78518805D01*
X103706788Y-78549122D01*
X103875543Y-78577344D01*
X104016788Y-78602121D01*
X104122991Y-78622101D01*
X104186618Y-78635933D01*
X104201867Y-78641482D01*
X104177218Y-78656893D01*
X104107962Y-78692898D01*
X104000666Y-78746275D01*
X103861895Y-78813798D01*
X103698216Y-78892246D01*
X103516195Y-78978393D01*
X103503367Y-78984426D01*
X102805444Y-79312518D01*
X102790174Y-80481406D01*
X102868365Y-80465574D01*
G37*
X102868365Y-80465574D02*
X102913208Y-80457253D01*
X103007018Y-80440419D01*
X103143150Y-80416246D01*
X103314964Y-80385906D01*
X103515816Y-80350571D01*
X103739067Y-80311415D01*
X103978072Y-80269609D01*
X104004889Y-80264925D01*
X104248815Y-80222234D01*
X104480810Y-80181451D01*
X104693660Y-80143858D01*
X104880153Y-80110736D01*
X105033077Y-80083367D01*
X105145218Y-80063031D01*
X105209365Y-80051009D01*
X105211389Y-80050609D01*
X105359556Y-80021109D01*
X105359556Y-79627999D01*
X105358861Y-79470651D01*
X105356117Y-79361308D01*
X105350328Y-79291543D01*
X105340502Y-79252927D01*
X105325645Y-79237031D01*
X105313222Y-79234889D01*
X105273352Y-79240102D01*
X105186413Y-79254735D01*
X105060712Y-79277280D01*
X104904557Y-79306229D01*
X104726255Y-79340072D01*
X104605242Y-79363433D01*
X104418469Y-79399108D01*
X104249713Y-79430178D01*
X104106997Y-79455260D01*
X103998346Y-79472972D01*
X103931782Y-79481931D01*
X103914857Y-79482397D01*
X103931576Y-79467774D01*
X103992820Y-79431064D01*
X104092660Y-79375486D01*
X104225169Y-79304261D01*
X104384416Y-79220606D01*
X104564473Y-79127741D01*
X104622837Y-79097969D01*
X105359556Y-78723122D01*
X105359556Y-78428672D01*
X105358135Y-78307442D01*
X105354295Y-78210452D01*
X105348667Y-78149396D01*
X105343632Y-78134222D01*
X105307454Y-78130012D01*
X105225034Y-78118363D01*
X105105865Y-78100748D01*
X104959443Y-78078640D01*
X104795261Y-78053513D01*
X104622813Y-78026839D01*
X104451594Y-78000092D01*
X104291098Y-77974744D01*
X104150819Y-77952269D01*
X104040252Y-77934140D01*
X103968889Y-77921829D01*
X103948444Y-77917752D01*
X103905899Y-77905226D01*
X103909299Y-77895211D01*
X103963011Y-77881246D01*
X103974917Y-77878580D01*
X104030482Y-77868338D01*
X104132490Y-77851601D01*
X104271504Y-77829836D01*
X104438087Y-77804508D01*
X104622801Y-77777083D01*
X104715750Y-77763514D01*
X105359556Y-77670070D01*
X105359556Y-76887960D01*
X105281944Y-76904070D01*
X105237780Y-76912362D01*
X105144403Y-76929246D01*
X105008202Y-76953589D01*
X104835565Y-76984257D01*
X104632880Y-77020115D01*
X104406535Y-77060031D01*
X104162918Y-77102869D01*
X104075444Y-77118222D01*
X103827324Y-77161811D01*
X103594257Y-77202869D01*
X103382631Y-77240265D01*
X103198835Y-77272864D01*
X103049257Y-77299532D01*
X102940284Y-77319135D01*
X102878305Y-77330540D01*
X102868944Y-77332375D01*
X102791333Y-77348485D01*
X102791333Y-77866688D01*
X102792432Y-78031792D01*
X102795486Y-78176596D01*
X102800132Y-78291984D01*
X102806007Y-78368842D01*
X102812500Y-78397935D01*
X102845172Y-78405770D01*
X102925776Y-78420870D01*
X103046458Y-78441892D01*
X103199366Y-78467490D01*
X103376649Y-78496318D01*
X103518056Y-78518805D01*
X103706788Y-78549122D01*
X103875543Y-78577344D01*
X104016788Y-78602121D01*
X104122991Y-78622101D01*
X104186618Y-78635933D01*
X104201867Y-78641482D01*
X104177218Y-78656893D01*
X104107962Y-78692898D01*
X104000666Y-78746275D01*
X103861895Y-78813798D01*
X103698216Y-78892246D01*
X103516195Y-78978393D01*
X103503367Y-78984426D01*
X102805444Y-79312518D01*
X102790174Y-80481406D01*
X102868365Y-80465574D01*
G36*
X102792023Y-82029392D02*
G01*
X102793974Y-82219788D01*
X102797009Y-82383690D01*
X102800949Y-82514139D01*
X102805618Y-82604173D01*
X102810839Y-82646831D01*
X102812500Y-82649349D01*
X102847313Y-82644399D01*
X102925440Y-82631310D01*
X103034685Y-82612173D01*
X103141837Y-82592905D01*
X103268112Y-82570316D01*
X103373827Y-82552086D01*
X103446673Y-82540296D01*
X103473448Y-82536889D01*
X103481362Y-82510243D01*
X103488136Y-82436601D01*
X103493277Y-82325409D01*
X103496296Y-82186111D01*
X103496889Y-82085333D01*
X103497754Y-81911008D01*
X103500758Y-81785984D01*
X103506512Y-81703139D01*
X103515630Y-81655352D01*
X103528722Y-81635499D01*
X103535694Y-81633778D01*
X103590006Y-81628471D01*
X103661941Y-81616290D01*
X103749382Y-81598801D01*
X103765000Y-82440503D01*
X104400000Y-82331493D01*
X104400000Y-81911194D01*
X104401364Y-81735852D01*
X104405779Y-81610989D01*
X104413727Y-81530699D01*
X104425693Y-81489073D01*
X104435278Y-81480112D01*
X104486593Y-81467955D01*
X104561084Y-81453688D01*
X104562278Y-81453481D01*
X104654000Y-81437633D01*
X104654000Y-82430282D01*
X104745722Y-82413974D01*
X104814664Y-82401668D01*
X104920642Y-82382698D01*
X105045137Y-82360379D01*
X105098500Y-82350803D01*
X105359556Y-82303940D01*
X105359556Y-80528626D01*
X105281944Y-80544737D01*
X105237780Y-80553029D01*
X105144403Y-80569913D01*
X105008202Y-80594256D01*
X104835565Y-80624924D01*
X104632880Y-80660782D01*
X104406535Y-80700697D01*
X104162918Y-80743536D01*
X104075444Y-80758889D01*
X103827324Y-80802477D01*
X103594257Y-80843536D01*
X103382631Y-80880932D01*
X103198835Y-80913531D01*
X103049257Y-80940199D01*
X102940284Y-80959802D01*
X102878305Y-80971206D01*
X102868944Y-80973041D01*
X102791333Y-80989152D01*
X102791333Y-81819465D01*
X102792023Y-82029392D01*
G37*
X102792023Y-82029392D02*
X102793974Y-82219788D01*
X102797009Y-82383690D01*
X102800949Y-82514139D01*
X102805618Y-82604173D01*
X102810839Y-82646831D01*
X102812500Y-82649349D01*
X102847313Y-82644399D01*
X102925440Y-82631310D01*
X103034685Y-82612173D01*
X103141837Y-82592905D01*
X103268112Y-82570316D01*
X103373827Y-82552086D01*
X103446673Y-82540296D01*
X103473448Y-82536889D01*
X103481362Y-82510243D01*
X103488136Y-82436601D01*
X103493277Y-82325409D01*
X103496296Y-82186111D01*
X103496889Y-82085333D01*
X103497754Y-81911008D01*
X103500758Y-81785984D01*
X103506512Y-81703139D01*
X103515630Y-81655352D01*
X103528722Y-81635499D01*
X103535694Y-81633778D01*
X103590006Y-81628471D01*
X103661941Y-81616290D01*
X103749382Y-81598801D01*
X103765000Y-82440503D01*
X104400000Y-82331493D01*
X104400000Y-81911194D01*
X104401364Y-81735852D01*
X104405779Y-81610989D01*
X104413727Y-81530699D01*
X104425693Y-81489073D01*
X104435278Y-81480112D01*
X104486593Y-81467955D01*
X104561084Y-81453688D01*
X104562278Y-81453481D01*
X104654000Y-81437633D01*
X104654000Y-82430282D01*
X104745722Y-82413974D01*
X104814664Y-82401668D01*
X104920642Y-82382698D01*
X105045137Y-82360379D01*
X105098500Y-82350803D01*
X105359556Y-82303940D01*
X105359556Y-80528626D01*
X105281944Y-80544737D01*
X105237780Y-80553029D01*
X105144403Y-80569913D01*
X105008202Y-80594256D01*
X104835565Y-80624924D01*
X104632880Y-80660782D01*
X104406535Y-80700697D01*
X104162918Y-80743536D01*
X104075444Y-80758889D01*
X103827324Y-80802477D01*
X103594257Y-80843536D01*
X103382631Y-80880932D01*
X103198835Y-80913531D01*
X103049257Y-80940199D01*
X102940284Y-80959802D01*
X102878305Y-80971206D01*
X102868944Y-80973041D01*
X102791333Y-80989152D01*
X102791333Y-81819465D01*
X102792023Y-82029392D01*
G36*
X102791723Y-83671827D02*
G01*
X102793689Y-83782964D01*
X102798423Y-83854762D01*
X102807119Y-83895773D01*
X102820970Y-83914548D01*
X102841169Y-83919640D01*
X102848111Y-83919778D01*
X102886559Y-83915116D01*
X102972121Y-83902095D01*
X103096327Y-83882158D01*
X103250703Y-83856751D01*
X103426780Y-83827318D01*
X103616084Y-83795304D01*
X103810145Y-83762154D01*
X104000490Y-83729312D01*
X104178648Y-83698224D01*
X104336148Y-83670334D01*
X104464517Y-83647087D01*
X104555284Y-83629927D01*
X104590500Y-83622633D01*
X104654000Y-83608258D01*
X104654000Y-84476722D01*
X104943278Y-84424556D01*
X105071220Y-84401134D01*
X105183846Y-84379882D01*
X105265999Y-84363693D01*
X105296056Y-84357213D01*
X105359556Y-84342036D01*
X105359556Y-82645293D01*
X105281944Y-82661403D01*
X105237780Y-82669695D01*
X105144403Y-82686580D01*
X105008202Y-82710923D01*
X104835565Y-82741590D01*
X104632880Y-82777449D01*
X104406535Y-82817364D01*
X104162918Y-82860203D01*
X104075444Y-82875556D01*
X103827324Y-82919144D01*
X103594257Y-82960203D01*
X103382631Y-82997599D01*
X103198835Y-83030197D01*
X103049257Y-83056865D01*
X102940284Y-83076468D01*
X102878305Y-83087873D01*
X102868944Y-83089708D01*
X102791333Y-83105818D01*
X102791333Y-83512798D01*
X102791723Y-83671827D01*
G37*
X102791723Y-83671827D02*
X102793689Y-83782964D01*
X102798423Y-83854762D01*
X102807119Y-83895773D01*
X102820970Y-83914548D01*
X102841169Y-83919640D01*
X102848111Y-83919778D01*
X102886559Y-83915116D01*
X102972121Y-83902095D01*
X103096327Y-83882158D01*
X103250703Y-83856751D01*
X103426780Y-83827318D01*
X103616084Y-83795304D01*
X103810145Y-83762154D01*
X104000490Y-83729312D01*
X104178648Y-83698224D01*
X104336148Y-83670334D01*
X104464517Y-83647087D01*
X104555284Y-83629927D01*
X104590500Y-83622633D01*
X104654000Y-83608258D01*
X104654000Y-84476722D01*
X104943278Y-84424556D01*
X105071220Y-84401134D01*
X105183846Y-84379882D01*
X105265999Y-84363693D01*
X105296056Y-84357213D01*
X105359556Y-84342036D01*
X105359556Y-82645293D01*
X105281944Y-82661403D01*
X105237780Y-82669695D01*
X105144403Y-82686580D01*
X105008202Y-82710923D01*
X104835565Y-82741590D01*
X104632880Y-82777449D01*
X104406535Y-82817364D01*
X104162918Y-82860203D01*
X104075444Y-82875556D01*
X103827324Y-82919144D01*
X103594257Y-82960203D01*
X103382631Y-82997599D01*
X103198835Y-83030197D01*
X103049257Y-83056865D01*
X102940284Y-83076468D01*
X102878305Y-83087873D01*
X102868944Y-83089708D01*
X102791333Y-83105818D01*
X102791333Y-83512798D01*
X102791723Y-83671827D01*
G36*
X102791901Y-86946404D02*
G01*
X102794287Y-87058223D01*
X102799512Y-87130461D01*
X102808597Y-87171547D01*
X102822566Y-87189911D01*
X102840722Y-87193985D01*
X102878097Y-87189304D01*
X102965164Y-87175739D01*
X103096039Y-87154285D01*
X103264841Y-87125936D01*
X103465688Y-87091685D01*
X103692698Y-87052526D01*
X103939987Y-87009454D01*
X104124833Y-86977009D01*
X105359556Y-86759604D01*
X105359556Y-85919071D01*
X105281944Y-85935181D01*
X105237780Y-85943473D01*
X105144403Y-85960358D01*
X105008202Y-85984700D01*
X104835565Y-86015368D01*
X104632880Y-86051227D01*
X104406535Y-86091142D01*
X104162918Y-86133980D01*
X104075444Y-86149333D01*
X103827324Y-86192922D01*
X103594257Y-86233981D01*
X103382631Y-86271376D01*
X103198835Y-86303975D01*
X103049257Y-86330643D01*
X102940284Y-86350246D01*
X102878305Y-86361651D01*
X102868944Y-86363486D01*
X102791333Y-86379596D01*
X102791333Y-86786576D01*
X102791901Y-86946404D01*
G37*
X102791901Y-86946404D02*
X102794287Y-87058223D01*
X102799512Y-87130461D01*
X102808597Y-87171547D01*
X102822566Y-87189911D01*
X102840722Y-87193985D01*
X102878097Y-87189304D01*
X102965164Y-87175739D01*
X103096039Y-87154285D01*
X103264841Y-87125936D01*
X103465688Y-87091685D01*
X103692698Y-87052526D01*
X103939987Y-87009454D01*
X104124833Y-86977009D01*
X105359556Y-86759604D01*
X105359556Y-85919071D01*
X105281944Y-85935181D01*
X105237780Y-85943473D01*
X105144403Y-85960358D01*
X105008202Y-85984700D01*
X104835565Y-86015368D01*
X104632880Y-86051227D01*
X104406535Y-86091142D01*
X104162918Y-86133980D01*
X104075444Y-86149333D01*
X103827324Y-86192922D01*
X103594257Y-86233981D01*
X103382631Y-86271376D01*
X103198835Y-86303975D01*
X103049257Y-86330643D01*
X102940284Y-86350246D01*
X102878305Y-86361651D01*
X102868944Y-86363486D01*
X102791333Y-86379596D01*
X102791333Y-86786576D01*
X102791901Y-86946404D01*
M02*
