G04 #@! TF.GenerationSoftware,KiCad,Pcbnew,(5.1.6)-1*
G04 #@! TF.CreationDate,2020-05-29T02:21:23-04:00*
G04 #@! TF.ProjectId,T-ShirtPress,542d5368-6972-4745-9072-6573732e6b69,rev?*
G04 #@! TF.SameCoordinates,Original*
G04 #@! TF.FileFunction,Copper,L2,Inr*
G04 #@! TF.FilePolarity,Positive*
%FSLAX46Y46*%
G04 Gerber Fmt 4.6, Leading zero omitted, Abs format (unit mm)*
G04 Created by KiCad (PCBNEW (5.1.6)-1) date 2020-05-29 02:21:23*
%MOMM*%
%LPD*%
G01*
G04 APERTURE LIST*
G04 #@! TA.AperFunction,ViaPad*
%ADD10C,0.900000*%
G04 #@! TD*
G04 #@! TA.AperFunction,ViaPad*
%ADD11C,8.000000*%
G04 #@! TD*
G04 #@! TA.AperFunction,ViaPad*
%ADD12O,1.700000X2.000000*%
G04 #@! TD*
G04 #@! TA.AperFunction,ViaPad*
%ADD13C,3.000000*%
G04 #@! TD*
G04 #@! TA.AperFunction,ViaPad*
%ADD14R,3.000000X3.000000*%
G04 #@! TD*
G04 #@! TA.AperFunction,ViaPad*
%ADD15C,1.400000*%
G04 #@! TD*
G04 #@! TA.AperFunction,ViaPad*
%ADD16O,1.400000X1.400000*%
G04 #@! TD*
G04 #@! TA.AperFunction,ViaPad*
%ADD17R,1.700000X1.700000*%
G04 #@! TD*
G04 #@! TA.AperFunction,ViaPad*
%ADD18O,1.700000X1.700000*%
G04 #@! TD*
G04 #@! TA.AperFunction,ViaPad*
%ADD19C,0.800000*%
G04 #@! TD*
G04 #@! TA.AperFunction,ViaPad*
%ADD20C,1.000000*%
G04 #@! TD*
G04 #@! TA.AperFunction,Conductor*
%ADD21C,0.500000*%
G04 #@! TD*
G04 #@! TA.AperFunction,Conductor*
%ADD22C,0.254000*%
G04 #@! TD*
G04 APERTURE END LIST*
D10*
X104121320Y-122878680D03*
X102000000Y-122000000D03*
X99878680Y-122878680D03*
X99000000Y-125000000D03*
X99878680Y-127121320D03*
X102000000Y-128000000D03*
X104121320Y-127121320D03*
X105000000Y-125000000D03*
D11*
X102000000Y-125000000D03*
X102000000Y-35000000D03*
D10*
X105000000Y-35000000D03*
X104121320Y-37121320D03*
X102000000Y-38000000D03*
X99878680Y-37121320D03*
X99000000Y-35000000D03*
X99878680Y-32878680D03*
X102000000Y-32000000D03*
X104121320Y-32878680D03*
X37121320Y-32878680D03*
X35000000Y-32000000D03*
X32878680Y-32878680D03*
X32000000Y-35000000D03*
X32878680Y-37121320D03*
X35000000Y-38000000D03*
X37121320Y-37121320D03*
X38000000Y-35000000D03*
D11*
X35000000Y-35000000D03*
X35000000Y-125000000D03*
D10*
X38000000Y-125000000D03*
X37121320Y-127121320D03*
X35000000Y-128000000D03*
X32878680Y-127121320D03*
X32000000Y-125000000D03*
X32878680Y-122878680D03*
X35000000Y-122000000D03*
X37121320Y-122878680D03*
D12*
X48300000Y-127000000D03*
G04 #@! TA.AperFunction,ViaPad*
G36*
G01*
X51650000Y-126250000D02*
X51650000Y-127750000D01*
G75*
G02*
X51400000Y-128000000I-250000J0D01*
G01*
X50200000Y-128000000D01*
G75*
G02*
X49950000Y-127750000I0J250000D01*
G01*
X49950000Y-126250000D01*
G75*
G02*
X50200000Y-126000000I250000J0D01*
G01*
X51400000Y-126000000D01*
G75*
G02*
X51650000Y-126250000I0J-250000D01*
G01*
G37*
G04 #@! TD.AperFunction*
G04 #@! TA.AperFunction,ViaPad*
G36*
G01*
X70850000Y-126250000D02*
X70850000Y-127750000D01*
G75*
G02*
X70600000Y-128000000I-250000J0D01*
G01*
X69400000Y-128000000D01*
G75*
G02*
X69150000Y-127750000I0J250000D01*
G01*
X69150000Y-126250000D01*
G75*
G02*
X69400000Y-126000000I250000J0D01*
G01*
X70600000Y-126000000D01*
G75*
G02*
X70850000Y-126250000I0J-250000D01*
G01*
G37*
G04 #@! TD.AperFunction*
X67500000Y-127000000D03*
G04 #@! TA.AperFunction,ViaPad*
G36*
G01*
X100750000Y-109950000D02*
X100750000Y-106450000D01*
G75*
G02*
X101000000Y-106200000I250000J0D01*
G01*
X104500000Y-106200000D01*
G75*
G02*
X104750000Y-106450000I0J-250000D01*
G01*
X104750000Y-109950000D01*
G75*
G02*
X104500000Y-110200000I-250000J0D01*
G01*
X101000000Y-110200000D01*
G75*
G02*
X100750000Y-109950000I0J250000D01*
G01*
G37*
G04 #@! TD.AperFunction*
G04 #@! TA.AperFunction,ViaPad*
G36*
G01*
X90000000Y-109950000D02*
X90000000Y-106450000D01*
G75*
G02*
X90250000Y-106200000I250000J0D01*
G01*
X93750000Y-106200000D01*
G75*
G02*
X94000000Y-106450000I0J-250000D01*
G01*
X94000000Y-109950000D01*
G75*
G02*
X93750000Y-110200000I-250000J0D01*
G01*
X90250000Y-110200000D01*
G75*
G02*
X90000000Y-109950000I0J250000D01*
G01*
G37*
G04 #@! TD.AperFunction*
D13*
X102750000Y-61500000D03*
X102750000Y-100000000D03*
X94750000Y-61500000D03*
D14*
X92000000Y-100000000D03*
D15*
X71500000Y-37500000D03*
D16*
X71500000Y-42580000D03*
D17*
X49000000Y-35000000D03*
D18*
X49000000Y-32460000D03*
X51540000Y-35000000D03*
X51540000Y-32460000D03*
X54080000Y-35000000D03*
X54080000Y-32460000D03*
X56620000Y-35000000D03*
X56620000Y-32460000D03*
X59160000Y-35000000D03*
X59160000Y-32460000D03*
X61700000Y-35000000D03*
X61700000Y-32460000D03*
X64240000Y-35000000D03*
X64240000Y-32460000D03*
D17*
X56860000Y-127300000D03*
D18*
X56860000Y-124760000D03*
X59400000Y-127300000D03*
X59400000Y-124760000D03*
X61940000Y-127300000D03*
X61940000Y-124760000D03*
G04 #@! TA.AperFunction,ViaPad*
G36*
G01*
X100750000Y-117150000D02*
X100750000Y-113650000D01*
G75*
G02*
X101000000Y-113400000I250000J0D01*
G01*
X104500000Y-113400000D01*
G75*
G02*
X104750000Y-113650000I0J-250000D01*
G01*
X104750000Y-117150000D01*
G75*
G02*
X104500000Y-117400000I-250000J0D01*
G01*
X101000000Y-117400000D01*
G75*
G02*
X100750000Y-117150000I0J250000D01*
G01*
G37*
G04 #@! TD.AperFunction*
G04 #@! TA.AperFunction,ViaPad*
G36*
G01*
X90000000Y-117150000D02*
X90000000Y-113650000D01*
G75*
G02*
X90250000Y-113400000I250000J0D01*
G01*
X93750000Y-113400000D01*
G75*
G02*
X94000000Y-113650000I0J-250000D01*
G01*
X94000000Y-117150000D01*
G75*
G02*
X93750000Y-117400000I-250000J0D01*
G01*
X90250000Y-117400000D01*
G75*
G02*
X90000000Y-117150000I0J250000D01*
G01*
G37*
G04 #@! TD.AperFunction*
D19*
X38600000Y-79300000D03*
X60600000Y-61850000D03*
X61600000Y-72850000D03*
X53800000Y-77500000D03*
X53800000Y-82900000D03*
X68220000Y-94110000D03*
X72600000Y-94100000D03*
X78100000Y-94200000D03*
X53600000Y-94200000D03*
D20*
X85100000Y-31100000D03*
X83900000Y-31100000D03*
X82600000Y-31100000D03*
X81400000Y-31100000D03*
X80100000Y-31100000D03*
X80100000Y-32300000D03*
X80100000Y-33500000D03*
X79000000Y-33500000D03*
X79000000Y-32300000D03*
X79000000Y-31100000D03*
X71500000Y-50600000D03*
D19*
X70500000Y-66100000D03*
X56500000Y-63500000D03*
X52250000Y-62600000D03*
X49700000Y-61650000D03*
X46150000Y-66000000D03*
X43700000Y-70750000D03*
X45000000Y-74500000D03*
X44450000Y-83300000D03*
X42650000Y-86450000D03*
X43650000Y-86450000D03*
X44650000Y-86475000D03*
X45650000Y-86450000D03*
X48500000Y-89300000D03*
X54750000Y-91500000D03*
X56000000Y-90400000D03*
X61100000Y-90350000D03*
X68200000Y-91250000D03*
X68800000Y-89100000D03*
X71350000Y-81050000D03*
X71400000Y-75500000D03*
X74000000Y-69200000D03*
D20*
X100750000Y-56850000D03*
X102750000Y-56850000D03*
X104750000Y-56850000D03*
D19*
X94350000Y-41950000D03*
X34650000Y-72700000D03*
X61850000Y-94200000D03*
D20*
X102750000Y-66400000D03*
X100750000Y-66400000D03*
X104750000Y-66400000D03*
D19*
X52500000Y-45000000D03*
X52500000Y-50000000D03*
X57500000Y-50000000D03*
X57500000Y-45000000D03*
X57500000Y-55000000D03*
X42500000Y-32500000D03*
X42500000Y-40000000D03*
X42500000Y-50000000D03*
X42500000Y-60000000D03*
X37500000Y-55000000D03*
X37500000Y-45000000D03*
X37500000Y-65000000D03*
X75000000Y-40000000D03*
X80000000Y-45000000D03*
X75000000Y-50000000D03*
X70000000Y-55000000D03*
X75000000Y-60000000D03*
X80000000Y-55000000D03*
X85000000Y-50000000D03*
X55000000Y-100000000D03*
X52500000Y-107500000D03*
X55000000Y-112500000D03*
X65000000Y-105000000D03*
X65000000Y-115000000D03*
X37500000Y-92500000D03*
X42500000Y-97500000D03*
X37500000Y-102500000D03*
X42500000Y-107500000D03*
X37500000Y-112500000D03*
X42500000Y-117500000D03*
X77500000Y-80000000D03*
X77500000Y-67500000D03*
X69500000Y-66100000D03*
X50500000Y-90300000D03*
D20*
X37400000Y-84400000D03*
X87400000Y-36800000D03*
X89000000Y-36800000D03*
X89000000Y-33700000D03*
X87400000Y-33700000D03*
X91400000Y-32300000D03*
X91400000Y-38200000D03*
D19*
X75200000Y-124700000D03*
X59400000Y-62000000D03*
X55500000Y-63500000D03*
X48200000Y-64050000D03*
X48150000Y-65000000D03*
X45700000Y-69700000D03*
X45000000Y-77500000D03*
X45850000Y-81200000D03*
X57000000Y-90400000D03*
X62100000Y-90350000D03*
X67800000Y-89100000D03*
X71350000Y-80000000D03*
X71400000Y-74500000D03*
D20*
X41000000Y-86100000D03*
D19*
X66750000Y-84700000D03*
X76500000Y-106000000D03*
X65000000Y-84700000D03*
X77800000Y-109900000D03*
X63400000Y-84700000D03*
X80350000Y-114500000D03*
X64000000Y-40400000D03*
X66550000Y-41900000D03*
D21*
X38600000Y-79300000D02*
X36700000Y-79300000D01*
D22*
G36*
X33269434Y-30676025D02*
G01*
X32459121Y-31096725D01*
X32366197Y-31158815D01*
X31910025Y-31730420D01*
X35000000Y-34820395D01*
X38089975Y-31730420D01*
X37633803Y-31158815D01*
X36833817Y-30718793D01*
X36648055Y-30660000D01*
X100324637Y-30660000D01*
X100269434Y-30676025D01*
X99459121Y-31096725D01*
X99366197Y-31158815D01*
X98910025Y-31730420D01*
X102000000Y-34820395D01*
X105089975Y-31730420D01*
X104633803Y-31158815D01*
X103833817Y-30718793D01*
X103648055Y-30660000D01*
X106340000Y-30660000D01*
X106340000Y-33324637D01*
X106323975Y-33269434D01*
X105903275Y-32459121D01*
X105841185Y-32366197D01*
X105269580Y-31910025D01*
X102179605Y-35000000D01*
X105269580Y-38089975D01*
X105841185Y-37633803D01*
X106281207Y-36833817D01*
X106340000Y-36648055D01*
X106340001Y-94673000D01*
X87650000Y-94673000D01*
X87625224Y-94675440D01*
X87601399Y-94682667D01*
X87579443Y-94694403D01*
X87560197Y-94710197D01*
X87544403Y-94729443D01*
X87532667Y-94751399D01*
X87525440Y-94775224D01*
X87523000Y-94800000D01*
X87523000Y-120500000D01*
X87525440Y-120524776D01*
X87532667Y-120548601D01*
X87544403Y-120570557D01*
X87560197Y-120589803D01*
X87579443Y-120605597D01*
X87601399Y-120617333D01*
X87625224Y-120624560D01*
X87650000Y-120627000D01*
X100438316Y-120627000D01*
X100269434Y-120676025D01*
X99459121Y-121096725D01*
X99366197Y-121158815D01*
X98910025Y-121730420D01*
X102000000Y-124820395D01*
X105089975Y-121730420D01*
X104633803Y-121158815D01*
X103833817Y-120718793D01*
X103543789Y-120627000D01*
X106340001Y-120627000D01*
X106340001Y-123324640D01*
X106323975Y-123269434D01*
X105903275Y-122459121D01*
X105841185Y-122366197D01*
X105269580Y-121910025D01*
X102179605Y-125000000D01*
X105269580Y-128089975D01*
X105841185Y-127633803D01*
X106281207Y-126833817D01*
X106340001Y-126648052D01*
X106340001Y-129340000D01*
X103675363Y-129340000D01*
X103730566Y-129323975D01*
X104540879Y-128903275D01*
X104633803Y-128841185D01*
X105089975Y-128269580D01*
X102000000Y-125179605D01*
X98910025Y-128269580D01*
X99366197Y-128841185D01*
X100166183Y-129281207D01*
X100351945Y-129340000D01*
X36675363Y-129340000D01*
X36730566Y-129323975D01*
X37540879Y-128903275D01*
X37633803Y-128841185D01*
X38089975Y-128269580D01*
X35000000Y-125179605D01*
X31910025Y-128269580D01*
X32366197Y-128841185D01*
X33166183Y-129281207D01*
X33351945Y-129340000D01*
X30660000Y-129340000D01*
X30660000Y-126675363D01*
X30676025Y-126730566D01*
X31096725Y-127540879D01*
X31158815Y-127633803D01*
X31730420Y-128089975D01*
X34820395Y-125000000D01*
X35179605Y-125000000D01*
X38269580Y-128089975D01*
X38841185Y-127633803D01*
X39281207Y-126833817D01*
X39299173Y-126777050D01*
X46815000Y-126777050D01*
X46815000Y-127222949D01*
X46836487Y-127441110D01*
X46921401Y-127721033D01*
X47059294Y-127979013D01*
X47244866Y-128205134D01*
X47470986Y-128390706D01*
X47728966Y-128528599D01*
X48008889Y-128613513D01*
X48300000Y-128642185D01*
X48591110Y-128613513D01*
X48871033Y-128528599D01*
X49129013Y-128390706D01*
X49355134Y-128205134D01*
X49407223Y-128141663D01*
X49461595Y-128243386D01*
X49572038Y-128377962D01*
X49706614Y-128488405D01*
X49860150Y-128570472D01*
X50026746Y-128621008D01*
X50200000Y-128638072D01*
X51400000Y-128638072D01*
X51573254Y-128621008D01*
X51739850Y-128570472D01*
X51893386Y-128488405D01*
X52027962Y-128377962D01*
X52138405Y-128243386D01*
X52220472Y-128089850D01*
X52271008Y-127923254D01*
X52288072Y-127750000D01*
X52288072Y-126450000D01*
X55371928Y-126450000D01*
X55371928Y-128150000D01*
X55384188Y-128274482D01*
X55420498Y-128394180D01*
X55479463Y-128504494D01*
X55558815Y-128601185D01*
X55655506Y-128680537D01*
X55765820Y-128739502D01*
X55885518Y-128775812D01*
X56010000Y-128788072D01*
X57710000Y-128788072D01*
X57834482Y-128775812D01*
X57954180Y-128739502D01*
X58064494Y-128680537D01*
X58161185Y-128601185D01*
X58240537Y-128504494D01*
X58299502Y-128394180D01*
X58321513Y-128321620D01*
X58453368Y-128453475D01*
X58696589Y-128615990D01*
X58966842Y-128727932D01*
X59253740Y-128785000D01*
X59546260Y-128785000D01*
X59833158Y-128727932D01*
X60103411Y-128615990D01*
X60346632Y-128453475D01*
X60553475Y-128246632D01*
X60670000Y-128072240D01*
X60786525Y-128246632D01*
X60993368Y-128453475D01*
X61236589Y-128615990D01*
X61506842Y-128727932D01*
X61793740Y-128785000D01*
X62086260Y-128785000D01*
X62373158Y-128727932D01*
X62643411Y-128615990D01*
X62886632Y-128453475D01*
X63093475Y-128246632D01*
X63255990Y-128003411D01*
X63367932Y-127733158D01*
X63425000Y-127446260D01*
X63425000Y-127359742D01*
X66028715Y-127359742D01*
X66097904Y-127642745D01*
X66220975Y-127906812D01*
X66393198Y-128141795D01*
X66607954Y-128338664D01*
X66856991Y-128489854D01*
X67130739Y-128589554D01*
X67143110Y-128591476D01*
X67373000Y-128470155D01*
X67373000Y-127127000D01*
X66172768Y-127127000D01*
X66028715Y-127359742D01*
X63425000Y-127359742D01*
X63425000Y-127153740D01*
X63367932Y-126866842D01*
X63274079Y-126640258D01*
X66028715Y-126640258D01*
X66172768Y-126873000D01*
X67373000Y-126873000D01*
X67373000Y-125529845D01*
X67627000Y-125529845D01*
X67627000Y-126873000D01*
X67647000Y-126873000D01*
X67647000Y-127127000D01*
X67627000Y-127127000D01*
X67627000Y-128470155D01*
X67856890Y-128591476D01*
X67869261Y-128589554D01*
X68143009Y-128489854D01*
X68392046Y-128338664D01*
X68606802Y-128141795D01*
X68607086Y-128141407D01*
X68661595Y-128243386D01*
X68772038Y-128377962D01*
X68906614Y-128488405D01*
X69060150Y-128570472D01*
X69226746Y-128621008D01*
X69400000Y-128638072D01*
X70600000Y-128638072D01*
X70773254Y-128621008D01*
X70939850Y-128570472D01*
X71093386Y-128488405D01*
X71227962Y-128377962D01*
X71338405Y-128243386D01*
X71420472Y-128089850D01*
X71471008Y-127923254D01*
X71488072Y-127750000D01*
X71488072Y-126250000D01*
X71471008Y-126076746D01*
X71420472Y-125910150D01*
X71338405Y-125756614D01*
X71227962Y-125622038D01*
X71093386Y-125511595D01*
X70939850Y-125429528D01*
X70773254Y-125378992D01*
X70600000Y-125361928D01*
X69400000Y-125361928D01*
X69226746Y-125378992D01*
X69060150Y-125429528D01*
X68906614Y-125511595D01*
X68772038Y-125622038D01*
X68661595Y-125756614D01*
X68607086Y-125858593D01*
X68606802Y-125858205D01*
X68392046Y-125661336D01*
X68143009Y-125510146D01*
X67869261Y-125410446D01*
X67856890Y-125408524D01*
X67627000Y-125529845D01*
X67373000Y-125529845D01*
X67143110Y-125408524D01*
X67130739Y-125410446D01*
X66856991Y-125510146D01*
X66607954Y-125661336D01*
X66393198Y-125858205D01*
X66220975Y-126093188D01*
X66097904Y-126357255D01*
X66028715Y-126640258D01*
X63274079Y-126640258D01*
X63255990Y-126596589D01*
X63093475Y-126353368D01*
X62886632Y-126146525D01*
X62712240Y-126030000D01*
X62886632Y-125913475D01*
X63093475Y-125706632D01*
X63255990Y-125463411D01*
X63367932Y-125193158D01*
X63425000Y-124906260D01*
X63425000Y-124613740D01*
X63421882Y-124598061D01*
X74165000Y-124598061D01*
X74165000Y-124801939D01*
X74204774Y-125001898D01*
X74282795Y-125190256D01*
X74396063Y-125359774D01*
X74540226Y-125503937D01*
X74709744Y-125617205D01*
X74898102Y-125695226D01*
X75098061Y-125735000D01*
X75301939Y-125735000D01*
X75501898Y-125695226D01*
X75690256Y-125617205D01*
X75859774Y-125503937D01*
X76003937Y-125359774D01*
X76117205Y-125190256D01*
X76195226Y-125001898D01*
X76206718Y-124944121D01*
X97342909Y-124944121D01*
X97421492Y-125853748D01*
X97676025Y-126730566D01*
X98096725Y-127540879D01*
X98158815Y-127633803D01*
X98730420Y-128089975D01*
X101820395Y-125000000D01*
X98730420Y-121910025D01*
X98158815Y-122366197D01*
X97718793Y-123166183D01*
X97443296Y-124036641D01*
X97342909Y-124944121D01*
X76206718Y-124944121D01*
X76235000Y-124801939D01*
X76235000Y-124598061D01*
X76195226Y-124398102D01*
X76117205Y-124209744D01*
X76003937Y-124040226D01*
X75859774Y-123896063D01*
X75690256Y-123782795D01*
X75501898Y-123704774D01*
X75301939Y-123665000D01*
X75098061Y-123665000D01*
X74898102Y-123704774D01*
X74709744Y-123782795D01*
X74540226Y-123896063D01*
X74396063Y-124040226D01*
X74282795Y-124209744D01*
X74204774Y-124398102D01*
X74165000Y-124598061D01*
X63421882Y-124598061D01*
X63367932Y-124326842D01*
X63255990Y-124056589D01*
X63093475Y-123813368D01*
X62886632Y-123606525D01*
X62643411Y-123444010D01*
X62373158Y-123332068D01*
X62086260Y-123275000D01*
X61793740Y-123275000D01*
X61506842Y-123332068D01*
X61236589Y-123444010D01*
X60993368Y-123606525D01*
X60786525Y-123813368D01*
X60670000Y-123987760D01*
X60553475Y-123813368D01*
X60346632Y-123606525D01*
X60103411Y-123444010D01*
X59833158Y-123332068D01*
X59546260Y-123275000D01*
X59253740Y-123275000D01*
X58966842Y-123332068D01*
X58696589Y-123444010D01*
X58453368Y-123606525D01*
X58246525Y-123813368D01*
X58130000Y-123987760D01*
X58013475Y-123813368D01*
X57806632Y-123606525D01*
X57563411Y-123444010D01*
X57293158Y-123332068D01*
X57006260Y-123275000D01*
X56713740Y-123275000D01*
X56426842Y-123332068D01*
X56156589Y-123444010D01*
X55913368Y-123606525D01*
X55706525Y-123813368D01*
X55544010Y-124056589D01*
X55432068Y-124326842D01*
X55375000Y-124613740D01*
X55375000Y-124906260D01*
X55432068Y-125193158D01*
X55544010Y-125463411D01*
X55706525Y-125706632D01*
X55838380Y-125838487D01*
X55765820Y-125860498D01*
X55655506Y-125919463D01*
X55558815Y-125998815D01*
X55479463Y-126095506D01*
X55420498Y-126205820D01*
X55384188Y-126325518D01*
X55371928Y-126450000D01*
X52288072Y-126450000D01*
X52288072Y-126250000D01*
X52271008Y-126076746D01*
X52220472Y-125910150D01*
X52138405Y-125756614D01*
X52027962Y-125622038D01*
X51893386Y-125511595D01*
X51739850Y-125429528D01*
X51573254Y-125378992D01*
X51400000Y-125361928D01*
X50200000Y-125361928D01*
X50026746Y-125378992D01*
X49860150Y-125429528D01*
X49706614Y-125511595D01*
X49572038Y-125622038D01*
X49461595Y-125756614D01*
X49407223Y-125858337D01*
X49355134Y-125794866D01*
X49129014Y-125609294D01*
X48871034Y-125471401D01*
X48591111Y-125386487D01*
X48300000Y-125357815D01*
X48008890Y-125386487D01*
X47728967Y-125471401D01*
X47470987Y-125609294D01*
X47244866Y-125794866D01*
X47059294Y-126020986D01*
X46921401Y-126278966D01*
X46836487Y-126558889D01*
X46815000Y-126777050D01*
X39299173Y-126777050D01*
X39556704Y-125963359D01*
X39657091Y-125055879D01*
X39578508Y-124146252D01*
X39323975Y-123269434D01*
X38903275Y-122459121D01*
X38841185Y-122366197D01*
X38269580Y-121910025D01*
X35179605Y-125000000D01*
X34820395Y-125000000D01*
X31730420Y-121910025D01*
X31158815Y-122366197D01*
X30718793Y-123166183D01*
X30660000Y-123351945D01*
X30660000Y-121730420D01*
X31910025Y-121730420D01*
X35000000Y-124820395D01*
X38089975Y-121730420D01*
X37633803Y-121158815D01*
X36833817Y-120718793D01*
X35963359Y-120443296D01*
X35055879Y-120342909D01*
X34146252Y-120421492D01*
X33269434Y-120676025D01*
X32459121Y-121096725D01*
X32366197Y-121158815D01*
X31910025Y-121730420D01*
X30660000Y-121730420D01*
X30660000Y-114398061D01*
X79315000Y-114398061D01*
X79315000Y-114601939D01*
X79354774Y-114801898D01*
X79432795Y-114990256D01*
X79546063Y-115159774D01*
X79690226Y-115303937D01*
X79859744Y-115417205D01*
X80048102Y-115495226D01*
X80248061Y-115535000D01*
X80451939Y-115535000D01*
X80651898Y-115495226D01*
X80840256Y-115417205D01*
X81009774Y-115303937D01*
X81153937Y-115159774D01*
X81267205Y-114990256D01*
X81345226Y-114801898D01*
X81385000Y-114601939D01*
X81385000Y-114398061D01*
X81345226Y-114198102D01*
X81267205Y-114009744D01*
X81153937Y-113840226D01*
X81009774Y-113696063D01*
X80840256Y-113582795D01*
X80651898Y-113504774D01*
X80451939Y-113465000D01*
X80248061Y-113465000D01*
X80048102Y-113504774D01*
X79859744Y-113582795D01*
X79690226Y-113696063D01*
X79546063Y-113840226D01*
X79432795Y-114009744D01*
X79354774Y-114198102D01*
X79315000Y-114398061D01*
X30660000Y-114398061D01*
X30660000Y-109798061D01*
X76765000Y-109798061D01*
X76765000Y-110001939D01*
X76804774Y-110201898D01*
X76882795Y-110390256D01*
X76996063Y-110559774D01*
X77140226Y-110703937D01*
X77309744Y-110817205D01*
X77498102Y-110895226D01*
X77698061Y-110935000D01*
X77901939Y-110935000D01*
X78101898Y-110895226D01*
X78290256Y-110817205D01*
X78459774Y-110703937D01*
X78603937Y-110559774D01*
X78717205Y-110390256D01*
X78795226Y-110201898D01*
X78835000Y-110001939D01*
X78835000Y-109798061D01*
X78795226Y-109598102D01*
X78717205Y-109409744D01*
X78603937Y-109240226D01*
X78459774Y-109096063D01*
X78290256Y-108982795D01*
X78101898Y-108904774D01*
X77901939Y-108865000D01*
X77698061Y-108865000D01*
X77498102Y-108904774D01*
X77309744Y-108982795D01*
X77140226Y-109096063D01*
X76996063Y-109240226D01*
X76882795Y-109409744D01*
X76804774Y-109598102D01*
X76765000Y-109798061D01*
X30660000Y-109798061D01*
X30660000Y-105898061D01*
X75465000Y-105898061D01*
X75465000Y-106101939D01*
X75504774Y-106301898D01*
X75582795Y-106490256D01*
X75696063Y-106659774D01*
X75840226Y-106803937D01*
X76009744Y-106917205D01*
X76198102Y-106995226D01*
X76398061Y-107035000D01*
X76601939Y-107035000D01*
X76801898Y-106995226D01*
X76990256Y-106917205D01*
X77159774Y-106803937D01*
X77303937Y-106659774D01*
X77417205Y-106490256D01*
X77495226Y-106301898D01*
X77535000Y-106101939D01*
X77535000Y-105898061D01*
X77495226Y-105698102D01*
X77417205Y-105509744D01*
X77303937Y-105340226D01*
X77159774Y-105196063D01*
X76990256Y-105082795D01*
X76801898Y-105004774D01*
X76601939Y-104965000D01*
X76398061Y-104965000D01*
X76198102Y-105004774D01*
X76009744Y-105082795D01*
X75840226Y-105196063D01*
X75696063Y-105340226D01*
X75582795Y-105509744D01*
X75504774Y-105698102D01*
X75465000Y-105898061D01*
X30660000Y-105898061D01*
X30660000Y-90198061D01*
X49465000Y-90198061D01*
X49465000Y-90401939D01*
X49504774Y-90601898D01*
X49582795Y-90790256D01*
X49696063Y-90959774D01*
X49840226Y-91103937D01*
X50009744Y-91217205D01*
X50198102Y-91295226D01*
X50398061Y-91335000D01*
X50601939Y-91335000D01*
X50801898Y-91295226D01*
X50990256Y-91217205D01*
X51159774Y-91103937D01*
X51303937Y-90959774D01*
X51417205Y-90790256D01*
X51495226Y-90601898D01*
X51535000Y-90401939D01*
X51535000Y-90298061D01*
X55965000Y-90298061D01*
X55965000Y-90501939D01*
X56004774Y-90701898D01*
X56082795Y-90890256D01*
X56196063Y-91059774D01*
X56340226Y-91203937D01*
X56509744Y-91317205D01*
X56698102Y-91395226D01*
X56898061Y-91435000D01*
X57101939Y-91435000D01*
X57301898Y-91395226D01*
X57490256Y-91317205D01*
X57659774Y-91203937D01*
X57803937Y-91059774D01*
X57917205Y-90890256D01*
X57995226Y-90701898D01*
X58035000Y-90501939D01*
X58035000Y-90298061D01*
X58025055Y-90248061D01*
X61065000Y-90248061D01*
X61065000Y-90451939D01*
X61104774Y-90651898D01*
X61182795Y-90840256D01*
X61296063Y-91009774D01*
X61440226Y-91153937D01*
X61609744Y-91267205D01*
X61798102Y-91345226D01*
X61998061Y-91385000D01*
X62201939Y-91385000D01*
X62401898Y-91345226D01*
X62590256Y-91267205D01*
X62759774Y-91153937D01*
X62903937Y-91009774D01*
X63017205Y-90840256D01*
X63095226Y-90651898D01*
X63135000Y-90451939D01*
X63135000Y-90248061D01*
X63095226Y-90048102D01*
X63017205Y-89859744D01*
X62903937Y-89690226D01*
X62759774Y-89546063D01*
X62590256Y-89432795D01*
X62401898Y-89354774D01*
X62201939Y-89315000D01*
X61998061Y-89315000D01*
X61798102Y-89354774D01*
X61609744Y-89432795D01*
X61440226Y-89546063D01*
X61296063Y-89690226D01*
X61182795Y-89859744D01*
X61104774Y-90048102D01*
X61065000Y-90248061D01*
X58025055Y-90248061D01*
X57995226Y-90098102D01*
X57917205Y-89909744D01*
X57803937Y-89740226D01*
X57659774Y-89596063D01*
X57490256Y-89482795D01*
X57301898Y-89404774D01*
X57101939Y-89365000D01*
X56898061Y-89365000D01*
X56698102Y-89404774D01*
X56509744Y-89482795D01*
X56340226Y-89596063D01*
X56196063Y-89740226D01*
X56082795Y-89909744D01*
X56004774Y-90098102D01*
X55965000Y-90298061D01*
X51535000Y-90298061D01*
X51535000Y-90198061D01*
X51495226Y-89998102D01*
X51417205Y-89809744D01*
X51303937Y-89640226D01*
X51159774Y-89496063D01*
X50990256Y-89382795D01*
X50801898Y-89304774D01*
X50601939Y-89265000D01*
X50398061Y-89265000D01*
X50198102Y-89304774D01*
X50009744Y-89382795D01*
X49840226Y-89496063D01*
X49696063Y-89640226D01*
X49582795Y-89809744D01*
X49504774Y-89998102D01*
X49465000Y-90198061D01*
X30660000Y-90198061D01*
X30660000Y-88998061D01*
X66765000Y-88998061D01*
X66765000Y-89201939D01*
X66804774Y-89401898D01*
X66882795Y-89590256D01*
X66996063Y-89759774D01*
X67140226Y-89903937D01*
X67309744Y-90017205D01*
X67498102Y-90095226D01*
X67698061Y-90135000D01*
X67901939Y-90135000D01*
X68101898Y-90095226D01*
X68290256Y-90017205D01*
X68459774Y-89903937D01*
X68603937Y-89759774D01*
X68717205Y-89590256D01*
X68795226Y-89401898D01*
X68835000Y-89201939D01*
X68835000Y-88998061D01*
X68795226Y-88798102D01*
X68717205Y-88609744D01*
X68603937Y-88440226D01*
X68459774Y-88296063D01*
X68290256Y-88182795D01*
X68101898Y-88104774D01*
X67901939Y-88065000D01*
X67698061Y-88065000D01*
X67498102Y-88104774D01*
X67309744Y-88182795D01*
X67140226Y-88296063D01*
X66996063Y-88440226D01*
X66882795Y-88609744D01*
X66804774Y-88798102D01*
X66765000Y-88998061D01*
X30660000Y-88998061D01*
X30660000Y-85988212D01*
X39865000Y-85988212D01*
X39865000Y-86211788D01*
X39908617Y-86431067D01*
X39994176Y-86637624D01*
X40118388Y-86823520D01*
X40276480Y-86981612D01*
X40462376Y-87105824D01*
X40668933Y-87191383D01*
X40888212Y-87235000D01*
X41111788Y-87235000D01*
X41331067Y-87191383D01*
X41537624Y-87105824D01*
X41723520Y-86981612D01*
X41881612Y-86823520D01*
X42005824Y-86637624D01*
X42091383Y-86431067D01*
X42135000Y-86211788D01*
X42135000Y-85988212D01*
X42091383Y-85768933D01*
X42005824Y-85562376D01*
X41881612Y-85376480D01*
X41723520Y-85218388D01*
X41537624Y-85094176D01*
X41331067Y-85008617D01*
X41111788Y-84965000D01*
X40888212Y-84965000D01*
X40668933Y-85008617D01*
X40462376Y-85094176D01*
X40276480Y-85218388D01*
X40118388Y-85376480D01*
X39994176Y-85562376D01*
X39908617Y-85768933D01*
X39865000Y-85988212D01*
X30660000Y-85988212D01*
X30660000Y-84288212D01*
X36265000Y-84288212D01*
X36265000Y-84511788D01*
X36308617Y-84731067D01*
X36394176Y-84937624D01*
X36518388Y-85123520D01*
X36676480Y-85281612D01*
X36862376Y-85405824D01*
X37068933Y-85491383D01*
X37288212Y-85535000D01*
X37511788Y-85535000D01*
X37731067Y-85491383D01*
X37937624Y-85405824D01*
X38123520Y-85281612D01*
X38281612Y-85123520D01*
X38405824Y-84937624D01*
X38491383Y-84731067D01*
X38517839Y-84598061D01*
X62365000Y-84598061D01*
X62365000Y-84801939D01*
X62404774Y-85001898D01*
X62482795Y-85190256D01*
X62596063Y-85359774D01*
X62740226Y-85503937D01*
X62909744Y-85617205D01*
X63098102Y-85695226D01*
X63298061Y-85735000D01*
X63501939Y-85735000D01*
X63701898Y-85695226D01*
X63890256Y-85617205D01*
X64059774Y-85503937D01*
X64200000Y-85363711D01*
X64340226Y-85503937D01*
X64509744Y-85617205D01*
X64698102Y-85695226D01*
X64898061Y-85735000D01*
X65101939Y-85735000D01*
X65301898Y-85695226D01*
X65490256Y-85617205D01*
X65659774Y-85503937D01*
X65803937Y-85359774D01*
X65875000Y-85253420D01*
X65946063Y-85359774D01*
X66090226Y-85503937D01*
X66259744Y-85617205D01*
X66448102Y-85695226D01*
X66648061Y-85735000D01*
X66851939Y-85735000D01*
X67051898Y-85695226D01*
X67240256Y-85617205D01*
X67409774Y-85503937D01*
X67553937Y-85359774D01*
X67667205Y-85190256D01*
X67745226Y-85001898D01*
X67785000Y-84801939D01*
X67785000Y-84598061D01*
X67745226Y-84398102D01*
X67667205Y-84209744D01*
X67553937Y-84040226D01*
X67409774Y-83896063D01*
X67240256Y-83782795D01*
X67051898Y-83704774D01*
X66851939Y-83665000D01*
X66648061Y-83665000D01*
X66448102Y-83704774D01*
X66259744Y-83782795D01*
X66090226Y-83896063D01*
X65946063Y-84040226D01*
X65875000Y-84146580D01*
X65803937Y-84040226D01*
X65659774Y-83896063D01*
X65490256Y-83782795D01*
X65301898Y-83704774D01*
X65101939Y-83665000D01*
X64898061Y-83665000D01*
X64698102Y-83704774D01*
X64509744Y-83782795D01*
X64340226Y-83896063D01*
X64200000Y-84036289D01*
X64059774Y-83896063D01*
X63890256Y-83782795D01*
X63701898Y-83704774D01*
X63501939Y-83665000D01*
X63298061Y-83665000D01*
X63098102Y-83704774D01*
X62909744Y-83782795D01*
X62740226Y-83896063D01*
X62596063Y-84040226D01*
X62482795Y-84209744D01*
X62404774Y-84398102D01*
X62365000Y-84598061D01*
X38517839Y-84598061D01*
X38535000Y-84511788D01*
X38535000Y-84288212D01*
X38491383Y-84068933D01*
X38405824Y-83862376D01*
X38281612Y-83676480D01*
X38123520Y-83518388D01*
X37937624Y-83394176D01*
X37731067Y-83308617D01*
X37511788Y-83265000D01*
X37288212Y-83265000D01*
X37068933Y-83308617D01*
X36862376Y-83394176D01*
X36676480Y-83518388D01*
X36518388Y-83676480D01*
X36394176Y-83862376D01*
X36308617Y-84068933D01*
X36265000Y-84288212D01*
X30660000Y-84288212D01*
X30660000Y-82727000D01*
X37573000Y-82727000D01*
X37573000Y-83000000D01*
X37575440Y-83024776D01*
X37582667Y-83048601D01*
X37594403Y-83070557D01*
X37610197Y-83089803D01*
X37629443Y-83105597D01*
X37651399Y-83117333D01*
X37675224Y-83124560D01*
X37700000Y-83127000D01*
X45500000Y-83127000D01*
X45524776Y-83124560D01*
X45548601Y-83117333D01*
X45570557Y-83105597D01*
X45589803Y-83089803D01*
X45605597Y-83070557D01*
X45617333Y-83048601D01*
X45624560Y-83024776D01*
X45627000Y-83000000D01*
X45627000Y-82210920D01*
X45748061Y-82235000D01*
X45951939Y-82235000D01*
X46151898Y-82195226D01*
X46340256Y-82117205D01*
X46509774Y-82003937D01*
X46653937Y-81859774D01*
X46767205Y-81690256D01*
X46845226Y-81501898D01*
X46885000Y-81301939D01*
X46885000Y-81098061D01*
X46845226Y-80898102D01*
X46767205Y-80709744D01*
X46653937Y-80540226D01*
X46509774Y-80396063D01*
X46340256Y-80282795D01*
X46205556Y-80227000D01*
X48400000Y-80227000D01*
X48424776Y-80224560D01*
X48448601Y-80217333D01*
X48470557Y-80205597D01*
X48489803Y-80189803D01*
X48505597Y-80170557D01*
X48517333Y-80148601D01*
X48524560Y-80124776D01*
X48527000Y-80100000D01*
X48527000Y-79898061D01*
X70315000Y-79898061D01*
X70315000Y-80101939D01*
X70354774Y-80301898D01*
X70432795Y-80490256D01*
X70546063Y-80659774D01*
X70690226Y-80803937D01*
X70859744Y-80917205D01*
X71048102Y-80995226D01*
X71248061Y-81035000D01*
X71451939Y-81035000D01*
X71651898Y-80995226D01*
X71840256Y-80917205D01*
X72009774Y-80803937D01*
X72153937Y-80659774D01*
X72267205Y-80490256D01*
X72345226Y-80301898D01*
X72385000Y-80101939D01*
X72385000Y-79898061D01*
X72345226Y-79698102D01*
X72267205Y-79509744D01*
X72153937Y-79340226D01*
X72009774Y-79196063D01*
X71840256Y-79082795D01*
X71651898Y-79004774D01*
X71451939Y-78965000D01*
X71248061Y-78965000D01*
X71048102Y-79004774D01*
X70859744Y-79082795D01*
X70690226Y-79196063D01*
X70546063Y-79340226D01*
X70432795Y-79509744D01*
X70354774Y-79698102D01*
X70315000Y-79898061D01*
X48527000Y-79898061D01*
X48527000Y-78900000D01*
X48524560Y-78875224D01*
X48517333Y-78851399D01*
X48505597Y-78829443D01*
X48489803Y-78810197D01*
X48470557Y-78794403D01*
X48448601Y-78782667D01*
X48424776Y-78775440D01*
X48400000Y-78773000D01*
X45627000Y-78773000D01*
X45627000Y-78599645D01*
X45624560Y-78574869D01*
X45617333Y-78551044D01*
X45605597Y-78529088D01*
X45589803Y-78509842D01*
X45570557Y-78494048D01*
X45548601Y-78482312D01*
X45524776Y-78475085D01*
X45499975Y-78472645D01*
X45356345Y-78472673D01*
X45490256Y-78417205D01*
X45659774Y-78303937D01*
X45803937Y-78159774D01*
X45917205Y-77990256D01*
X45995226Y-77801898D01*
X46035000Y-77601939D01*
X46035000Y-77398061D01*
X45995226Y-77198102D01*
X45917205Y-77009744D01*
X45803937Y-76840226D01*
X45659774Y-76696063D01*
X45490256Y-76582795D01*
X45301898Y-76504774D01*
X45101939Y-76465000D01*
X44898061Y-76465000D01*
X44698102Y-76504774D01*
X44509744Y-76582795D01*
X44340226Y-76696063D01*
X44196063Y-76840226D01*
X44082795Y-77009744D01*
X44004774Y-77198102D01*
X43965000Y-77398061D01*
X43965000Y-77601939D01*
X44004774Y-77801898D01*
X44082795Y-77990256D01*
X44196063Y-78159774D01*
X44340226Y-78303937D01*
X44509744Y-78417205D01*
X44643995Y-78472814D01*
X43827000Y-78472975D01*
X43827000Y-75700000D01*
X43824560Y-75675224D01*
X43817333Y-75651399D01*
X43805597Y-75629443D01*
X43789803Y-75610197D01*
X43770557Y-75594403D01*
X43748601Y-75582667D01*
X43724776Y-75575440D01*
X43700000Y-75573000D01*
X37700000Y-75573000D01*
X37675224Y-75575440D01*
X37651399Y-75582667D01*
X37629443Y-75594403D01*
X37610197Y-75610197D01*
X37594403Y-75629443D01*
X37582667Y-75651399D01*
X37575440Y-75675224D01*
X37573000Y-75700000D01*
X37573000Y-82473000D01*
X30660000Y-82473000D01*
X30660000Y-74398061D01*
X70365000Y-74398061D01*
X70365000Y-74601939D01*
X70404774Y-74801898D01*
X70482795Y-74990256D01*
X70596063Y-75159774D01*
X70740226Y-75303937D01*
X70909744Y-75417205D01*
X71098102Y-75495226D01*
X71298061Y-75535000D01*
X71501939Y-75535000D01*
X71701898Y-75495226D01*
X71890256Y-75417205D01*
X72059774Y-75303937D01*
X72203937Y-75159774D01*
X72317205Y-74990256D01*
X72395226Y-74801898D01*
X72435000Y-74601939D01*
X72435000Y-74398061D01*
X72395226Y-74198102D01*
X72317205Y-74009744D01*
X72203937Y-73840226D01*
X72059774Y-73696063D01*
X71890256Y-73582795D01*
X71701898Y-73504774D01*
X71501939Y-73465000D01*
X71298061Y-73465000D01*
X71098102Y-73504774D01*
X70909744Y-73582795D01*
X70740226Y-73696063D01*
X70596063Y-73840226D01*
X70482795Y-74009744D01*
X70404774Y-74198102D01*
X70365000Y-74398061D01*
X30660000Y-74398061D01*
X30660000Y-69598061D01*
X44665000Y-69598061D01*
X44665000Y-69801939D01*
X44704774Y-70001898D01*
X44782795Y-70190256D01*
X44896063Y-70359774D01*
X45040226Y-70503937D01*
X45209744Y-70617205D01*
X45398102Y-70695226D01*
X45598061Y-70735000D01*
X45801939Y-70735000D01*
X46001898Y-70695226D01*
X46190256Y-70617205D01*
X46359774Y-70503937D01*
X46503937Y-70359774D01*
X46617205Y-70190256D01*
X46695226Y-70001898D01*
X46735000Y-69801939D01*
X46735000Y-69598061D01*
X46695226Y-69398102D01*
X46617205Y-69209744D01*
X46503937Y-69040226D01*
X46359774Y-68896063D01*
X46190256Y-68782795D01*
X46001898Y-68704774D01*
X45801939Y-68665000D01*
X45598061Y-68665000D01*
X45398102Y-68704774D01*
X45209744Y-68782795D01*
X45040226Y-68896063D01*
X44896063Y-69040226D01*
X44782795Y-69209744D01*
X44704774Y-69398102D01*
X44665000Y-69598061D01*
X30660000Y-69598061D01*
X30660000Y-64898061D01*
X47115000Y-64898061D01*
X47115000Y-65101939D01*
X47154774Y-65301898D01*
X47232795Y-65490256D01*
X47346063Y-65659774D01*
X47490226Y-65803937D01*
X47659744Y-65917205D01*
X47848102Y-65995226D01*
X48048061Y-66035000D01*
X48251939Y-66035000D01*
X48437645Y-65998061D01*
X68465000Y-65998061D01*
X68465000Y-66201939D01*
X68504774Y-66401898D01*
X68582795Y-66590256D01*
X68696063Y-66759774D01*
X68840226Y-66903937D01*
X69009744Y-67017205D01*
X69198102Y-67095226D01*
X69398061Y-67135000D01*
X69601939Y-67135000D01*
X69801898Y-67095226D01*
X69990256Y-67017205D01*
X70159774Y-66903937D01*
X70303937Y-66759774D01*
X70417205Y-66590256D01*
X70495226Y-66401898D01*
X70535000Y-66201939D01*
X70535000Y-65998061D01*
X70495226Y-65798102D01*
X70417205Y-65609744D01*
X70303937Y-65440226D01*
X70159774Y-65296063D01*
X69990256Y-65182795D01*
X69801898Y-65104774D01*
X69601939Y-65065000D01*
X69398061Y-65065000D01*
X69198102Y-65104774D01*
X69009744Y-65182795D01*
X68840226Y-65296063D01*
X68696063Y-65440226D01*
X68582795Y-65609744D01*
X68504774Y-65798102D01*
X68465000Y-65998061D01*
X48437645Y-65998061D01*
X48451898Y-65995226D01*
X48640256Y-65917205D01*
X48809774Y-65803937D01*
X48953937Y-65659774D01*
X49067205Y-65490256D01*
X49145226Y-65301898D01*
X49185000Y-65101939D01*
X49185000Y-64898061D01*
X49145226Y-64698102D01*
X49094141Y-64574773D01*
X49117205Y-64540256D01*
X49195226Y-64351898D01*
X49235000Y-64151939D01*
X49235000Y-63948061D01*
X49195226Y-63748102D01*
X49117205Y-63559744D01*
X49009173Y-63398061D01*
X54465000Y-63398061D01*
X54465000Y-63601939D01*
X54504774Y-63801898D01*
X54582795Y-63990256D01*
X54696063Y-64159774D01*
X54840226Y-64303937D01*
X55009744Y-64417205D01*
X55198102Y-64495226D01*
X55398061Y-64535000D01*
X55601939Y-64535000D01*
X55801898Y-64495226D01*
X55990256Y-64417205D01*
X56159774Y-64303937D01*
X56303937Y-64159774D01*
X56417205Y-63990256D01*
X56495226Y-63801898D01*
X56535000Y-63601939D01*
X56535000Y-63398061D01*
X56495226Y-63198102D01*
X56417205Y-63009744D01*
X56303937Y-62840226D01*
X56159774Y-62696063D01*
X55990256Y-62582795D01*
X55801898Y-62504774D01*
X55601939Y-62465000D01*
X55398061Y-62465000D01*
X55198102Y-62504774D01*
X55009744Y-62582795D01*
X54840226Y-62696063D01*
X54696063Y-62840226D01*
X54582795Y-63009744D01*
X54504774Y-63198102D01*
X54465000Y-63398061D01*
X49009173Y-63398061D01*
X49003937Y-63390226D01*
X48859774Y-63246063D01*
X48690256Y-63132795D01*
X48501898Y-63054774D01*
X48301939Y-63015000D01*
X48098061Y-63015000D01*
X47898102Y-63054774D01*
X47709744Y-63132795D01*
X47540226Y-63246063D01*
X47396063Y-63390226D01*
X47282795Y-63559744D01*
X47204774Y-63748102D01*
X47165000Y-63948061D01*
X47165000Y-64151939D01*
X47204774Y-64351898D01*
X47255859Y-64475227D01*
X47232795Y-64509744D01*
X47154774Y-64698102D01*
X47115000Y-64898061D01*
X30660000Y-64898061D01*
X30660000Y-61898061D01*
X58365000Y-61898061D01*
X58365000Y-62101939D01*
X58404774Y-62301898D01*
X58482795Y-62490256D01*
X58596063Y-62659774D01*
X58740226Y-62803937D01*
X58909744Y-62917205D01*
X59098102Y-62995226D01*
X59298061Y-63035000D01*
X59501939Y-63035000D01*
X59701898Y-62995226D01*
X59890256Y-62917205D01*
X60059774Y-62803937D01*
X60203937Y-62659774D01*
X60317205Y-62490256D01*
X60395226Y-62301898D01*
X60435000Y-62101939D01*
X60435000Y-61898061D01*
X60395226Y-61698102D01*
X60317205Y-61509744D01*
X60203937Y-61340226D01*
X60153432Y-61289721D01*
X92615000Y-61289721D01*
X92615000Y-61710279D01*
X92697047Y-62122756D01*
X92857988Y-62511302D01*
X93091637Y-62860983D01*
X93389017Y-63158363D01*
X93738698Y-63392012D01*
X94127244Y-63552953D01*
X94539721Y-63635000D01*
X94960279Y-63635000D01*
X95372756Y-63552953D01*
X95761302Y-63392012D01*
X96110983Y-63158363D01*
X96277693Y-62991653D01*
X101437952Y-62991653D01*
X101593962Y-63307214D01*
X101968745Y-63498020D01*
X102373551Y-63612044D01*
X102792824Y-63644902D01*
X103210451Y-63595334D01*
X103610383Y-63465243D01*
X103906038Y-63307214D01*
X104062048Y-62991653D01*
X102750000Y-61679605D01*
X101437952Y-62991653D01*
X96277693Y-62991653D01*
X96408363Y-62860983D01*
X96642012Y-62511302D01*
X96802953Y-62122756D01*
X96885000Y-61710279D01*
X96885000Y-61542824D01*
X100605098Y-61542824D01*
X100654666Y-61960451D01*
X100784757Y-62360383D01*
X100942786Y-62656038D01*
X101258347Y-62812048D01*
X102570395Y-61500000D01*
X102929605Y-61500000D01*
X104241653Y-62812048D01*
X104557214Y-62656038D01*
X104748020Y-62281255D01*
X104862044Y-61876449D01*
X104894902Y-61457176D01*
X104845334Y-61039549D01*
X104715243Y-60639617D01*
X104557214Y-60343962D01*
X104241653Y-60187952D01*
X102929605Y-61500000D01*
X102570395Y-61500000D01*
X101258347Y-60187952D01*
X100942786Y-60343962D01*
X100751980Y-60718745D01*
X100637956Y-61123551D01*
X100605098Y-61542824D01*
X96885000Y-61542824D01*
X96885000Y-61289721D01*
X96802953Y-60877244D01*
X96642012Y-60488698D01*
X96408363Y-60139017D01*
X96277693Y-60008347D01*
X101437952Y-60008347D01*
X102750000Y-61320395D01*
X104062048Y-60008347D01*
X103906038Y-59692786D01*
X103531255Y-59501980D01*
X103126449Y-59387956D01*
X102707176Y-59355098D01*
X102289549Y-59404666D01*
X101889617Y-59534757D01*
X101593962Y-59692786D01*
X101437952Y-60008347D01*
X96277693Y-60008347D01*
X96110983Y-59841637D01*
X95761302Y-59607988D01*
X95372756Y-59447047D01*
X94960279Y-59365000D01*
X94539721Y-59365000D01*
X94127244Y-59447047D01*
X93738698Y-59607988D01*
X93389017Y-59841637D01*
X93091637Y-60139017D01*
X92857988Y-60488698D01*
X92697047Y-60877244D01*
X92615000Y-61289721D01*
X60153432Y-61289721D01*
X60059774Y-61196063D01*
X59890256Y-61082795D01*
X59701898Y-61004774D01*
X59501939Y-60965000D01*
X59298061Y-60965000D01*
X59098102Y-61004774D01*
X58909744Y-61082795D01*
X58740226Y-61196063D01*
X58596063Y-61340226D01*
X58482795Y-61509744D01*
X58404774Y-61698102D01*
X58365000Y-61898061D01*
X30660000Y-61898061D01*
X30660000Y-41798061D01*
X65515000Y-41798061D01*
X65515000Y-42001939D01*
X65554774Y-42201898D01*
X65632795Y-42390256D01*
X65746063Y-42559774D01*
X65890226Y-42703937D01*
X66059744Y-42817205D01*
X66248102Y-42895226D01*
X66448061Y-42935000D01*
X66651939Y-42935000D01*
X66851898Y-42895226D01*
X67040256Y-42817205D01*
X67209774Y-42703937D01*
X67353937Y-42559774D01*
X67428278Y-42448514D01*
X70165000Y-42448514D01*
X70165000Y-42711486D01*
X70216304Y-42969405D01*
X70316939Y-43212359D01*
X70463038Y-43431013D01*
X70648987Y-43616962D01*
X70867641Y-43763061D01*
X71110595Y-43863696D01*
X71368514Y-43915000D01*
X71631486Y-43915000D01*
X71889405Y-43863696D01*
X72132359Y-43763061D01*
X72351013Y-43616962D01*
X72536962Y-43431013D01*
X72683061Y-43212359D01*
X72783696Y-42969405D01*
X72835000Y-42711486D01*
X72835000Y-42448514D01*
X72783696Y-42190595D01*
X72683061Y-41947641D01*
X72536962Y-41728987D01*
X72351013Y-41543038D01*
X72132359Y-41396939D01*
X71889405Y-41296304D01*
X71631486Y-41245000D01*
X71368514Y-41245000D01*
X71110595Y-41296304D01*
X70867641Y-41396939D01*
X70648987Y-41543038D01*
X70463038Y-41728987D01*
X70316939Y-41947641D01*
X70216304Y-42190595D01*
X70165000Y-42448514D01*
X67428278Y-42448514D01*
X67467205Y-42390256D01*
X67545226Y-42201898D01*
X67585000Y-42001939D01*
X67585000Y-41798061D01*
X67545226Y-41598102D01*
X67467205Y-41409744D01*
X67353937Y-41240226D01*
X67209774Y-41096063D01*
X67040256Y-40982795D01*
X66851898Y-40904774D01*
X66651939Y-40865000D01*
X66448061Y-40865000D01*
X66248102Y-40904774D01*
X66059744Y-40982795D01*
X65890226Y-41096063D01*
X65746063Y-41240226D01*
X65632795Y-41409744D01*
X65554774Y-41598102D01*
X65515000Y-41798061D01*
X30660000Y-41798061D01*
X30660000Y-40298061D01*
X62965000Y-40298061D01*
X62965000Y-40501939D01*
X63004774Y-40701898D01*
X63082795Y-40890256D01*
X63196063Y-41059774D01*
X63340226Y-41203937D01*
X63509744Y-41317205D01*
X63698102Y-41395226D01*
X63898061Y-41435000D01*
X64101939Y-41435000D01*
X64301898Y-41395226D01*
X64490256Y-41317205D01*
X64659774Y-41203937D01*
X64803937Y-41059774D01*
X64917205Y-40890256D01*
X64995226Y-40701898D01*
X65035000Y-40501939D01*
X65035000Y-40298061D01*
X64995226Y-40098102D01*
X64917205Y-39909744D01*
X64803937Y-39740226D01*
X64659774Y-39596063D01*
X64490256Y-39482795D01*
X64301898Y-39404774D01*
X64101939Y-39365000D01*
X63898061Y-39365000D01*
X63698102Y-39404774D01*
X63509744Y-39482795D01*
X63340226Y-39596063D01*
X63196063Y-39740226D01*
X63082795Y-39909744D01*
X63004774Y-40098102D01*
X62965000Y-40298061D01*
X30660000Y-40298061D01*
X30660000Y-38269580D01*
X31910025Y-38269580D01*
X32366197Y-38841185D01*
X33166183Y-39281207D01*
X34036641Y-39556704D01*
X34944121Y-39657091D01*
X35853748Y-39578508D01*
X36730566Y-39323975D01*
X37540879Y-38903275D01*
X37633803Y-38841185D01*
X38089975Y-38269580D01*
X35000000Y-35179605D01*
X31910025Y-38269580D01*
X30660000Y-38269580D01*
X30660000Y-36675363D01*
X30676025Y-36730566D01*
X31096725Y-37540879D01*
X31158815Y-37633803D01*
X31730420Y-38089975D01*
X34820395Y-35000000D01*
X35179605Y-35000000D01*
X38269580Y-38089975D01*
X38841185Y-37633803D01*
X38987103Y-37368514D01*
X70165000Y-37368514D01*
X70165000Y-37631486D01*
X70216304Y-37889405D01*
X70316939Y-38132359D01*
X70463038Y-38351013D01*
X70648987Y-38536962D01*
X70867641Y-38683061D01*
X71110595Y-38783696D01*
X71368514Y-38835000D01*
X71631486Y-38835000D01*
X71889405Y-38783696D01*
X72132359Y-38683061D01*
X72351013Y-38536962D01*
X72536962Y-38351013D01*
X72683061Y-38132359D01*
X72701347Y-38088212D01*
X90265000Y-38088212D01*
X90265000Y-38311788D01*
X90308617Y-38531067D01*
X90394176Y-38737624D01*
X90518388Y-38923520D01*
X90676480Y-39081612D01*
X90862376Y-39205824D01*
X91068933Y-39291383D01*
X91288212Y-39335000D01*
X91511788Y-39335000D01*
X91731067Y-39291383D01*
X91937624Y-39205824D01*
X92123520Y-39081612D01*
X92281612Y-38923520D01*
X92405824Y-38737624D01*
X92491383Y-38531067D01*
X92535000Y-38311788D01*
X92535000Y-38269580D01*
X98910025Y-38269580D01*
X99366197Y-38841185D01*
X100166183Y-39281207D01*
X101036641Y-39556704D01*
X101944121Y-39657091D01*
X102853748Y-39578508D01*
X103730566Y-39323975D01*
X104540879Y-38903275D01*
X104633803Y-38841185D01*
X105089975Y-38269580D01*
X102000000Y-35179605D01*
X98910025Y-38269580D01*
X92535000Y-38269580D01*
X92535000Y-38088212D01*
X92491383Y-37868933D01*
X92405824Y-37662376D01*
X92281612Y-37476480D01*
X92123520Y-37318388D01*
X91937624Y-37194176D01*
X91731067Y-37108617D01*
X91511788Y-37065000D01*
X91288212Y-37065000D01*
X91068933Y-37108617D01*
X90862376Y-37194176D01*
X90676480Y-37318388D01*
X90518388Y-37476480D01*
X90394176Y-37662376D01*
X90308617Y-37868933D01*
X90265000Y-38088212D01*
X72701347Y-38088212D01*
X72783696Y-37889405D01*
X72835000Y-37631486D01*
X72835000Y-37368514D01*
X72783696Y-37110595D01*
X72683061Y-36867641D01*
X72563172Y-36688212D01*
X86265000Y-36688212D01*
X86265000Y-36911788D01*
X86308617Y-37131067D01*
X86394176Y-37337624D01*
X86518388Y-37523520D01*
X86676480Y-37681612D01*
X86862376Y-37805824D01*
X87068933Y-37891383D01*
X87288212Y-37935000D01*
X87511788Y-37935000D01*
X87731067Y-37891383D01*
X87937624Y-37805824D01*
X88123520Y-37681612D01*
X88200000Y-37605132D01*
X88276480Y-37681612D01*
X88462376Y-37805824D01*
X88668933Y-37891383D01*
X88888212Y-37935000D01*
X89111788Y-37935000D01*
X89331067Y-37891383D01*
X89537624Y-37805824D01*
X89723520Y-37681612D01*
X89881612Y-37523520D01*
X90005824Y-37337624D01*
X90091383Y-37131067D01*
X90135000Y-36911788D01*
X90135000Y-36688212D01*
X90091383Y-36468933D01*
X90005824Y-36262376D01*
X89881612Y-36076480D01*
X89723520Y-35918388D01*
X89537624Y-35794176D01*
X89331067Y-35708617D01*
X89111788Y-35665000D01*
X88888212Y-35665000D01*
X88668933Y-35708617D01*
X88462376Y-35794176D01*
X88276480Y-35918388D01*
X88200000Y-35994868D01*
X88123520Y-35918388D01*
X87937624Y-35794176D01*
X87731067Y-35708617D01*
X87511788Y-35665000D01*
X87288212Y-35665000D01*
X87068933Y-35708617D01*
X86862376Y-35794176D01*
X86676480Y-35918388D01*
X86518388Y-36076480D01*
X86394176Y-36262376D01*
X86308617Y-36468933D01*
X86265000Y-36688212D01*
X72563172Y-36688212D01*
X72536962Y-36648987D01*
X72351013Y-36463038D01*
X72132359Y-36316939D01*
X71889405Y-36216304D01*
X71631486Y-36165000D01*
X71368514Y-36165000D01*
X71110595Y-36216304D01*
X70867641Y-36316939D01*
X70648987Y-36463038D01*
X70463038Y-36648987D01*
X70316939Y-36867641D01*
X70216304Y-37110595D01*
X70165000Y-37368514D01*
X38987103Y-37368514D01*
X39281207Y-36833817D01*
X39556704Y-35963359D01*
X39657091Y-35055879D01*
X39578832Y-34150000D01*
X47511928Y-34150000D01*
X47511928Y-35850000D01*
X47524188Y-35974482D01*
X47560498Y-36094180D01*
X47619463Y-36204494D01*
X47698815Y-36301185D01*
X47795506Y-36380537D01*
X47905820Y-36439502D01*
X48025518Y-36475812D01*
X48150000Y-36488072D01*
X49850000Y-36488072D01*
X49974482Y-36475812D01*
X50094180Y-36439502D01*
X50204494Y-36380537D01*
X50301185Y-36301185D01*
X50380537Y-36204494D01*
X50439502Y-36094180D01*
X50461513Y-36021620D01*
X50593368Y-36153475D01*
X50836589Y-36315990D01*
X51106842Y-36427932D01*
X51393740Y-36485000D01*
X51686260Y-36485000D01*
X51973158Y-36427932D01*
X52243411Y-36315990D01*
X52486632Y-36153475D01*
X52693475Y-35946632D01*
X52810000Y-35772240D01*
X52926525Y-35946632D01*
X53133368Y-36153475D01*
X53376589Y-36315990D01*
X53646842Y-36427932D01*
X53933740Y-36485000D01*
X54226260Y-36485000D01*
X54513158Y-36427932D01*
X54783411Y-36315990D01*
X55026632Y-36153475D01*
X55233475Y-35946632D01*
X55350000Y-35772240D01*
X55466525Y-35946632D01*
X55673368Y-36153475D01*
X55916589Y-36315990D01*
X56186842Y-36427932D01*
X56473740Y-36485000D01*
X56766260Y-36485000D01*
X57053158Y-36427932D01*
X57323411Y-36315990D01*
X57566632Y-36153475D01*
X57773475Y-35946632D01*
X57890000Y-35772240D01*
X58006525Y-35946632D01*
X58213368Y-36153475D01*
X58456589Y-36315990D01*
X58726842Y-36427932D01*
X59013740Y-36485000D01*
X59306260Y-36485000D01*
X59593158Y-36427932D01*
X59863411Y-36315990D01*
X60106632Y-36153475D01*
X60313475Y-35946632D01*
X60430000Y-35772240D01*
X60546525Y-35946632D01*
X60753368Y-36153475D01*
X60996589Y-36315990D01*
X61266842Y-36427932D01*
X61553740Y-36485000D01*
X61846260Y-36485000D01*
X62133158Y-36427932D01*
X62403411Y-36315990D01*
X62646632Y-36153475D01*
X62853475Y-35946632D01*
X62970000Y-35772240D01*
X63086525Y-35946632D01*
X63293368Y-36153475D01*
X63536589Y-36315990D01*
X63806842Y-36427932D01*
X64093740Y-36485000D01*
X64386260Y-36485000D01*
X64673158Y-36427932D01*
X64943411Y-36315990D01*
X65186632Y-36153475D01*
X65393475Y-35946632D01*
X65555990Y-35703411D01*
X65667932Y-35433158D01*
X65725000Y-35146260D01*
X65725000Y-34944121D01*
X97342909Y-34944121D01*
X97421492Y-35853748D01*
X97676025Y-36730566D01*
X98096725Y-37540879D01*
X98158815Y-37633803D01*
X98730420Y-38089975D01*
X101820395Y-35000000D01*
X98730420Y-31910025D01*
X98158815Y-32366197D01*
X97718793Y-33166183D01*
X97443296Y-34036641D01*
X97342909Y-34944121D01*
X65725000Y-34944121D01*
X65725000Y-34853740D01*
X65667932Y-34566842D01*
X65555990Y-34296589D01*
X65393475Y-34053368D01*
X65186632Y-33846525D01*
X65010594Y-33728900D01*
X65199211Y-33588212D01*
X86265000Y-33588212D01*
X86265000Y-33811788D01*
X86308617Y-34031067D01*
X86394176Y-34237624D01*
X86518388Y-34423520D01*
X86676480Y-34581612D01*
X86862376Y-34705824D01*
X87068933Y-34791383D01*
X87288212Y-34835000D01*
X87511788Y-34835000D01*
X87731067Y-34791383D01*
X87937624Y-34705824D01*
X88123520Y-34581612D01*
X88200000Y-34505132D01*
X88276480Y-34581612D01*
X88462376Y-34705824D01*
X88668933Y-34791383D01*
X88888212Y-34835000D01*
X89111788Y-34835000D01*
X89331067Y-34791383D01*
X89537624Y-34705824D01*
X89723520Y-34581612D01*
X89881612Y-34423520D01*
X90005824Y-34237624D01*
X90091383Y-34031067D01*
X90135000Y-33811788D01*
X90135000Y-33588212D01*
X90091383Y-33368933D01*
X90005824Y-33162376D01*
X89881612Y-32976480D01*
X89723520Y-32818388D01*
X89537624Y-32694176D01*
X89331067Y-32608617D01*
X89111788Y-32565000D01*
X88888212Y-32565000D01*
X88668933Y-32608617D01*
X88462376Y-32694176D01*
X88276480Y-32818388D01*
X88200000Y-32894868D01*
X88123520Y-32818388D01*
X87937624Y-32694176D01*
X87731067Y-32608617D01*
X87511788Y-32565000D01*
X87288212Y-32565000D01*
X87068933Y-32608617D01*
X86862376Y-32694176D01*
X86676480Y-32818388D01*
X86518388Y-32976480D01*
X86394176Y-33162376D01*
X86308617Y-33368933D01*
X86265000Y-33588212D01*
X65199211Y-33588212D01*
X65240269Y-33557588D01*
X65435178Y-33341355D01*
X65584157Y-33091252D01*
X65681481Y-32816891D01*
X65560814Y-32587000D01*
X64367000Y-32587000D01*
X64367000Y-32607000D01*
X64113000Y-32607000D01*
X64113000Y-32587000D01*
X64093000Y-32587000D01*
X64093000Y-32333000D01*
X64113000Y-32333000D01*
X64113000Y-31139845D01*
X64367000Y-31139845D01*
X64367000Y-32333000D01*
X65560814Y-32333000D01*
X65636811Y-32188212D01*
X90265000Y-32188212D01*
X90265000Y-32411788D01*
X90308617Y-32631067D01*
X90394176Y-32837624D01*
X90518388Y-33023520D01*
X90676480Y-33181612D01*
X90862376Y-33305824D01*
X91068933Y-33391383D01*
X91288212Y-33435000D01*
X91511788Y-33435000D01*
X91731067Y-33391383D01*
X91937624Y-33305824D01*
X92123520Y-33181612D01*
X92281612Y-33023520D01*
X92405824Y-32837624D01*
X92491383Y-32631067D01*
X92535000Y-32411788D01*
X92535000Y-32188212D01*
X92491383Y-31968933D01*
X92405824Y-31762376D01*
X92281612Y-31576480D01*
X92123520Y-31418388D01*
X91937624Y-31294176D01*
X91731067Y-31208617D01*
X91511788Y-31165000D01*
X91288212Y-31165000D01*
X91068933Y-31208617D01*
X90862376Y-31294176D01*
X90676480Y-31418388D01*
X90518388Y-31576480D01*
X90394176Y-31762376D01*
X90308617Y-31968933D01*
X90265000Y-32188212D01*
X65636811Y-32188212D01*
X65681481Y-32103109D01*
X65584157Y-31828748D01*
X65435178Y-31578645D01*
X65240269Y-31362412D01*
X65006920Y-31188359D01*
X64744099Y-31063175D01*
X64596890Y-31018524D01*
X64367000Y-31139845D01*
X64113000Y-31139845D01*
X63883110Y-31018524D01*
X63735901Y-31063175D01*
X63473080Y-31188359D01*
X63239731Y-31362412D01*
X63044822Y-31578645D01*
X62975195Y-31695534D01*
X62853475Y-31513368D01*
X62646632Y-31306525D01*
X62403411Y-31144010D01*
X62133158Y-31032068D01*
X61846260Y-30975000D01*
X61553740Y-30975000D01*
X61266842Y-31032068D01*
X60996589Y-31144010D01*
X60753368Y-31306525D01*
X60546525Y-31513368D01*
X60430000Y-31687760D01*
X60313475Y-31513368D01*
X60106632Y-31306525D01*
X59863411Y-31144010D01*
X59593158Y-31032068D01*
X59306260Y-30975000D01*
X59013740Y-30975000D01*
X58726842Y-31032068D01*
X58456589Y-31144010D01*
X58213368Y-31306525D01*
X58006525Y-31513368D01*
X57890000Y-31687760D01*
X57773475Y-31513368D01*
X57566632Y-31306525D01*
X57323411Y-31144010D01*
X57053158Y-31032068D01*
X56766260Y-30975000D01*
X56473740Y-30975000D01*
X56186842Y-31032068D01*
X55916589Y-31144010D01*
X55673368Y-31306525D01*
X55466525Y-31513368D01*
X55350000Y-31687760D01*
X55233475Y-31513368D01*
X55026632Y-31306525D01*
X54783411Y-31144010D01*
X54513158Y-31032068D01*
X54226260Y-30975000D01*
X53933740Y-30975000D01*
X53646842Y-31032068D01*
X53376589Y-31144010D01*
X53133368Y-31306525D01*
X52926525Y-31513368D01*
X52810000Y-31687760D01*
X52693475Y-31513368D01*
X52486632Y-31306525D01*
X52243411Y-31144010D01*
X51973158Y-31032068D01*
X51686260Y-30975000D01*
X51393740Y-30975000D01*
X51106842Y-31032068D01*
X50836589Y-31144010D01*
X50593368Y-31306525D01*
X50386525Y-31513368D01*
X50270000Y-31687760D01*
X50153475Y-31513368D01*
X49946632Y-31306525D01*
X49703411Y-31144010D01*
X49433158Y-31032068D01*
X49146260Y-30975000D01*
X48853740Y-30975000D01*
X48566842Y-31032068D01*
X48296589Y-31144010D01*
X48053368Y-31306525D01*
X47846525Y-31513368D01*
X47684010Y-31756589D01*
X47572068Y-32026842D01*
X47515000Y-32313740D01*
X47515000Y-32606260D01*
X47572068Y-32893158D01*
X47684010Y-33163411D01*
X47846525Y-33406632D01*
X47978380Y-33538487D01*
X47905820Y-33560498D01*
X47795506Y-33619463D01*
X47698815Y-33698815D01*
X47619463Y-33795506D01*
X47560498Y-33905820D01*
X47524188Y-34025518D01*
X47511928Y-34150000D01*
X39578832Y-34150000D01*
X39578508Y-34146252D01*
X39323975Y-33269434D01*
X38903275Y-32459121D01*
X38841185Y-32366197D01*
X38269580Y-31910025D01*
X35179605Y-35000000D01*
X34820395Y-35000000D01*
X31730420Y-31910025D01*
X31158815Y-32366197D01*
X30718793Y-33166183D01*
X30660000Y-33351945D01*
X30660000Y-30660000D01*
X33324637Y-30660000D01*
X33269434Y-30676025D01*
G37*
X33269434Y-30676025D02*
X32459121Y-31096725D01*
X32366197Y-31158815D01*
X31910025Y-31730420D01*
X35000000Y-34820395D01*
X38089975Y-31730420D01*
X37633803Y-31158815D01*
X36833817Y-30718793D01*
X36648055Y-30660000D01*
X100324637Y-30660000D01*
X100269434Y-30676025D01*
X99459121Y-31096725D01*
X99366197Y-31158815D01*
X98910025Y-31730420D01*
X102000000Y-34820395D01*
X105089975Y-31730420D01*
X104633803Y-31158815D01*
X103833817Y-30718793D01*
X103648055Y-30660000D01*
X106340000Y-30660000D01*
X106340000Y-33324637D01*
X106323975Y-33269434D01*
X105903275Y-32459121D01*
X105841185Y-32366197D01*
X105269580Y-31910025D01*
X102179605Y-35000000D01*
X105269580Y-38089975D01*
X105841185Y-37633803D01*
X106281207Y-36833817D01*
X106340000Y-36648055D01*
X106340001Y-94673000D01*
X87650000Y-94673000D01*
X87625224Y-94675440D01*
X87601399Y-94682667D01*
X87579443Y-94694403D01*
X87560197Y-94710197D01*
X87544403Y-94729443D01*
X87532667Y-94751399D01*
X87525440Y-94775224D01*
X87523000Y-94800000D01*
X87523000Y-120500000D01*
X87525440Y-120524776D01*
X87532667Y-120548601D01*
X87544403Y-120570557D01*
X87560197Y-120589803D01*
X87579443Y-120605597D01*
X87601399Y-120617333D01*
X87625224Y-120624560D01*
X87650000Y-120627000D01*
X100438316Y-120627000D01*
X100269434Y-120676025D01*
X99459121Y-121096725D01*
X99366197Y-121158815D01*
X98910025Y-121730420D01*
X102000000Y-124820395D01*
X105089975Y-121730420D01*
X104633803Y-121158815D01*
X103833817Y-120718793D01*
X103543789Y-120627000D01*
X106340001Y-120627000D01*
X106340001Y-123324640D01*
X106323975Y-123269434D01*
X105903275Y-122459121D01*
X105841185Y-122366197D01*
X105269580Y-121910025D01*
X102179605Y-125000000D01*
X105269580Y-128089975D01*
X105841185Y-127633803D01*
X106281207Y-126833817D01*
X106340001Y-126648052D01*
X106340001Y-129340000D01*
X103675363Y-129340000D01*
X103730566Y-129323975D01*
X104540879Y-128903275D01*
X104633803Y-128841185D01*
X105089975Y-128269580D01*
X102000000Y-125179605D01*
X98910025Y-128269580D01*
X99366197Y-128841185D01*
X100166183Y-129281207D01*
X100351945Y-129340000D01*
X36675363Y-129340000D01*
X36730566Y-129323975D01*
X37540879Y-128903275D01*
X37633803Y-128841185D01*
X38089975Y-128269580D01*
X35000000Y-125179605D01*
X31910025Y-128269580D01*
X32366197Y-128841185D01*
X33166183Y-129281207D01*
X33351945Y-129340000D01*
X30660000Y-129340000D01*
X30660000Y-126675363D01*
X30676025Y-126730566D01*
X31096725Y-127540879D01*
X31158815Y-127633803D01*
X31730420Y-128089975D01*
X34820395Y-125000000D01*
X35179605Y-125000000D01*
X38269580Y-128089975D01*
X38841185Y-127633803D01*
X39281207Y-126833817D01*
X39299173Y-126777050D01*
X46815000Y-126777050D01*
X46815000Y-127222949D01*
X46836487Y-127441110D01*
X46921401Y-127721033D01*
X47059294Y-127979013D01*
X47244866Y-128205134D01*
X47470986Y-128390706D01*
X47728966Y-128528599D01*
X48008889Y-128613513D01*
X48300000Y-128642185D01*
X48591110Y-128613513D01*
X48871033Y-128528599D01*
X49129013Y-128390706D01*
X49355134Y-128205134D01*
X49407223Y-128141663D01*
X49461595Y-128243386D01*
X49572038Y-128377962D01*
X49706614Y-128488405D01*
X49860150Y-128570472D01*
X50026746Y-128621008D01*
X50200000Y-128638072D01*
X51400000Y-128638072D01*
X51573254Y-128621008D01*
X51739850Y-128570472D01*
X51893386Y-128488405D01*
X52027962Y-128377962D01*
X52138405Y-128243386D01*
X52220472Y-128089850D01*
X52271008Y-127923254D01*
X52288072Y-127750000D01*
X52288072Y-126450000D01*
X55371928Y-126450000D01*
X55371928Y-128150000D01*
X55384188Y-128274482D01*
X55420498Y-128394180D01*
X55479463Y-128504494D01*
X55558815Y-128601185D01*
X55655506Y-128680537D01*
X55765820Y-128739502D01*
X55885518Y-128775812D01*
X56010000Y-128788072D01*
X57710000Y-128788072D01*
X57834482Y-128775812D01*
X57954180Y-128739502D01*
X58064494Y-128680537D01*
X58161185Y-128601185D01*
X58240537Y-128504494D01*
X58299502Y-128394180D01*
X58321513Y-128321620D01*
X58453368Y-128453475D01*
X58696589Y-128615990D01*
X58966842Y-128727932D01*
X59253740Y-128785000D01*
X59546260Y-128785000D01*
X59833158Y-128727932D01*
X60103411Y-128615990D01*
X60346632Y-128453475D01*
X60553475Y-128246632D01*
X60670000Y-128072240D01*
X60786525Y-128246632D01*
X60993368Y-128453475D01*
X61236589Y-128615990D01*
X61506842Y-128727932D01*
X61793740Y-128785000D01*
X62086260Y-128785000D01*
X62373158Y-128727932D01*
X62643411Y-128615990D01*
X62886632Y-128453475D01*
X63093475Y-128246632D01*
X63255990Y-128003411D01*
X63367932Y-127733158D01*
X63425000Y-127446260D01*
X63425000Y-127359742D01*
X66028715Y-127359742D01*
X66097904Y-127642745D01*
X66220975Y-127906812D01*
X66393198Y-128141795D01*
X66607954Y-128338664D01*
X66856991Y-128489854D01*
X67130739Y-128589554D01*
X67143110Y-128591476D01*
X67373000Y-128470155D01*
X67373000Y-127127000D01*
X66172768Y-127127000D01*
X66028715Y-127359742D01*
X63425000Y-127359742D01*
X63425000Y-127153740D01*
X63367932Y-126866842D01*
X63274079Y-126640258D01*
X66028715Y-126640258D01*
X66172768Y-126873000D01*
X67373000Y-126873000D01*
X67373000Y-125529845D01*
X67627000Y-125529845D01*
X67627000Y-126873000D01*
X67647000Y-126873000D01*
X67647000Y-127127000D01*
X67627000Y-127127000D01*
X67627000Y-128470155D01*
X67856890Y-128591476D01*
X67869261Y-128589554D01*
X68143009Y-128489854D01*
X68392046Y-128338664D01*
X68606802Y-128141795D01*
X68607086Y-128141407D01*
X68661595Y-128243386D01*
X68772038Y-128377962D01*
X68906614Y-128488405D01*
X69060150Y-128570472D01*
X69226746Y-128621008D01*
X69400000Y-128638072D01*
X70600000Y-128638072D01*
X70773254Y-128621008D01*
X70939850Y-128570472D01*
X71093386Y-128488405D01*
X71227962Y-128377962D01*
X71338405Y-128243386D01*
X71420472Y-128089850D01*
X71471008Y-127923254D01*
X71488072Y-127750000D01*
X71488072Y-126250000D01*
X71471008Y-126076746D01*
X71420472Y-125910150D01*
X71338405Y-125756614D01*
X71227962Y-125622038D01*
X71093386Y-125511595D01*
X70939850Y-125429528D01*
X70773254Y-125378992D01*
X70600000Y-125361928D01*
X69400000Y-125361928D01*
X69226746Y-125378992D01*
X69060150Y-125429528D01*
X68906614Y-125511595D01*
X68772038Y-125622038D01*
X68661595Y-125756614D01*
X68607086Y-125858593D01*
X68606802Y-125858205D01*
X68392046Y-125661336D01*
X68143009Y-125510146D01*
X67869261Y-125410446D01*
X67856890Y-125408524D01*
X67627000Y-125529845D01*
X67373000Y-125529845D01*
X67143110Y-125408524D01*
X67130739Y-125410446D01*
X66856991Y-125510146D01*
X66607954Y-125661336D01*
X66393198Y-125858205D01*
X66220975Y-126093188D01*
X66097904Y-126357255D01*
X66028715Y-126640258D01*
X63274079Y-126640258D01*
X63255990Y-126596589D01*
X63093475Y-126353368D01*
X62886632Y-126146525D01*
X62712240Y-126030000D01*
X62886632Y-125913475D01*
X63093475Y-125706632D01*
X63255990Y-125463411D01*
X63367932Y-125193158D01*
X63425000Y-124906260D01*
X63425000Y-124613740D01*
X63421882Y-124598061D01*
X74165000Y-124598061D01*
X74165000Y-124801939D01*
X74204774Y-125001898D01*
X74282795Y-125190256D01*
X74396063Y-125359774D01*
X74540226Y-125503937D01*
X74709744Y-125617205D01*
X74898102Y-125695226D01*
X75098061Y-125735000D01*
X75301939Y-125735000D01*
X75501898Y-125695226D01*
X75690256Y-125617205D01*
X75859774Y-125503937D01*
X76003937Y-125359774D01*
X76117205Y-125190256D01*
X76195226Y-125001898D01*
X76206718Y-124944121D01*
X97342909Y-124944121D01*
X97421492Y-125853748D01*
X97676025Y-126730566D01*
X98096725Y-127540879D01*
X98158815Y-127633803D01*
X98730420Y-128089975D01*
X101820395Y-125000000D01*
X98730420Y-121910025D01*
X98158815Y-122366197D01*
X97718793Y-123166183D01*
X97443296Y-124036641D01*
X97342909Y-124944121D01*
X76206718Y-124944121D01*
X76235000Y-124801939D01*
X76235000Y-124598061D01*
X76195226Y-124398102D01*
X76117205Y-124209744D01*
X76003937Y-124040226D01*
X75859774Y-123896063D01*
X75690256Y-123782795D01*
X75501898Y-123704774D01*
X75301939Y-123665000D01*
X75098061Y-123665000D01*
X74898102Y-123704774D01*
X74709744Y-123782795D01*
X74540226Y-123896063D01*
X74396063Y-124040226D01*
X74282795Y-124209744D01*
X74204774Y-124398102D01*
X74165000Y-124598061D01*
X63421882Y-124598061D01*
X63367932Y-124326842D01*
X63255990Y-124056589D01*
X63093475Y-123813368D01*
X62886632Y-123606525D01*
X62643411Y-123444010D01*
X62373158Y-123332068D01*
X62086260Y-123275000D01*
X61793740Y-123275000D01*
X61506842Y-123332068D01*
X61236589Y-123444010D01*
X60993368Y-123606525D01*
X60786525Y-123813368D01*
X60670000Y-123987760D01*
X60553475Y-123813368D01*
X60346632Y-123606525D01*
X60103411Y-123444010D01*
X59833158Y-123332068D01*
X59546260Y-123275000D01*
X59253740Y-123275000D01*
X58966842Y-123332068D01*
X58696589Y-123444010D01*
X58453368Y-123606525D01*
X58246525Y-123813368D01*
X58130000Y-123987760D01*
X58013475Y-123813368D01*
X57806632Y-123606525D01*
X57563411Y-123444010D01*
X57293158Y-123332068D01*
X57006260Y-123275000D01*
X56713740Y-123275000D01*
X56426842Y-123332068D01*
X56156589Y-123444010D01*
X55913368Y-123606525D01*
X55706525Y-123813368D01*
X55544010Y-124056589D01*
X55432068Y-124326842D01*
X55375000Y-124613740D01*
X55375000Y-124906260D01*
X55432068Y-125193158D01*
X55544010Y-125463411D01*
X55706525Y-125706632D01*
X55838380Y-125838487D01*
X55765820Y-125860498D01*
X55655506Y-125919463D01*
X55558815Y-125998815D01*
X55479463Y-126095506D01*
X55420498Y-126205820D01*
X55384188Y-126325518D01*
X55371928Y-126450000D01*
X52288072Y-126450000D01*
X52288072Y-126250000D01*
X52271008Y-126076746D01*
X52220472Y-125910150D01*
X52138405Y-125756614D01*
X52027962Y-125622038D01*
X51893386Y-125511595D01*
X51739850Y-125429528D01*
X51573254Y-125378992D01*
X51400000Y-125361928D01*
X50200000Y-125361928D01*
X50026746Y-125378992D01*
X49860150Y-125429528D01*
X49706614Y-125511595D01*
X49572038Y-125622038D01*
X49461595Y-125756614D01*
X49407223Y-125858337D01*
X49355134Y-125794866D01*
X49129014Y-125609294D01*
X48871034Y-125471401D01*
X48591111Y-125386487D01*
X48300000Y-125357815D01*
X48008890Y-125386487D01*
X47728967Y-125471401D01*
X47470987Y-125609294D01*
X47244866Y-125794866D01*
X47059294Y-126020986D01*
X46921401Y-126278966D01*
X46836487Y-126558889D01*
X46815000Y-126777050D01*
X39299173Y-126777050D01*
X39556704Y-125963359D01*
X39657091Y-125055879D01*
X39578508Y-124146252D01*
X39323975Y-123269434D01*
X38903275Y-122459121D01*
X38841185Y-122366197D01*
X38269580Y-121910025D01*
X35179605Y-125000000D01*
X34820395Y-125000000D01*
X31730420Y-121910025D01*
X31158815Y-122366197D01*
X30718793Y-123166183D01*
X30660000Y-123351945D01*
X30660000Y-121730420D01*
X31910025Y-121730420D01*
X35000000Y-124820395D01*
X38089975Y-121730420D01*
X37633803Y-121158815D01*
X36833817Y-120718793D01*
X35963359Y-120443296D01*
X35055879Y-120342909D01*
X34146252Y-120421492D01*
X33269434Y-120676025D01*
X32459121Y-121096725D01*
X32366197Y-121158815D01*
X31910025Y-121730420D01*
X30660000Y-121730420D01*
X30660000Y-114398061D01*
X79315000Y-114398061D01*
X79315000Y-114601939D01*
X79354774Y-114801898D01*
X79432795Y-114990256D01*
X79546063Y-115159774D01*
X79690226Y-115303937D01*
X79859744Y-115417205D01*
X80048102Y-115495226D01*
X80248061Y-115535000D01*
X80451939Y-115535000D01*
X80651898Y-115495226D01*
X80840256Y-115417205D01*
X81009774Y-115303937D01*
X81153937Y-115159774D01*
X81267205Y-114990256D01*
X81345226Y-114801898D01*
X81385000Y-114601939D01*
X81385000Y-114398061D01*
X81345226Y-114198102D01*
X81267205Y-114009744D01*
X81153937Y-113840226D01*
X81009774Y-113696063D01*
X80840256Y-113582795D01*
X80651898Y-113504774D01*
X80451939Y-113465000D01*
X80248061Y-113465000D01*
X80048102Y-113504774D01*
X79859744Y-113582795D01*
X79690226Y-113696063D01*
X79546063Y-113840226D01*
X79432795Y-114009744D01*
X79354774Y-114198102D01*
X79315000Y-114398061D01*
X30660000Y-114398061D01*
X30660000Y-109798061D01*
X76765000Y-109798061D01*
X76765000Y-110001939D01*
X76804774Y-110201898D01*
X76882795Y-110390256D01*
X76996063Y-110559774D01*
X77140226Y-110703937D01*
X77309744Y-110817205D01*
X77498102Y-110895226D01*
X77698061Y-110935000D01*
X77901939Y-110935000D01*
X78101898Y-110895226D01*
X78290256Y-110817205D01*
X78459774Y-110703937D01*
X78603937Y-110559774D01*
X78717205Y-110390256D01*
X78795226Y-110201898D01*
X78835000Y-110001939D01*
X78835000Y-109798061D01*
X78795226Y-109598102D01*
X78717205Y-109409744D01*
X78603937Y-109240226D01*
X78459774Y-109096063D01*
X78290256Y-108982795D01*
X78101898Y-108904774D01*
X77901939Y-108865000D01*
X77698061Y-108865000D01*
X77498102Y-108904774D01*
X77309744Y-108982795D01*
X77140226Y-109096063D01*
X76996063Y-109240226D01*
X76882795Y-109409744D01*
X76804774Y-109598102D01*
X76765000Y-109798061D01*
X30660000Y-109798061D01*
X30660000Y-105898061D01*
X75465000Y-105898061D01*
X75465000Y-106101939D01*
X75504774Y-106301898D01*
X75582795Y-106490256D01*
X75696063Y-106659774D01*
X75840226Y-106803937D01*
X76009744Y-106917205D01*
X76198102Y-106995226D01*
X76398061Y-107035000D01*
X76601939Y-107035000D01*
X76801898Y-106995226D01*
X76990256Y-106917205D01*
X77159774Y-106803937D01*
X77303937Y-106659774D01*
X77417205Y-106490256D01*
X77495226Y-106301898D01*
X77535000Y-106101939D01*
X77535000Y-105898061D01*
X77495226Y-105698102D01*
X77417205Y-105509744D01*
X77303937Y-105340226D01*
X77159774Y-105196063D01*
X76990256Y-105082795D01*
X76801898Y-105004774D01*
X76601939Y-104965000D01*
X76398061Y-104965000D01*
X76198102Y-105004774D01*
X76009744Y-105082795D01*
X75840226Y-105196063D01*
X75696063Y-105340226D01*
X75582795Y-105509744D01*
X75504774Y-105698102D01*
X75465000Y-105898061D01*
X30660000Y-105898061D01*
X30660000Y-90198061D01*
X49465000Y-90198061D01*
X49465000Y-90401939D01*
X49504774Y-90601898D01*
X49582795Y-90790256D01*
X49696063Y-90959774D01*
X49840226Y-91103937D01*
X50009744Y-91217205D01*
X50198102Y-91295226D01*
X50398061Y-91335000D01*
X50601939Y-91335000D01*
X50801898Y-91295226D01*
X50990256Y-91217205D01*
X51159774Y-91103937D01*
X51303937Y-90959774D01*
X51417205Y-90790256D01*
X51495226Y-90601898D01*
X51535000Y-90401939D01*
X51535000Y-90298061D01*
X55965000Y-90298061D01*
X55965000Y-90501939D01*
X56004774Y-90701898D01*
X56082795Y-90890256D01*
X56196063Y-91059774D01*
X56340226Y-91203937D01*
X56509744Y-91317205D01*
X56698102Y-91395226D01*
X56898061Y-91435000D01*
X57101939Y-91435000D01*
X57301898Y-91395226D01*
X57490256Y-91317205D01*
X57659774Y-91203937D01*
X57803937Y-91059774D01*
X57917205Y-90890256D01*
X57995226Y-90701898D01*
X58035000Y-90501939D01*
X58035000Y-90298061D01*
X58025055Y-90248061D01*
X61065000Y-90248061D01*
X61065000Y-90451939D01*
X61104774Y-90651898D01*
X61182795Y-90840256D01*
X61296063Y-91009774D01*
X61440226Y-91153937D01*
X61609744Y-91267205D01*
X61798102Y-91345226D01*
X61998061Y-91385000D01*
X62201939Y-91385000D01*
X62401898Y-91345226D01*
X62590256Y-91267205D01*
X62759774Y-91153937D01*
X62903937Y-91009774D01*
X63017205Y-90840256D01*
X63095226Y-90651898D01*
X63135000Y-90451939D01*
X63135000Y-90248061D01*
X63095226Y-90048102D01*
X63017205Y-89859744D01*
X62903937Y-89690226D01*
X62759774Y-89546063D01*
X62590256Y-89432795D01*
X62401898Y-89354774D01*
X62201939Y-89315000D01*
X61998061Y-89315000D01*
X61798102Y-89354774D01*
X61609744Y-89432795D01*
X61440226Y-89546063D01*
X61296063Y-89690226D01*
X61182795Y-89859744D01*
X61104774Y-90048102D01*
X61065000Y-90248061D01*
X58025055Y-90248061D01*
X57995226Y-90098102D01*
X57917205Y-89909744D01*
X57803937Y-89740226D01*
X57659774Y-89596063D01*
X57490256Y-89482795D01*
X57301898Y-89404774D01*
X57101939Y-89365000D01*
X56898061Y-89365000D01*
X56698102Y-89404774D01*
X56509744Y-89482795D01*
X56340226Y-89596063D01*
X56196063Y-89740226D01*
X56082795Y-89909744D01*
X56004774Y-90098102D01*
X55965000Y-90298061D01*
X51535000Y-90298061D01*
X51535000Y-90198061D01*
X51495226Y-89998102D01*
X51417205Y-89809744D01*
X51303937Y-89640226D01*
X51159774Y-89496063D01*
X50990256Y-89382795D01*
X50801898Y-89304774D01*
X50601939Y-89265000D01*
X50398061Y-89265000D01*
X50198102Y-89304774D01*
X50009744Y-89382795D01*
X49840226Y-89496063D01*
X49696063Y-89640226D01*
X49582795Y-89809744D01*
X49504774Y-89998102D01*
X49465000Y-90198061D01*
X30660000Y-90198061D01*
X30660000Y-88998061D01*
X66765000Y-88998061D01*
X66765000Y-89201939D01*
X66804774Y-89401898D01*
X66882795Y-89590256D01*
X66996063Y-89759774D01*
X67140226Y-89903937D01*
X67309744Y-90017205D01*
X67498102Y-90095226D01*
X67698061Y-90135000D01*
X67901939Y-90135000D01*
X68101898Y-90095226D01*
X68290256Y-90017205D01*
X68459774Y-89903937D01*
X68603937Y-89759774D01*
X68717205Y-89590256D01*
X68795226Y-89401898D01*
X68835000Y-89201939D01*
X68835000Y-88998061D01*
X68795226Y-88798102D01*
X68717205Y-88609744D01*
X68603937Y-88440226D01*
X68459774Y-88296063D01*
X68290256Y-88182795D01*
X68101898Y-88104774D01*
X67901939Y-88065000D01*
X67698061Y-88065000D01*
X67498102Y-88104774D01*
X67309744Y-88182795D01*
X67140226Y-88296063D01*
X66996063Y-88440226D01*
X66882795Y-88609744D01*
X66804774Y-88798102D01*
X66765000Y-88998061D01*
X30660000Y-88998061D01*
X30660000Y-85988212D01*
X39865000Y-85988212D01*
X39865000Y-86211788D01*
X39908617Y-86431067D01*
X39994176Y-86637624D01*
X40118388Y-86823520D01*
X40276480Y-86981612D01*
X40462376Y-87105824D01*
X40668933Y-87191383D01*
X40888212Y-87235000D01*
X41111788Y-87235000D01*
X41331067Y-87191383D01*
X41537624Y-87105824D01*
X41723520Y-86981612D01*
X41881612Y-86823520D01*
X42005824Y-86637624D01*
X42091383Y-86431067D01*
X42135000Y-86211788D01*
X42135000Y-85988212D01*
X42091383Y-85768933D01*
X42005824Y-85562376D01*
X41881612Y-85376480D01*
X41723520Y-85218388D01*
X41537624Y-85094176D01*
X41331067Y-85008617D01*
X41111788Y-84965000D01*
X40888212Y-84965000D01*
X40668933Y-85008617D01*
X40462376Y-85094176D01*
X40276480Y-85218388D01*
X40118388Y-85376480D01*
X39994176Y-85562376D01*
X39908617Y-85768933D01*
X39865000Y-85988212D01*
X30660000Y-85988212D01*
X30660000Y-84288212D01*
X36265000Y-84288212D01*
X36265000Y-84511788D01*
X36308617Y-84731067D01*
X36394176Y-84937624D01*
X36518388Y-85123520D01*
X36676480Y-85281612D01*
X36862376Y-85405824D01*
X37068933Y-85491383D01*
X37288212Y-85535000D01*
X37511788Y-85535000D01*
X37731067Y-85491383D01*
X37937624Y-85405824D01*
X38123520Y-85281612D01*
X38281612Y-85123520D01*
X38405824Y-84937624D01*
X38491383Y-84731067D01*
X38517839Y-84598061D01*
X62365000Y-84598061D01*
X62365000Y-84801939D01*
X62404774Y-85001898D01*
X62482795Y-85190256D01*
X62596063Y-85359774D01*
X62740226Y-85503937D01*
X62909744Y-85617205D01*
X63098102Y-85695226D01*
X63298061Y-85735000D01*
X63501939Y-85735000D01*
X63701898Y-85695226D01*
X63890256Y-85617205D01*
X64059774Y-85503937D01*
X64200000Y-85363711D01*
X64340226Y-85503937D01*
X64509744Y-85617205D01*
X64698102Y-85695226D01*
X64898061Y-85735000D01*
X65101939Y-85735000D01*
X65301898Y-85695226D01*
X65490256Y-85617205D01*
X65659774Y-85503937D01*
X65803937Y-85359774D01*
X65875000Y-85253420D01*
X65946063Y-85359774D01*
X66090226Y-85503937D01*
X66259744Y-85617205D01*
X66448102Y-85695226D01*
X66648061Y-85735000D01*
X66851939Y-85735000D01*
X67051898Y-85695226D01*
X67240256Y-85617205D01*
X67409774Y-85503937D01*
X67553937Y-85359774D01*
X67667205Y-85190256D01*
X67745226Y-85001898D01*
X67785000Y-84801939D01*
X67785000Y-84598061D01*
X67745226Y-84398102D01*
X67667205Y-84209744D01*
X67553937Y-84040226D01*
X67409774Y-83896063D01*
X67240256Y-83782795D01*
X67051898Y-83704774D01*
X66851939Y-83665000D01*
X66648061Y-83665000D01*
X66448102Y-83704774D01*
X66259744Y-83782795D01*
X66090226Y-83896063D01*
X65946063Y-84040226D01*
X65875000Y-84146580D01*
X65803937Y-84040226D01*
X65659774Y-83896063D01*
X65490256Y-83782795D01*
X65301898Y-83704774D01*
X65101939Y-83665000D01*
X64898061Y-83665000D01*
X64698102Y-83704774D01*
X64509744Y-83782795D01*
X64340226Y-83896063D01*
X64200000Y-84036289D01*
X64059774Y-83896063D01*
X63890256Y-83782795D01*
X63701898Y-83704774D01*
X63501939Y-83665000D01*
X63298061Y-83665000D01*
X63098102Y-83704774D01*
X62909744Y-83782795D01*
X62740226Y-83896063D01*
X62596063Y-84040226D01*
X62482795Y-84209744D01*
X62404774Y-84398102D01*
X62365000Y-84598061D01*
X38517839Y-84598061D01*
X38535000Y-84511788D01*
X38535000Y-84288212D01*
X38491383Y-84068933D01*
X38405824Y-83862376D01*
X38281612Y-83676480D01*
X38123520Y-83518388D01*
X37937624Y-83394176D01*
X37731067Y-83308617D01*
X37511788Y-83265000D01*
X37288212Y-83265000D01*
X37068933Y-83308617D01*
X36862376Y-83394176D01*
X36676480Y-83518388D01*
X36518388Y-83676480D01*
X36394176Y-83862376D01*
X36308617Y-84068933D01*
X36265000Y-84288212D01*
X30660000Y-84288212D01*
X30660000Y-82727000D01*
X37573000Y-82727000D01*
X37573000Y-83000000D01*
X37575440Y-83024776D01*
X37582667Y-83048601D01*
X37594403Y-83070557D01*
X37610197Y-83089803D01*
X37629443Y-83105597D01*
X37651399Y-83117333D01*
X37675224Y-83124560D01*
X37700000Y-83127000D01*
X45500000Y-83127000D01*
X45524776Y-83124560D01*
X45548601Y-83117333D01*
X45570557Y-83105597D01*
X45589803Y-83089803D01*
X45605597Y-83070557D01*
X45617333Y-83048601D01*
X45624560Y-83024776D01*
X45627000Y-83000000D01*
X45627000Y-82210920D01*
X45748061Y-82235000D01*
X45951939Y-82235000D01*
X46151898Y-82195226D01*
X46340256Y-82117205D01*
X46509774Y-82003937D01*
X46653937Y-81859774D01*
X46767205Y-81690256D01*
X46845226Y-81501898D01*
X46885000Y-81301939D01*
X46885000Y-81098061D01*
X46845226Y-80898102D01*
X46767205Y-80709744D01*
X46653937Y-80540226D01*
X46509774Y-80396063D01*
X46340256Y-80282795D01*
X46205556Y-80227000D01*
X48400000Y-80227000D01*
X48424776Y-80224560D01*
X48448601Y-80217333D01*
X48470557Y-80205597D01*
X48489803Y-80189803D01*
X48505597Y-80170557D01*
X48517333Y-80148601D01*
X48524560Y-80124776D01*
X48527000Y-80100000D01*
X48527000Y-79898061D01*
X70315000Y-79898061D01*
X70315000Y-80101939D01*
X70354774Y-80301898D01*
X70432795Y-80490256D01*
X70546063Y-80659774D01*
X70690226Y-80803937D01*
X70859744Y-80917205D01*
X71048102Y-80995226D01*
X71248061Y-81035000D01*
X71451939Y-81035000D01*
X71651898Y-80995226D01*
X71840256Y-80917205D01*
X72009774Y-80803937D01*
X72153937Y-80659774D01*
X72267205Y-80490256D01*
X72345226Y-80301898D01*
X72385000Y-80101939D01*
X72385000Y-79898061D01*
X72345226Y-79698102D01*
X72267205Y-79509744D01*
X72153937Y-79340226D01*
X72009774Y-79196063D01*
X71840256Y-79082795D01*
X71651898Y-79004774D01*
X71451939Y-78965000D01*
X71248061Y-78965000D01*
X71048102Y-79004774D01*
X70859744Y-79082795D01*
X70690226Y-79196063D01*
X70546063Y-79340226D01*
X70432795Y-79509744D01*
X70354774Y-79698102D01*
X70315000Y-79898061D01*
X48527000Y-79898061D01*
X48527000Y-78900000D01*
X48524560Y-78875224D01*
X48517333Y-78851399D01*
X48505597Y-78829443D01*
X48489803Y-78810197D01*
X48470557Y-78794403D01*
X48448601Y-78782667D01*
X48424776Y-78775440D01*
X48400000Y-78773000D01*
X45627000Y-78773000D01*
X45627000Y-78599645D01*
X45624560Y-78574869D01*
X45617333Y-78551044D01*
X45605597Y-78529088D01*
X45589803Y-78509842D01*
X45570557Y-78494048D01*
X45548601Y-78482312D01*
X45524776Y-78475085D01*
X45499975Y-78472645D01*
X45356345Y-78472673D01*
X45490256Y-78417205D01*
X45659774Y-78303937D01*
X45803937Y-78159774D01*
X45917205Y-77990256D01*
X45995226Y-77801898D01*
X46035000Y-77601939D01*
X46035000Y-77398061D01*
X45995226Y-77198102D01*
X45917205Y-77009744D01*
X45803937Y-76840226D01*
X45659774Y-76696063D01*
X45490256Y-76582795D01*
X45301898Y-76504774D01*
X45101939Y-76465000D01*
X44898061Y-76465000D01*
X44698102Y-76504774D01*
X44509744Y-76582795D01*
X44340226Y-76696063D01*
X44196063Y-76840226D01*
X44082795Y-77009744D01*
X44004774Y-77198102D01*
X43965000Y-77398061D01*
X43965000Y-77601939D01*
X44004774Y-77801898D01*
X44082795Y-77990256D01*
X44196063Y-78159774D01*
X44340226Y-78303937D01*
X44509744Y-78417205D01*
X44643995Y-78472814D01*
X43827000Y-78472975D01*
X43827000Y-75700000D01*
X43824560Y-75675224D01*
X43817333Y-75651399D01*
X43805597Y-75629443D01*
X43789803Y-75610197D01*
X43770557Y-75594403D01*
X43748601Y-75582667D01*
X43724776Y-75575440D01*
X43700000Y-75573000D01*
X37700000Y-75573000D01*
X37675224Y-75575440D01*
X37651399Y-75582667D01*
X37629443Y-75594403D01*
X37610197Y-75610197D01*
X37594403Y-75629443D01*
X37582667Y-75651399D01*
X37575440Y-75675224D01*
X37573000Y-75700000D01*
X37573000Y-82473000D01*
X30660000Y-82473000D01*
X30660000Y-74398061D01*
X70365000Y-74398061D01*
X70365000Y-74601939D01*
X70404774Y-74801898D01*
X70482795Y-74990256D01*
X70596063Y-75159774D01*
X70740226Y-75303937D01*
X70909744Y-75417205D01*
X71098102Y-75495226D01*
X71298061Y-75535000D01*
X71501939Y-75535000D01*
X71701898Y-75495226D01*
X71890256Y-75417205D01*
X72059774Y-75303937D01*
X72203937Y-75159774D01*
X72317205Y-74990256D01*
X72395226Y-74801898D01*
X72435000Y-74601939D01*
X72435000Y-74398061D01*
X72395226Y-74198102D01*
X72317205Y-74009744D01*
X72203937Y-73840226D01*
X72059774Y-73696063D01*
X71890256Y-73582795D01*
X71701898Y-73504774D01*
X71501939Y-73465000D01*
X71298061Y-73465000D01*
X71098102Y-73504774D01*
X70909744Y-73582795D01*
X70740226Y-73696063D01*
X70596063Y-73840226D01*
X70482795Y-74009744D01*
X70404774Y-74198102D01*
X70365000Y-74398061D01*
X30660000Y-74398061D01*
X30660000Y-69598061D01*
X44665000Y-69598061D01*
X44665000Y-69801939D01*
X44704774Y-70001898D01*
X44782795Y-70190256D01*
X44896063Y-70359774D01*
X45040226Y-70503937D01*
X45209744Y-70617205D01*
X45398102Y-70695226D01*
X45598061Y-70735000D01*
X45801939Y-70735000D01*
X46001898Y-70695226D01*
X46190256Y-70617205D01*
X46359774Y-70503937D01*
X46503937Y-70359774D01*
X46617205Y-70190256D01*
X46695226Y-70001898D01*
X46735000Y-69801939D01*
X46735000Y-69598061D01*
X46695226Y-69398102D01*
X46617205Y-69209744D01*
X46503937Y-69040226D01*
X46359774Y-68896063D01*
X46190256Y-68782795D01*
X46001898Y-68704774D01*
X45801939Y-68665000D01*
X45598061Y-68665000D01*
X45398102Y-68704774D01*
X45209744Y-68782795D01*
X45040226Y-68896063D01*
X44896063Y-69040226D01*
X44782795Y-69209744D01*
X44704774Y-69398102D01*
X44665000Y-69598061D01*
X30660000Y-69598061D01*
X30660000Y-64898061D01*
X47115000Y-64898061D01*
X47115000Y-65101939D01*
X47154774Y-65301898D01*
X47232795Y-65490256D01*
X47346063Y-65659774D01*
X47490226Y-65803937D01*
X47659744Y-65917205D01*
X47848102Y-65995226D01*
X48048061Y-66035000D01*
X48251939Y-66035000D01*
X48437645Y-65998061D01*
X68465000Y-65998061D01*
X68465000Y-66201939D01*
X68504774Y-66401898D01*
X68582795Y-66590256D01*
X68696063Y-66759774D01*
X68840226Y-66903937D01*
X69009744Y-67017205D01*
X69198102Y-67095226D01*
X69398061Y-67135000D01*
X69601939Y-67135000D01*
X69801898Y-67095226D01*
X69990256Y-67017205D01*
X70159774Y-66903937D01*
X70303937Y-66759774D01*
X70417205Y-66590256D01*
X70495226Y-66401898D01*
X70535000Y-66201939D01*
X70535000Y-65998061D01*
X70495226Y-65798102D01*
X70417205Y-65609744D01*
X70303937Y-65440226D01*
X70159774Y-65296063D01*
X69990256Y-65182795D01*
X69801898Y-65104774D01*
X69601939Y-65065000D01*
X69398061Y-65065000D01*
X69198102Y-65104774D01*
X69009744Y-65182795D01*
X68840226Y-65296063D01*
X68696063Y-65440226D01*
X68582795Y-65609744D01*
X68504774Y-65798102D01*
X68465000Y-65998061D01*
X48437645Y-65998061D01*
X48451898Y-65995226D01*
X48640256Y-65917205D01*
X48809774Y-65803937D01*
X48953937Y-65659774D01*
X49067205Y-65490256D01*
X49145226Y-65301898D01*
X49185000Y-65101939D01*
X49185000Y-64898061D01*
X49145226Y-64698102D01*
X49094141Y-64574773D01*
X49117205Y-64540256D01*
X49195226Y-64351898D01*
X49235000Y-64151939D01*
X49235000Y-63948061D01*
X49195226Y-63748102D01*
X49117205Y-63559744D01*
X49009173Y-63398061D01*
X54465000Y-63398061D01*
X54465000Y-63601939D01*
X54504774Y-63801898D01*
X54582795Y-63990256D01*
X54696063Y-64159774D01*
X54840226Y-64303937D01*
X55009744Y-64417205D01*
X55198102Y-64495226D01*
X55398061Y-64535000D01*
X55601939Y-64535000D01*
X55801898Y-64495226D01*
X55990256Y-64417205D01*
X56159774Y-64303937D01*
X56303937Y-64159774D01*
X56417205Y-63990256D01*
X56495226Y-63801898D01*
X56535000Y-63601939D01*
X56535000Y-63398061D01*
X56495226Y-63198102D01*
X56417205Y-63009744D01*
X56303937Y-62840226D01*
X56159774Y-62696063D01*
X55990256Y-62582795D01*
X55801898Y-62504774D01*
X55601939Y-62465000D01*
X55398061Y-62465000D01*
X55198102Y-62504774D01*
X55009744Y-62582795D01*
X54840226Y-62696063D01*
X54696063Y-62840226D01*
X54582795Y-63009744D01*
X54504774Y-63198102D01*
X54465000Y-63398061D01*
X49009173Y-63398061D01*
X49003937Y-63390226D01*
X48859774Y-63246063D01*
X48690256Y-63132795D01*
X48501898Y-63054774D01*
X48301939Y-63015000D01*
X48098061Y-63015000D01*
X47898102Y-63054774D01*
X47709744Y-63132795D01*
X47540226Y-63246063D01*
X47396063Y-63390226D01*
X47282795Y-63559744D01*
X47204774Y-63748102D01*
X47165000Y-63948061D01*
X47165000Y-64151939D01*
X47204774Y-64351898D01*
X47255859Y-64475227D01*
X47232795Y-64509744D01*
X47154774Y-64698102D01*
X47115000Y-64898061D01*
X30660000Y-64898061D01*
X30660000Y-61898061D01*
X58365000Y-61898061D01*
X58365000Y-62101939D01*
X58404774Y-62301898D01*
X58482795Y-62490256D01*
X58596063Y-62659774D01*
X58740226Y-62803937D01*
X58909744Y-62917205D01*
X59098102Y-62995226D01*
X59298061Y-63035000D01*
X59501939Y-63035000D01*
X59701898Y-62995226D01*
X59890256Y-62917205D01*
X60059774Y-62803937D01*
X60203937Y-62659774D01*
X60317205Y-62490256D01*
X60395226Y-62301898D01*
X60435000Y-62101939D01*
X60435000Y-61898061D01*
X60395226Y-61698102D01*
X60317205Y-61509744D01*
X60203937Y-61340226D01*
X60153432Y-61289721D01*
X92615000Y-61289721D01*
X92615000Y-61710279D01*
X92697047Y-62122756D01*
X92857988Y-62511302D01*
X93091637Y-62860983D01*
X93389017Y-63158363D01*
X93738698Y-63392012D01*
X94127244Y-63552953D01*
X94539721Y-63635000D01*
X94960279Y-63635000D01*
X95372756Y-63552953D01*
X95761302Y-63392012D01*
X96110983Y-63158363D01*
X96277693Y-62991653D01*
X101437952Y-62991653D01*
X101593962Y-63307214D01*
X101968745Y-63498020D01*
X102373551Y-63612044D01*
X102792824Y-63644902D01*
X103210451Y-63595334D01*
X103610383Y-63465243D01*
X103906038Y-63307214D01*
X104062048Y-62991653D01*
X102750000Y-61679605D01*
X101437952Y-62991653D01*
X96277693Y-62991653D01*
X96408363Y-62860983D01*
X96642012Y-62511302D01*
X96802953Y-62122756D01*
X96885000Y-61710279D01*
X96885000Y-61542824D01*
X100605098Y-61542824D01*
X100654666Y-61960451D01*
X100784757Y-62360383D01*
X100942786Y-62656038D01*
X101258347Y-62812048D01*
X102570395Y-61500000D01*
X102929605Y-61500000D01*
X104241653Y-62812048D01*
X104557214Y-62656038D01*
X104748020Y-62281255D01*
X104862044Y-61876449D01*
X104894902Y-61457176D01*
X104845334Y-61039549D01*
X104715243Y-60639617D01*
X104557214Y-60343962D01*
X104241653Y-60187952D01*
X102929605Y-61500000D01*
X102570395Y-61500000D01*
X101258347Y-60187952D01*
X100942786Y-60343962D01*
X100751980Y-60718745D01*
X100637956Y-61123551D01*
X100605098Y-61542824D01*
X96885000Y-61542824D01*
X96885000Y-61289721D01*
X96802953Y-60877244D01*
X96642012Y-60488698D01*
X96408363Y-60139017D01*
X96277693Y-60008347D01*
X101437952Y-60008347D01*
X102750000Y-61320395D01*
X104062048Y-60008347D01*
X103906038Y-59692786D01*
X103531255Y-59501980D01*
X103126449Y-59387956D01*
X102707176Y-59355098D01*
X102289549Y-59404666D01*
X101889617Y-59534757D01*
X101593962Y-59692786D01*
X101437952Y-60008347D01*
X96277693Y-60008347D01*
X96110983Y-59841637D01*
X95761302Y-59607988D01*
X95372756Y-59447047D01*
X94960279Y-59365000D01*
X94539721Y-59365000D01*
X94127244Y-59447047D01*
X93738698Y-59607988D01*
X93389017Y-59841637D01*
X93091637Y-60139017D01*
X92857988Y-60488698D01*
X92697047Y-60877244D01*
X92615000Y-61289721D01*
X60153432Y-61289721D01*
X60059774Y-61196063D01*
X59890256Y-61082795D01*
X59701898Y-61004774D01*
X59501939Y-60965000D01*
X59298061Y-60965000D01*
X59098102Y-61004774D01*
X58909744Y-61082795D01*
X58740226Y-61196063D01*
X58596063Y-61340226D01*
X58482795Y-61509744D01*
X58404774Y-61698102D01*
X58365000Y-61898061D01*
X30660000Y-61898061D01*
X30660000Y-41798061D01*
X65515000Y-41798061D01*
X65515000Y-42001939D01*
X65554774Y-42201898D01*
X65632795Y-42390256D01*
X65746063Y-42559774D01*
X65890226Y-42703937D01*
X66059744Y-42817205D01*
X66248102Y-42895226D01*
X66448061Y-42935000D01*
X66651939Y-42935000D01*
X66851898Y-42895226D01*
X67040256Y-42817205D01*
X67209774Y-42703937D01*
X67353937Y-42559774D01*
X67428278Y-42448514D01*
X70165000Y-42448514D01*
X70165000Y-42711486D01*
X70216304Y-42969405D01*
X70316939Y-43212359D01*
X70463038Y-43431013D01*
X70648987Y-43616962D01*
X70867641Y-43763061D01*
X71110595Y-43863696D01*
X71368514Y-43915000D01*
X71631486Y-43915000D01*
X71889405Y-43863696D01*
X72132359Y-43763061D01*
X72351013Y-43616962D01*
X72536962Y-43431013D01*
X72683061Y-43212359D01*
X72783696Y-42969405D01*
X72835000Y-42711486D01*
X72835000Y-42448514D01*
X72783696Y-42190595D01*
X72683061Y-41947641D01*
X72536962Y-41728987D01*
X72351013Y-41543038D01*
X72132359Y-41396939D01*
X71889405Y-41296304D01*
X71631486Y-41245000D01*
X71368514Y-41245000D01*
X71110595Y-41296304D01*
X70867641Y-41396939D01*
X70648987Y-41543038D01*
X70463038Y-41728987D01*
X70316939Y-41947641D01*
X70216304Y-42190595D01*
X70165000Y-42448514D01*
X67428278Y-42448514D01*
X67467205Y-42390256D01*
X67545226Y-42201898D01*
X67585000Y-42001939D01*
X67585000Y-41798061D01*
X67545226Y-41598102D01*
X67467205Y-41409744D01*
X67353937Y-41240226D01*
X67209774Y-41096063D01*
X67040256Y-40982795D01*
X66851898Y-40904774D01*
X66651939Y-40865000D01*
X66448061Y-40865000D01*
X66248102Y-40904774D01*
X66059744Y-40982795D01*
X65890226Y-41096063D01*
X65746063Y-41240226D01*
X65632795Y-41409744D01*
X65554774Y-41598102D01*
X65515000Y-41798061D01*
X30660000Y-41798061D01*
X30660000Y-40298061D01*
X62965000Y-40298061D01*
X62965000Y-40501939D01*
X63004774Y-40701898D01*
X63082795Y-40890256D01*
X63196063Y-41059774D01*
X63340226Y-41203937D01*
X63509744Y-41317205D01*
X63698102Y-41395226D01*
X63898061Y-41435000D01*
X64101939Y-41435000D01*
X64301898Y-41395226D01*
X64490256Y-41317205D01*
X64659774Y-41203937D01*
X64803937Y-41059774D01*
X64917205Y-40890256D01*
X64995226Y-40701898D01*
X65035000Y-40501939D01*
X65035000Y-40298061D01*
X64995226Y-40098102D01*
X64917205Y-39909744D01*
X64803937Y-39740226D01*
X64659774Y-39596063D01*
X64490256Y-39482795D01*
X64301898Y-39404774D01*
X64101939Y-39365000D01*
X63898061Y-39365000D01*
X63698102Y-39404774D01*
X63509744Y-39482795D01*
X63340226Y-39596063D01*
X63196063Y-39740226D01*
X63082795Y-39909744D01*
X63004774Y-40098102D01*
X62965000Y-40298061D01*
X30660000Y-40298061D01*
X30660000Y-38269580D01*
X31910025Y-38269580D01*
X32366197Y-38841185D01*
X33166183Y-39281207D01*
X34036641Y-39556704D01*
X34944121Y-39657091D01*
X35853748Y-39578508D01*
X36730566Y-39323975D01*
X37540879Y-38903275D01*
X37633803Y-38841185D01*
X38089975Y-38269580D01*
X35000000Y-35179605D01*
X31910025Y-38269580D01*
X30660000Y-38269580D01*
X30660000Y-36675363D01*
X30676025Y-36730566D01*
X31096725Y-37540879D01*
X31158815Y-37633803D01*
X31730420Y-38089975D01*
X34820395Y-35000000D01*
X35179605Y-35000000D01*
X38269580Y-38089975D01*
X38841185Y-37633803D01*
X38987103Y-37368514D01*
X70165000Y-37368514D01*
X70165000Y-37631486D01*
X70216304Y-37889405D01*
X70316939Y-38132359D01*
X70463038Y-38351013D01*
X70648987Y-38536962D01*
X70867641Y-38683061D01*
X71110595Y-38783696D01*
X71368514Y-38835000D01*
X71631486Y-38835000D01*
X71889405Y-38783696D01*
X72132359Y-38683061D01*
X72351013Y-38536962D01*
X72536962Y-38351013D01*
X72683061Y-38132359D01*
X72701347Y-38088212D01*
X90265000Y-38088212D01*
X90265000Y-38311788D01*
X90308617Y-38531067D01*
X90394176Y-38737624D01*
X90518388Y-38923520D01*
X90676480Y-39081612D01*
X90862376Y-39205824D01*
X91068933Y-39291383D01*
X91288212Y-39335000D01*
X91511788Y-39335000D01*
X91731067Y-39291383D01*
X91937624Y-39205824D01*
X92123520Y-39081612D01*
X92281612Y-38923520D01*
X92405824Y-38737624D01*
X92491383Y-38531067D01*
X92535000Y-38311788D01*
X92535000Y-38269580D01*
X98910025Y-38269580D01*
X99366197Y-38841185D01*
X100166183Y-39281207D01*
X101036641Y-39556704D01*
X101944121Y-39657091D01*
X102853748Y-39578508D01*
X103730566Y-39323975D01*
X104540879Y-38903275D01*
X104633803Y-38841185D01*
X105089975Y-38269580D01*
X102000000Y-35179605D01*
X98910025Y-38269580D01*
X92535000Y-38269580D01*
X92535000Y-38088212D01*
X92491383Y-37868933D01*
X92405824Y-37662376D01*
X92281612Y-37476480D01*
X92123520Y-37318388D01*
X91937624Y-37194176D01*
X91731067Y-37108617D01*
X91511788Y-37065000D01*
X91288212Y-37065000D01*
X91068933Y-37108617D01*
X90862376Y-37194176D01*
X90676480Y-37318388D01*
X90518388Y-37476480D01*
X90394176Y-37662376D01*
X90308617Y-37868933D01*
X90265000Y-38088212D01*
X72701347Y-38088212D01*
X72783696Y-37889405D01*
X72835000Y-37631486D01*
X72835000Y-37368514D01*
X72783696Y-37110595D01*
X72683061Y-36867641D01*
X72563172Y-36688212D01*
X86265000Y-36688212D01*
X86265000Y-36911788D01*
X86308617Y-37131067D01*
X86394176Y-37337624D01*
X86518388Y-37523520D01*
X86676480Y-37681612D01*
X86862376Y-37805824D01*
X87068933Y-37891383D01*
X87288212Y-37935000D01*
X87511788Y-37935000D01*
X87731067Y-37891383D01*
X87937624Y-37805824D01*
X88123520Y-37681612D01*
X88200000Y-37605132D01*
X88276480Y-37681612D01*
X88462376Y-37805824D01*
X88668933Y-37891383D01*
X88888212Y-37935000D01*
X89111788Y-37935000D01*
X89331067Y-37891383D01*
X89537624Y-37805824D01*
X89723520Y-37681612D01*
X89881612Y-37523520D01*
X90005824Y-37337624D01*
X90091383Y-37131067D01*
X90135000Y-36911788D01*
X90135000Y-36688212D01*
X90091383Y-36468933D01*
X90005824Y-36262376D01*
X89881612Y-36076480D01*
X89723520Y-35918388D01*
X89537624Y-35794176D01*
X89331067Y-35708617D01*
X89111788Y-35665000D01*
X88888212Y-35665000D01*
X88668933Y-35708617D01*
X88462376Y-35794176D01*
X88276480Y-35918388D01*
X88200000Y-35994868D01*
X88123520Y-35918388D01*
X87937624Y-35794176D01*
X87731067Y-35708617D01*
X87511788Y-35665000D01*
X87288212Y-35665000D01*
X87068933Y-35708617D01*
X86862376Y-35794176D01*
X86676480Y-35918388D01*
X86518388Y-36076480D01*
X86394176Y-36262376D01*
X86308617Y-36468933D01*
X86265000Y-36688212D01*
X72563172Y-36688212D01*
X72536962Y-36648987D01*
X72351013Y-36463038D01*
X72132359Y-36316939D01*
X71889405Y-36216304D01*
X71631486Y-36165000D01*
X71368514Y-36165000D01*
X71110595Y-36216304D01*
X70867641Y-36316939D01*
X70648987Y-36463038D01*
X70463038Y-36648987D01*
X70316939Y-36867641D01*
X70216304Y-37110595D01*
X70165000Y-37368514D01*
X38987103Y-37368514D01*
X39281207Y-36833817D01*
X39556704Y-35963359D01*
X39657091Y-35055879D01*
X39578832Y-34150000D01*
X47511928Y-34150000D01*
X47511928Y-35850000D01*
X47524188Y-35974482D01*
X47560498Y-36094180D01*
X47619463Y-36204494D01*
X47698815Y-36301185D01*
X47795506Y-36380537D01*
X47905820Y-36439502D01*
X48025518Y-36475812D01*
X48150000Y-36488072D01*
X49850000Y-36488072D01*
X49974482Y-36475812D01*
X50094180Y-36439502D01*
X50204494Y-36380537D01*
X50301185Y-36301185D01*
X50380537Y-36204494D01*
X50439502Y-36094180D01*
X50461513Y-36021620D01*
X50593368Y-36153475D01*
X50836589Y-36315990D01*
X51106842Y-36427932D01*
X51393740Y-36485000D01*
X51686260Y-36485000D01*
X51973158Y-36427932D01*
X52243411Y-36315990D01*
X52486632Y-36153475D01*
X52693475Y-35946632D01*
X52810000Y-35772240D01*
X52926525Y-35946632D01*
X53133368Y-36153475D01*
X53376589Y-36315990D01*
X53646842Y-36427932D01*
X53933740Y-36485000D01*
X54226260Y-36485000D01*
X54513158Y-36427932D01*
X54783411Y-36315990D01*
X55026632Y-36153475D01*
X55233475Y-35946632D01*
X55350000Y-35772240D01*
X55466525Y-35946632D01*
X55673368Y-36153475D01*
X55916589Y-36315990D01*
X56186842Y-36427932D01*
X56473740Y-36485000D01*
X56766260Y-36485000D01*
X57053158Y-36427932D01*
X57323411Y-36315990D01*
X57566632Y-36153475D01*
X57773475Y-35946632D01*
X57890000Y-35772240D01*
X58006525Y-35946632D01*
X58213368Y-36153475D01*
X58456589Y-36315990D01*
X58726842Y-36427932D01*
X59013740Y-36485000D01*
X59306260Y-36485000D01*
X59593158Y-36427932D01*
X59863411Y-36315990D01*
X60106632Y-36153475D01*
X60313475Y-35946632D01*
X60430000Y-35772240D01*
X60546525Y-35946632D01*
X60753368Y-36153475D01*
X60996589Y-36315990D01*
X61266842Y-36427932D01*
X61553740Y-36485000D01*
X61846260Y-36485000D01*
X62133158Y-36427932D01*
X62403411Y-36315990D01*
X62646632Y-36153475D01*
X62853475Y-35946632D01*
X62970000Y-35772240D01*
X63086525Y-35946632D01*
X63293368Y-36153475D01*
X63536589Y-36315990D01*
X63806842Y-36427932D01*
X64093740Y-36485000D01*
X64386260Y-36485000D01*
X64673158Y-36427932D01*
X64943411Y-36315990D01*
X65186632Y-36153475D01*
X65393475Y-35946632D01*
X65555990Y-35703411D01*
X65667932Y-35433158D01*
X65725000Y-35146260D01*
X65725000Y-34944121D01*
X97342909Y-34944121D01*
X97421492Y-35853748D01*
X97676025Y-36730566D01*
X98096725Y-37540879D01*
X98158815Y-37633803D01*
X98730420Y-38089975D01*
X101820395Y-35000000D01*
X98730420Y-31910025D01*
X98158815Y-32366197D01*
X97718793Y-33166183D01*
X97443296Y-34036641D01*
X97342909Y-34944121D01*
X65725000Y-34944121D01*
X65725000Y-34853740D01*
X65667932Y-34566842D01*
X65555990Y-34296589D01*
X65393475Y-34053368D01*
X65186632Y-33846525D01*
X65010594Y-33728900D01*
X65199211Y-33588212D01*
X86265000Y-33588212D01*
X86265000Y-33811788D01*
X86308617Y-34031067D01*
X86394176Y-34237624D01*
X86518388Y-34423520D01*
X86676480Y-34581612D01*
X86862376Y-34705824D01*
X87068933Y-34791383D01*
X87288212Y-34835000D01*
X87511788Y-34835000D01*
X87731067Y-34791383D01*
X87937624Y-34705824D01*
X88123520Y-34581612D01*
X88200000Y-34505132D01*
X88276480Y-34581612D01*
X88462376Y-34705824D01*
X88668933Y-34791383D01*
X88888212Y-34835000D01*
X89111788Y-34835000D01*
X89331067Y-34791383D01*
X89537624Y-34705824D01*
X89723520Y-34581612D01*
X89881612Y-34423520D01*
X90005824Y-34237624D01*
X90091383Y-34031067D01*
X90135000Y-33811788D01*
X90135000Y-33588212D01*
X90091383Y-33368933D01*
X90005824Y-33162376D01*
X89881612Y-32976480D01*
X89723520Y-32818388D01*
X89537624Y-32694176D01*
X89331067Y-32608617D01*
X89111788Y-32565000D01*
X88888212Y-32565000D01*
X88668933Y-32608617D01*
X88462376Y-32694176D01*
X88276480Y-32818388D01*
X88200000Y-32894868D01*
X88123520Y-32818388D01*
X87937624Y-32694176D01*
X87731067Y-32608617D01*
X87511788Y-32565000D01*
X87288212Y-32565000D01*
X87068933Y-32608617D01*
X86862376Y-32694176D01*
X86676480Y-32818388D01*
X86518388Y-32976480D01*
X86394176Y-33162376D01*
X86308617Y-33368933D01*
X86265000Y-33588212D01*
X65199211Y-33588212D01*
X65240269Y-33557588D01*
X65435178Y-33341355D01*
X65584157Y-33091252D01*
X65681481Y-32816891D01*
X65560814Y-32587000D01*
X64367000Y-32587000D01*
X64367000Y-32607000D01*
X64113000Y-32607000D01*
X64113000Y-32587000D01*
X64093000Y-32587000D01*
X64093000Y-32333000D01*
X64113000Y-32333000D01*
X64113000Y-31139845D01*
X64367000Y-31139845D01*
X64367000Y-32333000D01*
X65560814Y-32333000D01*
X65636811Y-32188212D01*
X90265000Y-32188212D01*
X90265000Y-32411788D01*
X90308617Y-32631067D01*
X90394176Y-32837624D01*
X90518388Y-33023520D01*
X90676480Y-33181612D01*
X90862376Y-33305824D01*
X91068933Y-33391383D01*
X91288212Y-33435000D01*
X91511788Y-33435000D01*
X91731067Y-33391383D01*
X91937624Y-33305824D01*
X92123520Y-33181612D01*
X92281612Y-33023520D01*
X92405824Y-32837624D01*
X92491383Y-32631067D01*
X92535000Y-32411788D01*
X92535000Y-32188212D01*
X92491383Y-31968933D01*
X92405824Y-31762376D01*
X92281612Y-31576480D01*
X92123520Y-31418388D01*
X91937624Y-31294176D01*
X91731067Y-31208617D01*
X91511788Y-31165000D01*
X91288212Y-31165000D01*
X91068933Y-31208617D01*
X90862376Y-31294176D01*
X90676480Y-31418388D01*
X90518388Y-31576480D01*
X90394176Y-31762376D01*
X90308617Y-31968933D01*
X90265000Y-32188212D01*
X65636811Y-32188212D01*
X65681481Y-32103109D01*
X65584157Y-31828748D01*
X65435178Y-31578645D01*
X65240269Y-31362412D01*
X65006920Y-31188359D01*
X64744099Y-31063175D01*
X64596890Y-31018524D01*
X64367000Y-31139845D01*
X64113000Y-31139845D01*
X63883110Y-31018524D01*
X63735901Y-31063175D01*
X63473080Y-31188359D01*
X63239731Y-31362412D01*
X63044822Y-31578645D01*
X62975195Y-31695534D01*
X62853475Y-31513368D01*
X62646632Y-31306525D01*
X62403411Y-31144010D01*
X62133158Y-31032068D01*
X61846260Y-30975000D01*
X61553740Y-30975000D01*
X61266842Y-31032068D01*
X60996589Y-31144010D01*
X60753368Y-31306525D01*
X60546525Y-31513368D01*
X60430000Y-31687760D01*
X60313475Y-31513368D01*
X60106632Y-31306525D01*
X59863411Y-31144010D01*
X59593158Y-31032068D01*
X59306260Y-30975000D01*
X59013740Y-30975000D01*
X58726842Y-31032068D01*
X58456589Y-31144010D01*
X58213368Y-31306525D01*
X58006525Y-31513368D01*
X57890000Y-31687760D01*
X57773475Y-31513368D01*
X57566632Y-31306525D01*
X57323411Y-31144010D01*
X57053158Y-31032068D01*
X56766260Y-30975000D01*
X56473740Y-30975000D01*
X56186842Y-31032068D01*
X55916589Y-31144010D01*
X55673368Y-31306525D01*
X55466525Y-31513368D01*
X55350000Y-31687760D01*
X55233475Y-31513368D01*
X55026632Y-31306525D01*
X54783411Y-31144010D01*
X54513158Y-31032068D01*
X54226260Y-30975000D01*
X53933740Y-30975000D01*
X53646842Y-31032068D01*
X53376589Y-31144010D01*
X53133368Y-31306525D01*
X52926525Y-31513368D01*
X52810000Y-31687760D01*
X52693475Y-31513368D01*
X52486632Y-31306525D01*
X52243411Y-31144010D01*
X51973158Y-31032068D01*
X51686260Y-30975000D01*
X51393740Y-30975000D01*
X51106842Y-31032068D01*
X50836589Y-31144010D01*
X50593368Y-31306525D01*
X50386525Y-31513368D01*
X50270000Y-31687760D01*
X50153475Y-31513368D01*
X49946632Y-31306525D01*
X49703411Y-31144010D01*
X49433158Y-31032068D01*
X49146260Y-30975000D01*
X48853740Y-30975000D01*
X48566842Y-31032068D01*
X48296589Y-31144010D01*
X48053368Y-31306525D01*
X47846525Y-31513368D01*
X47684010Y-31756589D01*
X47572068Y-32026842D01*
X47515000Y-32313740D01*
X47515000Y-32606260D01*
X47572068Y-32893158D01*
X47684010Y-33163411D01*
X47846525Y-33406632D01*
X47978380Y-33538487D01*
X47905820Y-33560498D01*
X47795506Y-33619463D01*
X47698815Y-33698815D01*
X47619463Y-33795506D01*
X47560498Y-33905820D01*
X47524188Y-34025518D01*
X47511928Y-34150000D01*
X39578832Y-34150000D01*
X39578508Y-34146252D01*
X39323975Y-33269434D01*
X38903275Y-32459121D01*
X38841185Y-32366197D01*
X38269580Y-31910025D01*
X35179605Y-35000000D01*
X34820395Y-35000000D01*
X31730420Y-31910025D01*
X31158815Y-32366197D01*
X30718793Y-33166183D01*
X30660000Y-33351945D01*
X30660000Y-30660000D01*
X33324637Y-30660000D01*
X33269434Y-30676025D01*
G36*
X42973000Y-79000000D02*
G01*
X42975440Y-79024776D01*
X42982667Y-79048601D01*
X42994403Y-79070557D01*
X43010197Y-79089803D01*
X43029443Y-79105597D01*
X43051399Y-79117333D01*
X43075224Y-79124560D01*
X43100000Y-79127000D01*
X44976115Y-79127000D01*
X44982667Y-79148601D01*
X44994403Y-79170557D01*
X45010197Y-79189803D01*
X45029443Y-79205597D01*
X45051399Y-79217333D01*
X45075224Y-79224560D01*
X45100000Y-79227000D01*
X47973000Y-79227000D01*
X47973000Y-79773000D01*
X44900000Y-79773000D01*
X44875224Y-79775440D01*
X44851399Y-79782667D01*
X44829443Y-79794403D01*
X44810197Y-79810197D01*
X44794403Y-79829443D01*
X44782667Y-79851399D01*
X44775440Y-79875224D01*
X44773000Y-79900000D01*
X44773000Y-82473000D01*
X38227000Y-82473000D01*
X38227000Y-76227000D01*
X42973000Y-76227000D01*
X42973000Y-79000000D01*
G37*
X42973000Y-79000000D02*
X42975440Y-79024776D01*
X42982667Y-79048601D01*
X42994403Y-79070557D01*
X43010197Y-79089803D01*
X43029443Y-79105597D01*
X43051399Y-79117333D01*
X43075224Y-79124560D01*
X43100000Y-79127000D01*
X44976115Y-79127000D01*
X44982667Y-79148601D01*
X44994403Y-79170557D01*
X45010197Y-79189803D01*
X45029443Y-79205597D01*
X45051399Y-79217333D01*
X45075224Y-79224560D01*
X45100000Y-79227000D01*
X47973000Y-79227000D01*
X47973000Y-79773000D01*
X44900000Y-79773000D01*
X44875224Y-79775440D01*
X44851399Y-79782667D01*
X44829443Y-79794403D01*
X44810197Y-79810197D01*
X44794403Y-79829443D01*
X44782667Y-79851399D01*
X44775440Y-79875224D01*
X44773000Y-79900000D01*
X44773000Y-82473000D01*
X38227000Y-82473000D01*
X38227000Y-76227000D01*
X42973000Y-76227000D01*
X42973000Y-79000000D01*
M02*
