G04 #@! TF.GenerationSoftware,KiCad,Pcbnew,(5.1.6)-1*
G04 #@! TF.CreationDate,2020-05-29T02:21:24-04:00*
G04 #@! TF.ProjectId,T-ShirtPress,542d5368-6972-4745-9072-6573732e6b69,rev?*
G04 #@! TF.SameCoordinates,Original*
G04 #@! TF.FileFunction,Soldermask,Bot*
G04 #@! TF.FilePolarity,Negative*
%FSLAX46Y46*%
G04 Gerber Fmt 4.6, Leading zero omitted, Abs format (unit mm)*
G04 Created by KiCad (PCBNEW (5.1.6)-1) date 2020-05-29 02:21:24*
%MOMM*%
%LPD*%
G01*
G04 APERTURE LIST*
%ADD10C,1.000000*%
%ADD11C,8.100000*%
%ADD12O,1.800000X2.100000*%
%ADD13C,3.100000*%
%ADD14R,3.100000X3.100000*%
%ADD15C,1.500000*%
%ADD16O,1.500000X1.500000*%
%ADD17R,1.800000X1.800000*%
%ADD18O,1.800000X1.800000*%
G04 APERTURE END LIST*
D10*
X104121320Y-122878680D03*
X102000000Y-122000000D03*
X99878680Y-122878680D03*
X99000000Y-125000000D03*
X99878680Y-127121320D03*
X102000000Y-128000000D03*
X104121320Y-127121320D03*
X105000000Y-125000000D03*
D11*
X102000000Y-125000000D03*
X102000000Y-35000000D03*
D10*
X105000000Y-35000000D03*
X104121320Y-37121320D03*
X102000000Y-38000000D03*
X99878680Y-37121320D03*
X99000000Y-35000000D03*
X99878680Y-32878680D03*
X102000000Y-32000000D03*
X104121320Y-32878680D03*
X37121320Y-32878680D03*
X35000000Y-32000000D03*
X32878680Y-32878680D03*
X32000000Y-35000000D03*
X32878680Y-37121320D03*
X35000000Y-38000000D03*
X37121320Y-37121320D03*
X38000000Y-35000000D03*
D11*
X35000000Y-35000000D03*
X35000000Y-125000000D03*
D10*
X38000000Y-125000000D03*
X37121320Y-127121320D03*
X35000000Y-128000000D03*
X32878680Y-127121320D03*
X32000000Y-125000000D03*
X32878680Y-122878680D03*
X35000000Y-122000000D03*
X37121320Y-122878680D03*
D12*
X48300000Y-127000000D03*
G36*
G01*
X51700000Y-126214706D02*
X51700000Y-127785294D01*
G75*
G02*
X51435294Y-128050000I-264706J0D01*
G01*
X50164706Y-128050000D01*
G75*
G02*
X49900000Y-127785294I0J264706D01*
G01*
X49900000Y-126214706D01*
G75*
G02*
X50164706Y-125950000I264706J0D01*
G01*
X51435294Y-125950000D01*
G75*
G02*
X51700000Y-126214706I0J-264706D01*
G01*
G37*
G36*
G01*
X70900000Y-126214706D02*
X70900000Y-127785294D01*
G75*
G02*
X70635294Y-128050000I-264706J0D01*
G01*
X69364706Y-128050000D01*
G75*
G02*
X69100000Y-127785294I0J264706D01*
G01*
X69100000Y-126214706D01*
G75*
G02*
X69364706Y-125950000I264706J0D01*
G01*
X70635294Y-125950000D01*
G75*
G02*
X70900000Y-126214706I0J-264706D01*
G01*
G37*
X67500000Y-127000000D03*
G36*
G01*
X100700000Y-109993750D02*
X100700000Y-106406250D01*
G75*
G02*
X100956250Y-106150000I256250J0D01*
G01*
X104543750Y-106150000D01*
G75*
G02*
X104800000Y-106406250I0J-256250D01*
G01*
X104800000Y-109993750D01*
G75*
G02*
X104543750Y-110250000I-256250J0D01*
G01*
X100956250Y-110250000D01*
G75*
G02*
X100700000Y-109993750I0J256250D01*
G01*
G37*
G36*
G01*
X89950000Y-109993750D02*
X89950000Y-106406250D01*
G75*
G02*
X90206250Y-106150000I256250J0D01*
G01*
X93793750Y-106150000D01*
G75*
G02*
X94050000Y-106406250I0J-256250D01*
G01*
X94050000Y-109993750D01*
G75*
G02*
X93793750Y-110250000I-256250J0D01*
G01*
X90206250Y-110250000D01*
G75*
G02*
X89950000Y-109993750I0J256250D01*
G01*
G37*
D13*
X102750000Y-61500000D03*
X102750000Y-100000000D03*
X94750000Y-61500000D03*
D14*
X92000000Y-100000000D03*
D15*
X71500000Y-37500000D03*
D16*
X71500000Y-42580000D03*
D17*
X49000000Y-35000000D03*
D18*
X49000000Y-32460000D03*
X51540000Y-35000000D03*
X51540000Y-32460000D03*
X54080000Y-35000000D03*
X54080000Y-32460000D03*
X56620000Y-35000000D03*
X56620000Y-32460000D03*
X59160000Y-35000000D03*
X59160000Y-32460000D03*
X61700000Y-35000000D03*
X61700000Y-32460000D03*
X64240000Y-35000000D03*
X64240000Y-32460000D03*
D17*
X56860000Y-127300000D03*
D18*
X56860000Y-124760000D03*
X59400000Y-127300000D03*
X59400000Y-124760000D03*
X61940000Y-127300000D03*
X61940000Y-124760000D03*
G36*
G01*
X100700000Y-117193750D02*
X100700000Y-113606250D01*
G75*
G02*
X100956250Y-113350000I256250J0D01*
G01*
X104543750Y-113350000D01*
G75*
G02*
X104800000Y-113606250I0J-256250D01*
G01*
X104800000Y-117193750D01*
G75*
G02*
X104543750Y-117450000I-256250J0D01*
G01*
X100956250Y-117450000D01*
G75*
G02*
X100700000Y-117193750I0J256250D01*
G01*
G37*
G36*
G01*
X89950000Y-117193750D02*
X89950000Y-113606250D01*
G75*
G02*
X90206250Y-113350000I256250J0D01*
G01*
X93793750Y-113350000D01*
G75*
G02*
X94050000Y-113606250I0J-256250D01*
G01*
X94050000Y-117193750D01*
G75*
G02*
X93793750Y-117450000I-256250J0D01*
G01*
X90206250Y-117450000D01*
G75*
G02*
X89950000Y-117193750I0J256250D01*
G01*
G37*
M02*
