G04 #@! TF.GenerationSoftware,KiCad,Pcbnew,(5.1.6)-1*
G04 #@! TF.CreationDate,2020-07-01T23:55:18-04:00*
G04 #@! TF.ProjectId,T-ShirtPress,542d5368-6972-4745-9072-6573732e6b69,rev?*
G04 #@! TF.SameCoordinates,Original*
G04 #@! TF.FileFunction,Copper,L3,Inr*
G04 #@! TF.FilePolarity,Positive*
%FSLAX46Y46*%
G04 Gerber Fmt 4.6, Leading zero omitted, Abs format (unit mm)*
G04 Created by KiCad (PCBNEW (5.1.6)-1) date 2020-07-01 23:55:18*
%MOMM*%
%LPD*%
G01*
G04 APERTURE LIST*
G04 #@! TA.AperFunction,ViaPad*
%ADD10C,0.900000*%
G04 #@! TD*
G04 #@! TA.AperFunction,ViaPad*
%ADD11C,8.000000*%
G04 #@! TD*
G04 #@! TA.AperFunction,ViaPad*
%ADD12O,1.700000X2.000000*%
G04 #@! TD*
G04 #@! TA.AperFunction,ViaPad*
%ADD13C,3.000000*%
G04 #@! TD*
G04 #@! TA.AperFunction,ViaPad*
%ADD14R,3.000000X3.000000*%
G04 #@! TD*
G04 #@! TA.AperFunction,ViaPad*
%ADD15C,1.400000*%
G04 #@! TD*
G04 #@! TA.AperFunction,ViaPad*
%ADD16O,1.400000X1.400000*%
G04 #@! TD*
G04 #@! TA.AperFunction,ViaPad*
%ADD17R,1.700000X1.700000*%
G04 #@! TD*
G04 #@! TA.AperFunction,ViaPad*
%ADD18O,1.700000X1.700000*%
G04 #@! TD*
G04 #@! TA.AperFunction,ViaPad*
%ADD19C,0.800000*%
G04 #@! TD*
G04 #@! TA.AperFunction,ViaPad*
%ADD20C,1.000000*%
G04 #@! TD*
G04 #@! TA.AperFunction,Conductor*
%ADD21C,0.254000*%
G04 #@! TD*
G04 APERTURE END LIST*
D10*
X104121320Y-122878680D03*
X102000000Y-122000000D03*
X99878680Y-122878680D03*
X99000000Y-125000000D03*
X99878680Y-127121320D03*
X102000000Y-128000000D03*
X104121320Y-127121320D03*
X105000000Y-125000000D03*
D11*
X102000000Y-125000000D03*
X102000000Y-35000000D03*
D10*
X105000000Y-35000000D03*
X104121320Y-37121320D03*
X102000000Y-38000000D03*
X99878680Y-37121320D03*
X99000000Y-35000000D03*
X99878680Y-32878680D03*
X102000000Y-32000000D03*
X104121320Y-32878680D03*
X37121320Y-32878680D03*
X35000000Y-32000000D03*
X32878680Y-32878680D03*
X32000000Y-35000000D03*
X32878680Y-37121320D03*
X35000000Y-38000000D03*
X37121320Y-37121320D03*
X38000000Y-35000000D03*
D11*
X35000000Y-35000000D03*
X35000000Y-125000000D03*
D10*
X38000000Y-125000000D03*
X37121320Y-127121320D03*
X35000000Y-128000000D03*
X32878680Y-127121320D03*
X32000000Y-125000000D03*
X32878680Y-122878680D03*
X35000000Y-122000000D03*
X37121320Y-122878680D03*
D12*
X48300000Y-127000000D03*
G04 #@! TA.AperFunction,ViaPad*
G36*
G01*
X51650000Y-126250000D02*
X51650000Y-127750000D01*
G75*
G02*
X51400000Y-128000000I-250000J0D01*
G01*
X50200000Y-128000000D01*
G75*
G02*
X49950000Y-127750000I0J250000D01*
G01*
X49950000Y-126250000D01*
G75*
G02*
X50200000Y-126000000I250000J0D01*
G01*
X51400000Y-126000000D01*
G75*
G02*
X51650000Y-126250000I0J-250000D01*
G01*
G37*
G04 #@! TD.AperFunction*
G04 #@! TA.AperFunction,ViaPad*
G36*
G01*
X70850000Y-126250000D02*
X70850000Y-127750000D01*
G75*
G02*
X70600000Y-128000000I-250000J0D01*
G01*
X69400000Y-128000000D01*
G75*
G02*
X69150000Y-127750000I0J250000D01*
G01*
X69150000Y-126250000D01*
G75*
G02*
X69400000Y-126000000I250000J0D01*
G01*
X70600000Y-126000000D01*
G75*
G02*
X70850000Y-126250000I0J-250000D01*
G01*
G37*
G04 #@! TD.AperFunction*
X67500000Y-127000000D03*
G04 #@! TA.AperFunction,ViaPad*
G36*
G01*
X100750000Y-109950000D02*
X100750000Y-106450000D01*
G75*
G02*
X101000000Y-106200000I250000J0D01*
G01*
X104500000Y-106200000D01*
G75*
G02*
X104750000Y-106450000I0J-250000D01*
G01*
X104750000Y-109950000D01*
G75*
G02*
X104500000Y-110200000I-250000J0D01*
G01*
X101000000Y-110200000D01*
G75*
G02*
X100750000Y-109950000I0J250000D01*
G01*
G37*
G04 #@! TD.AperFunction*
G04 #@! TA.AperFunction,ViaPad*
G36*
G01*
X90000000Y-109950000D02*
X90000000Y-106450000D01*
G75*
G02*
X90250000Y-106200000I250000J0D01*
G01*
X93750000Y-106200000D01*
G75*
G02*
X94000000Y-106450000I0J-250000D01*
G01*
X94000000Y-109950000D01*
G75*
G02*
X93750000Y-110200000I-250000J0D01*
G01*
X90250000Y-110200000D01*
G75*
G02*
X90000000Y-109950000I0J250000D01*
G01*
G37*
G04 #@! TD.AperFunction*
D13*
X102750000Y-61500000D03*
X102750000Y-100000000D03*
X94750000Y-61500000D03*
D14*
X92000000Y-100000000D03*
D15*
X71500000Y-37500000D03*
D16*
X71500000Y-42580000D03*
D17*
X49000000Y-35000000D03*
D18*
X49000000Y-32460000D03*
X51540000Y-35000000D03*
X51540000Y-32460000D03*
X54080000Y-35000000D03*
X54080000Y-32460000D03*
X56620000Y-35000000D03*
X56620000Y-32460000D03*
X59160000Y-35000000D03*
X59160000Y-32460000D03*
X61700000Y-35000000D03*
X61700000Y-32460000D03*
X64240000Y-35000000D03*
X64240000Y-32460000D03*
D17*
X56860000Y-127300000D03*
D18*
X56860000Y-124760000D03*
X59400000Y-127300000D03*
X59400000Y-124760000D03*
X61940000Y-127300000D03*
X61940000Y-124760000D03*
G04 #@! TA.AperFunction,ViaPad*
G36*
G01*
X100750000Y-117150000D02*
X100750000Y-113650000D01*
G75*
G02*
X101000000Y-113400000I250000J0D01*
G01*
X104500000Y-113400000D01*
G75*
G02*
X104750000Y-113650000I0J-250000D01*
G01*
X104750000Y-117150000D01*
G75*
G02*
X104500000Y-117400000I-250000J0D01*
G01*
X101000000Y-117400000D01*
G75*
G02*
X100750000Y-117150000I0J250000D01*
G01*
G37*
G04 #@! TD.AperFunction*
G04 #@! TA.AperFunction,ViaPad*
G36*
G01*
X90000000Y-117150000D02*
X90000000Y-113650000D01*
G75*
G02*
X90250000Y-113400000I250000J0D01*
G01*
X93750000Y-113400000D01*
G75*
G02*
X94000000Y-113650000I0J-250000D01*
G01*
X94000000Y-117150000D01*
G75*
G02*
X93750000Y-117400000I-250000J0D01*
G01*
X90250000Y-117400000D01*
G75*
G02*
X90000000Y-117150000I0J250000D01*
G01*
G37*
G04 #@! TD.AperFunction*
D19*
X38600000Y-79300000D03*
X60600000Y-61850000D03*
X61600000Y-72850000D03*
X53800000Y-77500000D03*
X53800000Y-82900000D03*
X68220000Y-94110000D03*
X72600000Y-94100000D03*
X78100000Y-94200000D03*
X53600000Y-94200000D03*
D20*
X85100000Y-31100000D03*
X83900000Y-31100000D03*
X82600000Y-31100000D03*
X81400000Y-31100000D03*
X80100000Y-31100000D03*
X80100000Y-32300000D03*
X80100000Y-33500000D03*
X79000000Y-33500000D03*
X79000000Y-32300000D03*
X79000000Y-31100000D03*
X71500000Y-50600000D03*
D19*
X70500000Y-66100000D03*
X56500000Y-63500000D03*
X52250000Y-62600000D03*
X49700000Y-61650000D03*
X46150000Y-66000000D03*
X43700000Y-70750000D03*
X45000000Y-74500000D03*
X44450000Y-83300000D03*
X42650000Y-86450000D03*
X43650000Y-86450000D03*
X44650000Y-86475000D03*
X45650000Y-86450000D03*
X48500000Y-89300000D03*
X54750000Y-91500000D03*
X56000000Y-90400000D03*
X61100000Y-90350000D03*
X68200000Y-91250000D03*
X68800000Y-89100000D03*
X71350000Y-81050000D03*
X71400000Y-75500000D03*
X74000000Y-69200000D03*
D20*
X100750000Y-56850000D03*
X102750000Y-56850000D03*
X104750000Y-56850000D03*
D19*
X94350000Y-41950000D03*
X34650000Y-72700000D03*
X61850000Y-94200000D03*
D20*
X102750000Y-66400000D03*
X100750000Y-66400000D03*
X104750000Y-66400000D03*
D19*
X52500000Y-45000000D03*
X52500000Y-50000000D03*
X57500000Y-50000000D03*
X57500000Y-45000000D03*
X57500000Y-55000000D03*
X42500000Y-32500000D03*
X42500000Y-40000000D03*
X42500000Y-50000000D03*
X42500000Y-60000000D03*
X37500000Y-55000000D03*
X37500000Y-45000000D03*
X37500000Y-65000000D03*
X75000000Y-40000000D03*
X80000000Y-45000000D03*
X75000000Y-50000000D03*
X70000000Y-55000000D03*
X75000000Y-60000000D03*
X80000000Y-55000000D03*
X85000000Y-50000000D03*
X55000000Y-100000000D03*
X52500000Y-107500000D03*
X55000000Y-112500000D03*
X65000000Y-105000000D03*
X65000000Y-115000000D03*
X37500000Y-92500000D03*
X42500000Y-97500000D03*
X37500000Y-102500000D03*
X42500000Y-107500000D03*
X37500000Y-112500000D03*
X42500000Y-117500000D03*
X77500000Y-80000000D03*
X77500000Y-67500000D03*
X69500000Y-66100000D03*
X50500000Y-90300000D03*
D20*
X37400000Y-84400000D03*
X87400000Y-36800000D03*
X89000000Y-36800000D03*
X89000000Y-33700000D03*
X87400000Y-33700000D03*
X91400000Y-32300000D03*
X91400000Y-38200000D03*
D19*
X75200000Y-124700000D03*
X59400000Y-62000000D03*
X55500000Y-63500000D03*
X48200000Y-64050000D03*
X48150000Y-65000000D03*
X45700000Y-69700000D03*
X45000000Y-77500000D03*
X45850000Y-81200000D03*
X57000000Y-90400000D03*
X62100000Y-90350000D03*
X67800000Y-89100000D03*
X71350000Y-80000000D03*
X71400000Y-74500000D03*
D20*
X41000000Y-86100000D03*
D19*
X66750000Y-84700000D03*
X76500000Y-106000000D03*
X65000000Y-84700000D03*
X77800000Y-109900000D03*
X63400000Y-84700000D03*
X80350000Y-114500000D03*
X64000000Y-40400000D03*
X66550000Y-41900000D03*
D21*
G36*
X77908617Y-30768933D02*
G01*
X77865000Y-30988212D01*
X77865000Y-31211788D01*
X77908617Y-31431067D01*
X77994176Y-31637624D01*
X78035854Y-31700000D01*
X77994176Y-31762376D01*
X77908617Y-31968933D01*
X77865000Y-32188212D01*
X77865000Y-32411788D01*
X77908617Y-32631067D01*
X77994176Y-32837624D01*
X78035854Y-32900000D01*
X77994176Y-32962376D01*
X77908617Y-33168933D01*
X77865000Y-33388212D01*
X77865000Y-33611788D01*
X77908617Y-33831067D01*
X77994176Y-34037624D01*
X78118388Y-34223520D01*
X78276480Y-34381612D01*
X78462376Y-34505824D01*
X78668933Y-34591383D01*
X78888212Y-34635000D01*
X79111788Y-34635000D01*
X79331067Y-34591383D01*
X79537624Y-34505824D01*
X79550000Y-34497555D01*
X79562376Y-34505824D01*
X79768933Y-34591383D01*
X79988212Y-34635000D01*
X80211788Y-34635000D01*
X80431067Y-34591383D01*
X80637624Y-34505824D01*
X80823520Y-34381612D01*
X80981612Y-34223520D01*
X81105824Y-34037624D01*
X81191383Y-33831067D01*
X81235000Y-33611788D01*
X81235000Y-33388212D01*
X81191383Y-33168933D01*
X81105824Y-32962376D01*
X81064146Y-32900000D01*
X81105824Y-32837624D01*
X81191383Y-32631067D01*
X81235000Y-32411788D01*
X81235000Y-32224416D01*
X81288212Y-32235000D01*
X81511788Y-32235000D01*
X81731067Y-32191383D01*
X81937624Y-32105824D01*
X82000000Y-32064146D01*
X82062376Y-32105824D01*
X82268933Y-32191383D01*
X82488212Y-32235000D01*
X82711788Y-32235000D01*
X82931067Y-32191383D01*
X83137624Y-32105824D01*
X83250000Y-32030737D01*
X83362376Y-32105824D01*
X83568933Y-32191383D01*
X83788212Y-32235000D01*
X84011788Y-32235000D01*
X84231067Y-32191383D01*
X84437624Y-32105824D01*
X84500000Y-32064146D01*
X84562376Y-32105824D01*
X84768933Y-32191383D01*
X84988212Y-32235000D01*
X85211788Y-32235000D01*
X85431067Y-32191383D01*
X85637624Y-32105824D01*
X85823520Y-31981612D01*
X85981612Y-31823520D01*
X86105824Y-31637624D01*
X86191383Y-31431067D01*
X86235000Y-31211788D01*
X86235000Y-30988212D01*
X86191383Y-30768933D01*
X86146261Y-30660000D01*
X100365847Y-30660000D01*
X99804504Y-30892516D01*
X99045360Y-31399760D01*
X98399760Y-32045360D01*
X97892516Y-32804504D01*
X97543120Y-33648020D01*
X97365000Y-34543492D01*
X97365000Y-35456508D01*
X97543120Y-36351980D01*
X97892516Y-37195496D01*
X98399760Y-37954640D01*
X99045360Y-38600240D01*
X99804504Y-39107484D01*
X100648020Y-39456880D01*
X101543492Y-39635000D01*
X102456508Y-39635000D01*
X103351980Y-39456880D01*
X104195496Y-39107484D01*
X104954640Y-38600240D01*
X105600240Y-37954640D01*
X106107484Y-37195496D01*
X106340000Y-36634153D01*
X106340001Y-94673000D01*
X87650000Y-94673000D01*
X87625224Y-94675440D01*
X87601399Y-94682667D01*
X87579443Y-94694403D01*
X87560197Y-94710197D01*
X87544403Y-94729443D01*
X87532667Y-94751399D01*
X87525440Y-94775224D01*
X87523000Y-94800000D01*
X87523000Y-120500000D01*
X87525440Y-120524776D01*
X87532667Y-120548601D01*
X87544403Y-120570557D01*
X87560197Y-120589803D01*
X87579443Y-120605597D01*
X87601399Y-120617333D01*
X87625224Y-120624560D01*
X87650000Y-120627000D01*
X100445516Y-120627000D01*
X99804504Y-120892516D01*
X99045360Y-121399760D01*
X98399760Y-122045360D01*
X97892516Y-122804504D01*
X97543120Y-123648020D01*
X97365000Y-124543492D01*
X97365000Y-125456508D01*
X97543120Y-126351980D01*
X97892516Y-127195496D01*
X98399760Y-127954640D01*
X99045360Y-128600240D01*
X99804504Y-129107484D01*
X100365847Y-129340000D01*
X36634153Y-129340000D01*
X37195496Y-129107484D01*
X37954640Y-128600240D01*
X38600240Y-127954640D01*
X39107484Y-127195496D01*
X39280810Y-126777050D01*
X46815000Y-126777050D01*
X46815000Y-127222949D01*
X46836487Y-127441110D01*
X46921401Y-127721033D01*
X47059294Y-127979013D01*
X47244866Y-128205134D01*
X47470986Y-128390706D01*
X47728966Y-128528599D01*
X48008889Y-128613513D01*
X48300000Y-128642185D01*
X48591110Y-128613513D01*
X48871033Y-128528599D01*
X49129013Y-128390706D01*
X49355134Y-128205134D01*
X49407223Y-128141663D01*
X49461595Y-128243386D01*
X49572038Y-128377962D01*
X49706614Y-128488405D01*
X49860150Y-128570472D01*
X50026746Y-128621008D01*
X50200000Y-128638072D01*
X51400000Y-128638072D01*
X51573254Y-128621008D01*
X51739850Y-128570472D01*
X51893386Y-128488405D01*
X52027962Y-128377962D01*
X52138405Y-128243386D01*
X52220472Y-128089850D01*
X52271008Y-127923254D01*
X52288072Y-127750000D01*
X52288072Y-126450000D01*
X55371928Y-126450000D01*
X55371928Y-128150000D01*
X55384188Y-128274482D01*
X55420498Y-128394180D01*
X55479463Y-128504494D01*
X55558815Y-128601185D01*
X55655506Y-128680537D01*
X55765820Y-128739502D01*
X55885518Y-128775812D01*
X56010000Y-128788072D01*
X57710000Y-128788072D01*
X57834482Y-128775812D01*
X57954180Y-128739502D01*
X58064494Y-128680537D01*
X58161185Y-128601185D01*
X58240537Y-128504494D01*
X58299502Y-128394180D01*
X58321513Y-128321620D01*
X58453368Y-128453475D01*
X58696589Y-128615990D01*
X58966842Y-128727932D01*
X59253740Y-128785000D01*
X59546260Y-128785000D01*
X59833158Y-128727932D01*
X60103411Y-128615990D01*
X60346632Y-128453475D01*
X60553475Y-128246632D01*
X60670000Y-128072240D01*
X60786525Y-128246632D01*
X60993368Y-128453475D01*
X61236589Y-128615990D01*
X61506842Y-128727932D01*
X61793740Y-128785000D01*
X62086260Y-128785000D01*
X62373158Y-128727932D01*
X62643411Y-128615990D01*
X62886632Y-128453475D01*
X63093475Y-128246632D01*
X63255990Y-128003411D01*
X63367932Y-127733158D01*
X63425000Y-127446260D01*
X63425000Y-127153740D01*
X63367932Y-126866842D01*
X63330740Y-126777050D01*
X66015000Y-126777050D01*
X66015000Y-127222949D01*
X66036487Y-127441110D01*
X66121401Y-127721033D01*
X66259294Y-127979013D01*
X66444866Y-128205134D01*
X66670986Y-128390706D01*
X66928966Y-128528599D01*
X67208889Y-128613513D01*
X67500000Y-128642185D01*
X67791110Y-128613513D01*
X68071033Y-128528599D01*
X68329013Y-128390706D01*
X68555134Y-128205134D01*
X68607223Y-128141663D01*
X68661595Y-128243386D01*
X68772038Y-128377962D01*
X68906614Y-128488405D01*
X69060150Y-128570472D01*
X69226746Y-128621008D01*
X69400000Y-128638072D01*
X70600000Y-128638072D01*
X70773254Y-128621008D01*
X70939850Y-128570472D01*
X71093386Y-128488405D01*
X71227962Y-128377962D01*
X71338405Y-128243386D01*
X71420472Y-128089850D01*
X71471008Y-127923254D01*
X71488072Y-127750000D01*
X71488072Y-126250000D01*
X71471008Y-126076746D01*
X71420472Y-125910150D01*
X71338405Y-125756614D01*
X71227962Y-125622038D01*
X71093386Y-125511595D01*
X70939850Y-125429528D01*
X70773254Y-125378992D01*
X70600000Y-125361928D01*
X69400000Y-125361928D01*
X69226746Y-125378992D01*
X69060150Y-125429528D01*
X68906614Y-125511595D01*
X68772038Y-125622038D01*
X68661595Y-125756614D01*
X68607223Y-125858337D01*
X68555134Y-125794866D01*
X68329014Y-125609294D01*
X68071034Y-125471401D01*
X67791111Y-125386487D01*
X67500000Y-125357815D01*
X67208890Y-125386487D01*
X66928967Y-125471401D01*
X66670987Y-125609294D01*
X66444866Y-125794866D01*
X66259294Y-126020986D01*
X66121401Y-126278966D01*
X66036487Y-126558889D01*
X66015000Y-126777050D01*
X63330740Y-126777050D01*
X63255990Y-126596589D01*
X63093475Y-126353368D01*
X62886632Y-126146525D01*
X62712240Y-126030000D01*
X62886632Y-125913475D01*
X63093475Y-125706632D01*
X63255990Y-125463411D01*
X63367932Y-125193158D01*
X63425000Y-124906260D01*
X63425000Y-124613740D01*
X63367932Y-124326842D01*
X63255990Y-124056589D01*
X63093475Y-123813368D01*
X62886632Y-123606525D01*
X62643411Y-123444010D01*
X62373158Y-123332068D01*
X62086260Y-123275000D01*
X61793740Y-123275000D01*
X61506842Y-123332068D01*
X61236589Y-123444010D01*
X60993368Y-123606525D01*
X60786525Y-123813368D01*
X60670000Y-123987760D01*
X60553475Y-123813368D01*
X60346632Y-123606525D01*
X60103411Y-123444010D01*
X59833158Y-123332068D01*
X59546260Y-123275000D01*
X59253740Y-123275000D01*
X58966842Y-123332068D01*
X58696589Y-123444010D01*
X58453368Y-123606525D01*
X58246525Y-123813368D01*
X58130000Y-123987760D01*
X58013475Y-123813368D01*
X57806632Y-123606525D01*
X57563411Y-123444010D01*
X57293158Y-123332068D01*
X57006260Y-123275000D01*
X56713740Y-123275000D01*
X56426842Y-123332068D01*
X56156589Y-123444010D01*
X55913368Y-123606525D01*
X55706525Y-123813368D01*
X55544010Y-124056589D01*
X55432068Y-124326842D01*
X55375000Y-124613740D01*
X55375000Y-124906260D01*
X55432068Y-125193158D01*
X55544010Y-125463411D01*
X55706525Y-125706632D01*
X55838380Y-125838487D01*
X55765820Y-125860498D01*
X55655506Y-125919463D01*
X55558815Y-125998815D01*
X55479463Y-126095506D01*
X55420498Y-126205820D01*
X55384188Y-126325518D01*
X55371928Y-126450000D01*
X52288072Y-126450000D01*
X52288072Y-126250000D01*
X52271008Y-126076746D01*
X52220472Y-125910150D01*
X52138405Y-125756614D01*
X52027962Y-125622038D01*
X51893386Y-125511595D01*
X51739850Y-125429528D01*
X51573254Y-125378992D01*
X51400000Y-125361928D01*
X50200000Y-125361928D01*
X50026746Y-125378992D01*
X49860150Y-125429528D01*
X49706614Y-125511595D01*
X49572038Y-125622038D01*
X49461595Y-125756614D01*
X49407223Y-125858337D01*
X49355134Y-125794866D01*
X49129014Y-125609294D01*
X48871034Y-125471401D01*
X48591111Y-125386487D01*
X48300000Y-125357815D01*
X48008890Y-125386487D01*
X47728967Y-125471401D01*
X47470987Y-125609294D01*
X47244866Y-125794866D01*
X47059294Y-126020986D01*
X46921401Y-126278966D01*
X46836487Y-126558889D01*
X46815000Y-126777050D01*
X39280810Y-126777050D01*
X39456880Y-126351980D01*
X39635000Y-125456508D01*
X39635000Y-124543492D01*
X39456880Y-123648020D01*
X39107484Y-122804504D01*
X38600240Y-122045360D01*
X37954640Y-121399760D01*
X37195496Y-120892516D01*
X36351980Y-120543120D01*
X35456508Y-120365000D01*
X34543492Y-120365000D01*
X33648020Y-120543120D01*
X32804504Y-120892516D01*
X32045360Y-121399760D01*
X31399760Y-122045360D01*
X30892516Y-122804504D01*
X30660000Y-123365847D01*
X30660000Y-117398061D01*
X41465000Y-117398061D01*
X41465000Y-117601939D01*
X41504774Y-117801898D01*
X41582795Y-117990256D01*
X41696063Y-118159774D01*
X41840226Y-118303937D01*
X42009744Y-118417205D01*
X42198102Y-118495226D01*
X42398061Y-118535000D01*
X42601939Y-118535000D01*
X42801898Y-118495226D01*
X42990256Y-118417205D01*
X43159774Y-118303937D01*
X43303937Y-118159774D01*
X43417205Y-117990256D01*
X43495226Y-117801898D01*
X43535000Y-117601939D01*
X43535000Y-117398061D01*
X43495226Y-117198102D01*
X43417205Y-117009744D01*
X43303937Y-116840226D01*
X43159774Y-116696063D01*
X42990256Y-116582795D01*
X42801898Y-116504774D01*
X42601939Y-116465000D01*
X42398061Y-116465000D01*
X42198102Y-116504774D01*
X42009744Y-116582795D01*
X41840226Y-116696063D01*
X41696063Y-116840226D01*
X41582795Y-117009744D01*
X41504774Y-117198102D01*
X41465000Y-117398061D01*
X30660000Y-117398061D01*
X30660000Y-114898061D01*
X63965000Y-114898061D01*
X63965000Y-115101939D01*
X64004774Y-115301898D01*
X64082795Y-115490256D01*
X64196063Y-115659774D01*
X64340226Y-115803937D01*
X64509744Y-115917205D01*
X64698102Y-115995226D01*
X64898061Y-116035000D01*
X65101939Y-116035000D01*
X65301898Y-115995226D01*
X65490256Y-115917205D01*
X65659774Y-115803937D01*
X65803937Y-115659774D01*
X65917205Y-115490256D01*
X65995226Y-115301898D01*
X66035000Y-115101939D01*
X66035000Y-114898061D01*
X65995226Y-114698102D01*
X65917205Y-114509744D01*
X65842582Y-114398061D01*
X79315000Y-114398061D01*
X79315000Y-114601939D01*
X79354774Y-114801898D01*
X79432795Y-114990256D01*
X79546063Y-115159774D01*
X79690226Y-115303937D01*
X79859744Y-115417205D01*
X80048102Y-115495226D01*
X80248061Y-115535000D01*
X80451939Y-115535000D01*
X80651898Y-115495226D01*
X80840256Y-115417205D01*
X81009774Y-115303937D01*
X81153937Y-115159774D01*
X81267205Y-114990256D01*
X81345226Y-114801898D01*
X81385000Y-114601939D01*
X81385000Y-114398061D01*
X81345226Y-114198102D01*
X81267205Y-114009744D01*
X81153937Y-113840226D01*
X81009774Y-113696063D01*
X80840256Y-113582795D01*
X80651898Y-113504774D01*
X80451939Y-113465000D01*
X80248061Y-113465000D01*
X80048102Y-113504774D01*
X79859744Y-113582795D01*
X79690226Y-113696063D01*
X79546063Y-113840226D01*
X79432795Y-114009744D01*
X79354774Y-114198102D01*
X79315000Y-114398061D01*
X65842582Y-114398061D01*
X65803937Y-114340226D01*
X65659774Y-114196063D01*
X65490256Y-114082795D01*
X65301898Y-114004774D01*
X65101939Y-113965000D01*
X64898061Y-113965000D01*
X64698102Y-114004774D01*
X64509744Y-114082795D01*
X64340226Y-114196063D01*
X64196063Y-114340226D01*
X64082795Y-114509744D01*
X64004774Y-114698102D01*
X63965000Y-114898061D01*
X30660000Y-114898061D01*
X30660000Y-112398061D01*
X36465000Y-112398061D01*
X36465000Y-112601939D01*
X36504774Y-112801898D01*
X36582795Y-112990256D01*
X36696063Y-113159774D01*
X36840226Y-113303937D01*
X37009744Y-113417205D01*
X37198102Y-113495226D01*
X37398061Y-113535000D01*
X37601939Y-113535000D01*
X37801898Y-113495226D01*
X37990256Y-113417205D01*
X38159774Y-113303937D01*
X38303937Y-113159774D01*
X38417205Y-112990256D01*
X38495226Y-112801898D01*
X38535000Y-112601939D01*
X38535000Y-112398061D01*
X53965000Y-112398061D01*
X53965000Y-112601939D01*
X54004774Y-112801898D01*
X54082795Y-112990256D01*
X54196063Y-113159774D01*
X54340226Y-113303937D01*
X54509744Y-113417205D01*
X54698102Y-113495226D01*
X54898061Y-113535000D01*
X55101939Y-113535000D01*
X55301898Y-113495226D01*
X55490256Y-113417205D01*
X55659774Y-113303937D01*
X55803937Y-113159774D01*
X55917205Y-112990256D01*
X55995226Y-112801898D01*
X56035000Y-112601939D01*
X56035000Y-112398061D01*
X55995226Y-112198102D01*
X55917205Y-112009744D01*
X55803937Y-111840226D01*
X55659774Y-111696063D01*
X55490256Y-111582795D01*
X55301898Y-111504774D01*
X55101939Y-111465000D01*
X54898061Y-111465000D01*
X54698102Y-111504774D01*
X54509744Y-111582795D01*
X54340226Y-111696063D01*
X54196063Y-111840226D01*
X54082795Y-112009744D01*
X54004774Y-112198102D01*
X53965000Y-112398061D01*
X38535000Y-112398061D01*
X38495226Y-112198102D01*
X38417205Y-112009744D01*
X38303937Y-111840226D01*
X38159774Y-111696063D01*
X37990256Y-111582795D01*
X37801898Y-111504774D01*
X37601939Y-111465000D01*
X37398061Y-111465000D01*
X37198102Y-111504774D01*
X37009744Y-111582795D01*
X36840226Y-111696063D01*
X36696063Y-111840226D01*
X36582795Y-112009744D01*
X36504774Y-112198102D01*
X36465000Y-112398061D01*
X30660000Y-112398061D01*
X30660000Y-109798061D01*
X76765000Y-109798061D01*
X76765000Y-110001939D01*
X76804774Y-110201898D01*
X76882795Y-110390256D01*
X76996063Y-110559774D01*
X77140226Y-110703937D01*
X77309744Y-110817205D01*
X77498102Y-110895226D01*
X77698061Y-110935000D01*
X77901939Y-110935000D01*
X78101898Y-110895226D01*
X78290256Y-110817205D01*
X78459774Y-110703937D01*
X78603937Y-110559774D01*
X78717205Y-110390256D01*
X78795226Y-110201898D01*
X78835000Y-110001939D01*
X78835000Y-109798061D01*
X78795226Y-109598102D01*
X78717205Y-109409744D01*
X78603937Y-109240226D01*
X78459774Y-109096063D01*
X78290256Y-108982795D01*
X78101898Y-108904774D01*
X77901939Y-108865000D01*
X77698061Y-108865000D01*
X77498102Y-108904774D01*
X77309744Y-108982795D01*
X77140226Y-109096063D01*
X76996063Y-109240226D01*
X76882795Y-109409744D01*
X76804774Y-109598102D01*
X76765000Y-109798061D01*
X30660000Y-109798061D01*
X30660000Y-107398061D01*
X41465000Y-107398061D01*
X41465000Y-107601939D01*
X41504774Y-107801898D01*
X41582795Y-107990256D01*
X41696063Y-108159774D01*
X41840226Y-108303937D01*
X42009744Y-108417205D01*
X42198102Y-108495226D01*
X42398061Y-108535000D01*
X42601939Y-108535000D01*
X42801898Y-108495226D01*
X42990256Y-108417205D01*
X43159774Y-108303937D01*
X43303937Y-108159774D01*
X43417205Y-107990256D01*
X43495226Y-107801898D01*
X43535000Y-107601939D01*
X43535000Y-107398061D01*
X51465000Y-107398061D01*
X51465000Y-107601939D01*
X51504774Y-107801898D01*
X51582795Y-107990256D01*
X51696063Y-108159774D01*
X51840226Y-108303937D01*
X52009744Y-108417205D01*
X52198102Y-108495226D01*
X52398061Y-108535000D01*
X52601939Y-108535000D01*
X52801898Y-108495226D01*
X52990256Y-108417205D01*
X53159774Y-108303937D01*
X53303937Y-108159774D01*
X53417205Y-107990256D01*
X53495226Y-107801898D01*
X53535000Y-107601939D01*
X53535000Y-107398061D01*
X53495226Y-107198102D01*
X53417205Y-107009744D01*
X53303937Y-106840226D01*
X53159774Y-106696063D01*
X52990256Y-106582795D01*
X52801898Y-106504774D01*
X52601939Y-106465000D01*
X52398061Y-106465000D01*
X52198102Y-106504774D01*
X52009744Y-106582795D01*
X51840226Y-106696063D01*
X51696063Y-106840226D01*
X51582795Y-107009744D01*
X51504774Y-107198102D01*
X51465000Y-107398061D01*
X43535000Y-107398061D01*
X43495226Y-107198102D01*
X43417205Y-107009744D01*
X43303937Y-106840226D01*
X43159774Y-106696063D01*
X42990256Y-106582795D01*
X42801898Y-106504774D01*
X42601939Y-106465000D01*
X42398061Y-106465000D01*
X42198102Y-106504774D01*
X42009744Y-106582795D01*
X41840226Y-106696063D01*
X41696063Y-106840226D01*
X41582795Y-107009744D01*
X41504774Y-107198102D01*
X41465000Y-107398061D01*
X30660000Y-107398061D01*
X30660000Y-104898061D01*
X63965000Y-104898061D01*
X63965000Y-105101939D01*
X64004774Y-105301898D01*
X64082795Y-105490256D01*
X64196063Y-105659774D01*
X64340226Y-105803937D01*
X64509744Y-105917205D01*
X64698102Y-105995226D01*
X64898061Y-106035000D01*
X65101939Y-106035000D01*
X65301898Y-105995226D01*
X65490256Y-105917205D01*
X65518907Y-105898061D01*
X75465000Y-105898061D01*
X75465000Y-106101939D01*
X75504774Y-106301898D01*
X75582795Y-106490256D01*
X75696063Y-106659774D01*
X75840226Y-106803937D01*
X76009744Y-106917205D01*
X76198102Y-106995226D01*
X76398061Y-107035000D01*
X76601939Y-107035000D01*
X76801898Y-106995226D01*
X76990256Y-106917205D01*
X77159774Y-106803937D01*
X77303937Y-106659774D01*
X77417205Y-106490256D01*
X77495226Y-106301898D01*
X77535000Y-106101939D01*
X77535000Y-105898061D01*
X77495226Y-105698102D01*
X77417205Y-105509744D01*
X77303937Y-105340226D01*
X77159774Y-105196063D01*
X76990256Y-105082795D01*
X76801898Y-105004774D01*
X76601939Y-104965000D01*
X76398061Y-104965000D01*
X76198102Y-105004774D01*
X76009744Y-105082795D01*
X75840226Y-105196063D01*
X75696063Y-105340226D01*
X75582795Y-105509744D01*
X75504774Y-105698102D01*
X75465000Y-105898061D01*
X65518907Y-105898061D01*
X65659774Y-105803937D01*
X65803937Y-105659774D01*
X65917205Y-105490256D01*
X65995226Y-105301898D01*
X66035000Y-105101939D01*
X66035000Y-104898061D01*
X65995226Y-104698102D01*
X65917205Y-104509744D01*
X65803937Y-104340226D01*
X65659774Y-104196063D01*
X65490256Y-104082795D01*
X65301898Y-104004774D01*
X65101939Y-103965000D01*
X64898061Y-103965000D01*
X64698102Y-104004774D01*
X64509744Y-104082795D01*
X64340226Y-104196063D01*
X64196063Y-104340226D01*
X64082795Y-104509744D01*
X64004774Y-104698102D01*
X63965000Y-104898061D01*
X30660000Y-104898061D01*
X30660000Y-102398061D01*
X36465000Y-102398061D01*
X36465000Y-102601939D01*
X36504774Y-102801898D01*
X36582795Y-102990256D01*
X36696063Y-103159774D01*
X36840226Y-103303937D01*
X37009744Y-103417205D01*
X37198102Y-103495226D01*
X37398061Y-103535000D01*
X37601939Y-103535000D01*
X37801898Y-103495226D01*
X37990256Y-103417205D01*
X38159774Y-103303937D01*
X38303937Y-103159774D01*
X38417205Y-102990256D01*
X38495226Y-102801898D01*
X38535000Y-102601939D01*
X38535000Y-102398061D01*
X38495226Y-102198102D01*
X38417205Y-102009744D01*
X38303937Y-101840226D01*
X38159774Y-101696063D01*
X37990256Y-101582795D01*
X37801898Y-101504774D01*
X37601939Y-101465000D01*
X37398061Y-101465000D01*
X37198102Y-101504774D01*
X37009744Y-101582795D01*
X36840226Y-101696063D01*
X36696063Y-101840226D01*
X36582795Y-102009744D01*
X36504774Y-102198102D01*
X36465000Y-102398061D01*
X30660000Y-102398061D01*
X30660000Y-99898061D01*
X53965000Y-99898061D01*
X53965000Y-100101939D01*
X54004774Y-100301898D01*
X54082795Y-100490256D01*
X54196063Y-100659774D01*
X54340226Y-100803937D01*
X54509744Y-100917205D01*
X54698102Y-100995226D01*
X54898061Y-101035000D01*
X55101939Y-101035000D01*
X55301898Y-100995226D01*
X55490256Y-100917205D01*
X55659774Y-100803937D01*
X55803937Y-100659774D01*
X55917205Y-100490256D01*
X55995226Y-100301898D01*
X56035000Y-100101939D01*
X56035000Y-99898061D01*
X55995226Y-99698102D01*
X55917205Y-99509744D01*
X55803937Y-99340226D01*
X55659774Y-99196063D01*
X55490256Y-99082795D01*
X55301898Y-99004774D01*
X55101939Y-98965000D01*
X54898061Y-98965000D01*
X54698102Y-99004774D01*
X54509744Y-99082795D01*
X54340226Y-99196063D01*
X54196063Y-99340226D01*
X54082795Y-99509744D01*
X54004774Y-99698102D01*
X53965000Y-99898061D01*
X30660000Y-99898061D01*
X30660000Y-97398061D01*
X41465000Y-97398061D01*
X41465000Y-97601939D01*
X41504774Y-97801898D01*
X41582795Y-97990256D01*
X41696063Y-98159774D01*
X41840226Y-98303937D01*
X42009744Y-98417205D01*
X42198102Y-98495226D01*
X42398061Y-98535000D01*
X42601939Y-98535000D01*
X42801898Y-98495226D01*
X42990256Y-98417205D01*
X43159774Y-98303937D01*
X43303937Y-98159774D01*
X43417205Y-97990256D01*
X43495226Y-97801898D01*
X43535000Y-97601939D01*
X43535000Y-97398061D01*
X43495226Y-97198102D01*
X43417205Y-97009744D01*
X43303937Y-96840226D01*
X43159774Y-96696063D01*
X42990256Y-96582795D01*
X42801898Y-96504774D01*
X42601939Y-96465000D01*
X42398061Y-96465000D01*
X42198102Y-96504774D01*
X42009744Y-96582795D01*
X41840226Y-96696063D01*
X41696063Y-96840226D01*
X41582795Y-97009744D01*
X41504774Y-97198102D01*
X41465000Y-97398061D01*
X30660000Y-97398061D01*
X30660000Y-94098061D01*
X52565000Y-94098061D01*
X52565000Y-94301939D01*
X52604774Y-94501898D01*
X52682795Y-94690256D01*
X52796063Y-94859774D01*
X52940226Y-95003937D01*
X53109744Y-95117205D01*
X53298102Y-95195226D01*
X53498061Y-95235000D01*
X53701939Y-95235000D01*
X53901898Y-95195226D01*
X54090256Y-95117205D01*
X54259774Y-95003937D01*
X54403937Y-94859774D01*
X54517205Y-94690256D01*
X54595226Y-94501898D01*
X54635000Y-94301939D01*
X54635000Y-94098061D01*
X60815000Y-94098061D01*
X60815000Y-94301939D01*
X60854774Y-94501898D01*
X60932795Y-94690256D01*
X61046063Y-94859774D01*
X61190226Y-95003937D01*
X61359744Y-95117205D01*
X61548102Y-95195226D01*
X61748061Y-95235000D01*
X61951939Y-95235000D01*
X62151898Y-95195226D01*
X62340256Y-95117205D01*
X62509774Y-95003937D01*
X62653937Y-94859774D01*
X62767205Y-94690256D01*
X62845226Y-94501898D01*
X62885000Y-94301939D01*
X62885000Y-94098061D01*
X62867099Y-94008061D01*
X67185000Y-94008061D01*
X67185000Y-94211939D01*
X67224774Y-94411898D01*
X67302795Y-94600256D01*
X67416063Y-94769774D01*
X67560226Y-94913937D01*
X67729744Y-95027205D01*
X67918102Y-95105226D01*
X68118061Y-95145000D01*
X68321939Y-95145000D01*
X68521898Y-95105226D01*
X68710256Y-95027205D01*
X68879774Y-94913937D01*
X69023937Y-94769774D01*
X69137205Y-94600256D01*
X69215226Y-94411898D01*
X69255000Y-94211939D01*
X69255000Y-94008061D01*
X69253011Y-93998061D01*
X71565000Y-93998061D01*
X71565000Y-94201939D01*
X71604774Y-94401898D01*
X71682795Y-94590256D01*
X71796063Y-94759774D01*
X71940226Y-94903937D01*
X72109744Y-95017205D01*
X72298102Y-95095226D01*
X72498061Y-95135000D01*
X72701939Y-95135000D01*
X72901898Y-95095226D01*
X73090256Y-95017205D01*
X73259774Y-94903937D01*
X73403937Y-94759774D01*
X73517205Y-94590256D01*
X73595226Y-94401898D01*
X73635000Y-94201939D01*
X73635000Y-94098061D01*
X77065000Y-94098061D01*
X77065000Y-94301939D01*
X77104774Y-94501898D01*
X77182795Y-94690256D01*
X77296063Y-94859774D01*
X77440226Y-95003937D01*
X77609744Y-95117205D01*
X77798102Y-95195226D01*
X77998061Y-95235000D01*
X78201939Y-95235000D01*
X78401898Y-95195226D01*
X78590256Y-95117205D01*
X78759774Y-95003937D01*
X78903937Y-94859774D01*
X79017205Y-94690256D01*
X79095226Y-94501898D01*
X79135000Y-94301939D01*
X79135000Y-94098061D01*
X79095226Y-93898102D01*
X79017205Y-93709744D01*
X78903937Y-93540226D01*
X78759774Y-93396063D01*
X78590256Y-93282795D01*
X78401898Y-93204774D01*
X78201939Y-93165000D01*
X77998061Y-93165000D01*
X77798102Y-93204774D01*
X77609744Y-93282795D01*
X77440226Y-93396063D01*
X77296063Y-93540226D01*
X77182795Y-93709744D01*
X77104774Y-93898102D01*
X77065000Y-94098061D01*
X73635000Y-94098061D01*
X73635000Y-93998061D01*
X73595226Y-93798102D01*
X73517205Y-93609744D01*
X73403937Y-93440226D01*
X73259774Y-93296063D01*
X73090256Y-93182795D01*
X72901898Y-93104774D01*
X72701939Y-93065000D01*
X72498061Y-93065000D01*
X72298102Y-93104774D01*
X72109744Y-93182795D01*
X71940226Y-93296063D01*
X71796063Y-93440226D01*
X71682795Y-93609744D01*
X71604774Y-93798102D01*
X71565000Y-93998061D01*
X69253011Y-93998061D01*
X69215226Y-93808102D01*
X69137205Y-93619744D01*
X69023937Y-93450226D01*
X68879774Y-93306063D01*
X68710256Y-93192795D01*
X68521898Y-93114774D01*
X68321939Y-93075000D01*
X68118061Y-93075000D01*
X67918102Y-93114774D01*
X67729744Y-93192795D01*
X67560226Y-93306063D01*
X67416063Y-93450226D01*
X67302795Y-93619744D01*
X67224774Y-93808102D01*
X67185000Y-94008061D01*
X62867099Y-94008061D01*
X62845226Y-93898102D01*
X62767205Y-93709744D01*
X62653937Y-93540226D01*
X62509774Y-93396063D01*
X62340256Y-93282795D01*
X62151898Y-93204774D01*
X61951939Y-93165000D01*
X61748061Y-93165000D01*
X61548102Y-93204774D01*
X61359744Y-93282795D01*
X61190226Y-93396063D01*
X61046063Y-93540226D01*
X60932795Y-93709744D01*
X60854774Y-93898102D01*
X60815000Y-94098061D01*
X54635000Y-94098061D01*
X54595226Y-93898102D01*
X54517205Y-93709744D01*
X54403937Y-93540226D01*
X54259774Y-93396063D01*
X54090256Y-93282795D01*
X53901898Y-93204774D01*
X53701939Y-93165000D01*
X53498061Y-93165000D01*
X53298102Y-93204774D01*
X53109744Y-93282795D01*
X52940226Y-93396063D01*
X52796063Y-93540226D01*
X52682795Y-93709744D01*
X52604774Y-93898102D01*
X52565000Y-94098061D01*
X30660000Y-94098061D01*
X30660000Y-92398061D01*
X36465000Y-92398061D01*
X36465000Y-92601939D01*
X36504774Y-92801898D01*
X36582795Y-92990256D01*
X36696063Y-93159774D01*
X36840226Y-93303937D01*
X37009744Y-93417205D01*
X37198102Y-93495226D01*
X37398061Y-93535000D01*
X37601939Y-93535000D01*
X37801898Y-93495226D01*
X37990256Y-93417205D01*
X38159774Y-93303937D01*
X38303937Y-93159774D01*
X38417205Y-92990256D01*
X38495226Y-92801898D01*
X38535000Y-92601939D01*
X38535000Y-92398061D01*
X38495226Y-92198102D01*
X38417205Y-92009744D01*
X38303937Y-91840226D01*
X38159774Y-91696063D01*
X37990256Y-91582795D01*
X37801898Y-91504774D01*
X37601939Y-91465000D01*
X37398061Y-91465000D01*
X37198102Y-91504774D01*
X37009744Y-91582795D01*
X36840226Y-91696063D01*
X36696063Y-91840226D01*
X36582795Y-92009744D01*
X36504774Y-92198102D01*
X36465000Y-92398061D01*
X30660000Y-92398061D01*
X30660000Y-91398061D01*
X53715000Y-91398061D01*
X53715000Y-91601939D01*
X53754774Y-91801898D01*
X53832795Y-91990256D01*
X53946063Y-92159774D01*
X54090226Y-92303937D01*
X54259744Y-92417205D01*
X54448102Y-92495226D01*
X54648061Y-92535000D01*
X54851939Y-92535000D01*
X55051898Y-92495226D01*
X55240256Y-92417205D01*
X55409774Y-92303937D01*
X55553937Y-92159774D01*
X55667205Y-91990256D01*
X55745226Y-91801898D01*
X55785000Y-91601939D01*
X55785000Y-91412511D01*
X55898061Y-91435000D01*
X56101939Y-91435000D01*
X56301898Y-91395226D01*
X56490256Y-91317205D01*
X56659774Y-91203937D01*
X56803937Y-91059774D01*
X56917205Y-90890256D01*
X56995226Y-90701898D01*
X57035000Y-90501939D01*
X57035000Y-90298061D01*
X57025055Y-90248061D01*
X60065000Y-90248061D01*
X60065000Y-90451939D01*
X60104774Y-90651898D01*
X60182795Y-90840256D01*
X60296063Y-91009774D01*
X60440226Y-91153937D01*
X60609744Y-91267205D01*
X60798102Y-91345226D01*
X60998061Y-91385000D01*
X61201939Y-91385000D01*
X61401898Y-91345226D01*
X61590256Y-91267205D01*
X61759774Y-91153937D01*
X61765650Y-91148061D01*
X67165000Y-91148061D01*
X67165000Y-91351939D01*
X67204774Y-91551898D01*
X67282795Y-91740256D01*
X67396063Y-91909774D01*
X67540226Y-92053937D01*
X67709744Y-92167205D01*
X67898102Y-92245226D01*
X68098061Y-92285000D01*
X68301939Y-92285000D01*
X68501898Y-92245226D01*
X68690256Y-92167205D01*
X68859774Y-92053937D01*
X69003937Y-91909774D01*
X69117205Y-91740256D01*
X69195226Y-91551898D01*
X69235000Y-91351939D01*
X69235000Y-91148061D01*
X69195226Y-90948102D01*
X69117205Y-90759744D01*
X69003937Y-90590226D01*
X68859774Y-90446063D01*
X68690256Y-90332795D01*
X68501898Y-90254774D01*
X68301939Y-90215000D01*
X68098061Y-90215000D01*
X67898102Y-90254774D01*
X67709744Y-90332795D01*
X67540226Y-90446063D01*
X67396063Y-90590226D01*
X67282795Y-90759744D01*
X67204774Y-90948102D01*
X67165000Y-91148061D01*
X61765650Y-91148061D01*
X61903937Y-91009774D01*
X62017205Y-90840256D01*
X62095226Y-90651898D01*
X62135000Y-90451939D01*
X62135000Y-90248061D01*
X62095226Y-90048102D01*
X62017205Y-89859744D01*
X61903937Y-89690226D01*
X61759774Y-89546063D01*
X61590256Y-89432795D01*
X61401898Y-89354774D01*
X61201939Y-89315000D01*
X60998061Y-89315000D01*
X60798102Y-89354774D01*
X60609744Y-89432795D01*
X60440226Y-89546063D01*
X60296063Y-89690226D01*
X60182795Y-89859744D01*
X60104774Y-90048102D01*
X60065000Y-90248061D01*
X57025055Y-90248061D01*
X56995226Y-90098102D01*
X56917205Y-89909744D01*
X56803937Y-89740226D01*
X56659774Y-89596063D01*
X56490256Y-89482795D01*
X56301898Y-89404774D01*
X56101939Y-89365000D01*
X55898061Y-89365000D01*
X55698102Y-89404774D01*
X55509744Y-89482795D01*
X55340226Y-89596063D01*
X55196063Y-89740226D01*
X55082795Y-89909744D01*
X55004774Y-90098102D01*
X54965000Y-90298061D01*
X54965000Y-90487489D01*
X54851939Y-90465000D01*
X54648061Y-90465000D01*
X54448102Y-90504774D01*
X54259744Y-90582795D01*
X54090226Y-90696063D01*
X53946063Y-90840226D01*
X53832795Y-91009744D01*
X53754774Y-91198102D01*
X53715000Y-91398061D01*
X30660000Y-91398061D01*
X30660000Y-89198061D01*
X47465000Y-89198061D01*
X47465000Y-89401939D01*
X47504774Y-89601898D01*
X47582795Y-89790256D01*
X47696063Y-89959774D01*
X47840226Y-90103937D01*
X48009744Y-90217205D01*
X48198102Y-90295226D01*
X48398061Y-90335000D01*
X48601939Y-90335000D01*
X48801898Y-90295226D01*
X48990256Y-90217205D01*
X49159774Y-90103937D01*
X49303937Y-89959774D01*
X49417205Y-89790256D01*
X49495226Y-89601898D01*
X49535000Y-89401939D01*
X49535000Y-89198061D01*
X49495226Y-88998102D01*
X49495210Y-88998061D01*
X67765000Y-88998061D01*
X67765000Y-89201939D01*
X67804774Y-89401898D01*
X67882795Y-89590256D01*
X67996063Y-89759774D01*
X68140226Y-89903937D01*
X68309744Y-90017205D01*
X68498102Y-90095226D01*
X68698061Y-90135000D01*
X68901939Y-90135000D01*
X69101898Y-90095226D01*
X69290256Y-90017205D01*
X69459774Y-89903937D01*
X69603937Y-89759774D01*
X69717205Y-89590256D01*
X69795226Y-89401898D01*
X69835000Y-89201939D01*
X69835000Y-88998061D01*
X69795226Y-88798102D01*
X69717205Y-88609744D01*
X69603937Y-88440226D01*
X69459774Y-88296063D01*
X69290256Y-88182795D01*
X69101898Y-88104774D01*
X68901939Y-88065000D01*
X68698061Y-88065000D01*
X68498102Y-88104774D01*
X68309744Y-88182795D01*
X68140226Y-88296063D01*
X67996063Y-88440226D01*
X67882795Y-88609744D01*
X67804774Y-88798102D01*
X67765000Y-88998061D01*
X49495210Y-88998061D01*
X49417205Y-88809744D01*
X49303937Y-88640226D01*
X49159774Y-88496063D01*
X48990256Y-88382795D01*
X48801898Y-88304774D01*
X48601939Y-88265000D01*
X48398061Y-88265000D01*
X48198102Y-88304774D01*
X48009744Y-88382795D01*
X47840226Y-88496063D01*
X47696063Y-88640226D01*
X47582795Y-88809744D01*
X47504774Y-88998102D01*
X47465000Y-89198061D01*
X30660000Y-89198061D01*
X30660000Y-85988212D01*
X39865000Y-85988212D01*
X39865000Y-86211788D01*
X39908617Y-86431067D01*
X39994176Y-86637624D01*
X40118388Y-86823520D01*
X40276480Y-86981612D01*
X40462376Y-87105824D01*
X40668933Y-87191383D01*
X40888212Y-87235000D01*
X41111788Y-87235000D01*
X41331067Y-87191383D01*
X41537624Y-87105824D01*
X41723520Y-86981612D01*
X41745645Y-86959487D01*
X41846063Y-87109774D01*
X41990226Y-87253937D01*
X42159744Y-87367205D01*
X42348102Y-87445226D01*
X42548061Y-87485000D01*
X42751939Y-87485000D01*
X42951898Y-87445226D01*
X43140256Y-87367205D01*
X43150000Y-87360694D01*
X43159744Y-87367205D01*
X43348102Y-87445226D01*
X43548061Y-87485000D01*
X43751939Y-87485000D01*
X43951898Y-87445226D01*
X44129189Y-87371789D01*
X44159744Y-87392205D01*
X44348102Y-87470226D01*
X44548061Y-87510000D01*
X44751939Y-87510000D01*
X44951898Y-87470226D01*
X45140256Y-87392205D01*
X45170811Y-87371789D01*
X45348102Y-87445226D01*
X45548061Y-87485000D01*
X45751939Y-87485000D01*
X45951898Y-87445226D01*
X46140256Y-87367205D01*
X46309774Y-87253937D01*
X46453937Y-87109774D01*
X46567205Y-86940256D01*
X46645226Y-86751898D01*
X46685000Y-86551939D01*
X46685000Y-86348061D01*
X46645226Y-86148102D01*
X46567205Y-85959744D01*
X46453937Y-85790226D01*
X46309774Y-85646063D01*
X46140256Y-85532795D01*
X45951898Y-85454774D01*
X45751939Y-85415000D01*
X45548061Y-85415000D01*
X45348102Y-85454774D01*
X45159744Y-85532795D01*
X45129189Y-85553211D01*
X44951898Y-85479774D01*
X44751939Y-85440000D01*
X44548061Y-85440000D01*
X44348102Y-85479774D01*
X44170811Y-85553211D01*
X44140256Y-85532795D01*
X43951898Y-85454774D01*
X43751939Y-85415000D01*
X43548061Y-85415000D01*
X43348102Y-85454774D01*
X43159744Y-85532795D01*
X43150000Y-85539306D01*
X43140256Y-85532795D01*
X42951898Y-85454774D01*
X42751939Y-85415000D01*
X42548061Y-85415000D01*
X42348102Y-85454774D01*
X42159744Y-85532795D01*
X42029593Y-85619759D01*
X42005824Y-85562376D01*
X41881612Y-85376480D01*
X41723520Y-85218388D01*
X41537624Y-85094176D01*
X41331067Y-85008617D01*
X41111788Y-84965000D01*
X40888212Y-84965000D01*
X40668933Y-85008617D01*
X40462376Y-85094176D01*
X40276480Y-85218388D01*
X40118388Y-85376480D01*
X39994176Y-85562376D01*
X39908617Y-85768933D01*
X39865000Y-85988212D01*
X30660000Y-85988212D01*
X30660000Y-84598061D01*
X62365000Y-84598061D01*
X62365000Y-84801939D01*
X62404774Y-85001898D01*
X62482795Y-85190256D01*
X62596063Y-85359774D01*
X62740226Y-85503937D01*
X62909744Y-85617205D01*
X63098102Y-85695226D01*
X63298061Y-85735000D01*
X63501939Y-85735000D01*
X63701898Y-85695226D01*
X63890256Y-85617205D01*
X64059774Y-85503937D01*
X64200000Y-85363711D01*
X64340226Y-85503937D01*
X64509744Y-85617205D01*
X64698102Y-85695226D01*
X64898061Y-85735000D01*
X65101939Y-85735000D01*
X65301898Y-85695226D01*
X65490256Y-85617205D01*
X65659774Y-85503937D01*
X65803937Y-85359774D01*
X65875000Y-85253420D01*
X65946063Y-85359774D01*
X66090226Y-85503937D01*
X66259744Y-85617205D01*
X66448102Y-85695226D01*
X66648061Y-85735000D01*
X66851939Y-85735000D01*
X67051898Y-85695226D01*
X67240256Y-85617205D01*
X67409774Y-85503937D01*
X67553937Y-85359774D01*
X67667205Y-85190256D01*
X67745226Y-85001898D01*
X67785000Y-84801939D01*
X67785000Y-84598061D01*
X67745226Y-84398102D01*
X67667205Y-84209744D01*
X67553937Y-84040226D01*
X67409774Y-83896063D01*
X67240256Y-83782795D01*
X67051898Y-83704774D01*
X66851939Y-83665000D01*
X66648061Y-83665000D01*
X66448102Y-83704774D01*
X66259744Y-83782795D01*
X66090226Y-83896063D01*
X65946063Y-84040226D01*
X65875000Y-84146580D01*
X65803937Y-84040226D01*
X65659774Y-83896063D01*
X65490256Y-83782795D01*
X65301898Y-83704774D01*
X65101939Y-83665000D01*
X64898061Y-83665000D01*
X64698102Y-83704774D01*
X64509744Y-83782795D01*
X64340226Y-83896063D01*
X64200000Y-84036289D01*
X64059774Y-83896063D01*
X63890256Y-83782795D01*
X63701898Y-83704774D01*
X63501939Y-83665000D01*
X63298061Y-83665000D01*
X63098102Y-83704774D01*
X62909744Y-83782795D01*
X62740226Y-83896063D01*
X62596063Y-84040226D01*
X62482795Y-84209744D01*
X62404774Y-84398102D01*
X62365000Y-84598061D01*
X30660000Y-84598061D01*
X30660000Y-82727000D01*
X37573000Y-82727000D01*
X37573000Y-83000000D01*
X37575440Y-83024776D01*
X37582667Y-83048601D01*
X37594403Y-83070557D01*
X37610197Y-83089803D01*
X37629443Y-83105597D01*
X37651399Y-83117333D01*
X37675224Y-83124560D01*
X37700000Y-83127000D01*
X43429135Y-83127000D01*
X43415000Y-83198061D01*
X43415000Y-83401939D01*
X43454774Y-83601898D01*
X43532795Y-83790256D01*
X43646063Y-83959774D01*
X43790226Y-84103937D01*
X43959744Y-84217205D01*
X44148102Y-84295226D01*
X44348061Y-84335000D01*
X44551939Y-84335000D01*
X44751898Y-84295226D01*
X44940256Y-84217205D01*
X45109774Y-84103937D01*
X45253937Y-83959774D01*
X45367205Y-83790256D01*
X45445226Y-83601898D01*
X45485000Y-83401939D01*
X45485000Y-83198061D01*
X45470865Y-83127000D01*
X45500000Y-83127000D01*
X45524776Y-83124560D01*
X45548601Y-83117333D01*
X45570557Y-83105597D01*
X45589803Y-83089803D01*
X45605597Y-83070557D01*
X45617333Y-83048601D01*
X45624560Y-83024776D01*
X45627000Y-83000000D01*
X45627000Y-82798061D01*
X52765000Y-82798061D01*
X52765000Y-83001939D01*
X52804774Y-83201898D01*
X52882795Y-83390256D01*
X52996063Y-83559774D01*
X53140226Y-83703937D01*
X53309744Y-83817205D01*
X53498102Y-83895226D01*
X53698061Y-83935000D01*
X53901939Y-83935000D01*
X54101898Y-83895226D01*
X54290256Y-83817205D01*
X54459774Y-83703937D01*
X54603937Y-83559774D01*
X54717205Y-83390256D01*
X54795226Y-83201898D01*
X54835000Y-83001939D01*
X54835000Y-82798061D01*
X54795226Y-82598102D01*
X54717205Y-82409744D01*
X54603937Y-82240226D01*
X54459774Y-82096063D01*
X54290256Y-81982795D01*
X54101898Y-81904774D01*
X53901939Y-81865000D01*
X53698061Y-81865000D01*
X53498102Y-81904774D01*
X53309744Y-81982795D01*
X53140226Y-82096063D01*
X52996063Y-82240226D01*
X52882795Y-82409744D01*
X52804774Y-82598102D01*
X52765000Y-82798061D01*
X45627000Y-82798061D01*
X45627000Y-80948061D01*
X70315000Y-80948061D01*
X70315000Y-81151939D01*
X70354774Y-81351898D01*
X70432795Y-81540256D01*
X70546063Y-81709774D01*
X70690226Y-81853937D01*
X70859744Y-81967205D01*
X71048102Y-82045226D01*
X71248061Y-82085000D01*
X71451939Y-82085000D01*
X71651898Y-82045226D01*
X71840256Y-81967205D01*
X72009774Y-81853937D01*
X72153937Y-81709774D01*
X72267205Y-81540256D01*
X72345226Y-81351898D01*
X72385000Y-81151939D01*
X72385000Y-80948061D01*
X72345226Y-80748102D01*
X72267205Y-80559744D01*
X72153937Y-80390226D01*
X72009774Y-80246063D01*
X71840256Y-80132795D01*
X71651898Y-80054774D01*
X71451939Y-80015000D01*
X71248061Y-80015000D01*
X71048102Y-80054774D01*
X70859744Y-80132795D01*
X70690226Y-80246063D01*
X70546063Y-80390226D01*
X70432795Y-80559744D01*
X70354774Y-80748102D01*
X70315000Y-80948061D01*
X45627000Y-80948061D01*
X45627000Y-80227000D01*
X48400000Y-80227000D01*
X48424776Y-80224560D01*
X48448601Y-80217333D01*
X48470557Y-80205597D01*
X48489803Y-80189803D01*
X48505597Y-80170557D01*
X48517333Y-80148601D01*
X48524560Y-80124776D01*
X48527000Y-80100000D01*
X48527000Y-79898061D01*
X76465000Y-79898061D01*
X76465000Y-80101939D01*
X76504774Y-80301898D01*
X76582795Y-80490256D01*
X76696063Y-80659774D01*
X76840226Y-80803937D01*
X77009744Y-80917205D01*
X77198102Y-80995226D01*
X77398061Y-81035000D01*
X77601939Y-81035000D01*
X77801898Y-80995226D01*
X77990256Y-80917205D01*
X78159774Y-80803937D01*
X78303937Y-80659774D01*
X78417205Y-80490256D01*
X78495226Y-80301898D01*
X78535000Y-80101939D01*
X78535000Y-79898061D01*
X78495226Y-79698102D01*
X78417205Y-79509744D01*
X78303937Y-79340226D01*
X78159774Y-79196063D01*
X77990256Y-79082795D01*
X77801898Y-79004774D01*
X77601939Y-78965000D01*
X77398061Y-78965000D01*
X77198102Y-79004774D01*
X77009744Y-79082795D01*
X76840226Y-79196063D01*
X76696063Y-79340226D01*
X76582795Y-79509744D01*
X76504774Y-79698102D01*
X76465000Y-79898061D01*
X48527000Y-79898061D01*
X48527000Y-78900000D01*
X48524560Y-78875224D01*
X48517333Y-78851399D01*
X48505597Y-78829443D01*
X48489803Y-78810197D01*
X48470557Y-78794403D01*
X48448601Y-78782667D01*
X48424776Y-78775440D01*
X48400000Y-78773000D01*
X45627000Y-78773000D01*
X45627000Y-78599645D01*
X45624560Y-78574869D01*
X45617333Y-78551044D01*
X45605597Y-78529088D01*
X45589803Y-78509842D01*
X45570557Y-78494048D01*
X45548601Y-78482312D01*
X45524776Y-78475085D01*
X45499975Y-78472645D01*
X43827000Y-78472975D01*
X43827000Y-77398061D01*
X52765000Y-77398061D01*
X52765000Y-77601939D01*
X52804774Y-77801898D01*
X52882795Y-77990256D01*
X52996063Y-78159774D01*
X53140226Y-78303937D01*
X53309744Y-78417205D01*
X53498102Y-78495226D01*
X53698061Y-78535000D01*
X53901939Y-78535000D01*
X54101898Y-78495226D01*
X54290256Y-78417205D01*
X54459774Y-78303937D01*
X54603937Y-78159774D01*
X54717205Y-77990256D01*
X54795226Y-77801898D01*
X54835000Y-77601939D01*
X54835000Y-77398061D01*
X54795226Y-77198102D01*
X54717205Y-77009744D01*
X54603937Y-76840226D01*
X54459774Y-76696063D01*
X54290256Y-76582795D01*
X54101898Y-76504774D01*
X53901939Y-76465000D01*
X53698061Y-76465000D01*
X53498102Y-76504774D01*
X53309744Y-76582795D01*
X53140226Y-76696063D01*
X52996063Y-76840226D01*
X52882795Y-77009744D01*
X52804774Y-77198102D01*
X52765000Y-77398061D01*
X43827000Y-77398061D01*
X43827000Y-75700000D01*
X43824560Y-75675224D01*
X43817333Y-75651399D01*
X43805597Y-75629443D01*
X43789803Y-75610197D01*
X43770557Y-75594403D01*
X43748601Y-75582667D01*
X43724776Y-75575440D01*
X43700000Y-75573000D01*
X37700000Y-75573000D01*
X37675224Y-75575440D01*
X37651399Y-75582667D01*
X37629443Y-75594403D01*
X37610197Y-75610197D01*
X37594403Y-75629443D01*
X37582667Y-75651399D01*
X37575440Y-75675224D01*
X37573000Y-75700000D01*
X37573000Y-79157842D01*
X37565000Y-79198061D01*
X37565000Y-79401939D01*
X37573000Y-79442158D01*
X37573000Y-82473000D01*
X30660000Y-82473000D01*
X30660000Y-74398061D01*
X43965000Y-74398061D01*
X43965000Y-74601939D01*
X44004774Y-74801898D01*
X44082795Y-74990256D01*
X44196063Y-75159774D01*
X44340226Y-75303937D01*
X44509744Y-75417205D01*
X44698102Y-75495226D01*
X44898061Y-75535000D01*
X45101939Y-75535000D01*
X45301898Y-75495226D01*
X45490256Y-75417205D01*
X45518907Y-75398061D01*
X70365000Y-75398061D01*
X70365000Y-75601939D01*
X70404774Y-75801898D01*
X70482795Y-75990256D01*
X70596063Y-76159774D01*
X70740226Y-76303937D01*
X70909744Y-76417205D01*
X71098102Y-76495226D01*
X71298061Y-76535000D01*
X71501939Y-76535000D01*
X71701898Y-76495226D01*
X71890256Y-76417205D01*
X72059774Y-76303937D01*
X72203937Y-76159774D01*
X72317205Y-75990256D01*
X72395226Y-75801898D01*
X72435000Y-75601939D01*
X72435000Y-75398061D01*
X72395226Y-75198102D01*
X72317205Y-75009744D01*
X72203937Y-74840226D01*
X72059774Y-74696063D01*
X71890256Y-74582795D01*
X71701898Y-74504774D01*
X71501939Y-74465000D01*
X71298061Y-74465000D01*
X71098102Y-74504774D01*
X70909744Y-74582795D01*
X70740226Y-74696063D01*
X70596063Y-74840226D01*
X70482795Y-75009744D01*
X70404774Y-75198102D01*
X70365000Y-75398061D01*
X45518907Y-75398061D01*
X45659774Y-75303937D01*
X45803937Y-75159774D01*
X45917205Y-74990256D01*
X45995226Y-74801898D01*
X46035000Y-74601939D01*
X46035000Y-74398061D01*
X45995226Y-74198102D01*
X45917205Y-74009744D01*
X45803937Y-73840226D01*
X45659774Y-73696063D01*
X45490256Y-73582795D01*
X45301898Y-73504774D01*
X45101939Y-73465000D01*
X44898061Y-73465000D01*
X44698102Y-73504774D01*
X44509744Y-73582795D01*
X44340226Y-73696063D01*
X44196063Y-73840226D01*
X44082795Y-74009744D01*
X44004774Y-74198102D01*
X43965000Y-74398061D01*
X30660000Y-74398061D01*
X30660000Y-72598061D01*
X33615000Y-72598061D01*
X33615000Y-72801939D01*
X33654774Y-73001898D01*
X33732795Y-73190256D01*
X33846063Y-73359774D01*
X33990226Y-73503937D01*
X34159744Y-73617205D01*
X34348102Y-73695226D01*
X34548061Y-73735000D01*
X34751939Y-73735000D01*
X34951898Y-73695226D01*
X35140256Y-73617205D01*
X35309774Y-73503937D01*
X35453937Y-73359774D01*
X35567205Y-73190256D01*
X35645226Y-73001898D01*
X35685000Y-72801939D01*
X35685000Y-72748061D01*
X60565000Y-72748061D01*
X60565000Y-72951939D01*
X60604774Y-73151898D01*
X60682795Y-73340256D01*
X60796063Y-73509774D01*
X60940226Y-73653937D01*
X61109744Y-73767205D01*
X61298102Y-73845226D01*
X61498061Y-73885000D01*
X61701939Y-73885000D01*
X61901898Y-73845226D01*
X62090256Y-73767205D01*
X62259774Y-73653937D01*
X62403937Y-73509774D01*
X62517205Y-73340256D01*
X62595226Y-73151898D01*
X62635000Y-72951939D01*
X62635000Y-72748061D01*
X62595226Y-72548102D01*
X62517205Y-72359744D01*
X62403937Y-72190226D01*
X62259774Y-72046063D01*
X62090256Y-71932795D01*
X61901898Y-71854774D01*
X61701939Y-71815000D01*
X61498061Y-71815000D01*
X61298102Y-71854774D01*
X61109744Y-71932795D01*
X60940226Y-72046063D01*
X60796063Y-72190226D01*
X60682795Y-72359744D01*
X60604774Y-72548102D01*
X60565000Y-72748061D01*
X35685000Y-72748061D01*
X35685000Y-72598061D01*
X35645226Y-72398102D01*
X35567205Y-72209744D01*
X35453937Y-72040226D01*
X35309774Y-71896063D01*
X35140256Y-71782795D01*
X34951898Y-71704774D01*
X34751939Y-71665000D01*
X34548061Y-71665000D01*
X34348102Y-71704774D01*
X34159744Y-71782795D01*
X33990226Y-71896063D01*
X33846063Y-72040226D01*
X33732795Y-72209744D01*
X33654774Y-72398102D01*
X33615000Y-72598061D01*
X30660000Y-72598061D01*
X30660000Y-70648061D01*
X42665000Y-70648061D01*
X42665000Y-70851939D01*
X42704774Y-71051898D01*
X42782795Y-71240256D01*
X42896063Y-71409774D01*
X43040226Y-71553937D01*
X43209744Y-71667205D01*
X43398102Y-71745226D01*
X43598061Y-71785000D01*
X43801939Y-71785000D01*
X44001898Y-71745226D01*
X44190256Y-71667205D01*
X44359774Y-71553937D01*
X44503937Y-71409774D01*
X44617205Y-71240256D01*
X44695226Y-71051898D01*
X44735000Y-70851939D01*
X44735000Y-70648061D01*
X44695226Y-70448102D01*
X44617205Y-70259744D01*
X44503937Y-70090226D01*
X44359774Y-69946063D01*
X44190256Y-69832795D01*
X44001898Y-69754774D01*
X43801939Y-69715000D01*
X43598061Y-69715000D01*
X43398102Y-69754774D01*
X43209744Y-69832795D01*
X43040226Y-69946063D01*
X42896063Y-70090226D01*
X42782795Y-70259744D01*
X42704774Y-70448102D01*
X42665000Y-70648061D01*
X30660000Y-70648061D01*
X30660000Y-69098061D01*
X72965000Y-69098061D01*
X72965000Y-69301939D01*
X73004774Y-69501898D01*
X73082795Y-69690256D01*
X73196063Y-69859774D01*
X73340226Y-70003937D01*
X73509744Y-70117205D01*
X73698102Y-70195226D01*
X73898061Y-70235000D01*
X74101939Y-70235000D01*
X74301898Y-70195226D01*
X74490256Y-70117205D01*
X74659774Y-70003937D01*
X74803937Y-69859774D01*
X74917205Y-69690256D01*
X74995226Y-69501898D01*
X75035000Y-69301939D01*
X75035000Y-69098061D01*
X74995226Y-68898102D01*
X74917205Y-68709744D01*
X74803937Y-68540226D01*
X74659774Y-68396063D01*
X74490256Y-68282795D01*
X74301898Y-68204774D01*
X74101939Y-68165000D01*
X73898061Y-68165000D01*
X73698102Y-68204774D01*
X73509744Y-68282795D01*
X73340226Y-68396063D01*
X73196063Y-68540226D01*
X73082795Y-68709744D01*
X73004774Y-68898102D01*
X72965000Y-69098061D01*
X30660000Y-69098061D01*
X30660000Y-67398061D01*
X76465000Y-67398061D01*
X76465000Y-67601939D01*
X76504774Y-67801898D01*
X76582795Y-67990256D01*
X76696063Y-68159774D01*
X76840226Y-68303937D01*
X77009744Y-68417205D01*
X77198102Y-68495226D01*
X77398061Y-68535000D01*
X77601939Y-68535000D01*
X77801898Y-68495226D01*
X77990256Y-68417205D01*
X78159774Y-68303937D01*
X78303937Y-68159774D01*
X78417205Y-67990256D01*
X78495226Y-67801898D01*
X78535000Y-67601939D01*
X78535000Y-67398061D01*
X78495226Y-67198102D01*
X78417205Y-67009744D01*
X78303937Y-66840226D01*
X78159774Y-66696063D01*
X77990256Y-66582795D01*
X77801898Y-66504774D01*
X77601939Y-66465000D01*
X77398061Y-66465000D01*
X77198102Y-66504774D01*
X77009744Y-66582795D01*
X76840226Y-66696063D01*
X76696063Y-66840226D01*
X76582795Y-67009744D01*
X76504774Y-67198102D01*
X76465000Y-67398061D01*
X30660000Y-67398061D01*
X30660000Y-64898061D01*
X36465000Y-64898061D01*
X36465000Y-65101939D01*
X36504774Y-65301898D01*
X36582795Y-65490256D01*
X36696063Y-65659774D01*
X36840226Y-65803937D01*
X37009744Y-65917205D01*
X37198102Y-65995226D01*
X37398061Y-66035000D01*
X37601939Y-66035000D01*
X37801898Y-65995226D01*
X37990256Y-65917205D01*
X38018907Y-65898061D01*
X45115000Y-65898061D01*
X45115000Y-66101939D01*
X45154774Y-66301898D01*
X45232795Y-66490256D01*
X45346063Y-66659774D01*
X45490226Y-66803937D01*
X45659744Y-66917205D01*
X45848102Y-66995226D01*
X46048061Y-67035000D01*
X46251939Y-67035000D01*
X46451898Y-66995226D01*
X46640256Y-66917205D01*
X46809774Y-66803937D01*
X46953937Y-66659774D01*
X47067205Y-66490256D01*
X47145226Y-66301898D01*
X47185000Y-66101939D01*
X47185000Y-65998061D01*
X69465000Y-65998061D01*
X69465000Y-66201939D01*
X69504774Y-66401898D01*
X69582795Y-66590256D01*
X69696063Y-66759774D01*
X69840226Y-66903937D01*
X70009744Y-67017205D01*
X70198102Y-67095226D01*
X70398061Y-67135000D01*
X70601939Y-67135000D01*
X70801898Y-67095226D01*
X70990256Y-67017205D01*
X71159774Y-66903937D01*
X71303937Y-66759774D01*
X71417205Y-66590256D01*
X71495226Y-66401898D01*
X71517839Y-66288212D01*
X99615000Y-66288212D01*
X99615000Y-66511788D01*
X99658617Y-66731067D01*
X99744176Y-66937624D01*
X99868388Y-67123520D01*
X100026480Y-67281612D01*
X100212376Y-67405824D01*
X100418933Y-67491383D01*
X100638212Y-67535000D01*
X100861788Y-67535000D01*
X101081067Y-67491383D01*
X101287624Y-67405824D01*
X101473520Y-67281612D01*
X101631612Y-67123520D01*
X101750000Y-66946340D01*
X101868388Y-67123520D01*
X102026480Y-67281612D01*
X102212376Y-67405824D01*
X102418933Y-67491383D01*
X102638212Y-67535000D01*
X102861788Y-67535000D01*
X103081067Y-67491383D01*
X103287624Y-67405824D01*
X103473520Y-67281612D01*
X103631612Y-67123520D01*
X103750000Y-66946340D01*
X103868388Y-67123520D01*
X104026480Y-67281612D01*
X104212376Y-67405824D01*
X104418933Y-67491383D01*
X104638212Y-67535000D01*
X104861788Y-67535000D01*
X105081067Y-67491383D01*
X105287624Y-67405824D01*
X105473520Y-67281612D01*
X105631612Y-67123520D01*
X105755824Y-66937624D01*
X105841383Y-66731067D01*
X105885000Y-66511788D01*
X105885000Y-66288212D01*
X105841383Y-66068933D01*
X105755824Y-65862376D01*
X105631612Y-65676480D01*
X105473520Y-65518388D01*
X105287624Y-65394176D01*
X105081067Y-65308617D01*
X104861788Y-65265000D01*
X104638212Y-65265000D01*
X104418933Y-65308617D01*
X104212376Y-65394176D01*
X104026480Y-65518388D01*
X103868388Y-65676480D01*
X103750000Y-65853660D01*
X103631612Y-65676480D01*
X103473520Y-65518388D01*
X103287624Y-65394176D01*
X103081067Y-65308617D01*
X102861788Y-65265000D01*
X102638212Y-65265000D01*
X102418933Y-65308617D01*
X102212376Y-65394176D01*
X102026480Y-65518388D01*
X101868388Y-65676480D01*
X101750000Y-65853660D01*
X101631612Y-65676480D01*
X101473520Y-65518388D01*
X101287624Y-65394176D01*
X101081067Y-65308617D01*
X100861788Y-65265000D01*
X100638212Y-65265000D01*
X100418933Y-65308617D01*
X100212376Y-65394176D01*
X100026480Y-65518388D01*
X99868388Y-65676480D01*
X99744176Y-65862376D01*
X99658617Y-66068933D01*
X99615000Y-66288212D01*
X71517839Y-66288212D01*
X71535000Y-66201939D01*
X71535000Y-65998061D01*
X71495226Y-65798102D01*
X71417205Y-65609744D01*
X71303937Y-65440226D01*
X71159774Y-65296063D01*
X70990256Y-65182795D01*
X70801898Y-65104774D01*
X70601939Y-65065000D01*
X70398061Y-65065000D01*
X70198102Y-65104774D01*
X70009744Y-65182795D01*
X69840226Y-65296063D01*
X69696063Y-65440226D01*
X69582795Y-65609744D01*
X69504774Y-65798102D01*
X69465000Y-65998061D01*
X47185000Y-65998061D01*
X47185000Y-65898061D01*
X47145226Y-65698102D01*
X47067205Y-65509744D01*
X46953937Y-65340226D01*
X46809774Y-65196063D01*
X46640256Y-65082795D01*
X46451898Y-65004774D01*
X46251939Y-64965000D01*
X46048061Y-64965000D01*
X45848102Y-65004774D01*
X45659744Y-65082795D01*
X45490226Y-65196063D01*
X45346063Y-65340226D01*
X45232795Y-65509744D01*
X45154774Y-65698102D01*
X45115000Y-65898061D01*
X38018907Y-65898061D01*
X38159774Y-65803937D01*
X38303937Y-65659774D01*
X38417205Y-65490256D01*
X38495226Y-65301898D01*
X38535000Y-65101939D01*
X38535000Y-64898061D01*
X38495226Y-64698102D01*
X38417205Y-64509744D01*
X38303937Y-64340226D01*
X38159774Y-64196063D01*
X37990256Y-64082795D01*
X37801898Y-64004774D01*
X37601939Y-63965000D01*
X37398061Y-63965000D01*
X37198102Y-64004774D01*
X37009744Y-64082795D01*
X36840226Y-64196063D01*
X36696063Y-64340226D01*
X36582795Y-64509744D01*
X36504774Y-64698102D01*
X36465000Y-64898061D01*
X30660000Y-64898061D01*
X30660000Y-61548061D01*
X48665000Y-61548061D01*
X48665000Y-61751939D01*
X48704774Y-61951898D01*
X48782795Y-62140256D01*
X48896063Y-62309774D01*
X49040226Y-62453937D01*
X49209744Y-62567205D01*
X49398102Y-62645226D01*
X49598061Y-62685000D01*
X49801939Y-62685000D01*
X50001898Y-62645226D01*
X50190256Y-62567205D01*
X50293737Y-62498061D01*
X51215000Y-62498061D01*
X51215000Y-62701939D01*
X51254774Y-62901898D01*
X51332795Y-63090256D01*
X51446063Y-63259774D01*
X51590226Y-63403937D01*
X51759744Y-63517205D01*
X51948102Y-63595226D01*
X52148061Y-63635000D01*
X52351939Y-63635000D01*
X52551898Y-63595226D01*
X52740256Y-63517205D01*
X52909774Y-63403937D01*
X52915650Y-63398061D01*
X55465000Y-63398061D01*
X55465000Y-63601939D01*
X55504774Y-63801898D01*
X55582795Y-63990256D01*
X55696063Y-64159774D01*
X55840226Y-64303937D01*
X56009744Y-64417205D01*
X56198102Y-64495226D01*
X56398061Y-64535000D01*
X56601939Y-64535000D01*
X56801898Y-64495226D01*
X56990256Y-64417205D01*
X57159774Y-64303937D01*
X57303937Y-64159774D01*
X57417205Y-63990256D01*
X57495226Y-63801898D01*
X57535000Y-63601939D01*
X57535000Y-63398061D01*
X57495226Y-63198102D01*
X57417205Y-63009744D01*
X57303937Y-62840226D01*
X57159774Y-62696063D01*
X56990256Y-62582795D01*
X56801898Y-62504774D01*
X56601939Y-62465000D01*
X56398061Y-62465000D01*
X56198102Y-62504774D01*
X56009744Y-62582795D01*
X55840226Y-62696063D01*
X55696063Y-62840226D01*
X55582795Y-63009744D01*
X55504774Y-63198102D01*
X55465000Y-63398061D01*
X52915650Y-63398061D01*
X53053937Y-63259774D01*
X53167205Y-63090256D01*
X53245226Y-62901898D01*
X53285000Y-62701939D01*
X53285000Y-62498061D01*
X53245226Y-62298102D01*
X53167205Y-62109744D01*
X53053937Y-61940226D01*
X52909774Y-61796063D01*
X52837934Y-61748061D01*
X59565000Y-61748061D01*
X59565000Y-61951939D01*
X59604774Y-62151898D01*
X59682795Y-62340256D01*
X59796063Y-62509774D01*
X59940226Y-62653937D01*
X60109744Y-62767205D01*
X60298102Y-62845226D01*
X60498061Y-62885000D01*
X60701939Y-62885000D01*
X60901898Y-62845226D01*
X61090256Y-62767205D01*
X61259774Y-62653937D01*
X61403937Y-62509774D01*
X61517205Y-62340256D01*
X61595226Y-62151898D01*
X61635000Y-61951939D01*
X61635000Y-61748061D01*
X61595226Y-61548102D01*
X61517205Y-61359744D01*
X61470418Y-61289721D01*
X92615000Y-61289721D01*
X92615000Y-61710279D01*
X92697047Y-62122756D01*
X92857988Y-62511302D01*
X93091637Y-62860983D01*
X93389017Y-63158363D01*
X93738698Y-63392012D01*
X94127244Y-63552953D01*
X94539721Y-63635000D01*
X94960279Y-63635000D01*
X95372756Y-63552953D01*
X95761302Y-63392012D01*
X96110983Y-63158363D01*
X96408363Y-62860983D01*
X96642012Y-62511302D01*
X96802953Y-62122756D01*
X96885000Y-61710279D01*
X96885000Y-61289721D01*
X100615000Y-61289721D01*
X100615000Y-61710279D01*
X100697047Y-62122756D01*
X100857988Y-62511302D01*
X101091637Y-62860983D01*
X101389017Y-63158363D01*
X101738698Y-63392012D01*
X102127244Y-63552953D01*
X102539721Y-63635000D01*
X102960279Y-63635000D01*
X103372756Y-63552953D01*
X103761302Y-63392012D01*
X104110983Y-63158363D01*
X104408363Y-62860983D01*
X104642012Y-62511302D01*
X104802953Y-62122756D01*
X104885000Y-61710279D01*
X104885000Y-61289721D01*
X104802953Y-60877244D01*
X104642012Y-60488698D01*
X104408363Y-60139017D01*
X104110983Y-59841637D01*
X103761302Y-59607988D01*
X103372756Y-59447047D01*
X102960279Y-59365000D01*
X102539721Y-59365000D01*
X102127244Y-59447047D01*
X101738698Y-59607988D01*
X101389017Y-59841637D01*
X101091637Y-60139017D01*
X100857988Y-60488698D01*
X100697047Y-60877244D01*
X100615000Y-61289721D01*
X96885000Y-61289721D01*
X96802953Y-60877244D01*
X96642012Y-60488698D01*
X96408363Y-60139017D01*
X96110983Y-59841637D01*
X95761302Y-59607988D01*
X95372756Y-59447047D01*
X94960279Y-59365000D01*
X94539721Y-59365000D01*
X94127244Y-59447047D01*
X93738698Y-59607988D01*
X93389017Y-59841637D01*
X93091637Y-60139017D01*
X92857988Y-60488698D01*
X92697047Y-60877244D01*
X92615000Y-61289721D01*
X61470418Y-61289721D01*
X61403937Y-61190226D01*
X61259774Y-61046063D01*
X61090256Y-60932795D01*
X60901898Y-60854774D01*
X60701939Y-60815000D01*
X60498061Y-60815000D01*
X60298102Y-60854774D01*
X60109744Y-60932795D01*
X59940226Y-61046063D01*
X59796063Y-61190226D01*
X59682795Y-61359744D01*
X59604774Y-61548102D01*
X59565000Y-61748061D01*
X52837934Y-61748061D01*
X52740256Y-61682795D01*
X52551898Y-61604774D01*
X52351939Y-61565000D01*
X52148061Y-61565000D01*
X51948102Y-61604774D01*
X51759744Y-61682795D01*
X51590226Y-61796063D01*
X51446063Y-61940226D01*
X51332795Y-62109744D01*
X51254774Y-62298102D01*
X51215000Y-62498061D01*
X50293737Y-62498061D01*
X50359774Y-62453937D01*
X50503937Y-62309774D01*
X50617205Y-62140256D01*
X50695226Y-61951898D01*
X50735000Y-61751939D01*
X50735000Y-61548061D01*
X50695226Y-61348102D01*
X50617205Y-61159744D01*
X50503937Y-60990226D01*
X50359774Y-60846063D01*
X50190256Y-60732795D01*
X50001898Y-60654774D01*
X49801939Y-60615000D01*
X49598061Y-60615000D01*
X49398102Y-60654774D01*
X49209744Y-60732795D01*
X49040226Y-60846063D01*
X48896063Y-60990226D01*
X48782795Y-61159744D01*
X48704774Y-61348102D01*
X48665000Y-61548061D01*
X30660000Y-61548061D01*
X30660000Y-59898061D01*
X41465000Y-59898061D01*
X41465000Y-60101939D01*
X41504774Y-60301898D01*
X41582795Y-60490256D01*
X41696063Y-60659774D01*
X41840226Y-60803937D01*
X42009744Y-60917205D01*
X42198102Y-60995226D01*
X42398061Y-61035000D01*
X42601939Y-61035000D01*
X42801898Y-60995226D01*
X42990256Y-60917205D01*
X43159774Y-60803937D01*
X43303937Y-60659774D01*
X43417205Y-60490256D01*
X43495226Y-60301898D01*
X43535000Y-60101939D01*
X43535000Y-59898061D01*
X73965000Y-59898061D01*
X73965000Y-60101939D01*
X74004774Y-60301898D01*
X74082795Y-60490256D01*
X74196063Y-60659774D01*
X74340226Y-60803937D01*
X74509744Y-60917205D01*
X74698102Y-60995226D01*
X74898061Y-61035000D01*
X75101939Y-61035000D01*
X75301898Y-60995226D01*
X75490256Y-60917205D01*
X75659774Y-60803937D01*
X75803937Y-60659774D01*
X75917205Y-60490256D01*
X75995226Y-60301898D01*
X76035000Y-60101939D01*
X76035000Y-59898061D01*
X75995226Y-59698102D01*
X75917205Y-59509744D01*
X75803937Y-59340226D01*
X75659774Y-59196063D01*
X75490256Y-59082795D01*
X75301898Y-59004774D01*
X75101939Y-58965000D01*
X74898061Y-58965000D01*
X74698102Y-59004774D01*
X74509744Y-59082795D01*
X74340226Y-59196063D01*
X74196063Y-59340226D01*
X74082795Y-59509744D01*
X74004774Y-59698102D01*
X73965000Y-59898061D01*
X43535000Y-59898061D01*
X43495226Y-59698102D01*
X43417205Y-59509744D01*
X43303937Y-59340226D01*
X43159774Y-59196063D01*
X42990256Y-59082795D01*
X42801898Y-59004774D01*
X42601939Y-58965000D01*
X42398061Y-58965000D01*
X42198102Y-59004774D01*
X42009744Y-59082795D01*
X41840226Y-59196063D01*
X41696063Y-59340226D01*
X41582795Y-59509744D01*
X41504774Y-59698102D01*
X41465000Y-59898061D01*
X30660000Y-59898061D01*
X30660000Y-56738212D01*
X99615000Y-56738212D01*
X99615000Y-56961788D01*
X99658617Y-57181067D01*
X99744176Y-57387624D01*
X99868388Y-57573520D01*
X100026480Y-57731612D01*
X100212376Y-57855824D01*
X100418933Y-57941383D01*
X100638212Y-57985000D01*
X100861788Y-57985000D01*
X101081067Y-57941383D01*
X101287624Y-57855824D01*
X101473520Y-57731612D01*
X101631612Y-57573520D01*
X101750000Y-57396340D01*
X101868388Y-57573520D01*
X102026480Y-57731612D01*
X102212376Y-57855824D01*
X102418933Y-57941383D01*
X102638212Y-57985000D01*
X102861788Y-57985000D01*
X103081067Y-57941383D01*
X103287624Y-57855824D01*
X103473520Y-57731612D01*
X103631612Y-57573520D01*
X103750000Y-57396340D01*
X103868388Y-57573520D01*
X104026480Y-57731612D01*
X104212376Y-57855824D01*
X104418933Y-57941383D01*
X104638212Y-57985000D01*
X104861788Y-57985000D01*
X105081067Y-57941383D01*
X105287624Y-57855824D01*
X105473520Y-57731612D01*
X105631612Y-57573520D01*
X105755824Y-57387624D01*
X105841383Y-57181067D01*
X105885000Y-56961788D01*
X105885000Y-56738212D01*
X105841383Y-56518933D01*
X105755824Y-56312376D01*
X105631612Y-56126480D01*
X105473520Y-55968388D01*
X105287624Y-55844176D01*
X105081067Y-55758617D01*
X104861788Y-55715000D01*
X104638212Y-55715000D01*
X104418933Y-55758617D01*
X104212376Y-55844176D01*
X104026480Y-55968388D01*
X103868388Y-56126480D01*
X103750000Y-56303660D01*
X103631612Y-56126480D01*
X103473520Y-55968388D01*
X103287624Y-55844176D01*
X103081067Y-55758617D01*
X102861788Y-55715000D01*
X102638212Y-55715000D01*
X102418933Y-55758617D01*
X102212376Y-55844176D01*
X102026480Y-55968388D01*
X101868388Y-56126480D01*
X101750000Y-56303660D01*
X101631612Y-56126480D01*
X101473520Y-55968388D01*
X101287624Y-55844176D01*
X101081067Y-55758617D01*
X100861788Y-55715000D01*
X100638212Y-55715000D01*
X100418933Y-55758617D01*
X100212376Y-55844176D01*
X100026480Y-55968388D01*
X99868388Y-56126480D01*
X99744176Y-56312376D01*
X99658617Y-56518933D01*
X99615000Y-56738212D01*
X30660000Y-56738212D01*
X30660000Y-54898061D01*
X36465000Y-54898061D01*
X36465000Y-55101939D01*
X36504774Y-55301898D01*
X36582795Y-55490256D01*
X36696063Y-55659774D01*
X36840226Y-55803937D01*
X37009744Y-55917205D01*
X37198102Y-55995226D01*
X37398061Y-56035000D01*
X37601939Y-56035000D01*
X37801898Y-55995226D01*
X37990256Y-55917205D01*
X38159774Y-55803937D01*
X38303937Y-55659774D01*
X38417205Y-55490256D01*
X38495226Y-55301898D01*
X38535000Y-55101939D01*
X38535000Y-54898061D01*
X56465000Y-54898061D01*
X56465000Y-55101939D01*
X56504774Y-55301898D01*
X56582795Y-55490256D01*
X56696063Y-55659774D01*
X56840226Y-55803937D01*
X57009744Y-55917205D01*
X57198102Y-55995226D01*
X57398061Y-56035000D01*
X57601939Y-56035000D01*
X57801898Y-55995226D01*
X57990256Y-55917205D01*
X58159774Y-55803937D01*
X58303937Y-55659774D01*
X58417205Y-55490256D01*
X58495226Y-55301898D01*
X58535000Y-55101939D01*
X58535000Y-54898061D01*
X68965000Y-54898061D01*
X68965000Y-55101939D01*
X69004774Y-55301898D01*
X69082795Y-55490256D01*
X69196063Y-55659774D01*
X69340226Y-55803937D01*
X69509744Y-55917205D01*
X69698102Y-55995226D01*
X69898061Y-56035000D01*
X70101939Y-56035000D01*
X70301898Y-55995226D01*
X70490256Y-55917205D01*
X70659774Y-55803937D01*
X70803937Y-55659774D01*
X70917205Y-55490256D01*
X70995226Y-55301898D01*
X71035000Y-55101939D01*
X71035000Y-54898061D01*
X78965000Y-54898061D01*
X78965000Y-55101939D01*
X79004774Y-55301898D01*
X79082795Y-55490256D01*
X79196063Y-55659774D01*
X79340226Y-55803937D01*
X79509744Y-55917205D01*
X79698102Y-55995226D01*
X79898061Y-56035000D01*
X80101939Y-56035000D01*
X80301898Y-55995226D01*
X80490256Y-55917205D01*
X80659774Y-55803937D01*
X80803937Y-55659774D01*
X80917205Y-55490256D01*
X80995226Y-55301898D01*
X81035000Y-55101939D01*
X81035000Y-54898061D01*
X80995226Y-54698102D01*
X80917205Y-54509744D01*
X80803937Y-54340226D01*
X80659774Y-54196063D01*
X80490256Y-54082795D01*
X80301898Y-54004774D01*
X80101939Y-53965000D01*
X79898061Y-53965000D01*
X79698102Y-54004774D01*
X79509744Y-54082795D01*
X79340226Y-54196063D01*
X79196063Y-54340226D01*
X79082795Y-54509744D01*
X79004774Y-54698102D01*
X78965000Y-54898061D01*
X71035000Y-54898061D01*
X70995226Y-54698102D01*
X70917205Y-54509744D01*
X70803937Y-54340226D01*
X70659774Y-54196063D01*
X70490256Y-54082795D01*
X70301898Y-54004774D01*
X70101939Y-53965000D01*
X69898061Y-53965000D01*
X69698102Y-54004774D01*
X69509744Y-54082795D01*
X69340226Y-54196063D01*
X69196063Y-54340226D01*
X69082795Y-54509744D01*
X69004774Y-54698102D01*
X68965000Y-54898061D01*
X58535000Y-54898061D01*
X58495226Y-54698102D01*
X58417205Y-54509744D01*
X58303937Y-54340226D01*
X58159774Y-54196063D01*
X57990256Y-54082795D01*
X57801898Y-54004774D01*
X57601939Y-53965000D01*
X57398061Y-53965000D01*
X57198102Y-54004774D01*
X57009744Y-54082795D01*
X56840226Y-54196063D01*
X56696063Y-54340226D01*
X56582795Y-54509744D01*
X56504774Y-54698102D01*
X56465000Y-54898061D01*
X38535000Y-54898061D01*
X38495226Y-54698102D01*
X38417205Y-54509744D01*
X38303937Y-54340226D01*
X38159774Y-54196063D01*
X37990256Y-54082795D01*
X37801898Y-54004774D01*
X37601939Y-53965000D01*
X37398061Y-53965000D01*
X37198102Y-54004774D01*
X37009744Y-54082795D01*
X36840226Y-54196063D01*
X36696063Y-54340226D01*
X36582795Y-54509744D01*
X36504774Y-54698102D01*
X36465000Y-54898061D01*
X30660000Y-54898061D01*
X30660000Y-49898061D01*
X41465000Y-49898061D01*
X41465000Y-50101939D01*
X41504774Y-50301898D01*
X41582795Y-50490256D01*
X41696063Y-50659774D01*
X41840226Y-50803937D01*
X42009744Y-50917205D01*
X42198102Y-50995226D01*
X42398061Y-51035000D01*
X42601939Y-51035000D01*
X42801898Y-50995226D01*
X42990256Y-50917205D01*
X43159774Y-50803937D01*
X43303937Y-50659774D01*
X43417205Y-50490256D01*
X43495226Y-50301898D01*
X43535000Y-50101939D01*
X43535000Y-49898061D01*
X51465000Y-49898061D01*
X51465000Y-50101939D01*
X51504774Y-50301898D01*
X51582795Y-50490256D01*
X51696063Y-50659774D01*
X51840226Y-50803937D01*
X52009744Y-50917205D01*
X52198102Y-50995226D01*
X52398061Y-51035000D01*
X52601939Y-51035000D01*
X52801898Y-50995226D01*
X52990256Y-50917205D01*
X53159774Y-50803937D01*
X53303937Y-50659774D01*
X53417205Y-50490256D01*
X53495226Y-50301898D01*
X53535000Y-50101939D01*
X53535000Y-49898061D01*
X56465000Y-49898061D01*
X56465000Y-50101939D01*
X56504774Y-50301898D01*
X56582795Y-50490256D01*
X56696063Y-50659774D01*
X56840226Y-50803937D01*
X57009744Y-50917205D01*
X57198102Y-50995226D01*
X57398061Y-51035000D01*
X57601939Y-51035000D01*
X57801898Y-50995226D01*
X57990256Y-50917205D01*
X58159774Y-50803937D01*
X58303937Y-50659774D01*
X58417205Y-50490256D01*
X58418051Y-50488212D01*
X70365000Y-50488212D01*
X70365000Y-50711788D01*
X70408617Y-50931067D01*
X70494176Y-51137624D01*
X70618388Y-51323520D01*
X70776480Y-51481612D01*
X70962376Y-51605824D01*
X71168933Y-51691383D01*
X71388212Y-51735000D01*
X71611788Y-51735000D01*
X71831067Y-51691383D01*
X72037624Y-51605824D01*
X72223520Y-51481612D01*
X72381612Y-51323520D01*
X72505824Y-51137624D01*
X72591383Y-50931067D01*
X72635000Y-50711788D01*
X72635000Y-50488212D01*
X72591383Y-50268933D01*
X72505824Y-50062376D01*
X72396032Y-49898061D01*
X73965000Y-49898061D01*
X73965000Y-50101939D01*
X74004774Y-50301898D01*
X74082795Y-50490256D01*
X74196063Y-50659774D01*
X74340226Y-50803937D01*
X74509744Y-50917205D01*
X74698102Y-50995226D01*
X74898061Y-51035000D01*
X75101939Y-51035000D01*
X75301898Y-50995226D01*
X75490256Y-50917205D01*
X75659774Y-50803937D01*
X75803937Y-50659774D01*
X75917205Y-50490256D01*
X75995226Y-50301898D01*
X76035000Y-50101939D01*
X76035000Y-49898061D01*
X83965000Y-49898061D01*
X83965000Y-50101939D01*
X84004774Y-50301898D01*
X84082795Y-50490256D01*
X84196063Y-50659774D01*
X84340226Y-50803937D01*
X84509744Y-50917205D01*
X84698102Y-50995226D01*
X84898061Y-51035000D01*
X85101939Y-51035000D01*
X85301898Y-50995226D01*
X85490256Y-50917205D01*
X85659774Y-50803937D01*
X85803937Y-50659774D01*
X85917205Y-50490256D01*
X85995226Y-50301898D01*
X86035000Y-50101939D01*
X86035000Y-49898061D01*
X85995226Y-49698102D01*
X85917205Y-49509744D01*
X85803937Y-49340226D01*
X85659774Y-49196063D01*
X85490256Y-49082795D01*
X85301898Y-49004774D01*
X85101939Y-48965000D01*
X84898061Y-48965000D01*
X84698102Y-49004774D01*
X84509744Y-49082795D01*
X84340226Y-49196063D01*
X84196063Y-49340226D01*
X84082795Y-49509744D01*
X84004774Y-49698102D01*
X83965000Y-49898061D01*
X76035000Y-49898061D01*
X75995226Y-49698102D01*
X75917205Y-49509744D01*
X75803937Y-49340226D01*
X75659774Y-49196063D01*
X75490256Y-49082795D01*
X75301898Y-49004774D01*
X75101939Y-48965000D01*
X74898061Y-48965000D01*
X74698102Y-49004774D01*
X74509744Y-49082795D01*
X74340226Y-49196063D01*
X74196063Y-49340226D01*
X74082795Y-49509744D01*
X74004774Y-49698102D01*
X73965000Y-49898061D01*
X72396032Y-49898061D01*
X72381612Y-49876480D01*
X72223520Y-49718388D01*
X72037624Y-49594176D01*
X71831067Y-49508617D01*
X71611788Y-49465000D01*
X71388212Y-49465000D01*
X71168933Y-49508617D01*
X70962376Y-49594176D01*
X70776480Y-49718388D01*
X70618388Y-49876480D01*
X70494176Y-50062376D01*
X70408617Y-50268933D01*
X70365000Y-50488212D01*
X58418051Y-50488212D01*
X58495226Y-50301898D01*
X58535000Y-50101939D01*
X58535000Y-49898061D01*
X58495226Y-49698102D01*
X58417205Y-49509744D01*
X58303937Y-49340226D01*
X58159774Y-49196063D01*
X57990256Y-49082795D01*
X57801898Y-49004774D01*
X57601939Y-48965000D01*
X57398061Y-48965000D01*
X57198102Y-49004774D01*
X57009744Y-49082795D01*
X56840226Y-49196063D01*
X56696063Y-49340226D01*
X56582795Y-49509744D01*
X56504774Y-49698102D01*
X56465000Y-49898061D01*
X53535000Y-49898061D01*
X53495226Y-49698102D01*
X53417205Y-49509744D01*
X53303937Y-49340226D01*
X53159774Y-49196063D01*
X52990256Y-49082795D01*
X52801898Y-49004774D01*
X52601939Y-48965000D01*
X52398061Y-48965000D01*
X52198102Y-49004774D01*
X52009744Y-49082795D01*
X51840226Y-49196063D01*
X51696063Y-49340226D01*
X51582795Y-49509744D01*
X51504774Y-49698102D01*
X51465000Y-49898061D01*
X43535000Y-49898061D01*
X43495226Y-49698102D01*
X43417205Y-49509744D01*
X43303937Y-49340226D01*
X43159774Y-49196063D01*
X42990256Y-49082795D01*
X42801898Y-49004774D01*
X42601939Y-48965000D01*
X42398061Y-48965000D01*
X42198102Y-49004774D01*
X42009744Y-49082795D01*
X41840226Y-49196063D01*
X41696063Y-49340226D01*
X41582795Y-49509744D01*
X41504774Y-49698102D01*
X41465000Y-49898061D01*
X30660000Y-49898061D01*
X30660000Y-44898061D01*
X36465000Y-44898061D01*
X36465000Y-45101939D01*
X36504774Y-45301898D01*
X36582795Y-45490256D01*
X36696063Y-45659774D01*
X36840226Y-45803937D01*
X37009744Y-45917205D01*
X37198102Y-45995226D01*
X37398061Y-46035000D01*
X37601939Y-46035000D01*
X37801898Y-45995226D01*
X37990256Y-45917205D01*
X38159774Y-45803937D01*
X38303937Y-45659774D01*
X38417205Y-45490256D01*
X38495226Y-45301898D01*
X38535000Y-45101939D01*
X38535000Y-44898061D01*
X51465000Y-44898061D01*
X51465000Y-45101939D01*
X51504774Y-45301898D01*
X51582795Y-45490256D01*
X51696063Y-45659774D01*
X51840226Y-45803937D01*
X52009744Y-45917205D01*
X52198102Y-45995226D01*
X52398061Y-46035000D01*
X52601939Y-46035000D01*
X52801898Y-45995226D01*
X52990256Y-45917205D01*
X53159774Y-45803937D01*
X53303937Y-45659774D01*
X53417205Y-45490256D01*
X53495226Y-45301898D01*
X53535000Y-45101939D01*
X53535000Y-44898061D01*
X56465000Y-44898061D01*
X56465000Y-45101939D01*
X56504774Y-45301898D01*
X56582795Y-45490256D01*
X56696063Y-45659774D01*
X56840226Y-45803937D01*
X57009744Y-45917205D01*
X57198102Y-45995226D01*
X57398061Y-46035000D01*
X57601939Y-46035000D01*
X57801898Y-45995226D01*
X57990256Y-45917205D01*
X58159774Y-45803937D01*
X58303937Y-45659774D01*
X58417205Y-45490256D01*
X58495226Y-45301898D01*
X58535000Y-45101939D01*
X58535000Y-44898061D01*
X78965000Y-44898061D01*
X78965000Y-45101939D01*
X79004774Y-45301898D01*
X79082795Y-45490256D01*
X79196063Y-45659774D01*
X79340226Y-45803937D01*
X79509744Y-45917205D01*
X79698102Y-45995226D01*
X79898061Y-46035000D01*
X80101939Y-46035000D01*
X80301898Y-45995226D01*
X80490256Y-45917205D01*
X80659774Y-45803937D01*
X80803937Y-45659774D01*
X80917205Y-45490256D01*
X80995226Y-45301898D01*
X81035000Y-45101939D01*
X81035000Y-44898061D01*
X80995226Y-44698102D01*
X80917205Y-44509744D01*
X80803937Y-44340226D01*
X80659774Y-44196063D01*
X80490256Y-44082795D01*
X80301898Y-44004774D01*
X80101939Y-43965000D01*
X79898061Y-43965000D01*
X79698102Y-44004774D01*
X79509744Y-44082795D01*
X79340226Y-44196063D01*
X79196063Y-44340226D01*
X79082795Y-44509744D01*
X79004774Y-44698102D01*
X78965000Y-44898061D01*
X58535000Y-44898061D01*
X58495226Y-44698102D01*
X58417205Y-44509744D01*
X58303937Y-44340226D01*
X58159774Y-44196063D01*
X57990256Y-44082795D01*
X57801898Y-44004774D01*
X57601939Y-43965000D01*
X57398061Y-43965000D01*
X57198102Y-44004774D01*
X57009744Y-44082795D01*
X56840226Y-44196063D01*
X56696063Y-44340226D01*
X56582795Y-44509744D01*
X56504774Y-44698102D01*
X56465000Y-44898061D01*
X53535000Y-44898061D01*
X53495226Y-44698102D01*
X53417205Y-44509744D01*
X53303937Y-44340226D01*
X53159774Y-44196063D01*
X52990256Y-44082795D01*
X52801898Y-44004774D01*
X52601939Y-43965000D01*
X52398061Y-43965000D01*
X52198102Y-44004774D01*
X52009744Y-44082795D01*
X51840226Y-44196063D01*
X51696063Y-44340226D01*
X51582795Y-44509744D01*
X51504774Y-44698102D01*
X51465000Y-44898061D01*
X38535000Y-44898061D01*
X38495226Y-44698102D01*
X38417205Y-44509744D01*
X38303937Y-44340226D01*
X38159774Y-44196063D01*
X37990256Y-44082795D01*
X37801898Y-44004774D01*
X37601939Y-43965000D01*
X37398061Y-43965000D01*
X37198102Y-44004774D01*
X37009744Y-44082795D01*
X36840226Y-44196063D01*
X36696063Y-44340226D01*
X36582795Y-44509744D01*
X36504774Y-44698102D01*
X36465000Y-44898061D01*
X30660000Y-44898061D01*
X30660000Y-41798061D01*
X65515000Y-41798061D01*
X65515000Y-42001939D01*
X65554774Y-42201898D01*
X65632795Y-42390256D01*
X65746063Y-42559774D01*
X65890226Y-42703937D01*
X66059744Y-42817205D01*
X66248102Y-42895226D01*
X66448061Y-42935000D01*
X66651939Y-42935000D01*
X66851898Y-42895226D01*
X67040256Y-42817205D01*
X67209774Y-42703937D01*
X67353937Y-42559774D01*
X67428278Y-42448514D01*
X70165000Y-42448514D01*
X70165000Y-42711486D01*
X70216304Y-42969405D01*
X70316939Y-43212359D01*
X70463038Y-43431013D01*
X70648987Y-43616962D01*
X70867641Y-43763061D01*
X71110595Y-43863696D01*
X71368514Y-43915000D01*
X71631486Y-43915000D01*
X71889405Y-43863696D01*
X72132359Y-43763061D01*
X72351013Y-43616962D01*
X72536962Y-43431013D01*
X72683061Y-43212359D01*
X72783696Y-42969405D01*
X72835000Y-42711486D01*
X72835000Y-42448514D01*
X72783696Y-42190595D01*
X72683061Y-41947641D01*
X72616525Y-41848061D01*
X93315000Y-41848061D01*
X93315000Y-42051939D01*
X93354774Y-42251898D01*
X93432795Y-42440256D01*
X93546063Y-42609774D01*
X93690226Y-42753937D01*
X93859744Y-42867205D01*
X94048102Y-42945226D01*
X94248061Y-42985000D01*
X94451939Y-42985000D01*
X94651898Y-42945226D01*
X94840256Y-42867205D01*
X95009774Y-42753937D01*
X95153937Y-42609774D01*
X95267205Y-42440256D01*
X95345226Y-42251898D01*
X95385000Y-42051939D01*
X95385000Y-41848061D01*
X95345226Y-41648102D01*
X95267205Y-41459744D01*
X95153937Y-41290226D01*
X95009774Y-41146063D01*
X94840256Y-41032795D01*
X94651898Y-40954774D01*
X94451939Y-40915000D01*
X94248061Y-40915000D01*
X94048102Y-40954774D01*
X93859744Y-41032795D01*
X93690226Y-41146063D01*
X93546063Y-41290226D01*
X93432795Y-41459744D01*
X93354774Y-41648102D01*
X93315000Y-41848061D01*
X72616525Y-41848061D01*
X72536962Y-41728987D01*
X72351013Y-41543038D01*
X72132359Y-41396939D01*
X71889405Y-41296304D01*
X71631486Y-41245000D01*
X71368514Y-41245000D01*
X71110595Y-41296304D01*
X70867641Y-41396939D01*
X70648987Y-41543038D01*
X70463038Y-41728987D01*
X70316939Y-41947641D01*
X70216304Y-42190595D01*
X70165000Y-42448514D01*
X67428278Y-42448514D01*
X67467205Y-42390256D01*
X67545226Y-42201898D01*
X67585000Y-42001939D01*
X67585000Y-41798061D01*
X67545226Y-41598102D01*
X67467205Y-41409744D01*
X67353937Y-41240226D01*
X67209774Y-41096063D01*
X67040256Y-40982795D01*
X66851898Y-40904774D01*
X66651939Y-40865000D01*
X66448061Y-40865000D01*
X66248102Y-40904774D01*
X66059744Y-40982795D01*
X65890226Y-41096063D01*
X65746063Y-41240226D01*
X65632795Y-41409744D01*
X65554774Y-41598102D01*
X65515000Y-41798061D01*
X30660000Y-41798061D01*
X30660000Y-39898061D01*
X41465000Y-39898061D01*
X41465000Y-40101939D01*
X41504774Y-40301898D01*
X41582795Y-40490256D01*
X41696063Y-40659774D01*
X41840226Y-40803937D01*
X42009744Y-40917205D01*
X42198102Y-40995226D01*
X42398061Y-41035000D01*
X42601939Y-41035000D01*
X42801898Y-40995226D01*
X42990256Y-40917205D01*
X43159774Y-40803937D01*
X43303937Y-40659774D01*
X43417205Y-40490256D01*
X43495226Y-40301898D01*
X43495989Y-40298061D01*
X62965000Y-40298061D01*
X62965000Y-40501939D01*
X63004774Y-40701898D01*
X63082795Y-40890256D01*
X63196063Y-41059774D01*
X63340226Y-41203937D01*
X63509744Y-41317205D01*
X63698102Y-41395226D01*
X63898061Y-41435000D01*
X64101939Y-41435000D01*
X64301898Y-41395226D01*
X64490256Y-41317205D01*
X64659774Y-41203937D01*
X64803937Y-41059774D01*
X64917205Y-40890256D01*
X64995226Y-40701898D01*
X65035000Y-40501939D01*
X65035000Y-40298061D01*
X64995226Y-40098102D01*
X64917205Y-39909744D01*
X64909399Y-39898061D01*
X73965000Y-39898061D01*
X73965000Y-40101939D01*
X74004774Y-40301898D01*
X74082795Y-40490256D01*
X74196063Y-40659774D01*
X74340226Y-40803937D01*
X74509744Y-40917205D01*
X74698102Y-40995226D01*
X74898061Y-41035000D01*
X75101939Y-41035000D01*
X75301898Y-40995226D01*
X75490256Y-40917205D01*
X75659774Y-40803937D01*
X75803937Y-40659774D01*
X75917205Y-40490256D01*
X75995226Y-40301898D01*
X76035000Y-40101939D01*
X76035000Y-39898061D01*
X75995226Y-39698102D01*
X75917205Y-39509744D01*
X75803937Y-39340226D01*
X75659774Y-39196063D01*
X75490256Y-39082795D01*
X75301898Y-39004774D01*
X75101939Y-38965000D01*
X74898061Y-38965000D01*
X74698102Y-39004774D01*
X74509744Y-39082795D01*
X74340226Y-39196063D01*
X74196063Y-39340226D01*
X74082795Y-39509744D01*
X74004774Y-39698102D01*
X73965000Y-39898061D01*
X64909399Y-39898061D01*
X64803937Y-39740226D01*
X64659774Y-39596063D01*
X64490256Y-39482795D01*
X64301898Y-39404774D01*
X64101939Y-39365000D01*
X63898061Y-39365000D01*
X63698102Y-39404774D01*
X63509744Y-39482795D01*
X63340226Y-39596063D01*
X63196063Y-39740226D01*
X63082795Y-39909744D01*
X63004774Y-40098102D01*
X62965000Y-40298061D01*
X43495989Y-40298061D01*
X43535000Y-40101939D01*
X43535000Y-39898061D01*
X43495226Y-39698102D01*
X43417205Y-39509744D01*
X43303937Y-39340226D01*
X43159774Y-39196063D01*
X42990256Y-39082795D01*
X42801898Y-39004774D01*
X42601939Y-38965000D01*
X42398061Y-38965000D01*
X42198102Y-39004774D01*
X42009744Y-39082795D01*
X41840226Y-39196063D01*
X41696063Y-39340226D01*
X41582795Y-39509744D01*
X41504774Y-39698102D01*
X41465000Y-39898061D01*
X30660000Y-39898061D01*
X30660000Y-36634153D01*
X30892516Y-37195496D01*
X31399760Y-37954640D01*
X32045360Y-38600240D01*
X32804504Y-39107484D01*
X33648020Y-39456880D01*
X34543492Y-39635000D01*
X35456508Y-39635000D01*
X36351980Y-39456880D01*
X37195496Y-39107484D01*
X37954640Y-38600240D01*
X38133611Y-38421269D01*
X70758336Y-38421269D01*
X70817797Y-38655037D01*
X71056242Y-38765934D01*
X71311740Y-38828183D01*
X71574473Y-38839390D01*
X71834344Y-38799125D01*
X72081366Y-38708935D01*
X72182203Y-38655037D01*
X72241664Y-38421269D01*
X71500000Y-37679605D01*
X70758336Y-38421269D01*
X38133611Y-38421269D01*
X38600240Y-37954640D01*
X38854259Y-37574473D01*
X70160610Y-37574473D01*
X70200875Y-37834344D01*
X70291065Y-38081366D01*
X70344963Y-38182203D01*
X70578731Y-38241664D01*
X71320395Y-37500000D01*
X71679605Y-37500000D01*
X72421269Y-38241664D01*
X72655037Y-38182203D01*
X72765934Y-37943758D01*
X72828183Y-37688260D01*
X72839390Y-37425527D01*
X72799125Y-37165656D01*
X72708935Y-36918634D01*
X72655037Y-36817797D01*
X72421269Y-36758336D01*
X71679605Y-37500000D01*
X71320395Y-37500000D01*
X70578731Y-36758336D01*
X70344963Y-36817797D01*
X70234066Y-37056242D01*
X70171817Y-37311740D01*
X70160610Y-37574473D01*
X38854259Y-37574473D01*
X39107484Y-37195496D01*
X39362956Y-36578731D01*
X70758336Y-36578731D01*
X71500000Y-37320395D01*
X72241664Y-36578731D01*
X72182203Y-36344963D01*
X71943758Y-36234066D01*
X71688260Y-36171817D01*
X71425527Y-36160610D01*
X71165656Y-36200875D01*
X70918634Y-36291065D01*
X70817797Y-36344963D01*
X70758336Y-36578731D01*
X39362956Y-36578731D01*
X39456880Y-36351980D01*
X39635000Y-35456508D01*
X39635000Y-34543492D01*
X39556730Y-34150000D01*
X47511928Y-34150000D01*
X47511928Y-35850000D01*
X47524188Y-35974482D01*
X47560498Y-36094180D01*
X47619463Y-36204494D01*
X47698815Y-36301185D01*
X47795506Y-36380537D01*
X47905820Y-36439502D01*
X48025518Y-36475812D01*
X48150000Y-36488072D01*
X49850000Y-36488072D01*
X49974482Y-36475812D01*
X50094180Y-36439502D01*
X50204494Y-36380537D01*
X50301185Y-36301185D01*
X50380537Y-36204494D01*
X50439502Y-36094180D01*
X50461513Y-36021620D01*
X50593368Y-36153475D01*
X50836589Y-36315990D01*
X51106842Y-36427932D01*
X51393740Y-36485000D01*
X51686260Y-36485000D01*
X51973158Y-36427932D01*
X52243411Y-36315990D01*
X52486632Y-36153475D01*
X52693475Y-35946632D01*
X52810000Y-35772240D01*
X52926525Y-35946632D01*
X53133368Y-36153475D01*
X53376589Y-36315990D01*
X53646842Y-36427932D01*
X53933740Y-36485000D01*
X54226260Y-36485000D01*
X54513158Y-36427932D01*
X54783411Y-36315990D01*
X55026632Y-36153475D01*
X55233475Y-35946632D01*
X55350000Y-35772240D01*
X55466525Y-35946632D01*
X55673368Y-36153475D01*
X55916589Y-36315990D01*
X56186842Y-36427932D01*
X56473740Y-36485000D01*
X56766260Y-36485000D01*
X57053158Y-36427932D01*
X57323411Y-36315990D01*
X57566632Y-36153475D01*
X57773475Y-35946632D01*
X57890000Y-35772240D01*
X58006525Y-35946632D01*
X58213368Y-36153475D01*
X58456589Y-36315990D01*
X58726842Y-36427932D01*
X59013740Y-36485000D01*
X59306260Y-36485000D01*
X59593158Y-36427932D01*
X59863411Y-36315990D01*
X60106632Y-36153475D01*
X60313475Y-35946632D01*
X60430000Y-35772240D01*
X60546525Y-35946632D01*
X60753368Y-36153475D01*
X60996589Y-36315990D01*
X61266842Y-36427932D01*
X61553740Y-36485000D01*
X61846260Y-36485000D01*
X62133158Y-36427932D01*
X62403411Y-36315990D01*
X62646632Y-36153475D01*
X62853475Y-35946632D01*
X62970000Y-35772240D01*
X63086525Y-35946632D01*
X63293368Y-36153475D01*
X63536589Y-36315990D01*
X63806842Y-36427932D01*
X64093740Y-36485000D01*
X64386260Y-36485000D01*
X64673158Y-36427932D01*
X64943411Y-36315990D01*
X65186632Y-36153475D01*
X65393475Y-35946632D01*
X65555990Y-35703411D01*
X65667932Y-35433158D01*
X65725000Y-35146260D01*
X65725000Y-34853740D01*
X65667932Y-34566842D01*
X65555990Y-34296589D01*
X65393475Y-34053368D01*
X65186632Y-33846525D01*
X65012240Y-33730000D01*
X65186632Y-33613475D01*
X65393475Y-33406632D01*
X65555990Y-33163411D01*
X65667932Y-32893158D01*
X65725000Y-32606260D01*
X65725000Y-32313740D01*
X65667932Y-32026842D01*
X65555990Y-31756589D01*
X65393475Y-31513368D01*
X65186632Y-31306525D01*
X64943411Y-31144010D01*
X64673158Y-31032068D01*
X64386260Y-30975000D01*
X64093740Y-30975000D01*
X63806842Y-31032068D01*
X63536589Y-31144010D01*
X63293368Y-31306525D01*
X63086525Y-31513368D01*
X62970000Y-31687760D01*
X62853475Y-31513368D01*
X62646632Y-31306525D01*
X62403411Y-31144010D01*
X62133158Y-31032068D01*
X61846260Y-30975000D01*
X61553740Y-30975000D01*
X61266842Y-31032068D01*
X60996589Y-31144010D01*
X60753368Y-31306525D01*
X60546525Y-31513368D01*
X60430000Y-31687760D01*
X60313475Y-31513368D01*
X60106632Y-31306525D01*
X59863411Y-31144010D01*
X59593158Y-31032068D01*
X59306260Y-30975000D01*
X59013740Y-30975000D01*
X58726842Y-31032068D01*
X58456589Y-31144010D01*
X58213368Y-31306525D01*
X58006525Y-31513368D01*
X57890000Y-31687760D01*
X57773475Y-31513368D01*
X57566632Y-31306525D01*
X57323411Y-31144010D01*
X57053158Y-31032068D01*
X56766260Y-30975000D01*
X56473740Y-30975000D01*
X56186842Y-31032068D01*
X55916589Y-31144010D01*
X55673368Y-31306525D01*
X55466525Y-31513368D01*
X55350000Y-31687760D01*
X55233475Y-31513368D01*
X55026632Y-31306525D01*
X54783411Y-31144010D01*
X54513158Y-31032068D01*
X54226260Y-30975000D01*
X53933740Y-30975000D01*
X53646842Y-31032068D01*
X53376589Y-31144010D01*
X53133368Y-31306525D01*
X52926525Y-31513368D01*
X52810000Y-31687760D01*
X52693475Y-31513368D01*
X52486632Y-31306525D01*
X52243411Y-31144010D01*
X51973158Y-31032068D01*
X51686260Y-30975000D01*
X51393740Y-30975000D01*
X51106842Y-31032068D01*
X50836589Y-31144010D01*
X50593368Y-31306525D01*
X50386525Y-31513368D01*
X50270000Y-31687760D01*
X50153475Y-31513368D01*
X49946632Y-31306525D01*
X49703411Y-31144010D01*
X49433158Y-31032068D01*
X49146260Y-30975000D01*
X48853740Y-30975000D01*
X48566842Y-31032068D01*
X48296589Y-31144010D01*
X48053368Y-31306525D01*
X47846525Y-31513368D01*
X47684010Y-31756589D01*
X47572068Y-32026842D01*
X47515000Y-32313740D01*
X47515000Y-32606260D01*
X47572068Y-32893158D01*
X47684010Y-33163411D01*
X47846525Y-33406632D01*
X47978380Y-33538487D01*
X47905820Y-33560498D01*
X47795506Y-33619463D01*
X47698815Y-33698815D01*
X47619463Y-33795506D01*
X47560498Y-33905820D01*
X47524188Y-34025518D01*
X47511928Y-34150000D01*
X39556730Y-34150000D01*
X39456880Y-33648020D01*
X39107484Y-32804504D01*
X38835908Y-32398061D01*
X41465000Y-32398061D01*
X41465000Y-32601939D01*
X41504774Y-32801898D01*
X41582795Y-32990256D01*
X41696063Y-33159774D01*
X41840226Y-33303937D01*
X42009744Y-33417205D01*
X42198102Y-33495226D01*
X42398061Y-33535000D01*
X42601939Y-33535000D01*
X42801898Y-33495226D01*
X42990256Y-33417205D01*
X43159774Y-33303937D01*
X43303937Y-33159774D01*
X43417205Y-32990256D01*
X43495226Y-32801898D01*
X43535000Y-32601939D01*
X43535000Y-32398061D01*
X43495226Y-32198102D01*
X43417205Y-32009744D01*
X43303937Y-31840226D01*
X43159774Y-31696063D01*
X42990256Y-31582795D01*
X42801898Y-31504774D01*
X42601939Y-31465000D01*
X42398061Y-31465000D01*
X42198102Y-31504774D01*
X42009744Y-31582795D01*
X41840226Y-31696063D01*
X41696063Y-31840226D01*
X41582795Y-32009744D01*
X41504774Y-32198102D01*
X41465000Y-32398061D01*
X38835908Y-32398061D01*
X38600240Y-32045360D01*
X37954640Y-31399760D01*
X37195496Y-30892516D01*
X36634153Y-30660000D01*
X77953739Y-30660000D01*
X77908617Y-30768933D01*
G37*
X77908617Y-30768933D02*
X77865000Y-30988212D01*
X77865000Y-31211788D01*
X77908617Y-31431067D01*
X77994176Y-31637624D01*
X78035854Y-31700000D01*
X77994176Y-31762376D01*
X77908617Y-31968933D01*
X77865000Y-32188212D01*
X77865000Y-32411788D01*
X77908617Y-32631067D01*
X77994176Y-32837624D01*
X78035854Y-32900000D01*
X77994176Y-32962376D01*
X77908617Y-33168933D01*
X77865000Y-33388212D01*
X77865000Y-33611788D01*
X77908617Y-33831067D01*
X77994176Y-34037624D01*
X78118388Y-34223520D01*
X78276480Y-34381612D01*
X78462376Y-34505824D01*
X78668933Y-34591383D01*
X78888212Y-34635000D01*
X79111788Y-34635000D01*
X79331067Y-34591383D01*
X79537624Y-34505824D01*
X79550000Y-34497555D01*
X79562376Y-34505824D01*
X79768933Y-34591383D01*
X79988212Y-34635000D01*
X80211788Y-34635000D01*
X80431067Y-34591383D01*
X80637624Y-34505824D01*
X80823520Y-34381612D01*
X80981612Y-34223520D01*
X81105824Y-34037624D01*
X81191383Y-33831067D01*
X81235000Y-33611788D01*
X81235000Y-33388212D01*
X81191383Y-33168933D01*
X81105824Y-32962376D01*
X81064146Y-32900000D01*
X81105824Y-32837624D01*
X81191383Y-32631067D01*
X81235000Y-32411788D01*
X81235000Y-32224416D01*
X81288212Y-32235000D01*
X81511788Y-32235000D01*
X81731067Y-32191383D01*
X81937624Y-32105824D01*
X82000000Y-32064146D01*
X82062376Y-32105824D01*
X82268933Y-32191383D01*
X82488212Y-32235000D01*
X82711788Y-32235000D01*
X82931067Y-32191383D01*
X83137624Y-32105824D01*
X83250000Y-32030737D01*
X83362376Y-32105824D01*
X83568933Y-32191383D01*
X83788212Y-32235000D01*
X84011788Y-32235000D01*
X84231067Y-32191383D01*
X84437624Y-32105824D01*
X84500000Y-32064146D01*
X84562376Y-32105824D01*
X84768933Y-32191383D01*
X84988212Y-32235000D01*
X85211788Y-32235000D01*
X85431067Y-32191383D01*
X85637624Y-32105824D01*
X85823520Y-31981612D01*
X85981612Y-31823520D01*
X86105824Y-31637624D01*
X86191383Y-31431067D01*
X86235000Y-31211788D01*
X86235000Y-30988212D01*
X86191383Y-30768933D01*
X86146261Y-30660000D01*
X100365847Y-30660000D01*
X99804504Y-30892516D01*
X99045360Y-31399760D01*
X98399760Y-32045360D01*
X97892516Y-32804504D01*
X97543120Y-33648020D01*
X97365000Y-34543492D01*
X97365000Y-35456508D01*
X97543120Y-36351980D01*
X97892516Y-37195496D01*
X98399760Y-37954640D01*
X99045360Y-38600240D01*
X99804504Y-39107484D01*
X100648020Y-39456880D01*
X101543492Y-39635000D01*
X102456508Y-39635000D01*
X103351980Y-39456880D01*
X104195496Y-39107484D01*
X104954640Y-38600240D01*
X105600240Y-37954640D01*
X106107484Y-37195496D01*
X106340000Y-36634153D01*
X106340001Y-94673000D01*
X87650000Y-94673000D01*
X87625224Y-94675440D01*
X87601399Y-94682667D01*
X87579443Y-94694403D01*
X87560197Y-94710197D01*
X87544403Y-94729443D01*
X87532667Y-94751399D01*
X87525440Y-94775224D01*
X87523000Y-94800000D01*
X87523000Y-120500000D01*
X87525440Y-120524776D01*
X87532667Y-120548601D01*
X87544403Y-120570557D01*
X87560197Y-120589803D01*
X87579443Y-120605597D01*
X87601399Y-120617333D01*
X87625224Y-120624560D01*
X87650000Y-120627000D01*
X100445516Y-120627000D01*
X99804504Y-120892516D01*
X99045360Y-121399760D01*
X98399760Y-122045360D01*
X97892516Y-122804504D01*
X97543120Y-123648020D01*
X97365000Y-124543492D01*
X97365000Y-125456508D01*
X97543120Y-126351980D01*
X97892516Y-127195496D01*
X98399760Y-127954640D01*
X99045360Y-128600240D01*
X99804504Y-129107484D01*
X100365847Y-129340000D01*
X36634153Y-129340000D01*
X37195496Y-129107484D01*
X37954640Y-128600240D01*
X38600240Y-127954640D01*
X39107484Y-127195496D01*
X39280810Y-126777050D01*
X46815000Y-126777050D01*
X46815000Y-127222949D01*
X46836487Y-127441110D01*
X46921401Y-127721033D01*
X47059294Y-127979013D01*
X47244866Y-128205134D01*
X47470986Y-128390706D01*
X47728966Y-128528599D01*
X48008889Y-128613513D01*
X48300000Y-128642185D01*
X48591110Y-128613513D01*
X48871033Y-128528599D01*
X49129013Y-128390706D01*
X49355134Y-128205134D01*
X49407223Y-128141663D01*
X49461595Y-128243386D01*
X49572038Y-128377962D01*
X49706614Y-128488405D01*
X49860150Y-128570472D01*
X50026746Y-128621008D01*
X50200000Y-128638072D01*
X51400000Y-128638072D01*
X51573254Y-128621008D01*
X51739850Y-128570472D01*
X51893386Y-128488405D01*
X52027962Y-128377962D01*
X52138405Y-128243386D01*
X52220472Y-128089850D01*
X52271008Y-127923254D01*
X52288072Y-127750000D01*
X52288072Y-126450000D01*
X55371928Y-126450000D01*
X55371928Y-128150000D01*
X55384188Y-128274482D01*
X55420498Y-128394180D01*
X55479463Y-128504494D01*
X55558815Y-128601185D01*
X55655506Y-128680537D01*
X55765820Y-128739502D01*
X55885518Y-128775812D01*
X56010000Y-128788072D01*
X57710000Y-128788072D01*
X57834482Y-128775812D01*
X57954180Y-128739502D01*
X58064494Y-128680537D01*
X58161185Y-128601185D01*
X58240537Y-128504494D01*
X58299502Y-128394180D01*
X58321513Y-128321620D01*
X58453368Y-128453475D01*
X58696589Y-128615990D01*
X58966842Y-128727932D01*
X59253740Y-128785000D01*
X59546260Y-128785000D01*
X59833158Y-128727932D01*
X60103411Y-128615990D01*
X60346632Y-128453475D01*
X60553475Y-128246632D01*
X60670000Y-128072240D01*
X60786525Y-128246632D01*
X60993368Y-128453475D01*
X61236589Y-128615990D01*
X61506842Y-128727932D01*
X61793740Y-128785000D01*
X62086260Y-128785000D01*
X62373158Y-128727932D01*
X62643411Y-128615990D01*
X62886632Y-128453475D01*
X63093475Y-128246632D01*
X63255990Y-128003411D01*
X63367932Y-127733158D01*
X63425000Y-127446260D01*
X63425000Y-127153740D01*
X63367932Y-126866842D01*
X63330740Y-126777050D01*
X66015000Y-126777050D01*
X66015000Y-127222949D01*
X66036487Y-127441110D01*
X66121401Y-127721033D01*
X66259294Y-127979013D01*
X66444866Y-128205134D01*
X66670986Y-128390706D01*
X66928966Y-128528599D01*
X67208889Y-128613513D01*
X67500000Y-128642185D01*
X67791110Y-128613513D01*
X68071033Y-128528599D01*
X68329013Y-128390706D01*
X68555134Y-128205134D01*
X68607223Y-128141663D01*
X68661595Y-128243386D01*
X68772038Y-128377962D01*
X68906614Y-128488405D01*
X69060150Y-128570472D01*
X69226746Y-128621008D01*
X69400000Y-128638072D01*
X70600000Y-128638072D01*
X70773254Y-128621008D01*
X70939850Y-128570472D01*
X71093386Y-128488405D01*
X71227962Y-128377962D01*
X71338405Y-128243386D01*
X71420472Y-128089850D01*
X71471008Y-127923254D01*
X71488072Y-127750000D01*
X71488072Y-126250000D01*
X71471008Y-126076746D01*
X71420472Y-125910150D01*
X71338405Y-125756614D01*
X71227962Y-125622038D01*
X71093386Y-125511595D01*
X70939850Y-125429528D01*
X70773254Y-125378992D01*
X70600000Y-125361928D01*
X69400000Y-125361928D01*
X69226746Y-125378992D01*
X69060150Y-125429528D01*
X68906614Y-125511595D01*
X68772038Y-125622038D01*
X68661595Y-125756614D01*
X68607223Y-125858337D01*
X68555134Y-125794866D01*
X68329014Y-125609294D01*
X68071034Y-125471401D01*
X67791111Y-125386487D01*
X67500000Y-125357815D01*
X67208890Y-125386487D01*
X66928967Y-125471401D01*
X66670987Y-125609294D01*
X66444866Y-125794866D01*
X66259294Y-126020986D01*
X66121401Y-126278966D01*
X66036487Y-126558889D01*
X66015000Y-126777050D01*
X63330740Y-126777050D01*
X63255990Y-126596589D01*
X63093475Y-126353368D01*
X62886632Y-126146525D01*
X62712240Y-126030000D01*
X62886632Y-125913475D01*
X63093475Y-125706632D01*
X63255990Y-125463411D01*
X63367932Y-125193158D01*
X63425000Y-124906260D01*
X63425000Y-124613740D01*
X63367932Y-124326842D01*
X63255990Y-124056589D01*
X63093475Y-123813368D01*
X62886632Y-123606525D01*
X62643411Y-123444010D01*
X62373158Y-123332068D01*
X62086260Y-123275000D01*
X61793740Y-123275000D01*
X61506842Y-123332068D01*
X61236589Y-123444010D01*
X60993368Y-123606525D01*
X60786525Y-123813368D01*
X60670000Y-123987760D01*
X60553475Y-123813368D01*
X60346632Y-123606525D01*
X60103411Y-123444010D01*
X59833158Y-123332068D01*
X59546260Y-123275000D01*
X59253740Y-123275000D01*
X58966842Y-123332068D01*
X58696589Y-123444010D01*
X58453368Y-123606525D01*
X58246525Y-123813368D01*
X58130000Y-123987760D01*
X58013475Y-123813368D01*
X57806632Y-123606525D01*
X57563411Y-123444010D01*
X57293158Y-123332068D01*
X57006260Y-123275000D01*
X56713740Y-123275000D01*
X56426842Y-123332068D01*
X56156589Y-123444010D01*
X55913368Y-123606525D01*
X55706525Y-123813368D01*
X55544010Y-124056589D01*
X55432068Y-124326842D01*
X55375000Y-124613740D01*
X55375000Y-124906260D01*
X55432068Y-125193158D01*
X55544010Y-125463411D01*
X55706525Y-125706632D01*
X55838380Y-125838487D01*
X55765820Y-125860498D01*
X55655506Y-125919463D01*
X55558815Y-125998815D01*
X55479463Y-126095506D01*
X55420498Y-126205820D01*
X55384188Y-126325518D01*
X55371928Y-126450000D01*
X52288072Y-126450000D01*
X52288072Y-126250000D01*
X52271008Y-126076746D01*
X52220472Y-125910150D01*
X52138405Y-125756614D01*
X52027962Y-125622038D01*
X51893386Y-125511595D01*
X51739850Y-125429528D01*
X51573254Y-125378992D01*
X51400000Y-125361928D01*
X50200000Y-125361928D01*
X50026746Y-125378992D01*
X49860150Y-125429528D01*
X49706614Y-125511595D01*
X49572038Y-125622038D01*
X49461595Y-125756614D01*
X49407223Y-125858337D01*
X49355134Y-125794866D01*
X49129014Y-125609294D01*
X48871034Y-125471401D01*
X48591111Y-125386487D01*
X48300000Y-125357815D01*
X48008890Y-125386487D01*
X47728967Y-125471401D01*
X47470987Y-125609294D01*
X47244866Y-125794866D01*
X47059294Y-126020986D01*
X46921401Y-126278966D01*
X46836487Y-126558889D01*
X46815000Y-126777050D01*
X39280810Y-126777050D01*
X39456880Y-126351980D01*
X39635000Y-125456508D01*
X39635000Y-124543492D01*
X39456880Y-123648020D01*
X39107484Y-122804504D01*
X38600240Y-122045360D01*
X37954640Y-121399760D01*
X37195496Y-120892516D01*
X36351980Y-120543120D01*
X35456508Y-120365000D01*
X34543492Y-120365000D01*
X33648020Y-120543120D01*
X32804504Y-120892516D01*
X32045360Y-121399760D01*
X31399760Y-122045360D01*
X30892516Y-122804504D01*
X30660000Y-123365847D01*
X30660000Y-117398061D01*
X41465000Y-117398061D01*
X41465000Y-117601939D01*
X41504774Y-117801898D01*
X41582795Y-117990256D01*
X41696063Y-118159774D01*
X41840226Y-118303937D01*
X42009744Y-118417205D01*
X42198102Y-118495226D01*
X42398061Y-118535000D01*
X42601939Y-118535000D01*
X42801898Y-118495226D01*
X42990256Y-118417205D01*
X43159774Y-118303937D01*
X43303937Y-118159774D01*
X43417205Y-117990256D01*
X43495226Y-117801898D01*
X43535000Y-117601939D01*
X43535000Y-117398061D01*
X43495226Y-117198102D01*
X43417205Y-117009744D01*
X43303937Y-116840226D01*
X43159774Y-116696063D01*
X42990256Y-116582795D01*
X42801898Y-116504774D01*
X42601939Y-116465000D01*
X42398061Y-116465000D01*
X42198102Y-116504774D01*
X42009744Y-116582795D01*
X41840226Y-116696063D01*
X41696063Y-116840226D01*
X41582795Y-117009744D01*
X41504774Y-117198102D01*
X41465000Y-117398061D01*
X30660000Y-117398061D01*
X30660000Y-114898061D01*
X63965000Y-114898061D01*
X63965000Y-115101939D01*
X64004774Y-115301898D01*
X64082795Y-115490256D01*
X64196063Y-115659774D01*
X64340226Y-115803937D01*
X64509744Y-115917205D01*
X64698102Y-115995226D01*
X64898061Y-116035000D01*
X65101939Y-116035000D01*
X65301898Y-115995226D01*
X65490256Y-115917205D01*
X65659774Y-115803937D01*
X65803937Y-115659774D01*
X65917205Y-115490256D01*
X65995226Y-115301898D01*
X66035000Y-115101939D01*
X66035000Y-114898061D01*
X65995226Y-114698102D01*
X65917205Y-114509744D01*
X65842582Y-114398061D01*
X79315000Y-114398061D01*
X79315000Y-114601939D01*
X79354774Y-114801898D01*
X79432795Y-114990256D01*
X79546063Y-115159774D01*
X79690226Y-115303937D01*
X79859744Y-115417205D01*
X80048102Y-115495226D01*
X80248061Y-115535000D01*
X80451939Y-115535000D01*
X80651898Y-115495226D01*
X80840256Y-115417205D01*
X81009774Y-115303937D01*
X81153937Y-115159774D01*
X81267205Y-114990256D01*
X81345226Y-114801898D01*
X81385000Y-114601939D01*
X81385000Y-114398061D01*
X81345226Y-114198102D01*
X81267205Y-114009744D01*
X81153937Y-113840226D01*
X81009774Y-113696063D01*
X80840256Y-113582795D01*
X80651898Y-113504774D01*
X80451939Y-113465000D01*
X80248061Y-113465000D01*
X80048102Y-113504774D01*
X79859744Y-113582795D01*
X79690226Y-113696063D01*
X79546063Y-113840226D01*
X79432795Y-114009744D01*
X79354774Y-114198102D01*
X79315000Y-114398061D01*
X65842582Y-114398061D01*
X65803937Y-114340226D01*
X65659774Y-114196063D01*
X65490256Y-114082795D01*
X65301898Y-114004774D01*
X65101939Y-113965000D01*
X64898061Y-113965000D01*
X64698102Y-114004774D01*
X64509744Y-114082795D01*
X64340226Y-114196063D01*
X64196063Y-114340226D01*
X64082795Y-114509744D01*
X64004774Y-114698102D01*
X63965000Y-114898061D01*
X30660000Y-114898061D01*
X30660000Y-112398061D01*
X36465000Y-112398061D01*
X36465000Y-112601939D01*
X36504774Y-112801898D01*
X36582795Y-112990256D01*
X36696063Y-113159774D01*
X36840226Y-113303937D01*
X37009744Y-113417205D01*
X37198102Y-113495226D01*
X37398061Y-113535000D01*
X37601939Y-113535000D01*
X37801898Y-113495226D01*
X37990256Y-113417205D01*
X38159774Y-113303937D01*
X38303937Y-113159774D01*
X38417205Y-112990256D01*
X38495226Y-112801898D01*
X38535000Y-112601939D01*
X38535000Y-112398061D01*
X53965000Y-112398061D01*
X53965000Y-112601939D01*
X54004774Y-112801898D01*
X54082795Y-112990256D01*
X54196063Y-113159774D01*
X54340226Y-113303937D01*
X54509744Y-113417205D01*
X54698102Y-113495226D01*
X54898061Y-113535000D01*
X55101939Y-113535000D01*
X55301898Y-113495226D01*
X55490256Y-113417205D01*
X55659774Y-113303937D01*
X55803937Y-113159774D01*
X55917205Y-112990256D01*
X55995226Y-112801898D01*
X56035000Y-112601939D01*
X56035000Y-112398061D01*
X55995226Y-112198102D01*
X55917205Y-112009744D01*
X55803937Y-111840226D01*
X55659774Y-111696063D01*
X55490256Y-111582795D01*
X55301898Y-111504774D01*
X55101939Y-111465000D01*
X54898061Y-111465000D01*
X54698102Y-111504774D01*
X54509744Y-111582795D01*
X54340226Y-111696063D01*
X54196063Y-111840226D01*
X54082795Y-112009744D01*
X54004774Y-112198102D01*
X53965000Y-112398061D01*
X38535000Y-112398061D01*
X38495226Y-112198102D01*
X38417205Y-112009744D01*
X38303937Y-111840226D01*
X38159774Y-111696063D01*
X37990256Y-111582795D01*
X37801898Y-111504774D01*
X37601939Y-111465000D01*
X37398061Y-111465000D01*
X37198102Y-111504774D01*
X37009744Y-111582795D01*
X36840226Y-111696063D01*
X36696063Y-111840226D01*
X36582795Y-112009744D01*
X36504774Y-112198102D01*
X36465000Y-112398061D01*
X30660000Y-112398061D01*
X30660000Y-109798061D01*
X76765000Y-109798061D01*
X76765000Y-110001939D01*
X76804774Y-110201898D01*
X76882795Y-110390256D01*
X76996063Y-110559774D01*
X77140226Y-110703937D01*
X77309744Y-110817205D01*
X77498102Y-110895226D01*
X77698061Y-110935000D01*
X77901939Y-110935000D01*
X78101898Y-110895226D01*
X78290256Y-110817205D01*
X78459774Y-110703937D01*
X78603937Y-110559774D01*
X78717205Y-110390256D01*
X78795226Y-110201898D01*
X78835000Y-110001939D01*
X78835000Y-109798061D01*
X78795226Y-109598102D01*
X78717205Y-109409744D01*
X78603937Y-109240226D01*
X78459774Y-109096063D01*
X78290256Y-108982795D01*
X78101898Y-108904774D01*
X77901939Y-108865000D01*
X77698061Y-108865000D01*
X77498102Y-108904774D01*
X77309744Y-108982795D01*
X77140226Y-109096063D01*
X76996063Y-109240226D01*
X76882795Y-109409744D01*
X76804774Y-109598102D01*
X76765000Y-109798061D01*
X30660000Y-109798061D01*
X30660000Y-107398061D01*
X41465000Y-107398061D01*
X41465000Y-107601939D01*
X41504774Y-107801898D01*
X41582795Y-107990256D01*
X41696063Y-108159774D01*
X41840226Y-108303937D01*
X42009744Y-108417205D01*
X42198102Y-108495226D01*
X42398061Y-108535000D01*
X42601939Y-108535000D01*
X42801898Y-108495226D01*
X42990256Y-108417205D01*
X43159774Y-108303937D01*
X43303937Y-108159774D01*
X43417205Y-107990256D01*
X43495226Y-107801898D01*
X43535000Y-107601939D01*
X43535000Y-107398061D01*
X51465000Y-107398061D01*
X51465000Y-107601939D01*
X51504774Y-107801898D01*
X51582795Y-107990256D01*
X51696063Y-108159774D01*
X51840226Y-108303937D01*
X52009744Y-108417205D01*
X52198102Y-108495226D01*
X52398061Y-108535000D01*
X52601939Y-108535000D01*
X52801898Y-108495226D01*
X52990256Y-108417205D01*
X53159774Y-108303937D01*
X53303937Y-108159774D01*
X53417205Y-107990256D01*
X53495226Y-107801898D01*
X53535000Y-107601939D01*
X53535000Y-107398061D01*
X53495226Y-107198102D01*
X53417205Y-107009744D01*
X53303937Y-106840226D01*
X53159774Y-106696063D01*
X52990256Y-106582795D01*
X52801898Y-106504774D01*
X52601939Y-106465000D01*
X52398061Y-106465000D01*
X52198102Y-106504774D01*
X52009744Y-106582795D01*
X51840226Y-106696063D01*
X51696063Y-106840226D01*
X51582795Y-107009744D01*
X51504774Y-107198102D01*
X51465000Y-107398061D01*
X43535000Y-107398061D01*
X43495226Y-107198102D01*
X43417205Y-107009744D01*
X43303937Y-106840226D01*
X43159774Y-106696063D01*
X42990256Y-106582795D01*
X42801898Y-106504774D01*
X42601939Y-106465000D01*
X42398061Y-106465000D01*
X42198102Y-106504774D01*
X42009744Y-106582795D01*
X41840226Y-106696063D01*
X41696063Y-106840226D01*
X41582795Y-107009744D01*
X41504774Y-107198102D01*
X41465000Y-107398061D01*
X30660000Y-107398061D01*
X30660000Y-104898061D01*
X63965000Y-104898061D01*
X63965000Y-105101939D01*
X64004774Y-105301898D01*
X64082795Y-105490256D01*
X64196063Y-105659774D01*
X64340226Y-105803937D01*
X64509744Y-105917205D01*
X64698102Y-105995226D01*
X64898061Y-106035000D01*
X65101939Y-106035000D01*
X65301898Y-105995226D01*
X65490256Y-105917205D01*
X65518907Y-105898061D01*
X75465000Y-105898061D01*
X75465000Y-106101939D01*
X75504774Y-106301898D01*
X75582795Y-106490256D01*
X75696063Y-106659774D01*
X75840226Y-106803937D01*
X76009744Y-106917205D01*
X76198102Y-106995226D01*
X76398061Y-107035000D01*
X76601939Y-107035000D01*
X76801898Y-106995226D01*
X76990256Y-106917205D01*
X77159774Y-106803937D01*
X77303937Y-106659774D01*
X77417205Y-106490256D01*
X77495226Y-106301898D01*
X77535000Y-106101939D01*
X77535000Y-105898061D01*
X77495226Y-105698102D01*
X77417205Y-105509744D01*
X77303937Y-105340226D01*
X77159774Y-105196063D01*
X76990256Y-105082795D01*
X76801898Y-105004774D01*
X76601939Y-104965000D01*
X76398061Y-104965000D01*
X76198102Y-105004774D01*
X76009744Y-105082795D01*
X75840226Y-105196063D01*
X75696063Y-105340226D01*
X75582795Y-105509744D01*
X75504774Y-105698102D01*
X75465000Y-105898061D01*
X65518907Y-105898061D01*
X65659774Y-105803937D01*
X65803937Y-105659774D01*
X65917205Y-105490256D01*
X65995226Y-105301898D01*
X66035000Y-105101939D01*
X66035000Y-104898061D01*
X65995226Y-104698102D01*
X65917205Y-104509744D01*
X65803937Y-104340226D01*
X65659774Y-104196063D01*
X65490256Y-104082795D01*
X65301898Y-104004774D01*
X65101939Y-103965000D01*
X64898061Y-103965000D01*
X64698102Y-104004774D01*
X64509744Y-104082795D01*
X64340226Y-104196063D01*
X64196063Y-104340226D01*
X64082795Y-104509744D01*
X64004774Y-104698102D01*
X63965000Y-104898061D01*
X30660000Y-104898061D01*
X30660000Y-102398061D01*
X36465000Y-102398061D01*
X36465000Y-102601939D01*
X36504774Y-102801898D01*
X36582795Y-102990256D01*
X36696063Y-103159774D01*
X36840226Y-103303937D01*
X37009744Y-103417205D01*
X37198102Y-103495226D01*
X37398061Y-103535000D01*
X37601939Y-103535000D01*
X37801898Y-103495226D01*
X37990256Y-103417205D01*
X38159774Y-103303937D01*
X38303937Y-103159774D01*
X38417205Y-102990256D01*
X38495226Y-102801898D01*
X38535000Y-102601939D01*
X38535000Y-102398061D01*
X38495226Y-102198102D01*
X38417205Y-102009744D01*
X38303937Y-101840226D01*
X38159774Y-101696063D01*
X37990256Y-101582795D01*
X37801898Y-101504774D01*
X37601939Y-101465000D01*
X37398061Y-101465000D01*
X37198102Y-101504774D01*
X37009744Y-101582795D01*
X36840226Y-101696063D01*
X36696063Y-101840226D01*
X36582795Y-102009744D01*
X36504774Y-102198102D01*
X36465000Y-102398061D01*
X30660000Y-102398061D01*
X30660000Y-99898061D01*
X53965000Y-99898061D01*
X53965000Y-100101939D01*
X54004774Y-100301898D01*
X54082795Y-100490256D01*
X54196063Y-100659774D01*
X54340226Y-100803937D01*
X54509744Y-100917205D01*
X54698102Y-100995226D01*
X54898061Y-101035000D01*
X55101939Y-101035000D01*
X55301898Y-100995226D01*
X55490256Y-100917205D01*
X55659774Y-100803937D01*
X55803937Y-100659774D01*
X55917205Y-100490256D01*
X55995226Y-100301898D01*
X56035000Y-100101939D01*
X56035000Y-99898061D01*
X55995226Y-99698102D01*
X55917205Y-99509744D01*
X55803937Y-99340226D01*
X55659774Y-99196063D01*
X55490256Y-99082795D01*
X55301898Y-99004774D01*
X55101939Y-98965000D01*
X54898061Y-98965000D01*
X54698102Y-99004774D01*
X54509744Y-99082795D01*
X54340226Y-99196063D01*
X54196063Y-99340226D01*
X54082795Y-99509744D01*
X54004774Y-99698102D01*
X53965000Y-99898061D01*
X30660000Y-99898061D01*
X30660000Y-97398061D01*
X41465000Y-97398061D01*
X41465000Y-97601939D01*
X41504774Y-97801898D01*
X41582795Y-97990256D01*
X41696063Y-98159774D01*
X41840226Y-98303937D01*
X42009744Y-98417205D01*
X42198102Y-98495226D01*
X42398061Y-98535000D01*
X42601939Y-98535000D01*
X42801898Y-98495226D01*
X42990256Y-98417205D01*
X43159774Y-98303937D01*
X43303937Y-98159774D01*
X43417205Y-97990256D01*
X43495226Y-97801898D01*
X43535000Y-97601939D01*
X43535000Y-97398061D01*
X43495226Y-97198102D01*
X43417205Y-97009744D01*
X43303937Y-96840226D01*
X43159774Y-96696063D01*
X42990256Y-96582795D01*
X42801898Y-96504774D01*
X42601939Y-96465000D01*
X42398061Y-96465000D01*
X42198102Y-96504774D01*
X42009744Y-96582795D01*
X41840226Y-96696063D01*
X41696063Y-96840226D01*
X41582795Y-97009744D01*
X41504774Y-97198102D01*
X41465000Y-97398061D01*
X30660000Y-97398061D01*
X30660000Y-94098061D01*
X52565000Y-94098061D01*
X52565000Y-94301939D01*
X52604774Y-94501898D01*
X52682795Y-94690256D01*
X52796063Y-94859774D01*
X52940226Y-95003937D01*
X53109744Y-95117205D01*
X53298102Y-95195226D01*
X53498061Y-95235000D01*
X53701939Y-95235000D01*
X53901898Y-95195226D01*
X54090256Y-95117205D01*
X54259774Y-95003937D01*
X54403937Y-94859774D01*
X54517205Y-94690256D01*
X54595226Y-94501898D01*
X54635000Y-94301939D01*
X54635000Y-94098061D01*
X60815000Y-94098061D01*
X60815000Y-94301939D01*
X60854774Y-94501898D01*
X60932795Y-94690256D01*
X61046063Y-94859774D01*
X61190226Y-95003937D01*
X61359744Y-95117205D01*
X61548102Y-95195226D01*
X61748061Y-95235000D01*
X61951939Y-95235000D01*
X62151898Y-95195226D01*
X62340256Y-95117205D01*
X62509774Y-95003937D01*
X62653937Y-94859774D01*
X62767205Y-94690256D01*
X62845226Y-94501898D01*
X62885000Y-94301939D01*
X62885000Y-94098061D01*
X62867099Y-94008061D01*
X67185000Y-94008061D01*
X67185000Y-94211939D01*
X67224774Y-94411898D01*
X67302795Y-94600256D01*
X67416063Y-94769774D01*
X67560226Y-94913937D01*
X67729744Y-95027205D01*
X67918102Y-95105226D01*
X68118061Y-95145000D01*
X68321939Y-95145000D01*
X68521898Y-95105226D01*
X68710256Y-95027205D01*
X68879774Y-94913937D01*
X69023937Y-94769774D01*
X69137205Y-94600256D01*
X69215226Y-94411898D01*
X69255000Y-94211939D01*
X69255000Y-94008061D01*
X69253011Y-93998061D01*
X71565000Y-93998061D01*
X71565000Y-94201939D01*
X71604774Y-94401898D01*
X71682795Y-94590256D01*
X71796063Y-94759774D01*
X71940226Y-94903937D01*
X72109744Y-95017205D01*
X72298102Y-95095226D01*
X72498061Y-95135000D01*
X72701939Y-95135000D01*
X72901898Y-95095226D01*
X73090256Y-95017205D01*
X73259774Y-94903937D01*
X73403937Y-94759774D01*
X73517205Y-94590256D01*
X73595226Y-94401898D01*
X73635000Y-94201939D01*
X73635000Y-94098061D01*
X77065000Y-94098061D01*
X77065000Y-94301939D01*
X77104774Y-94501898D01*
X77182795Y-94690256D01*
X77296063Y-94859774D01*
X77440226Y-95003937D01*
X77609744Y-95117205D01*
X77798102Y-95195226D01*
X77998061Y-95235000D01*
X78201939Y-95235000D01*
X78401898Y-95195226D01*
X78590256Y-95117205D01*
X78759774Y-95003937D01*
X78903937Y-94859774D01*
X79017205Y-94690256D01*
X79095226Y-94501898D01*
X79135000Y-94301939D01*
X79135000Y-94098061D01*
X79095226Y-93898102D01*
X79017205Y-93709744D01*
X78903937Y-93540226D01*
X78759774Y-93396063D01*
X78590256Y-93282795D01*
X78401898Y-93204774D01*
X78201939Y-93165000D01*
X77998061Y-93165000D01*
X77798102Y-93204774D01*
X77609744Y-93282795D01*
X77440226Y-93396063D01*
X77296063Y-93540226D01*
X77182795Y-93709744D01*
X77104774Y-93898102D01*
X77065000Y-94098061D01*
X73635000Y-94098061D01*
X73635000Y-93998061D01*
X73595226Y-93798102D01*
X73517205Y-93609744D01*
X73403937Y-93440226D01*
X73259774Y-93296063D01*
X73090256Y-93182795D01*
X72901898Y-93104774D01*
X72701939Y-93065000D01*
X72498061Y-93065000D01*
X72298102Y-93104774D01*
X72109744Y-93182795D01*
X71940226Y-93296063D01*
X71796063Y-93440226D01*
X71682795Y-93609744D01*
X71604774Y-93798102D01*
X71565000Y-93998061D01*
X69253011Y-93998061D01*
X69215226Y-93808102D01*
X69137205Y-93619744D01*
X69023937Y-93450226D01*
X68879774Y-93306063D01*
X68710256Y-93192795D01*
X68521898Y-93114774D01*
X68321939Y-93075000D01*
X68118061Y-93075000D01*
X67918102Y-93114774D01*
X67729744Y-93192795D01*
X67560226Y-93306063D01*
X67416063Y-93450226D01*
X67302795Y-93619744D01*
X67224774Y-93808102D01*
X67185000Y-94008061D01*
X62867099Y-94008061D01*
X62845226Y-93898102D01*
X62767205Y-93709744D01*
X62653937Y-93540226D01*
X62509774Y-93396063D01*
X62340256Y-93282795D01*
X62151898Y-93204774D01*
X61951939Y-93165000D01*
X61748061Y-93165000D01*
X61548102Y-93204774D01*
X61359744Y-93282795D01*
X61190226Y-93396063D01*
X61046063Y-93540226D01*
X60932795Y-93709744D01*
X60854774Y-93898102D01*
X60815000Y-94098061D01*
X54635000Y-94098061D01*
X54595226Y-93898102D01*
X54517205Y-93709744D01*
X54403937Y-93540226D01*
X54259774Y-93396063D01*
X54090256Y-93282795D01*
X53901898Y-93204774D01*
X53701939Y-93165000D01*
X53498061Y-93165000D01*
X53298102Y-93204774D01*
X53109744Y-93282795D01*
X52940226Y-93396063D01*
X52796063Y-93540226D01*
X52682795Y-93709744D01*
X52604774Y-93898102D01*
X52565000Y-94098061D01*
X30660000Y-94098061D01*
X30660000Y-92398061D01*
X36465000Y-92398061D01*
X36465000Y-92601939D01*
X36504774Y-92801898D01*
X36582795Y-92990256D01*
X36696063Y-93159774D01*
X36840226Y-93303937D01*
X37009744Y-93417205D01*
X37198102Y-93495226D01*
X37398061Y-93535000D01*
X37601939Y-93535000D01*
X37801898Y-93495226D01*
X37990256Y-93417205D01*
X38159774Y-93303937D01*
X38303937Y-93159774D01*
X38417205Y-92990256D01*
X38495226Y-92801898D01*
X38535000Y-92601939D01*
X38535000Y-92398061D01*
X38495226Y-92198102D01*
X38417205Y-92009744D01*
X38303937Y-91840226D01*
X38159774Y-91696063D01*
X37990256Y-91582795D01*
X37801898Y-91504774D01*
X37601939Y-91465000D01*
X37398061Y-91465000D01*
X37198102Y-91504774D01*
X37009744Y-91582795D01*
X36840226Y-91696063D01*
X36696063Y-91840226D01*
X36582795Y-92009744D01*
X36504774Y-92198102D01*
X36465000Y-92398061D01*
X30660000Y-92398061D01*
X30660000Y-91398061D01*
X53715000Y-91398061D01*
X53715000Y-91601939D01*
X53754774Y-91801898D01*
X53832795Y-91990256D01*
X53946063Y-92159774D01*
X54090226Y-92303937D01*
X54259744Y-92417205D01*
X54448102Y-92495226D01*
X54648061Y-92535000D01*
X54851939Y-92535000D01*
X55051898Y-92495226D01*
X55240256Y-92417205D01*
X55409774Y-92303937D01*
X55553937Y-92159774D01*
X55667205Y-91990256D01*
X55745226Y-91801898D01*
X55785000Y-91601939D01*
X55785000Y-91412511D01*
X55898061Y-91435000D01*
X56101939Y-91435000D01*
X56301898Y-91395226D01*
X56490256Y-91317205D01*
X56659774Y-91203937D01*
X56803937Y-91059774D01*
X56917205Y-90890256D01*
X56995226Y-90701898D01*
X57035000Y-90501939D01*
X57035000Y-90298061D01*
X57025055Y-90248061D01*
X60065000Y-90248061D01*
X60065000Y-90451939D01*
X60104774Y-90651898D01*
X60182795Y-90840256D01*
X60296063Y-91009774D01*
X60440226Y-91153937D01*
X60609744Y-91267205D01*
X60798102Y-91345226D01*
X60998061Y-91385000D01*
X61201939Y-91385000D01*
X61401898Y-91345226D01*
X61590256Y-91267205D01*
X61759774Y-91153937D01*
X61765650Y-91148061D01*
X67165000Y-91148061D01*
X67165000Y-91351939D01*
X67204774Y-91551898D01*
X67282795Y-91740256D01*
X67396063Y-91909774D01*
X67540226Y-92053937D01*
X67709744Y-92167205D01*
X67898102Y-92245226D01*
X68098061Y-92285000D01*
X68301939Y-92285000D01*
X68501898Y-92245226D01*
X68690256Y-92167205D01*
X68859774Y-92053937D01*
X69003937Y-91909774D01*
X69117205Y-91740256D01*
X69195226Y-91551898D01*
X69235000Y-91351939D01*
X69235000Y-91148061D01*
X69195226Y-90948102D01*
X69117205Y-90759744D01*
X69003937Y-90590226D01*
X68859774Y-90446063D01*
X68690256Y-90332795D01*
X68501898Y-90254774D01*
X68301939Y-90215000D01*
X68098061Y-90215000D01*
X67898102Y-90254774D01*
X67709744Y-90332795D01*
X67540226Y-90446063D01*
X67396063Y-90590226D01*
X67282795Y-90759744D01*
X67204774Y-90948102D01*
X67165000Y-91148061D01*
X61765650Y-91148061D01*
X61903937Y-91009774D01*
X62017205Y-90840256D01*
X62095226Y-90651898D01*
X62135000Y-90451939D01*
X62135000Y-90248061D01*
X62095226Y-90048102D01*
X62017205Y-89859744D01*
X61903937Y-89690226D01*
X61759774Y-89546063D01*
X61590256Y-89432795D01*
X61401898Y-89354774D01*
X61201939Y-89315000D01*
X60998061Y-89315000D01*
X60798102Y-89354774D01*
X60609744Y-89432795D01*
X60440226Y-89546063D01*
X60296063Y-89690226D01*
X60182795Y-89859744D01*
X60104774Y-90048102D01*
X60065000Y-90248061D01*
X57025055Y-90248061D01*
X56995226Y-90098102D01*
X56917205Y-89909744D01*
X56803937Y-89740226D01*
X56659774Y-89596063D01*
X56490256Y-89482795D01*
X56301898Y-89404774D01*
X56101939Y-89365000D01*
X55898061Y-89365000D01*
X55698102Y-89404774D01*
X55509744Y-89482795D01*
X55340226Y-89596063D01*
X55196063Y-89740226D01*
X55082795Y-89909744D01*
X55004774Y-90098102D01*
X54965000Y-90298061D01*
X54965000Y-90487489D01*
X54851939Y-90465000D01*
X54648061Y-90465000D01*
X54448102Y-90504774D01*
X54259744Y-90582795D01*
X54090226Y-90696063D01*
X53946063Y-90840226D01*
X53832795Y-91009744D01*
X53754774Y-91198102D01*
X53715000Y-91398061D01*
X30660000Y-91398061D01*
X30660000Y-89198061D01*
X47465000Y-89198061D01*
X47465000Y-89401939D01*
X47504774Y-89601898D01*
X47582795Y-89790256D01*
X47696063Y-89959774D01*
X47840226Y-90103937D01*
X48009744Y-90217205D01*
X48198102Y-90295226D01*
X48398061Y-90335000D01*
X48601939Y-90335000D01*
X48801898Y-90295226D01*
X48990256Y-90217205D01*
X49159774Y-90103937D01*
X49303937Y-89959774D01*
X49417205Y-89790256D01*
X49495226Y-89601898D01*
X49535000Y-89401939D01*
X49535000Y-89198061D01*
X49495226Y-88998102D01*
X49495210Y-88998061D01*
X67765000Y-88998061D01*
X67765000Y-89201939D01*
X67804774Y-89401898D01*
X67882795Y-89590256D01*
X67996063Y-89759774D01*
X68140226Y-89903937D01*
X68309744Y-90017205D01*
X68498102Y-90095226D01*
X68698061Y-90135000D01*
X68901939Y-90135000D01*
X69101898Y-90095226D01*
X69290256Y-90017205D01*
X69459774Y-89903937D01*
X69603937Y-89759774D01*
X69717205Y-89590256D01*
X69795226Y-89401898D01*
X69835000Y-89201939D01*
X69835000Y-88998061D01*
X69795226Y-88798102D01*
X69717205Y-88609744D01*
X69603937Y-88440226D01*
X69459774Y-88296063D01*
X69290256Y-88182795D01*
X69101898Y-88104774D01*
X68901939Y-88065000D01*
X68698061Y-88065000D01*
X68498102Y-88104774D01*
X68309744Y-88182795D01*
X68140226Y-88296063D01*
X67996063Y-88440226D01*
X67882795Y-88609744D01*
X67804774Y-88798102D01*
X67765000Y-88998061D01*
X49495210Y-88998061D01*
X49417205Y-88809744D01*
X49303937Y-88640226D01*
X49159774Y-88496063D01*
X48990256Y-88382795D01*
X48801898Y-88304774D01*
X48601939Y-88265000D01*
X48398061Y-88265000D01*
X48198102Y-88304774D01*
X48009744Y-88382795D01*
X47840226Y-88496063D01*
X47696063Y-88640226D01*
X47582795Y-88809744D01*
X47504774Y-88998102D01*
X47465000Y-89198061D01*
X30660000Y-89198061D01*
X30660000Y-85988212D01*
X39865000Y-85988212D01*
X39865000Y-86211788D01*
X39908617Y-86431067D01*
X39994176Y-86637624D01*
X40118388Y-86823520D01*
X40276480Y-86981612D01*
X40462376Y-87105824D01*
X40668933Y-87191383D01*
X40888212Y-87235000D01*
X41111788Y-87235000D01*
X41331067Y-87191383D01*
X41537624Y-87105824D01*
X41723520Y-86981612D01*
X41745645Y-86959487D01*
X41846063Y-87109774D01*
X41990226Y-87253937D01*
X42159744Y-87367205D01*
X42348102Y-87445226D01*
X42548061Y-87485000D01*
X42751939Y-87485000D01*
X42951898Y-87445226D01*
X43140256Y-87367205D01*
X43150000Y-87360694D01*
X43159744Y-87367205D01*
X43348102Y-87445226D01*
X43548061Y-87485000D01*
X43751939Y-87485000D01*
X43951898Y-87445226D01*
X44129189Y-87371789D01*
X44159744Y-87392205D01*
X44348102Y-87470226D01*
X44548061Y-87510000D01*
X44751939Y-87510000D01*
X44951898Y-87470226D01*
X45140256Y-87392205D01*
X45170811Y-87371789D01*
X45348102Y-87445226D01*
X45548061Y-87485000D01*
X45751939Y-87485000D01*
X45951898Y-87445226D01*
X46140256Y-87367205D01*
X46309774Y-87253937D01*
X46453937Y-87109774D01*
X46567205Y-86940256D01*
X46645226Y-86751898D01*
X46685000Y-86551939D01*
X46685000Y-86348061D01*
X46645226Y-86148102D01*
X46567205Y-85959744D01*
X46453937Y-85790226D01*
X46309774Y-85646063D01*
X46140256Y-85532795D01*
X45951898Y-85454774D01*
X45751939Y-85415000D01*
X45548061Y-85415000D01*
X45348102Y-85454774D01*
X45159744Y-85532795D01*
X45129189Y-85553211D01*
X44951898Y-85479774D01*
X44751939Y-85440000D01*
X44548061Y-85440000D01*
X44348102Y-85479774D01*
X44170811Y-85553211D01*
X44140256Y-85532795D01*
X43951898Y-85454774D01*
X43751939Y-85415000D01*
X43548061Y-85415000D01*
X43348102Y-85454774D01*
X43159744Y-85532795D01*
X43150000Y-85539306D01*
X43140256Y-85532795D01*
X42951898Y-85454774D01*
X42751939Y-85415000D01*
X42548061Y-85415000D01*
X42348102Y-85454774D01*
X42159744Y-85532795D01*
X42029593Y-85619759D01*
X42005824Y-85562376D01*
X41881612Y-85376480D01*
X41723520Y-85218388D01*
X41537624Y-85094176D01*
X41331067Y-85008617D01*
X41111788Y-84965000D01*
X40888212Y-84965000D01*
X40668933Y-85008617D01*
X40462376Y-85094176D01*
X40276480Y-85218388D01*
X40118388Y-85376480D01*
X39994176Y-85562376D01*
X39908617Y-85768933D01*
X39865000Y-85988212D01*
X30660000Y-85988212D01*
X30660000Y-84598061D01*
X62365000Y-84598061D01*
X62365000Y-84801939D01*
X62404774Y-85001898D01*
X62482795Y-85190256D01*
X62596063Y-85359774D01*
X62740226Y-85503937D01*
X62909744Y-85617205D01*
X63098102Y-85695226D01*
X63298061Y-85735000D01*
X63501939Y-85735000D01*
X63701898Y-85695226D01*
X63890256Y-85617205D01*
X64059774Y-85503937D01*
X64200000Y-85363711D01*
X64340226Y-85503937D01*
X64509744Y-85617205D01*
X64698102Y-85695226D01*
X64898061Y-85735000D01*
X65101939Y-85735000D01*
X65301898Y-85695226D01*
X65490256Y-85617205D01*
X65659774Y-85503937D01*
X65803937Y-85359774D01*
X65875000Y-85253420D01*
X65946063Y-85359774D01*
X66090226Y-85503937D01*
X66259744Y-85617205D01*
X66448102Y-85695226D01*
X66648061Y-85735000D01*
X66851939Y-85735000D01*
X67051898Y-85695226D01*
X67240256Y-85617205D01*
X67409774Y-85503937D01*
X67553937Y-85359774D01*
X67667205Y-85190256D01*
X67745226Y-85001898D01*
X67785000Y-84801939D01*
X67785000Y-84598061D01*
X67745226Y-84398102D01*
X67667205Y-84209744D01*
X67553937Y-84040226D01*
X67409774Y-83896063D01*
X67240256Y-83782795D01*
X67051898Y-83704774D01*
X66851939Y-83665000D01*
X66648061Y-83665000D01*
X66448102Y-83704774D01*
X66259744Y-83782795D01*
X66090226Y-83896063D01*
X65946063Y-84040226D01*
X65875000Y-84146580D01*
X65803937Y-84040226D01*
X65659774Y-83896063D01*
X65490256Y-83782795D01*
X65301898Y-83704774D01*
X65101939Y-83665000D01*
X64898061Y-83665000D01*
X64698102Y-83704774D01*
X64509744Y-83782795D01*
X64340226Y-83896063D01*
X64200000Y-84036289D01*
X64059774Y-83896063D01*
X63890256Y-83782795D01*
X63701898Y-83704774D01*
X63501939Y-83665000D01*
X63298061Y-83665000D01*
X63098102Y-83704774D01*
X62909744Y-83782795D01*
X62740226Y-83896063D01*
X62596063Y-84040226D01*
X62482795Y-84209744D01*
X62404774Y-84398102D01*
X62365000Y-84598061D01*
X30660000Y-84598061D01*
X30660000Y-82727000D01*
X37573000Y-82727000D01*
X37573000Y-83000000D01*
X37575440Y-83024776D01*
X37582667Y-83048601D01*
X37594403Y-83070557D01*
X37610197Y-83089803D01*
X37629443Y-83105597D01*
X37651399Y-83117333D01*
X37675224Y-83124560D01*
X37700000Y-83127000D01*
X43429135Y-83127000D01*
X43415000Y-83198061D01*
X43415000Y-83401939D01*
X43454774Y-83601898D01*
X43532795Y-83790256D01*
X43646063Y-83959774D01*
X43790226Y-84103937D01*
X43959744Y-84217205D01*
X44148102Y-84295226D01*
X44348061Y-84335000D01*
X44551939Y-84335000D01*
X44751898Y-84295226D01*
X44940256Y-84217205D01*
X45109774Y-84103937D01*
X45253937Y-83959774D01*
X45367205Y-83790256D01*
X45445226Y-83601898D01*
X45485000Y-83401939D01*
X45485000Y-83198061D01*
X45470865Y-83127000D01*
X45500000Y-83127000D01*
X45524776Y-83124560D01*
X45548601Y-83117333D01*
X45570557Y-83105597D01*
X45589803Y-83089803D01*
X45605597Y-83070557D01*
X45617333Y-83048601D01*
X45624560Y-83024776D01*
X45627000Y-83000000D01*
X45627000Y-82798061D01*
X52765000Y-82798061D01*
X52765000Y-83001939D01*
X52804774Y-83201898D01*
X52882795Y-83390256D01*
X52996063Y-83559774D01*
X53140226Y-83703937D01*
X53309744Y-83817205D01*
X53498102Y-83895226D01*
X53698061Y-83935000D01*
X53901939Y-83935000D01*
X54101898Y-83895226D01*
X54290256Y-83817205D01*
X54459774Y-83703937D01*
X54603937Y-83559774D01*
X54717205Y-83390256D01*
X54795226Y-83201898D01*
X54835000Y-83001939D01*
X54835000Y-82798061D01*
X54795226Y-82598102D01*
X54717205Y-82409744D01*
X54603937Y-82240226D01*
X54459774Y-82096063D01*
X54290256Y-81982795D01*
X54101898Y-81904774D01*
X53901939Y-81865000D01*
X53698061Y-81865000D01*
X53498102Y-81904774D01*
X53309744Y-81982795D01*
X53140226Y-82096063D01*
X52996063Y-82240226D01*
X52882795Y-82409744D01*
X52804774Y-82598102D01*
X52765000Y-82798061D01*
X45627000Y-82798061D01*
X45627000Y-80948061D01*
X70315000Y-80948061D01*
X70315000Y-81151939D01*
X70354774Y-81351898D01*
X70432795Y-81540256D01*
X70546063Y-81709774D01*
X70690226Y-81853937D01*
X70859744Y-81967205D01*
X71048102Y-82045226D01*
X71248061Y-82085000D01*
X71451939Y-82085000D01*
X71651898Y-82045226D01*
X71840256Y-81967205D01*
X72009774Y-81853937D01*
X72153937Y-81709774D01*
X72267205Y-81540256D01*
X72345226Y-81351898D01*
X72385000Y-81151939D01*
X72385000Y-80948061D01*
X72345226Y-80748102D01*
X72267205Y-80559744D01*
X72153937Y-80390226D01*
X72009774Y-80246063D01*
X71840256Y-80132795D01*
X71651898Y-80054774D01*
X71451939Y-80015000D01*
X71248061Y-80015000D01*
X71048102Y-80054774D01*
X70859744Y-80132795D01*
X70690226Y-80246063D01*
X70546063Y-80390226D01*
X70432795Y-80559744D01*
X70354774Y-80748102D01*
X70315000Y-80948061D01*
X45627000Y-80948061D01*
X45627000Y-80227000D01*
X48400000Y-80227000D01*
X48424776Y-80224560D01*
X48448601Y-80217333D01*
X48470557Y-80205597D01*
X48489803Y-80189803D01*
X48505597Y-80170557D01*
X48517333Y-80148601D01*
X48524560Y-80124776D01*
X48527000Y-80100000D01*
X48527000Y-79898061D01*
X76465000Y-79898061D01*
X76465000Y-80101939D01*
X76504774Y-80301898D01*
X76582795Y-80490256D01*
X76696063Y-80659774D01*
X76840226Y-80803937D01*
X77009744Y-80917205D01*
X77198102Y-80995226D01*
X77398061Y-81035000D01*
X77601939Y-81035000D01*
X77801898Y-80995226D01*
X77990256Y-80917205D01*
X78159774Y-80803937D01*
X78303937Y-80659774D01*
X78417205Y-80490256D01*
X78495226Y-80301898D01*
X78535000Y-80101939D01*
X78535000Y-79898061D01*
X78495226Y-79698102D01*
X78417205Y-79509744D01*
X78303937Y-79340226D01*
X78159774Y-79196063D01*
X77990256Y-79082795D01*
X77801898Y-79004774D01*
X77601939Y-78965000D01*
X77398061Y-78965000D01*
X77198102Y-79004774D01*
X77009744Y-79082795D01*
X76840226Y-79196063D01*
X76696063Y-79340226D01*
X76582795Y-79509744D01*
X76504774Y-79698102D01*
X76465000Y-79898061D01*
X48527000Y-79898061D01*
X48527000Y-78900000D01*
X48524560Y-78875224D01*
X48517333Y-78851399D01*
X48505597Y-78829443D01*
X48489803Y-78810197D01*
X48470557Y-78794403D01*
X48448601Y-78782667D01*
X48424776Y-78775440D01*
X48400000Y-78773000D01*
X45627000Y-78773000D01*
X45627000Y-78599645D01*
X45624560Y-78574869D01*
X45617333Y-78551044D01*
X45605597Y-78529088D01*
X45589803Y-78509842D01*
X45570557Y-78494048D01*
X45548601Y-78482312D01*
X45524776Y-78475085D01*
X45499975Y-78472645D01*
X43827000Y-78472975D01*
X43827000Y-77398061D01*
X52765000Y-77398061D01*
X52765000Y-77601939D01*
X52804774Y-77801898D01*
X52882795Y-77990256D01*
X52996063Y-78159774D01*
X53140226Y-78303937D01*
X53309744Y-78417205D01*
X53498102Y-78495226D01*
X53698061Y-78535000D01*
X53901939Y-78535000D01*
X54101898Y-78495226D01*
X54290256Y-78417205D01*
X54459774Y-78303937D01*
X54603937Y-78159774D01*
X54717205Y-77990256D01*
X54795226Y-77801898D01*
X54835000Y-77601939D01*
X54835000Y-77398061D01*
X54795226Y-77198102D01*
X54717205Y-77009744D01*
X54603937Y-76840226D01*
X54459774Y-76696063D01*
X54290256Y-76582795D01*
X54101898Y-76504774D01*
X53901939Y-76465000D01*
X53698061Y-76465000D01*
X53498102Y-76504774D01*
X53309744Y-76582795D01*
X53140226Y-76696063D01*
X52996063Y-76840226D01*
X52882795Y-77009744D01*
X52804774Y-77198102D01*
X52765000Y-77398061D01*
X43827000Y-77398061D01*
X43827000Y-75700000D01*
X43824560Y-75675224D01*
X43817333Y-75651399D01*
X43805597Y-75629443D01*
X43789803Y-75610197D01*
X43770557Y-75594403D01*
X43748601Y-75582667D01*
X43724776Y-75575440D01*
X43700000Y-75573000D01*
X37700000Y-75573000D01*
X37675224Y-75575440D01*
X37651399Y-75582667D01*
X37629443Y-75594403D01*
X37610197Y-75610197D01*
X37594403Y-75629443D01*
X37582667Y-75651399D01*
X37575440Y-75675224D01*
X37573000Y-75700000D01*
X37573000Y-79157842D01*
X37565000Y-79198061D01*
X37565000Y-79401939D01*
X37573000Y-79442158D01*
X37573000Y-82473000D01*
X30660000Y-82473000D01*
X30660000Y-74398061D01*
X43965000Y-74398061D01*
X43965000Y-74601939D01*
X44004774Y-74801898D01*
X44082795Y-74990256D01*
X44196063Y-75159774D01*
X44340226Y-75303937D01*
X44509744Y-75417205D01*
X44698102Y-75495226D01*
X44898061Y-75535000D01*
X45101939Y-75535000D01*
X45301898Y-75495226D01*
X45490256Y-75417205D01*
X45518907Y-75398061D01*
X70365000Y-75398061D01*
X70365000Y-75601939D01*
X70404774Y-75801898D01*
X70482795Y-75990256D01*
X70596063Y-76159774D01*
X70740226Y-76303937D01*
X70909744Y-76417205D01*
X71098102Y-76495226D01*
X71298061Y-76535000D01*
X71501939Y-76535000D01*
X71701898Y-76495226D01*
X71890256Y-76417205D01*
X72059774Y-76303937D01*
X72203937Y-76159774D01*
X72317205Y-75990256D01*
X72395226Y-75801898D01*
X72435000Y-75601939D01*
X72435000Y-75398061D01*
X72395226Y-75198102D01*
X72317205Y-75009744D01*
X72203937Y-74840226D01*
X72059774Y-74696063D01*
X71890256Y-74582795D01*
X71701898Y-74504774D01*
X71501939Y-74465000D01*
X71298061Y-74465000D01*
X71098102Y-74504774D01*
X70909744Y-74582795D01*
X70740226Y-74696063D01*
X70596063Y-74840226D01*
X70482795Y-75009744D01*
X70404774Y-75198102D01*
X70365000Y-75398061D01*
X45518907Y-75398061D01*
X45659774Y-75303937D01*
X45803937Y-75159774D01*
X45917205Y-74990256D01*
X45995226Y-74801898D01*
X46035000Y-74601939D01*
X46035000Y-74398061D01*
X45995226Y-74198102D01*
X45917205Y-74009744D01*
X45803937Y-73840226D01*
X45659774Y-73696063D01*
X45490256Y-73582795D01*
X45301898Y-73504774D01*
X45101939Y-73465000D01*
X44898061Y-73465000D01*
X44698102Y-73504774D01*
X44509744Y-73582795D01*
X44340226Y-73696063D01*
X44196063Y-73840226D01*
X44082795Y-74009744D01*
X44004774Y-74198102D01*
X43965000Y-74398061D01*
X30660000Y-74398061D01*
X30660000Y-72598061D01*
X33615000Y-72598061D01*
X33615000Y-72801939D01*
X33654774Y-73001898D01*
X33732795Y-73190256D01*
X33846063Y-73359774D01*
X33990226Y-73503937D01*
X34159744Y-73617205D01*
X34348102Y-73695226D01*
X34548061Y-73735000D01*
X34751939Y-73735000D01*
X34951898Y-73695226D01*
X35140256Y-73617205D01*
X35309774Y-73503937D01*
X35453937Y-73359774D01*
X35567205Y-73190256D01*
X35645226Y-73001898D01*
X35685000Y-72801939D01*
X35685000Y-72748061D01*
X60565000Y-72748061D01*
X60565000Y-72951939D01*
X60604774Y-73151898D01*
X60682795Y-73340256D01*
X60796063Y-73509774D01*
X60940226Y-73653937D01*
X61109744Y-73767205D01*
X61298102Y-73845226D01*
X61498061Y-73885000D01*
X61701939Y-73885000D01*
X61901898Y-73845226D01*
X62090256Y-73767205D01*
X62259774Y-73653937D01*
X62403937Y-73509774D01*
X62517205Y-73340256D01*
X62595226Y-73151898D01*
X62635000Y-72951939D01*
X62635000Y-72748061D01*
X62595226Y-72548102D01*
X62517205Y-72359744D01*
X62403937Y-72190226D01*
X62259774Y-72046063D01*
X62090256Y-71932795D01*
X61901898Y-71854774D01*
X61701939Y-71815000D01*
X61498061Y-71815000D01*
X61298102Y-71854774D01*
X61109744Y-71932795D01*
X60940226Y-72046063D01*
X60796063Y-72190226D01*
X60682795Y-72359744D01*
X60604774Y-72548102D01*
X60565000Y-72748061D01*
X35685000Y-72748061D01*
X35685000Y-72598061D01*
X35645226Y-72398102D01*
X35567205Y-72209744D01*
X35453937Y-72040226D01*
X35309774Y-71896063D01*
X35140256Y-71782795D01*
X34951898Y-71704774D01*
X34751939Y-71665000D01*
X34548061Y-71665000D01*
X34348102Y-71704774D01*
X34159744Y-71782795D01*
X33990226Y-71896063D01*
X33846063Y-72040226D01*
X33732795Y-72209744D01*
X33654774Y-72398102D01*
X33615000Y-72598061D01*
X30660000Y-72598061D01*
X30660000Y-70648061D01*
X42665000Y-70648061D01*
X42665000Y-70851939D01*
X42704774Y-71051898D01*
X42782795Y-71240256D01*
X42896063Y-71409774D01*
X43040226Y-71553937D01*
X43209744Y-71667205D01*
X43398102Y-71745226D01*
X43598061Y-71785000D01*
X43801939Y-71785000D01*
X44001898Y-71745226D01*
X44190256Y-71667205D01*
X44359774Y-71553937D01*
X44503937Y-71409774D01*
X44617205Y-71240256D01*
X44695226Y-71051898D01*
X44735000Y-70851939D01*
X44735000Y-70648061D01*
X44695226Y-70448102D01*
X44617205Y-70259744D01*
X44503937Y-70090226D01*
X44359774Y-69946063D01*
X44190256Y-69832795D01*
X44001898Y-69754774D01*
X43801939Y-69715000D01*
X43598061Y-69715000D01*
X43398102Y-69754774D01*
X43209744Y-69832795D01*
X43040226Y-69946063D01*
X42896063Y-70090226D01*
X42782795Y-70259744D01*
X42704774Y-70448102D01*
X42665000Y-70648061D01*
X30660000Y-70648061D01*
X30660000Y-69098061D01*
X72965000Y-69098061D01*
X72965000Y-69301939D01*
X73004774Y-69501898D01*
X73082795Y-69690256D01*
X73196063Y-69859774D01*
X73340226Y-70003937D01*
X73509744Y-70117205D01*
X73698102Y-70195226D01*
X73898061Y-70235000D01*
X74101939Y-70235000D01*
X74301898Y-70195226D01*
X74490256Y-70117205D01*
X74659774Y-70003937D01*
X74803937Y-69859774D01*
X74917205Y-69690256D01*
X74995226Y-69501898D01*
X75035000Y-69301939D01*
X75035000Y-69098061D01*
X74995226Y-68898102D01*
X74917205Y-68709744D01*
X74803937Y-68540226D01*
X74659774Y-68396063D01*
X74490256Y-68282795D01*
X74301898Y-68204774D01*
X74101939Y-68165000D01*
X73898061Y-68165000D01*
X73698102Y-68204774D01*
X73509744Y-68282795D01*
X73340226Y-68396063D01*
X73196063Y-68540226D01*
X73082795Y-68709744D01*
X73004774Y-68898102D01*
X72965000Y-69098061D01*
X30660000Y-69098061D01*
X30660000Y-67398061D01*
X76465000Y-67398061D01*
X76465000Y-67601939D01*
X76504774Y-67801898D01*
X76582795Y-67990256D01*
X76696063Y-68159774D01*
X76840226Y-68303937D01*
X77009744Y-68417205D01*
X77198102Y-68495226D01*
X77398061Y-68535000D01*
X77601939Y-68535000D01*
X77801898Y-68495226D01*
X77990256Y-68417205D01*
X78159774Y-68303937D01*
X78303937Y-68159774D01*
X78417205Y-67990256D01*
X78495226Y-67801898D01*
X78535000Y-67601939D01*
X78535000Y-67398061D01*
X78495226Y-67198102D01*
X78417205Y-67009744D01*
X78303937Y-66840226D01*
X78159774Y-66696063D01*
X77990256Y-66582795D01*
X77801898Y-66504774D01*
X77601939Y-66465000D01*
X77398061Y-66465000D01*
X77198102Y-66504774D01*
X77009744Y-66582795D01*
X76840226Y-66696063D01*
X76696063Y-66840226D01*
X76582795Y-67009744D01*
X76504774Y-67198102D01*
X76465000Y-67398061D01*
X30660000Y-67398061D01*
X30660000Y-64898061D01*
X36465000Y-64898061D01*
X36465000Y-65101939D01*
X36504774Y-65301898D01*
X36582795Y-65490256D01*
X36696063Y-65659774D01*
X36840226Y-65803937D01*
X37009744Y-65917205D01*
X37198102Y-65995226D01*
X37398061Y-66035000D01*
X37601939Y-66035000D01*
X37801898Y-65995226D01*
X37990256Y-65917205D01*
X38018907Y-65898061D01*
X45115000Y-65898061D01*
X45115000Y-66101939D01*
X45154774Y-66301898D01*
X45232795Y-66490256D01*
X45346063Y-66659774D01*
X45490226Y-66803937D01*
X45659744Y-66917205D01*
X45848102Y-66995226D01*
X46048061Y-67035000D01*
X46251939Y-67035000D01*
X46451898Y-66995226D01*
X46640256Y-66917205D01*
X46809774Y-66803937D01*
X46953937Y-66659774D01*
X47067205Y-66490256D01*
X47145226Y-66301898D01*
X47185000Y-66101939D01*
X47185000Y-65998061D01*
X69465000Y-65998061D01*
X69465000Y-66201939D01*
X69504774Y-66401898D01*
X69582795Y-66590256D01*
X69696063Y-66759774D01*
X69840226Y-66903937D01*
X70009744Y-67017205D01*
X70198102Y-67095226D01*
X70398061Y-67135000D01*
X70601939Y-67135000D01*
X70801898Y-67095226D01*
X70990256Y-67017205D01*
X71159774Y-66903937D01*
X71303937Y-66759774D01*
X71417205Y-66590256D01*
X71495226Y-66401898D01*
X71517839Y-66288212D01*
X99615000Y-66288212D01*
X99615000Y-66511788D01*
X99658617Y-66731067D01*
X99744176Y-66937624D01*
X99868388Y-67123520D01*
X100026480Y-67281612D01*
X100212376Y-67405824D01*
X100418933Y-67491383D01*
X100638212Y-67535000D01*
X100861788Y-67535000D01*
X101081067Y-67491383D01*
X101287624Y-67405824D01*
X101473520Y-67281612D01*
X101631612Y-67123520D01*
X101750000Y-66946340D01*
X101868388Y-67123520D01*
X102026480Y-67281612D01*
X102212376Y-67405824D01*
X102418933Y-67491383D01*
X102638212Y-67535000D01*
X102861788Y-67535000D01*
X103081067Y-67491383D01*
X103287624Y-67405824D01*
X103473520Y-67281612D01*
X103631612Y-67123520D01*
X103750000Y-66946340D01*
X103868388Y-67123520D01*
X104026480Y-67281612D01*
X104212376Y-67405824D01*
X104418933Y-67491383D01*
X104638212Y-67535000D01*
X104861788Y-67535000D01*
X105081067Y-67491383D01*
X105287624Y-67405824D01*
X105473520Y-67281612D01*
X105631612Y-67123520D01*
X105755824Y-66937624D01*
X105841383Y-66731067D01*
X105885000Y-66511788D01*
X105885000Y-66288212D01*
X105841383Y-66068933D01*
X105755824Y-65862376D01*
X105631612Y-65676480D01*
X105473520Y-65518388D01*
X105287624Y-65394176D01*
X105081067Y-65308617D01*
X104861788Y-65265000D01*
X104638212Y-65265000D01*
X104418933Y-65308617D01*
X104212376Y-65394176D01*
X104026480Y-65518388D01*
X103868388Y-65676480D01*
X103750000Y-65853660D01*
X103631612Y-65676480D01*
X103473520Y-65518388D01*
X103287624Y-65394176D01*
X103081067Y-65308617D01*
X102861788Y-65265000D01*
X102638212Y-65265000D01*
X102418933Y-65308617D01*
X102212376Y-65394176D01*
X102026480Y-65518388D01*
X101868388Y-65676480D01*
X101750000Y-65853660D01*
X101631612Y-65676480D01*
X101473520Y-65518388D01*
X101287624Y-65394176D01*
X101081067Y-65308617D01*
X100861788Y-65265000D01*
X100638212Y-65265000D01*
X100418933Y-65308617D01*
X100212376Y-65394176D01*
X100026480Y-65518388D01*
X99868388Y-65676480D01*
X99744176Y-65862376D01*
X99658617Y-66068933D01*
X99615000Y-66288212D01*
X71517839Y-66288212D01*
X71535000Y-66201939D01*
X71535000Y-65998061D01*
X71495226Y-65798102D01*
X71417205Y-65609744D01*
X71303937Y-65440226D01*
X71159774Y-65296063D01*
X70990256Y-65182795D01*
X70801898Y-65104774D01*
X70601939Y-65065000D01*
X70398061Y-65065000D01*
X70198102Y-65104774D01*
X70009744Y-65182795D01*
X69840226Y-65296063D01*
X69696063Y-65440226D01*
X69582795Y-65609744D01*
X69504774Y-65798102D01*
X69465000Y-65998061D01*
X47185000Y-65998061D01*
X47185000Y-65898061D01*
X47145226Y-65698102D01*
X47067205Y-65509744D01*
X46953937Y-65340226D01*
X46809774Y-65196063D01*
X46640256Y-65082795D01*
X46451898Y-65004774D01*
X46251939Y-64965000D01*
X46048061Y-64965000D01*
X45848102Y-65004774D01*
X45659744Y-65082795D01*
X45490226Y-65196063D01*
X45346063Y-65340226D01*
X45232795Y-65509744D01*
X45154774Y-65698102D01*
X45115000Y-65898061D01*
X38018907Y-65898061D01*
X38159774Y-65803937D01*
X38303937Y-65659774D01*
X38417205Y-65490256D01*
X38495226Y-65301898D01*
X38535000Y-65101939D01*
X38535000Y-64898061D01*
X38495226Y-64698102D01*
X38417205Y-64509744D01*
X38303937Y-64340226D01*
X38159774Y-64196063D01*
X37990256Y-64082795D01*
X37801898Y-64004774D01*
X37601939Y-63965000D01*
X37398061Y-63965000D01*
X37198102Y-64004774D01*
X37009744Y-64082795D01*
X36840226Y-64196063D01*
X36696063Y-64340226D01*
X36582795Y-64509744D01*
X36504774Y-64698102D01*
X36465000Y-64898061D01*
X30660000Y-64898061D01*
X30660000Y-61548061D01*
X48665000Y-61548061D01*
X48665000Y-61751939D01*
X48704774Y-61951898D01*
X48782795Y-62140256D01*
X48896063Y-62309774D01*
X49040226Y-62453937D01*
X49209744Y-62567205D01*
X49398102Y-62645226D01*
X49598061Y-62685000D01*
X49801939Y-62685000D01*
X50001898Y-62645226D01*
X50190256Y-62567205D01*
X50293737Y-62498061D01*
X51215000Y-62498061D01*
X51215000Y-62701939D01*
X51254774Y-62901898D01*
X51332795Y-63090256D01*
X51446063Y-63259774D01*
X51590226Y-63403937D01*
X51759744Y-63517205D01*
X51948102Y-63595226D01*
X52148061Y-63635000D01*
X52351939Y-63635000D01*
X52551898Y-63595226D01*
X52740256Y-63517205D01*
X52909774Y-63403937D01*
X52915650Y-63398061D01*
X55465000Y-63398061D01*
X55465000Y-63601939D01*
X55504774Y-63801898D01*
X55582795Y-63990256D01*
X55696063Y-64159774D01*
X55840226Y-64303937D01*
X56009744Y-64417205D01*
X56198102Y-64495226D01*
X56398061Y-64535000D01*
X56601939Y-64535000D01*
X56801898Y-64495226D01*
X56990256Y-64417205D01*
X57159774Y-64303937D01*
X57303937Y-64159774D01*
X57417205Y-63990256D01*
X57495226Y-63801898D01*
X57535000Y-63601939D01*
X57535000Y-63398061D01*
X57495226Y-63198102D01*
X57417205Y-63009744D01*
X57303937Y-62840226D01*
X57159774Y-62696063D01*
X56990256Y-62582795D01*
X56801898Y-62504774D01*
X56601939Y-62465000D01*
X56398061Y-62465000D01*
X56198102Y-62504774D01*
X56009744Y-62582795D01*
X55840226Y-62696063D01*
X55696063Y-62840226D01*
X55582795Y-63009744D01*
X55504774Y-63198102D01*
X55465000Y-63398061D01*
X52915650Y-63398061D01*
X53053937Y-63259774D01*
X53167205Y-63090256D01*
X53245226Y-62901898D01*
X53285000Y-62701939D01*
X53285000Y-62498061D01*
X53245226Y-62298102D01*
X53167205Y-62109744D01*
X53053937Y-61940226D01*
X52909774Y-61796063D01*
X52837934Y-61748061D01*
X59565000Y-61748061D01*
X59565000Y-61951939D01*
X59604774Y-62151898D01*
X59682795Y-62340256D01*
X59796063Y-62509774D01*
X59940226Y-62653937D01*
X60109744Y-62767205D01*
X60298102Y-62845226D01*
X60498061Y-62885000D01*
X60701939Y-62885000D01*
X60901898Y-62845226D01*
X61090256Y-62767205D01*
X61259774Y-62653937D01*
X61403937Y-62509774D01*
X61517205Y-62340256D01*
X61595226Y-62151898D01*
X61635000Y-61951939D01*
X61635000Y-61748061D01*
X61595226Y-61548102D01*
X61517205Y-61359744D01*
X61470418Y-61289721D01*
X92615000Y-61289721D01*
X92615000Y-61710279D01*
X92697047Y-62122756D01*
X92857988Y-62511302D01*
X93091637Y-62860983D01*
X93389017Y-63158363D01*
X93738698Y-63392012D01*
X94127244Y-63552953D01*
X94539721Y-63635000D01*
X94960279Y-63635000D01*
X95372756Y-63552953D01*
X95761302Y-63392012D01*
X96110983Y-63158363D01*
X96408363Y-62860983D01*
X96642012Y-62511302D01*
X96802953Y-62122756D01*
X96885000Y-61710279D01*
X96885000Y-61289721D01*
X100615000Y-61289721D01*
X100615000Y-61710279D01*
X100697047Y-62122756D01*
X100857988Y-62511302D01*
X101091637Y-62860983D01*
X101389017Y-63158363D01*
X101738698Y-63392012D01*
X102127244Y-63552953D01*
X102539721Y-63635000D01*
X102960279Y-63635000D01*
X103372756Y-63552953D01*
X103761302Y-63392012D01*
X104110983Y-63158363D01*
X104408363Y-62860983D01*
X104642012Y-62511302D01*
X104802953Y-62122756D01*
X104885000Y-61710279D01*
X104885000Y-61289721D01*
X104802953Y-60877244D01*
X104642012Y-60488698D01*
X104408363Y-60139017D01*
X104110983Y-59841637D01*
X103761302Y-59607988D01*
X103372756Y-59447047D01*
X102960279Y-59365000D01*
X102539721Y-59365000D01*
X102127244Y-59447047D01*
X101738698Y-59607988D01*
X101389017Y-59841637D01*
X101091637Y-60139017D01*
X100857988Y-60488698D01*
X100697047Y-60877244D01*
X100615000Y-61289721D01*
X96885000Y-61289721D01*
X96802953Y-60877244D01*
X96642012Y-60488698D01*
X96408363Y-60139017D01*
X96110983Y-59841637D01*
X95761302Y-59607988D01*
X95372756Y-59447047D01*
X94960279Y-59365000D01*
X94539721Y-59365000D01*
X94127244Y-59447047D01*
X93738698Y-59607988D01*
X93389017Y-59841637D01*
X93091637Y-60139017D01*
X92857988Y-60488698D01*
X92697047Y-60877244D01*
X92615000Y-61289721D01*
X61470418Y-61289721D01*
X61403937Y-61190226D01*
X61259774Y-61046063D01*
X61090256Y-60932795D01*
X60901898Y-60854774D01*
X60701939Y-60815000D01*
X60498061Y-60815000D01*
X60298102Y-60854774D01*
X60109744Y-60932795D01*
X59940226Y-61046063D01*
X59796063Y-61190226D01*
X59682795Y-61359744D01*
X59604774Y-61548102D01*
X59565000Y-61748061D01*
X52837934Y-61748061D01*
X52740256Y-61682795D01*
X52551898Y-61604774D01*
X52351939Y-61565000D01*
X52148061Y-61565000D01*
X51948102Y-61604774D01*
X51759744Y-61682795D01*
X51590226Y-61796063D01*
X51446063Y-61940226D01*
X51332795Y-62109744D01*
X51254774Y-62298102D01*
X51215000Y-62498061D01*
X50293737Y-62498061D01*
X50359774Y-62453937D01*
X50503937Y-62309774D01*
X50617205Y-62140256D01*
X50695226Y-61951898D01*
X50735000Y-61751939D01*
X50735000Y-61548061D01*
X50695226Y-61348102D01*
X50617205Y-61159744D01*
X50503937Y-60990226D01*
X50359774Y-60846063D01*
X50190256Y-60732795D01*
X50001898Y-60654774D01*
X49801939Y-60615000D01*
X49598061Y-60615000D01*
X49398102Y-60654774D01*
X49209744Y-60732795D01*
X49040226Y-60846063D01*
X48896063Y-60990226D01*
X48782795Y-61159744D01*
X48704774Y-61348102D01*
X48665000Y-61548061D01*
X30660000Y-61548061D01*
X30660000Y-59898061D01*
X41465000Y-59898061D01*
X41465000Y-60101939D01*
X41504774Y-60301898D01*
X41582795Y-60490256D01*
X41696063Y-60659774D01*
X41840226Y-60803937D01*
X42009744Y-60917205D01*
X42198102Y-60995226D01*
X42398061Y-61035000D01*
X42601939Y-61035000D01*
X42801898Y-60995226D01*
X42990256Y-60917205D01*
X43159774Y-60803937D01*
X43303937Y-60659774D01*
X43417205Y-60490256D01*
X43495226Y-60301898D01*
X43535000Y-60101939D01*
X43535000Y-59898061D01*
X73965000Y-59898061D01*
X73965000Y-60101939D01*
X74004774Y-60301898D01*
X74082795Y-60490256D01*
X74196063Y-60659774D01*
X74340226Y-60803937D01*
X74509744Y-60917205D01*
X74698102Y-60995226D01*
X74898061Y-61035000D01*
X75101939Y-61035000D01*
X75301898Y-60995226D01*
X75490256Y-60917205D01*
X75659774Y-60803937D01*
X75803937Y-60659774D01*
X75917205Y-60490256D01*
X75995226Y-60301898D01*
X76035000Y-60101939D01*
X76035000Y-59898061D01*
X75995226Y-59698102D01*
X75917205Y-59509744D01*
X75803937Y-59340226D01*
X75659774Y-59196063D01*
X75490256Y-59082795D01*
X75301898Y-59004774D01*
X75101939Y-58965000D01*
X74898061Y-58965000D01*
X74698102Y-59004774D01*
X74509744Y-59082795D01*
X74340226Y-59196063D01*
X74196063Y-59340226D01*
X74082795Y-59509744D01*
X74004774Y-59698102D01*
X73965000Y-59898061D01*
X43535000Y-59898061D01*
X43495226Y-59698102D01*
X43417205Y-59509744D01*
X43303937Y-59340226D01*
X43159774Y-59196063D01*
X42990256Y-59082795D01*
X42801898Y-59004774D01*
X42601939Y-58965000D01*
X42398061Y-58965000D01*
X42198102Y-59004774D01*
X42009744Y-59082795D01*
X41840226Y-59196063D01*
X41696063Y-59340226D01*
X41582795Y-59509744D01*
X41504774Y-59698102D01*
X41465000Y-59898061D01*
X30660000Y-59898061D01*
X30660000Y-56738212D01*
X99615000Y-56738212D01*
X99615000Y-56961788D01*
X99658617Y-57181067D01*
X99744176Y-57387624D01*
X99868388Y-57573520D01*
X100026480Y-57731612D01*
X100212376Y-57855824D01*
X100418933Y-57941383D01*
X100638212Y-57985000D01*
X100861788Y-57985000D01*
X101081067Y-57941383D01*
X101287624Y-57855824D01*
X101473520Y-57731612D01*
X101631612Y-57573520D01*
X101750000Y-57396340D01*
X101868388Y-57573520D01*
X102026480Y-57731612D01*
X102212376Y-57855824D01*
X102418933Y-57941383D01*
X102638212Y-57985000D01*
X102861788Y-57985000D01*
X103081067Y-57941383D01*
X103287624Y-57855824D01*
X103473520Y-57731612D01*
X103631612Y-57573520D01*
X103750000Y-57396340D01*
X103868388Y-57573520D01*
X104026480Y-57731612D01*
X104212376Y-57855824D01*
X104418933Y-57941383D01*
X104638212Y-57985000D01*
X104861788Y-57985000D01*
X105081067Y-57941383D01*
X105287624Y-57855824D01*
X105473520Y-57731612D01*
X105631612Y-57573520D01*
X105755824Y-57387624D01*
X105841383Y-57181067D01*
X105885000Y-56961788D01*
X105885000Y-56738212D01*
X105841383Y-56518933D01*
X105755824Y-56312376D01*
X105631612Y-56126480D01*
X105473520Y-55968388D01*
X105287624Y-55844176D01*
X105081067Y-55758617D01*
X104861788Y-55715000D01*
X104638212Y-55715000D01*
X104418933Y-55758617D01*
X104212376Y-55844176D01*
X104026480Y-55968388D01*
X103868388Y-56126480D01*
X103750000Y-56303660D01*
X103631612Y-56126480D01*
X103473520Y-55968388D01*
X103287624Y-55844176D01*
X103081067Y-55758617D01*
X102861788Y-55715000D01*
X102638212Y-55715000D01*
X102418933Y-55758617D01*
X102212376Y-55844176D01*
X102026480Y-55968388D01*
X101868388Y-56126480D01*
X101750000Y-56303660D01*
X101631612Y-56126480D01*
X101473520Y-55968388D01*
X101287624Y-55844176D01*
X101081067Y-55758617D01*
X100861788Y-55715000D01*
X100638212Y-55715000D01*
X100418933Y-55758617D01*
X100212376Y-55844176D01*
X100026480Y-55968388D01*
X99868388Y-56126480D01*
X99744176Y-56312376D01*
X99658617Y-56518933D01*
X99615000Y-56738212D01*
X30660000Y-56738212D01*
X30660000Y-54898061D01*
X36465000Y-54898061D01*
X36465000Y-55101939D01*
X36504774Y-55301898D01*
X36582795Y-55490256D01*
X36696063Y-55659774D01*
X36840226Y-55803937D01*
X37009744Y-55917205D01*
X37198102Y-55995226D01*
X37398061Y-56035000D01*
X37601939Y-56035000D01*
X37801898Y-55995226D01*
X37990256Y-55917205D01*
X38159774Y-55803937D01*
X38303937Y-55659774D01*
X38417205Y-55490256D01*
X38495226Y-55301898D01*
X38535000Y-55101939D01*
X38535000Y-54898061D01*
X56465000Y-54898061D01*
X56465000Y-55101939D01*
X56504774Y-55301898D01*
X56582795Y-55490256D01*
X56696063Y-55659774D01*
X56840226Y-55803937D01*
X57009744Y-55917205D01*
X57198102Y-55995226D01*
X57398061Y-56035000D01*
X57601939Y-56035000D01*
X57801898Y-55995226D01*
X57990256Y-55917205D01*
X58159774Y-55803937D01*
X58303937Y-55659774D01*
X58417205Y-55490256D01*
X58495226Y-55301898D01*
X58535000Y-55101939D01*
X58535000Y-54898061D01*
X68965000Y-54898061D01*
X68965000Y-55101939D01*
X69004774Y-55301898D01*
X69082795Y-55490256D01*
X69196063Y-55659774D01*
X69340226Y-55803937D01*
X69509744Y-55917205D01*
X69698102Y-55995226D01*
X69898061Y-56035000D01*
X70101939Y-56035000D01*
X70301898Y-55995226D01*
X70490256Y-55917205D01*
X70659774Y-55803937D01*
X70803937Y-55659774D01*
X70917205Y-55490256D01*
X70995226Y-55301898D01*
X71035000Y-55101939D01*
X71035000Y-54898061D01*
X78965000Y-54898061D01*
X78965000Y-55101939D01*
X79004774Y-55301898D01*
X79082795Y-55490256D01*
X79196063Y-55659774D01*
X79340226Y-55803937D01*
X79509744Y-55917205D01*
X79698102Y-55995226D01*
X79898061Y-56035000D01*
X80101939Y-56035000D01*
X80301898Y-55995226D01*
X80490256Y-55917205D01*
X80659774Y-55803937D01*
X80803937Y-55659774D01*
X80917205Y-55490256D01*
X80995226Y-55301898D01*
X81035000Y-55101939D01*
X81035000Y-54898061D01*
X80995226Y-54698102D01*
X80917205Y-54509744D01*
X80803937Y-54340226D01*
X80659774Y-54196063D01*
X80490256Y-54082795D01*
X80301898Y-54004774D01*
X80101939Y-53965000D01*
X79898061Y-53965000D01*
X79698102Y-54004774D01*
X79509744Y-54082795D01*
X79340226Y-54196063D01*
X79196063Y-54340226D01*
X79082795Y-54509744D01*
X79004774Y-54698102D01*
X78965000Y-54898061D01*
X71035000Y-54898061D01*
X70995226Y-54698102D01*
X70917205Y-54509744D01*
X70803937Y-54340226D01*
X70659774Y-54196063D01*
X70490256Y-54082795D01*
X70301898Y-54004774D01*
X70101939Y-53965000D01*
X69898061Y-53965000D01*
X69698102Y-54004774D01*
X69509744Y-54082795D01*
X69340226Y-54196063D01*
X69196063Y-54340226D01*
X69082795Y-54509744D01*
X69004774Y-54698102D01*
X68965000Y-54898061D01*
X58535000Y-54898061D01*
X58495226Y-54698102D01*
X58417205Y-54509744D01*
X58303937Y-54340226D01*
X58159774Y-54196063D01*
X57990256Y-54082795D01*
X57801898Y-54004774D01*
X57601939Y-53965000D01*
X57398061Y-53965000D01*
X57198102Y-54004774D01*
X57009744Y-54082795D01*
X56840226Y-54196063D01*
X56696063Y-54340226D01*
X56582795Y-54509744D01*
X56504774Y-54698102D01*
X56465000Y-54898061D01*
X38535000Y-54898061D01*
X38495226Y-54698102D01*
X38417205Y-54509744D01*
X38303937Y-54340226D01*
X38159774Y-54196063D01*
X37990256Y-54082795D01*
X37801898Y-54004774D01*
X37601939Y-53965000D01*
X37398061Y-53965000D01*
X37198102Y-54004774D01*
X37009744Y-54082795D01*
X36840226Y-54196063D01*
X36696063Y-54340226D01*
X36582795Y-54509744D01*
X36504774Y-54698102D01*
X36465000Y-54898061D01*
X30660000Y-54898061D01*
X30660000Y-49898061D01*
X41465000Y-49898061D01*
X41465000Y-50101939D01*
X41504774Y-50301898D01*
X41582795Y-50490256D01*
X41696063Y-50659774D01*
X41840226Y-50803937D01*
X42009744Y-50917205D01*
X42198102Y-50995226D01*
X42398061Y-51035000D01*
X42601939Y-51035000D01*
X42801898Y-50995226D01*
X42990256Y-50917205D01*
X43159774Y-50803937D01*
X43303937Y-50659774D01*
X43417205Y-50490256D01*
X43495226Y-50301898D01*
X43535000Y-50101939D01*
X43535000Y-49898061D01*
X51465000Y-49898061D01*
X51465000Y-50101939D01*
X51504774Y-50301898D01*
X51582795Y-50490256D01*
X51696063Y-50659774D01*
X51840226Y-50803937D01*
X52009744Y-50917205D01*
X52198102Y-50995226D01*
X52398061Y-51035000D01*
X52601939Y-51035000D01*
X52801898Y-50995226D01*
X52990256Y-50917205D01*
X53159774Y-50803937D01*
X53303937Y-50659774D01*
X53417205Y-50490256D01*
X53495226Y-50301898D01*
X53535000Y-50101939D01*
X53535000Y-49898061D01*
X56465000Y-49898061D01*
X56465000Y-50101939D01*
X56504774Y-50301898D01*
X56582795Y-50490256D01*
X56696063Y-50659774D01*
X56840226Y-50803937D01*
X57009744Y-50917205D01*
X57198102Y-50995226D01*
X57398061Y-51035000D01*
X57601939Y-51035000D01*
X57801898Y-50995226D01*
X57990256Y-50917205D01*
X58159774Y-50803937D01*
X58303937Y-50659774D01*
X58417205Y-50490256D01*
X58418051Y-50488212D01*
X70365000Y-50488212D01*
X70365000Y-50711788D01*
X70408617Y-50931067D01*
X70494176Y-51137624D01*
X70618388Y-51323520D01*
X70776480Y-51481612D01*
X70962376Y-51605824D01*
X71168933Y-51691383D01*
X71388212Y-51735000D01*
X71611788Y-51735000D01*
X71831067Y-51691383D01*
X72037624Y-51605824D01*
X72223520Y-51481612D01*
X72381612Y-51323520D01*
X72505824Y-51137624D01*
X72591383Y-50931067D01*
X72635000Y-50711788D01*
X72635000Y-50488212D01*
X72591383Y-50268933D01*
X72505824Y-50062376D01*
X72396032Y-49898061D01*
X73965000Y-49898061D01*
X73965000Y-50101939D01*
X74004774Y-50301898D01*
X74082795Y-50490256D01*
X74196063Y-50659774D01*
X74340226Y-50803937D01*
X74509744Y-50917205D01*
X74698102Y-50995226D01*
X74898061Y-51035000D01*
X75101939Y-51035000D01*
X75301898Y-50995226D01*
X75490256Y-50917205D01*
X75659774Y-50803937D01*
X75803937Y-50659774D01*
X75917205Y-50490256D01*
X75995226Y-50301898D01*
X76035000Y-50101939D01*
X76035000Y-49898061D01*
X83965000Y-49898061D01*
X83965000Y-50101939D01*
X84004774Y-50301898D01*
X84082795Y-50490256D01*
X84196063Y-50659774D01*
X84340226Y-50803937D01*
X84509744Y-50917205D01*
X84698102Y-50995226D01*
X84898061Y-51035000D01*
X85101939Y-51035000D01*
X85301898Y-50995226D01*
X85490256Y-50917205D01*
X85659774Y-50803937D01*
X85803937Y-50659774D01*
X85917205Y-50490256D01*
X85995226Y-50301898D01*
X86035000Y-50101939D01*
X86035000Y-49898061D01*
X85995226Y-49698102D01*
X85917205Y-49509744D01*
X85803937Y-49340226D01*
X85659774Y-49196063D01*
X85490256Y-49082795D01*
X85301898Y-49004774D01*
X85101939Y-48965000D01*
X84898061Y-48965000D01*
X84698102Y-49004774D01*
X84509744Y-49082795D01*
X84340226Y-49196063D01*
X84196063Y-49340226D01*
X84082795Y-49509744D01*
X84004774Y-49698102D01*
X83965000Y-49898061D01*
X76035000Y-49898061D01*
X75995226Y-49698102D01*
X75917205Y-49509744D01*
X75803937Y-49340226D01*
X75659774Y-49196063D01*
X75490256Y-49082795D01*
X75301898Y-49004774D01*
X75101939Y-48965000D01*
X74898061Y-48965000D01*
X74698102Y-49004774D01*
X74509744Y-49082795D01*
X74340226Y-49196063D01*
X74196063Y-49340226D01*
X74082795Y-49509744D01*
X74004774Y-49698102D01*
X73965000Y-49898061D01*
X72396032Y-49898061D01*
X72381612Y-49876480D01*
X72223520Y-49718388D01*
X72037624Y-49594176D01*
X71831067Y-49508617D01*
X71611788Y-49465000D01*
X71388212Y-49465000D01*
X71168933Y-49508617D01*
X70962376Y-49594176D01*
X70776480Y-49718388D01*
X70618388Y-49876480D01*
X70494176Y-50062376D01*
X70408617Y-50268933D01*
X70365000Y-50488212D01*
X58418051Y-50488212D01*
X58495226Y-50301898D01*
X58535000Y-50101939D01*
X58535000Y-49898061D01*
X58495226Y-49698102D01*
X58417205Y-49509744D01*
X58303937Y-49340226D01*
X58159774Y-49196063D01*
X57990256Y-49082795D01*
X57801898Y-49004774D01*
X57601939Y-48965000D01*
X57398061Y-48965000D01*
X57198102Y-49004774D01*
X57009744Y-49082795D01*
X56840226Y-49196063D01*
X56696063Y-49340226D01*
X56582795Y-49509744D01*
X56504774Y-49698102D01*
X56465000Y-49898061D01*
X53535000Y-49898061D01*
X53495226Y-49698102D01*
X53417205Y-49509744D01*
X53303937Y-49340226D01*
X53159774Y-49196063D01*
X52990256Y-49082795D01*
X52801898Y-49004774D01*
X52601939Y-48965000D01*
X52398061Y-48965000D01*
X52198102Y-49004774D01*
X52009744Y-49082795D01*
X51840226Y-49196063D01*
X51696063Y-49340226D01*
X51582795Y-49509744D01*
X51504774Y-49698102D01*
X51465000Y-49898061D01*
X43535000Y-49898061D01*
X43495226Y-49698102D01*
X43417205Y-49509744D01*
X43303937Y-49340226D01*
X43159774Y-49196063D01*
X42990256Y-49082795D01*
X42801898Y-49004774D01*
X42601939Y-48965000D01*
X42398061Y-48965000D01*
X42198102Y-49004774D01*
X42009744Y-49082795D01*
X41840226Y-49196063D01*
X41696063Y-49340226D01*
X41582795Y-49509744D01*
X41504774Y-49698102D01*
X41465000Y-49898061D01*
X30660000Y-49898061D01*
X30660000Y-44898061D01*
X36465000Y-44898061D01*
X36465000Y-45101939D01*
X36504774Y-45301898D01*
X36582795Y-45490256D01*
X36696063Y-45659774D01*
X36840226Y-45803937D01*
X37009744Y-45917205D01*
X37198102Y-45995226D01*
X37398061Y-46035000D01*
X37601939Y-46035000D01*
X37801898Y-45995226D01*
X37990256Y-45917205D01*
X38159774Y-45803937D01*
X38303937Y-45659774D01*
X38417205Y-45490256D01*
X38495226Y-45301898D01*
X38535000Y-45101939D01*
X38535000Y-44898061D01*
X51465000Y-44898061D01*
X51465000Y-45101939D01*
X51504774Y-45301898D01*
X51582795Y-45490256D01*
X51696063Y-45659774D01*
X51840226Y-45803937D01*
X52009744Y-45917205D01*
X52198102Y-45995226D01*
X52398061Y-46035000D01*
X52601939Y-46035000D01*
X52801898Y-45995226D01*
X52990256Y-45917205D01*
X53159774Y-45803937D01*
X53303937Y-45659774D01*
X53417205Y-45490256D01*
X53495226Y-45301898D01*
X53535000Y-45101939D01*
X53535000Y-44898061D01*
X56465000Y-44898061D01*
X56465000Y-45101939D01*
X56504774Y-45301898D01*
X56582795Y-45490256D01*
X56696063Y-45659774D01*
X56840226Y-45803937D01*
X57009744Y-45917205D01*
X57198102Y-45995226D01*
X57398061Y-46035000D01*
X57601939Y-46035000D01*
X57801898Y-45995226D01*
X57990256Y-45917205D01*
X58159774Y-45803937D01*
X58303937Y-45659774D01*
X58417205Y-45490256D01*
X58495226Y-45301898D01*
X58535000Y-45101939D01*
X58535000Y-44898061D01*
X78965000Y-44898061D01*
X78965000Y-45101939D01*
X79004774Y-45301898D01*
X79082795Y-45490256D01*
X79196063Y-45659774D01*
X79340226Y-45803937D01*
X79509744Y-45917205D01*
X79698102Y-45995226D01*
X79898061Y-46035000D01*
X80101939Y-46035000D01*
X80301898Y-45995226D01*
X80490256Y-45917205D01*
X80659774Y-45803937D01*
X80803937Y-45659774D01*
X80917205Y-45490256D01*
X80995226Y-45301898D01*
X81035000Y-45101939D01*
X81035000Y-44898061D01*
X80995226Y-44698102D01*
X80917205Y-44509744D01*
X80803937Y-44340226D01*
X80659774Y-44196063D01*
X80490256Y-44082795D01*
X80301898Y-44004774D01*
X80101939Y-43965000D01*
X79898061Y-43965000D01*
X79698102Y-44004774D01*
X79509744Y-44082795D01*
X79340226Y-44196063D01*
X79196063Y-44340226D01*
X79082795Y-44509744D01*
X79004774Y-44698102D01*
X78965000Y-44898061D01*
X58535000Y-44898061D01*
X58495226Y-44698102D01*
X58417205Y-44509744D01*
X58303937Y-44340226D01*
X58159774Y-44196063D01*
X57990256Y-44082795D01*
X57801898Y-44004774D01*
X57601939Y-43965000D01*
X57398061Y-43965000D01*
X57198102Y-44004774D01*
X57009744Y-44082795D01*
X56840226Y-44196063D01*
X56696063Y-44340226D01*
X56582795Y-44509744D01*
X56504774Y-44698102D01*
X56465000Y-44898061D01*
X53535000Y-44898061D01*
X53495226Y-44698102D01*
X53417205Y-44509744D01*
X53303937Y-44340226D01*
X53159774Y-44196063D01*
X52990256Y-44082795D01*
X52801898Y-44004774D01*
X52601939Y-43965000D01*
X52398061Y-43965000D01*
X52198102Y-44004774D01*
X52009744Y-44082795D01*
X51840226Y-44196063D01*
X51696063Y-44340226D01*
X51582795Y-44509744D01*
X51504774Y-44698102D01*
X51465000Y-44898061D01*
X38535000Y-44898061D01*
X38495226Y-44698102D01*
X38417205Y-44509744D01*
X38303937Y-44340226D01*
X38159774Y-44196063D01*
X37990256Y-44082795D01*
X37801898Y-44004774D01*
X37601939Y-43965000D01*
X37398061Y-43965000D01*
X37198102Y-44004774D01*
X37009744Y-44082795D01*
X36840226Y-44196063D01*
X36696063Y-44340226D01*
X36582795Y-44509744D01*
X36504774Y-44698102D01*
X36465000Y-44898061D01*
X30660000Y-44898061D01*
X30660000Y-41798061D01*
X65515000Y-41798061D01*
X65515000Y-42001939D01*
X65554774Y-42201898D01*
X65632795Y-42390256D01*
X65746063Y-42559774D01*
X65890226Y-42703937D01*
X66059744Y-42817205D01*
X66248102Y-42895226D01*
X66448061Y-42935000D01*
X66651939Y-42935000D01*
X66851898Y-42895226D01*
X67040256Y-42817205D01*
X67209774Y-42703937D01*
X67353937Y-42559774D01*
X67428278Y-42448514D01*
X70165000Y-42448514D01*
X70165000Y-42711486D01*
X70216304Y-42969405D01*
X70316939Y-43212359D01*
X70463038Y-43431013D01*
X70648987Y-43616962D01*
X70867641Y-43763061D01*
X71110595Y-43863696D01*
X71368514Y-43915000D01*
X71631486Y-43915000D01*
X71889405Y-43863696D01*
X72132359Y-43763061D01*
X72351013Y-43616962D01*
X72536962Y-43431013D01*
X72683061Y-43212359D01*
X72783696Y-42969405D01*
X72835000Y-42711486D01*
X72835000Y-42448514D01*
X72783696Y-42190595D01*
X72683061Y-41947641D01*
X72616525Y-41848061D01*
X93315000Y-41848061D01*
X93315000Y-42051939D01*
X93354774Y-42251898D01*
X93432795Y-42440256D01*
X93546063Y-42609774D01*
X93690226Y-42753937D01*
X93859744Y-42867205D01*
X94048102Y-42945226D01*
X94248061Y-42985000D01*
X94451939Y-42985000D01*
X94651898Y-42945226D01*
X94840256Y-42867205D01*
X95009774Y-42753937D01*
X95153937Y-42609774D01*
X95267205Y-42440256D01*
X95345226Y-42251898D01*
X95385000Y-42051939D01*
X95385000Y-41848061D01*
X95345226Y-41648102D01*
X95267205Y-41459744D01*
X95153937Y-41290226D01*
X95009774Y-41146063D01*
X94840256Y-41032795D01*
X94651898Y-40954774D01*
X94451939Y-40915000D01*
X94248061Y-40915000D01*
X94048102Y-40954774D01*
X93859744Y-41032795D01*
X93690226Y-41146063D01*
X93546063Y-41290226D01*
X93432795Y-41459744D01*
X93354774Y-41648102D01*
X93315000Y-41848061D01*
X72616525Y-41848061D01*
X72536962Y-41728987D01*
X72351013Y-41543038D01*
X72132359Y-41396939D01*
X71889405Y-41296304D01*
X71631486Y-41245000D01*
X71368514Y-41245000D01*
X71110595Y-41296304D01*
X70867641Y-41396939D01*
X70648987Y-41543038D01*
X70463038Y-41728987D01*
X70316939Y-41947641D01*
X70216304Y-42190595D01*
X70165000Y-42448514D01*
X67428278Y-42448514D01*
X67467205Y-42390256D01*
X67545226Y-42201898D01*
X67585000Y-42001939D01*
X67585000Y-41798061D01*
X67545226Y-41598102D01*
X67467205Y-41409744D01*
X67353937Y-41240226D01*
X67209774Y-41096063D01*
X67040256Y-40982795D01*
X66851898Y-40904774D01*
X66651939Y-40865000D01*
X66448061Y-40865000D01*
X66248102Y-40904774D01*
X66059744Y-40982795D01*
X65890226Y-41096063D01*
X65746063Y-41240226D01*
X65632795Y-41409744D01*
X65554774Y-41598102D01*
X65515000Y-41798061D01*
X30660000Y-41798061D01*
X30660000Y-39898061D01*
X41465000Y-39898061D01*
X41465000Y-40101939D01*
X41504774Y-40301898D01*
X41582795Y-40490256D01*
X41696063Y-40659774D01*
X41840226Y-40803937D01*
X42009744Y-40917205D01*
X42198102Y-40995226D01*
X42398061Y-41035000D01*
X42601939Y-41035000D01*
X42801898Y-40995226D01*
X42990256Y-40917205D01*
X43159774Y-40803937D01*
X43303937Y-40659774D01*
X43417205Y-40490256D01*
X43495226Y-40301898D01*
X43495989Y-40298061D01*
X62965000Y-40298061D01*
X62965000Y-40501939D01*
X63004774Y-40701898D01*
X63082795Y-40890256D01*
X63196063Y-41059774D01*
X63340226Y-41203937D01*
X63509744Y-41317205D01*
X63698102Y-41395226D01*
X63898061Y-41435000D01*
X64101939Y-41435000D01*
X64301898Y-41395226D01*
X64490256Y-41317205D01*
X64659774Y-41203937D01*
X64803937Y-41059774D01*
X64917205Y-40890256D01*
X64995226Y-40701898D01*
X65035000Y-40501939D01*
X65035000Y-40298061D01*
X64995226Y-40098102D01*
X64917205Y-39909744D01*
X64909399Y-39898061D01*
X73965000Y-39898061D01*
X73965000Y-40101939D01*
X74004774Y-40301898D01*
X74082795Y-40490256D01*
X74196063Y-40659774D01*
X74340226Y-40803937D01*
X74509744Y-40917205D01*
X74698102Y-40995226D01*
X74898061Y-41035000D01*
X75101939Y-41035000D01*
X75301898Y-40995226D01*
X75490256Y-40917205D01*
X75659774Y-40803937D01*
X75803937Y-40659774D01*
X75917205Y-40490256D01*
X75995226Y-40301898D01*
X76035000Y-40101939D01*
X76035000Y-39898061D01*
X75995226Y-39698102D01*
X75917205Y-39509744D01*
X75803937Y-39340226D01*
X75659774Y-39196063D01*
X75490256Y-39082795D01*
X75301898Y-39004774D01*
X75101939Y-38965000D01*
X74898061Y-38965000D01*
X74698102Y-39004774D01*
X74509744Y-39082795D01*
X74340226Y-39196063D01*
X74196063Y-39340226D01*
X74082795Y-39509744D01*
X74004774Y-39698102D01*
X73965000Y-39898061D01*
X64909399Y-39898061D01*
X64803937Y-39740226D01*
X64659774Y-39596063D01*
X64490256Y-39482795D01*
X64301898Y-39404774D01*
X64101939Y-39365000D01*
X63898061Y-39365000D01*
X63698102Y-39404774D01*
X63509744Y-39482795D01*
X63340226Y-39596063D01*
X63196063Y-39740226D01*
X63082795Y-39909744D01*
X63004774Y-40098102D01*
X62965000Y-40298061D01*
X43495989Y-40298061D01*
X43535000Y-40101939D01*
X43535000Y-39898061D01*
X43495226Y-39698102D01*
X43417205Y-39509744D01*
X43303937Y-39340226D01*
X43159774Y-39196063D01*
X42990256Y-39082795D01*
X42801898Y-39004774D01*
X42601939Y-38965000D01*
X42398061Y-38965000D01*
X42198102Y-39004774D01*
X42009744Y-39082795D01*
X41840226Y-39196063D01*
X41696063Y-39340226D01*
X41582795Y-39509744D01*
X41504774Y-39698102D01*
X41465000Y-39898061D01*
X30660000Y-39898061D01*
X30660000Y-36634153D01*
X30892516Y-37195496D01*
X31399760Y-37954640D01*
X32045360Y-38600240D01*
X32804504Y-39107484D01*
X33648020Y-39456880D01*
X34543492Y-39635000D01*
X35456508Y-39635000D01*
X36351980Y-39456880D01*
X37195496Y-39107484D01*
X37954640Y-38600240D01*
X38133611Y-38421269D01*
X70758336Y-38421269D01*
X70817797Y-38655037D01*
X71056242Y-38765934D01*
X71311740Y-38828183D01*
X71574473Y-38839390D01*
X71834344Y-38799125D01*
X72081366Y-38708935D01*
X72182203Y-38655037D01*
X72241664Y-38421269D01*
X71500000Y-37679605D01*
X70758336Y-38421269D01*
X38133611Y-38421269D01*
X38600240Y-37954640D01*
X38854259Y-37574473D01*
X70160610Y-37574473D01*
X70200875Y-37834344D01*
X70291065Y-38081366D01*
X70344963Y-38182203D01*
X70578731Y-38241664D01*
X71320395Y-37500000D01*
X71679605Y-37500000D01*
X72421269Y-38241664D01*
X72655037Y-38182203D01*
X72765934Y-37943758D01*
X72828183Y-37688260D01*
X72839390Y-37425527D01*
X72799125Y-37165656D01*
X72708935Y-36918634D01*
X72655037Y-36817797D01*
X72421269Y-36758336D01*
X71679605Y-37500000D01*
X71320395Y-37500000D01*
X70578731Y-36758336D01*
X70344963Y-36817797D01*
X70234066Y-37056242D01*
X70171817Y-37311740D01*
X70160610Y-37574473D01*
X38854259Y-37574473D01*
X39107484Y-37195496D01*
X39362956Y-36578731D01*
X70758336Y-36578731D01*
X71500000Y-37320395D01*
X72241664Y-36578731D01*
X72182203Y-36344963D01*
X71943758Y-36234066D01*
X71688260Y-36171817D01*
X71425527Y-36160610D01*
X71165656Y-36200875D01*
X70918634Y-36291065D01*
X70817797Y-36344963D01*
X70758336Y-36578731D01*
X39362956Y-36578731D01*
X39456880Y-36351980D01*
X39635000Y-35456508D01*
X39635000Y-34543492D01*
X39556730Y-34150000D01*
X47511928Y-34150000D01*
X47511928Y-35850000D01*
X47524188Y-35974482D01*
X47560498Y-36094180D01*
X47619463Y-36204494D01*
X47698815Y-36301185D01*
X47795506Y-36380537D01*
X47905820Y-36439502D01*
X48025518Y-36475812D01*
X48150000Y-36488072D01*
X49850000Y-36488072D01*
X49974482Y-36475812D01*
X50094180Y-36439502D01*
X50204494Y-36380537D01*
X50301185Y-36301185D01*
X50380537Y-36204494D01*
X50439502Y-36094180D01*
X50461513Y-36021620D01*
X50593368Y-36153475D01*
X50836589Y-36315990D01*
X51106842Y-36427932D01*
X51393740Y-36485000D01*
X51686260Y-36485000D01*
X51973158Y-36427932D01*
X52243411Y-36315990D01*
X52486632Y-36153475D01*
X52693475Y-35946632D01*
X52810000Y-35772240D01*
X52926525Y-35946632D01*
X53133368Y-36153475D01*
X53376589Y-36315990D01*
X53646842Y-36427932D01*
X53933740Y-36485000D01*
X54226260Y-36485000D01*
X54513158Y-36427932D01*
X54783411Y-36315990D01*
X55026632Y-36153475D01*
X55233475Y-35946632D01*
X55350000Y-35772240D01*
X55466525Y-35946632D01*
X55673368Y-36153475D01*
X55916589Y-36315990D01*
X56186842Y-36427932D01*
X56473740Y-36485000D01*
X56766260Y-36485000D01*
X57053158Y-36427932D01*
X57323411Y-36315990D01*
X57566632Y-36153475D01*
X57773475Y-35946632D01*
X57890000Y-35772240D01*
X58006525Y-35946632D01*
X58213368Y-36153475D01*
X58456589Y-36315990D01*
X58726842Y-36427932D01*
X59013740Y-36485000D01*
X59306260Y-36485000D01*
X59593158Y-36427932D01*
X59863411Y-36315990D01*
X60106632Y-36153475D01*
X60313475Y-35946632D01*
X60430000Y-35772240D01*
X60546525Y-35946632D01*
X60753368Y-36153475D01*
X60996589Y-36315990D01*
X61266842Y-36427932D01*
X61553740Y-36485000D01*
X61846260Y-36485000D01*
X62133158Y-36427932D01*
X62403411Y-36315990D01*
X62646632Y-36153475D01*
X62853475Y-35946632D01*
X62970000Y-35772240D01*
X63086525Y-35946632D01*
X63293368Y-36153475D01*
X63536589Y-36315990D01*
X63806842Y-36427932D01*
X64093740Y-36485000D01*
X64386260Y-36485000D01*
X64673158Y-36427932D01*
X64943411Y-36315990D01*
X65186632Y-36153475D01*
X65393475Y-35946632D01*
X65555990Y-35703411D01*
X65667932Y-35433158D01*
X65725000Y-35146260D01*
X65725000Y-34853740D01*
X65667932Y-34566842D01*
X65555990Y-34296589D01*
X65393475Y-34053368D01*
X65186632Y-33846525D01*
X65012240Y-33730000D01*
X65186632Y-33613475D01*
X65393475Y-33406632D01*
X65555990Y-33163411D01*
X65667932Y-32893158D01*
X65725000Y-32606260D01*
X65725000Y-32313740D01*
X65667932Y-32026842D01*
X65555990Y-31756589D01*
X65393475Y-31513368D01*
X65186632Y-31306525D01*
X64943411Y-31144010D01*
X64673158Y-31032068D01*
X64386260Y-30975000D01*
X64093740Y-30975000D01*
X63806842Y-31032068D01*
X63536589Y-31144010D01*
X63293368Y-31306525D01*
X63086525Y-31513368D01*
X62970000Y-31687760D01*
X62853475Y-31513368D01*
X62646632Y-31306525D01*
X62403411Y-31144010D01*
X62133158Y-31032068D01*
X61846260Y-30975000D01*
X61553740Y-30975000D01*
X61266842Y-31032068D01*
X60996589Y-31144010D01*
X60753368Y-31306525D01*
X60546525Y-31513368D01*
X60430000Y-31687760D01*
X60313475Y-31513368D01*
X60106632Y-31306525D01*
X59863411Y-31144010D01*
X59593158Y-31032068D01*
X59306260Y-30975000D01*
X59013740Y-30975000D01*
X58726842Y-31032068D01*
X58456589Y-31144010D01*
X58213368Y-31306525D01*
X58006525Y-31513368D01*
X57890000Y-31687760D01*
X57773475Y-31513368D01*
X57566632Y-31306525D01*
X57323411Y-31144010D01*
X57053158Y-31032068D01*
X56766260Y-30975000D01*
X56473740Y-30975000D01*
X56186842Y-31032068D01*
X55916589Y-31144010D01*
X55673368Y-31306525D01*
X55466525Y-31513368D01*
X55350000Y-31687760D01*
X55233475Y-31513368D01*
X55026632Y-31306525D01*
X54783411Y-31144010D01*
X54513158Y-31032068D01*
X54226260Y-30975000D01*
X53933740Y-30975000D01*
X53646842Y-31032068D01*
X53376589Y-31144010D01*
X53133368Y-31306525D01*
X52926525Y-31513368D01*
X52810000Y-31687760D01*
X52693475Y-31513368D01*
X52486632Y-31306525D01*
X52243411Y-31144010D01*
X51973158Y-31032068D01*
X51686260Y-30975000D01*
X51393740Y-30975000D01*
X51106842Y-31032068D01*
X50836589Y-31144010D01*
X50593368Y-31306525D01*
X50386525Y-31513368D01*
X50270000Y-31687760D01*
X50153475Y-31513368D01*
X49946632Y-31306525D01*
X49703411Y-31144010D01*
X49433158Y-31032068D01*
X49146260Y-30975000D01*
X48853740Y-30975000D01*
X48566842Y-31032068D01*
X48296589Y-31144010D01*
X48053368Y-31306525D01*
X47846525Y-31513368D01*
X47684010Y-31756589D01*
X47572068Y-32026842D01*
X47515000Y-32313740D01*
X47515000Y-32606260D01*
X47572068Y-32893158D01*
X47684010Y-33163411D01*
X47846525Y-33406632D01*
X47978380Y-33538487D01*
X47905820Y-33560498D01*
X47795506Y-33619463D01*
X47698815Y-33698815D01*
X47619463Y-33795506D01*
X47560498Y-33905820D01*
X47524188Y-34025518D01*
X47511928Y-34150000D01*
X39556730Y-34150000D01*
X39456880Y-33648020D01*
X39107484Y-32804504D01*
X38835908Y-32398061D01*
X41465000Y-32398061D01*
X41465000Y-32601939D01*
X41504774Y-32801898D01*
X41582795Y-32990256D01*
X41696063Y-33159774D01*
X41840226Y-33303937D01*
X42009744Y-33417205D01*
X42198102Y-33495226D01*
X42398061Y-33535000D01*
X42601939Y-33535000D01*
X42801898Y-33495226D01*
X42990256Y-33417205D01*
X43159774Y-33303937D01*
X43303937Y-33159774D01*
X43417205Y-32990256D01*
X43495226Y-32801898D01*
X43535000Y-32601939D01*
X43535000Y-32398061D01*
X43495226Y-32198102D01*
X43417205Y-32009744D01*
X43303937Y-31840226D01*
X43159774Y-31696063D01*
X42990256Y-31582795D01*
X42801898Y-31504774D01*
X42601939Y-31465000D01*
X42398061Y-31465000D01*
X42198102Y-31504774D01*
X42009744Y-31582795D01*
X41840226Y-31696063D01*
X41696063Y-31840226D01*
X41582795Y-32009744D01*
X41504774Y-32198102D01*
X41465000Y-32398061D01*
X38835908Y-32398061D01*
X38600240Y-32045360D01*
X37954640Y-31399760D01*
X37195496Y-30892516D01*
X36634153Y-30660000D01*
X77953739Y-30660000D01*
X77908617Y-30768933D01*
M02*
