G04 #@! TF.GenerationSoftware,KiCad,Pcbnew,(5.1.6)-1*
G04 #@! TF.CreationDate,2020-07-01T23:55:18-04:00*
G04 #@! TF.ProjectId,T-ShirtPress,542d5368-6972-4745-9072-6573732e6b69,rev?*
G04 #@! TF.SameCoordinates,Original*
G04 #@! TF.FileFunction,Soldermask,Top*
G04 #@! TF.FilePolarity,Negative*
%FSLAX46Y46*%
G04 Gerber Fmt 4.6, Leading zero omitted, Abs format (unit mm)*
G04 Created by KiCad (PCBNEW (5.1.6)-1) date 2020-07-01 23:55:18*
%MOMM*%
%LPD*%
G01*
G04 APERTURE LIST*
%ADD10R,1.300000X1.000000*%
%ADD11C,1.000000*%
%ADD12C,8.100000*%
%ADD13R,0.840000X2.500000*%
%ADD14O,1.800000X2.100000*%
%ADD15C,3.100000*%
%ADD16R,3.100000X3.100000*%
%ADD17C,1.500000*%
%ADD18O,1.500000X1.500000*%
%ADD19R,2.100000X3.900000*%
%ADD20R,2.100000X1.600000*%
%ADD21R,2.500000X2.100000*%
%ADD22R,1.800000X1.800000*%
%ADD23O,1.800000X1.800000*%
G04 APERTURE END LIST*
G36*
G01*
X83800000Y-39718750D02*
X83800000Y-40681250D01*
G75*
G02*
X83531250Y-40950000I-268750J0D01*
G01*
X82993750Y-40950000D01*
G75*
G02*
X82725000Y-40681250I0J268750D01*
G01*
X82725000Y-39718750D01*
G75*
G02*
X82993750Y-39450000I268750J0D01*
G01*
X83531250Y-39450000D01*
G75*
G02*
X83800000Y-39718750I0J-268750D01*
G01*
G37*
G36*
G01*
X85675000Y-39718750D02*
X85675000Y-40681250D01*
G75*
G02*
X85406250Y-40950000I-268750J0D01*
G01*
X84868750Y-40950000D01*
G75*
G02*
X84600000Y-40681250I0J268750D01*
G01*
X84600000Y-39718750D01*
G75*
G02*
X84868750Y-39450000I268750J0D01*
G01*
X85406250Y-39450000D01*
G75*
G02*
X85675000Y-39718750I0J-268750D01*
G01*
G37*
G36*
G01*
X82281250Y-35575000D02*
X81318750Y-35575000D01*
G75*
G02*
X81050000Y-35306250I0J268750D01*
G01*
X81050000Y-34768750D01*
G75*
G02*
X81318750Y-34500000I268750J0D01*
G01*
X82281250Y-34500000D01*
G75*
G02*
X82550000Y-34768750I0J-268750D01*
G01*
X82550000Y-35306250D01*
G75*
G02*
X82281250Y-35575000I-268750J0D01*
G01*
G37*
G36*
G01*
X82281250Y-33700000D02*
X81318750Y-33700000D01*
G75*
G02*
X81050000Y-33431250I0J268750D01*
G01*
X81050000Y-32893750D01*
G75*
G02*
X81318750Y-32625000I268750J0D01*
G01*
X82281250Y-32625000D01*
G75*
G02*
X82550000Y-32893750I0J-268750D01*
G01*
X82550000Y-33431250D01*
G75*
G02*
X82281250Y-33700000I-268750J0D01*
G01*
G37*
G36*
G01*
X42452500Y-84070000D02*
X42847500Y-84070000D01*
G75*
G02*
X43020000Y-84242500I0J-172500D01*
G01*
X43020000Y-84587500D01*
G75*
G02*
X42847500Y-84760000I-172500J0D01*
G01*
X42452500Y-84760000D01*
G75*
G02*
X42280000Y-84587500I0J172500D01*
G01*
X42280000Y-84242500D01*
G75*
G02*
X42452500Y-84070000I172500J0D01*
G01*
G37*
G36*
G01*
X42452500Y-85040000D02*
X42847500Y-85040000D01*
G75*
G02*
X43020000Y-85212500I0J-172500D01*
G01*
X43020000Y-85557500D01*
G75*
G02*
X42847500Y-85730000I-172500J0D01*
G01*
X42452500Y-85730000D01*
G75*
G02*
X42280000Y-85557500I0J172500D01*
G01*
X42280000Y-85212500D01*
G75*
G02*
X42452500Y-85040000I172500J0D01*
G01*
G37*
G36*
G01*
X43452500Y-84085000D02*
X43847500Y-84085000D01*
G75*
G02*
X44020000Y-84257500I0J-172500D01*
G01*
X44020000Y-84602500D01*
G75*
G02*
X43847500Y-84775000I-172500J0D01*
G01*
X43452500Y-84775000D01*
G75*
G02*
X43280000Y-84602500I0J172500D01*
G01*
X43280000Y-84257500D01*
G75*
G02*
X43452500Y-84085000I172500J0D01*
G01*
G37*
G36*
G01*
X43452500Y-85055000D02*
X43847500Y-85055000D01*
G75*
G02*
X44020000Y-85227500I0J-172500D01*
G01*
X44020000Y-85572500D01*
G75*
G02*
X43847500Y-85745000I-172500J0D01*
G01*
X43452500Y-85745000D01*
G75*
G02*
X43280000Y-85572500I0J172500D01*
G01*
X43280000Y-85227500D01*
G75*
G02*
X43452500Y-85055000I172500J0D01*
G01*
G37*
G36*
G01*
X45847500Y-85730000D02*
X45452500Y-85730000D01*
G75*
G02*
X45280000Y-85557500I0J172500D01*
G01*
X45280000Y-85212500D01*
G75*
G02*
X45452500Y-85040000I172500J0D01*
G01*
X45847500Y-85040000D01*
G75*
G02*
X46020000Y-85212500I0J-172500D01*
G01*
X46020000Y-85557500D01*
G75*
G02*
X45847500Y-85730000I-172500J0D01*
G01*
G37*
G36*
G01*
X45847500Y-84760000D02*
X45452500Y-84760000D01*
G75*
G02*
X45280000Y-84587500I0J172500D01*
G01*
X45280000Y-84242500D01*
G75*
G02*
X45452500Y-84070000I172500J0D01*
G01*
X45847500Y-84070000D01*
G75*
G02*
X46020000Y-84242500I0J-172500D01*
G01*
X46020000Y-84587500D01*
G75*
G02*
X45847500Y-84760000I-172500J0D01*
G01*
G37*
G36*
G01*
X44847500Y-84760000D02*
X44452500Y-84760000D01*
G75*
G02*
X44280000Y-84587500I0J172500D01*
G01*
X44280000Y-84242500D01*
G75*
G02*
X44452500Y-84070000I172500J0D01*
G01*
X44847500Y-84070000D01*
G75*
G02*
X45020000Y-84242500I0J-172500D01*
G01*
X45020000Y-84587500D01*
G75*
G02*
X44847500Y-84760000I-172500J0D01*
G01*
G37*
G36*
G01*
X44847500Y-85730000D02*
X44452500Y-85730000D01*
G75*
G02*
X44280000Y-85557500I0J172500D01*
G01*
X44280000Y-85212500D01*
G75*
G02*
X44452500Y-85040000I172500J0D01*
G01*
X44847500Y-85040000D01*
G75*
G02*
X45020000Y-85212500I0J-172500D01*
G01*
X45020000Y-85557500D01*
G75*
G02*
X44847500Y-85730000I-172500J0D01*
G01*
G37*
G36*
G01*
X45197500Y-75860000D02*
X44802500Y-75860000D01*
G75*
G02*
X44630000Y-75687500I0J172500D01*
G01*
X44630000Y-75342500D01*
G75*
G02*
X44802500Y-75170000I172500J0D01*
G01*
X45197500Y-75170000D01*
G75*
G02*
X45370000Y-75342500I0J-172500D01*
G01*
X45370000Y-75687500D01*
G75*
G02*
X45197500Y-75860000I-172500J0D01*
G01*
G37*
G36*
G01*
X45197500Y-76830000D02*
X44802500Y-76830000D01*
G75*
G02*
X44630000Y-76657500I0J172500D01*
G01*
X44630000Y-76312500D01*
G75*
G02*
X44802500Y-76140000I172500J0D01*
G01*
X45197500Y-76140000D01*
G75*
G02*
X45370000Y-76312500I0J-172500D01*
G01*
X45370000Y-76657500D01*
G75*
G02*
X45197500Y-76830000I-172500J0D01*
G01*
G37*
G36*
G01*
X45402500Y-81870000D02*
X45797500Y-81870000D01*
G75*
G02*
X45970000Y-82042500I0J-172500D01*
G01*
X45970000Y-82387500D01*
G75*
G02*
X45797500Y-82560000I-172500J0D01*
G01*
X45402500Y-82560000D01*
G75*
G02*
X45230000Y-82387500I0J172500D01*
G01*
X45230000Y-82042500D01*
G75*
G02*
X45402500Y-81870000I172500J0D01*
G01*
G37*
G36*
G01*
X45402500Y-82840000D02*
X45797500Y-82840000D01*
G75*
G02*
X45970000Y-83012500I0J-172500D01*
G01*
X45970000Y-83357500D01*
G75*
G02*
X45797500Y-83530000I-172500J0D01*
G01*
X45402500Y-83530000D01*
G75*
G02*
X45230000Y-83357500I0J172500D01*
G01*
X45230000Y-83012500D01*
G75*
G02*
X45402500Y-82840000I172500J0D01*
G01*
G37*
G36*
G01*
X49860000Y-89102500D02*
X49860000Y-89497500D01*
G75*
G02*
X49687500Y-89670000I-172500J0D01*
G01*
X49342500Y-89670000D01*
G75*
G02*
X49170000Y-89497500I0J172500D01*
G01*
X49170000Y-89102500D01*
G75*
G02*
X49342500Y-88930000I172500J0D01*
G01*
X49687500Y-88930000D01*
G75*
G02*
X49860000Y-89102500I0J-172500D01*
G01*
G37*
G36*
G01*
X50830000Y-89102500D02*
X50830000Y-89497500D01*
G75*
G02*
X50657500Y-89670000I-172500J0D01*
G01*
X50312500Y-89670000D01*
G75*
G02*
X50140000Y-89497500I0J172500D01*
G01*
X50140000Y-89102500D01*
G75*
G02*
X50312500Y-88930000I172500J0D01*
G01*
X50657500Y-88930000D01*
G75*
G02*
X50830000Y-89102500I0J-172500D01*
G01*
G37*
G36*
G01*
X57330000Y-89102500D02*
X57330000Y-89497500D01*
G75*
G02*
X57157500Y-89670000I-172500J0D01*
G01*
X56812500Y-89670000D01*
G75*
G02*
X56640000Y-89497500I0J172500D01*
G01*
X56640000Y-89102500D01*
G75*
G02*
X56812500Y-88930000I172500J0D01*
G01*
X57157500Y-88930000D01*
G75*
G02*
X57330000Y-89102500I0J-172500D01*
G01*
G37*
G36*
G01*
X56360000Y-89102500D02*
X56360000Y-89497500D01*
G75*
G02*
X56187500Y-89670000I-172500J0D01*
G01*
X55842500Y-89670000D01*
G75*
G02*
X55670000Y-89497500I0J172500D01*
G01*
X55670000Y-89102500D01*
G75*
G02*
X55842500Y-88930000I172500J0D01*
G01*
X56187500Y-88930000D01*
G75*
G02*
X56360000Y-89102500I0J-172500D01*
G01*
G37*
G36*
G01*
X61460000Y-89102500D02*
X61460000Y-89497500D01*
G75*
G02*
X61287500Y-89670000I-172500J0D01*
G01*
X60942500Y-89670000D01*
G75*
G02*
X60770000Y-89497500I0J172500D01*
G01*
X60770000Y-89102500D01*
G75*
G02*
X60942500Y-88930000I172500J0D01*
G01*
X61287500Y-88930000D01*
G75*
G02*
X61460000Y-89102500I0J-172500D01*
G01*
G37*
G36*
G01*
X62430000Y-89102500D02*
X62430000Y-89497500D01*
G75*
G02*
X62257500Y-89670000I-172500J0D01*
G01*
X61912500Y-89670000D01*
G75*
G02*
X61740000Y-89497500I0J172500D01*
G01*
X61740000Y-89102500D01*
G75*
G02*
X61912500Y-88930000I172500J0D01*
G01*
X62257500Y-88930000D01*
G75*
G02*
X62430000Y-89102500I0J-172500D01*
G01*
G37*
G36*
G01*
X67470000Y-88197500D02*
X67470000Y-87802500D01*
G75*
G02*
X67642500Y-87630000I172500J0D01*
G01*
X67987500Y-87630000D01*
G75*
G02*
X68160000Y-87802500I0J-172500D01*
G01*
X68160000Y-88197500D01*
G75*
G02*
X67987500Y-88370000I-172500J0D01*
G01*
X67642500Y-88370000D01*
G75*
G02*
X67470000Y-88197500I0J172500D01*
G01*
G37*
G36*
G01*
X68440000Y-88197500D02*
X68440000Y-87802500D01*
G75*
G02*
X68612500Y-87630000I172500J0D01*
G01*
X68957500Y-87630000D01*
G75*
G02*
X69130000Y-87802500I0J-172500D01*
G01*
X69130000Y-88197500D01*
G75*
G02*
X68957500Y-88370000I-172500J0D01*
G01*
X68612500Y-88370000D01*
G75*
G02*
X68440000Y-88197500I0J172500D01*
G01*
G37*
G36*
G01*
X70102500Y-80640000D02*
X70497500Y-80640000D01*
G75*
G02*
X70670000Y-80812500I0J-172500D01*
G01*
X70670000Y-81157500D01*
G75*
G02*
X70497500Y-81330000I-172500J0D01*
G01*
X70102500Y-81330000D01*
G75*
G02*
X69930000Y-81157500I0J172500D01*
G01*
X69930000Y-80812500D01*
G75*
G02*
X70102500Y-80640000I172500J0D01*
G01*
G37*
G36*
G01*
X70102500Y-79670000D02*
X70497500Y-79670000D01*
G75*
G02*
X70670000Y-79842500I0J-172500D01*
G01*
X70670000Y-80187500D01*
G75*
G02*
X70497500Y-80360000I-172500J0D01*
G01*
X70102500Y-80360000D01*
G75*
G02*
X69930000Y-80187500I0J172500D01*
G01*
X69930000Y-79842500D01*
G75*
G02*
X70102500Y-79670000I172500J0D01*
G01*
G37*
G36*
G01*
X70202500Y-74170000D02*
X70597500Y-74170000D01*
G75*
G02*
X70770000Y-74342500I0J-172500D01*
G01*
X70770000Y-74687500D01*
G75*
G02*
X70597500Y-74860000I-172500J0D01*
G01*
X70202500Y-74860000D01*
G75*
G02*
X70030000Y-74687500I0J172500D01*
G01*
X70030000Y-74342500D01*
G75*
G02*
X70202500Y-74170000I172500J0D01*
G01*
G37*
G36*
G01*
X70202500Y-75140000D02*
X70597500Y-75140000D01*
G75*
G02*
X70770000Y-75312500I0J-172500D01*
G01*
X70770000Y-75657500D01*
G75*
G02*
X70597500Y-75830000I-172500J0D01*
G01*
X70202500Y-75830000D01*
G75*
G02*
X70030000Y-75657500I0J172500D01*
G01*
X70030000Y-75312500D01*
G75*
G02*
X70202500Y-75140000I172500J0D01*
G01*
G37*
G36*
G01*
X69170000Y-67397500D02*
X69170000Y-67002500D01*
G75*
G02*
X69342500Y-66830000I172500J0D01*
G01*
X69687500Y-66830000D01*
G75*
G02*
X69860000Y-67002500I0J-172500D01*
G01*
X69860000Y-67397500D01*
G75*
G02*
X69687500Y-67570000I-172500J0D01*
G01*
X69342500Y-67570000D01*
G75*
G02*
X69170000Y-67397500I0J172500D01*
G01*
G37*
G36*
G01*
X70140000Y-67397500D02*
X70140000Y-67002500D01*
G75*
G02*
X70312500Y-66830000I172500J0D01*
G01*
X70657500Y-66830000D01*
G75*
G02*
X70830000Y-67002500I0J-172500D01*
G01*
X70830000Y-67397500D01*
G75*
G02*
X70657500Y-67570000I-172500J0D01*
G01*
X70312500Y-67570000D01*
G75*
G02*
X70140000Y-67397500I0J172500D01*
G01*
G37*
G36*
G01*
X59870000Y-63447500D02*
X59870000Y-63052500D01*
G75*
G02*
X60042500Y-62880000I172500J0D01*
G01*
X60387500Y-62880000D01*
G75*
G02*
X60560000Y-63052500I0J-172500D01*
G01*
X60560000Y-63447500D01*
G75*
G02*
X60387500Y-63620000I-172500J0D01*
G01*
X60042500Y-63620000D01*
G75*
G02*
X59870000Y-63447500I0J172500D01*
G01*
G37*
G36*
G01*
X60840000Y-63447500D02*
X60840000Y-63052500D01*
G75*
G02*
X61012500Y-62880000I172500J0D01*
G01*
X61357500Y-62880000D01*
G75*
G02*
X61530000Y-63052500I0J-172500D01*
G01*
X61530000Y-63447500D01*
G75*
G02*
X61357500Y-63620000I-172500J0D01*
G01*
X61012500Y-63620000D01*
G75*
G02*
X60840000Y-63447500I0J172500D01*
G01*
G37*
G36*
G01*
X56140000Y-64797500D02*
X56140000Y-64402500D01*
G75*
G02*
X56312500Y-64230000I172500J0D01*
G01*
X56657500Y-64230000D01*
G75*
G02*
X56830000Y-64402500I0J-172500D01*
G01*
X56830000Y-64797500D01*
G75*
G02*
X56657500Y-64970000I-172500J0D01*
G01*
X56312500Y-64970000D01*
G75*
G02*
X56140000Y-64797500I0J172500D01*
G01*
G37*
G36*
G01*
X55170000Y-64797500D02*
X55170000Y-64402500D01*
G75*
G02*
X55342500Y-64230000I172500J0D01*
G01*
X55687500Y-64230000D01*
G75*
G02*
X55860000Y-64402500I0J-172500D01*
G01*
X55860000Y-64797500D01*
G75*
G02*
X55687500Y-64970000I-172500J0D01*
G01*
X55342500Y-64970000D01*
G75*
G02*
X55170000Y-64797500I0J172500D01*
G01*
G37*
G36*
G01*
X48515000Y-65802500D02*
X48515000Y-66197500D01*
G75*
G02*
X48342500Y-66370000I-172500J0D01*
G01*
X47997500Y-66370000D01*
G75*
G02*
X47825000Y-66197500I0J172500D01*
G01*
X47825000Y-65802500D01*
G75*
G02*
X47997500Y-65630000I172500J0D01*
G01*
X48342500Y-65630000D01*
G75*
G02*
X48515000Y-65802500I0J-172500D01*
G01*
G37*
G36*
G01*
X47545000Y-65802500D02*
X47545000Y-66197500D01*
G75*
G02*
X47372500Y-66370000I-172500J0D01*
G01*
X47027500Y-66370000D01*
G75*
G02*
X46855000Y-66197500I0J172500D01*
G01*
X46855000Y-65802500D01*
G75*
G02*
X47027500Y-65630000I172500J0D01*
G01*
X47372500Y-65630000D01*
G75*
G02*
X47545000Y-65802500I0J-172500D01*
G01*
G37*
G36*
G01*
X45060000Y-70552500D02*
X45060000Y-70947500D01*
G75*
G02*
X44887500Y-71120000I-172500J0D01*
G01*
X44542500Y-71120000D01*
G75*
G02*
X44370000Y-70947500I0J172500D01*
G01*
X44370000Y-70552500D01*
G75*
G02*
X44542500Y-70380000I172500J0D01*
G01*
X44887500Y-70380000D01*
G75*
G02*
X45060000Y-70552500I0J-172500D01*
G01*
G37*
G36*
G01*
X46030000Y-70552500D02*
X46030000Y-70947500D01*
G75*
G02*
X45857500Y-71120000I-172500J0D01*
G01*
X45512500Y-71120000D01*
G75*
G02*
X45340000Y-70947500I0J172500D01*
G01*
X45340000Y-70552500D01*
G75*
G02*
X45512500Y-70380000I172500J0D01*
G01*
X45857500Y-70380000D01*
G75*
G02*
X46030000Y-70552500I0J-172500D01*
G01*
G37*
G36*
G01*
X49981250Y-64875000D02*
X49418750Y-64875000D01*
G75*
G02*
X49175000Y-64631250I0J243750D01*
G01*
X49175000Y-64143750D01*
G75*
G02*
X49418750Y-63900000I243750J0D01*
G01*
X49981250Y-63900000D01*
G75*
G02*
X50225000Y-64143750I0J-243750D01*
G01*
X50225000Y-64631250D01*
G75*
G02*
X49981250Y-64875000I-243750J0D01*
G01*
G37*
G36*
G01*
X49981250Y-63300000D02*
X49418750Y-63300000D01*
G75*
G02*
X49175000Y-63056250I0J243750D01*
G01*
X49175000Y-62568750D01*
G75*
G02*
X49418750Y-62325000I243750J0D01*
G01*
X49981250Y-62325000D01*
G75*
G02*
X50225000Y-62568750I0J-243750D01*
G01*
X50225000Y-63056250D01*
G75*
G02*
X49981250Y-63300000I-243750J0D01*
G01*
G37*
G36*
G01*
X66018750Y-89125000D02*
X66581250Y-89125000D01*
G75*
G02*
X66825000Y-89368750I0J-243750D01*
G01*
X66825000Y-89856250D01*
G75*
G02*
X66581250Y-90100000I-243750J0D01*
G01*
X66018750Y-90100000D01*
G75*
G02*
X65775000Y-89856250I0J243750D01*
G01*
X65775000Y-89368750D01*
G75*
G02*
X66018750Y-89125000I243750J0D01*
G01*
G37*
G36*
G01*
X66018750Y-90700000D02*
X66581250Y-90700000D01*
G75*
G02*
X66825000Y-90943750I0J-243750D01*
G01*
X66825000Y-91431250D01*
G75*
G02*
X66581250Y-91675000I-243750J0D01*
G01*
X66018750Y-91675000D01*
G75*
G02*
X65775000Y-91431250I0J243750D01*
G01*
X65775000Y-90943750D01*
G75*
G02*
X66018750Y-90700000I243750J0D01*
G01*
G37*
G36*
G01*
X72100000Y-69481250D02*
X72100000Y-68918750D01*
G75*
G02*
X72343750Y-68675000I243750J0D01*
G01*
X72831250Y-68675000D01*
G75*
G02*
X73075000Y-68918750I0J-243750D01*
G01*
X73075000Y-69481250D01*
G75*
G02*
X72831250Y-69725000I-243750J0D01*
G01*
X72343750Y-69725000D01*
G75*
G02*
X72100000Y-69481250I0J243750D01*
G01*
G37*
G36*
G01*
X70525000Y-69481250D02*
X70525000Y-68918750D01*
G75*
G02*
X70768750Y-68675000I243750J0D01*
G01*
X71256250Y-68675000D01*
G75*
G02*
X71500000Y-68918750I0J-243750D01*
G01*
X71500000Y-69481250D01*
G75*
G02*
X71256250Y-69725000I-243750J0D01*
G01*
X70768750Y-69725000D01*
G75*
G02*
X70525000Y-69481250I0J243750D01*
G01*
G37*
G36*
G01*
X38402500Y-77940000D02*
X38797500Y-77940000D01*
G75*
G02*
X38970000Y-78112500I0J-172500D01*
G01*
X38970000Y-78457500D01*
G75*
G02*
X38797500Y-78630000I-172500J0D01*
G01*
X38402500Y-78630000D01*
G75*
G02*
X38230000Y-78457500I0J172500D01*
G01*
X38230000Y-78112500D01*
G75*
G02*
X38402500Y-77940000I172500J0D01*
G01*
G37*
G36*
G01*
X38402500Y-76970000D02*
X38797500Y-76970000D01*
G75*
G02*
X38970000Y-77142500I0J-172500D01*
G01*
X38970000Y-77487500D01*
G75*
G02*
X38797500Y-77660000I-172500J0D01*
G01*
X38402500Y-77660000D01*
G75*
G02*
X38230000Y-77487500I0J172500D01*
G01*
X38230000Y-77142500D01*
G75*
G02*
X38402500Y-76970000I172500J0D01*
G01*
G37*
G36*
G01*
X38797500Y-80660000D02*
X38402500Y-80660000D01*
G75*
G02*
X38230000Y-80487500I0J172500D01*
G01*
X38230000Y-80142500D01*
G75*
G02*
X38402500Y-79970000I172500J0D01*
G01*
X38797500Y-79970000D01*
G75*
G02*
X38970000Y-80142500I0J-172500D01*
G01*
X38970000Y-80487500D01*
G75*
G02*
X38797500Y-80660000I-172500J0D01*
G01*
G37*
G36*
G01*
X38797500Y-81630000D02*
X38402500Y-81630000D01*
G75*
G02*
X38230000Y-81457500I0J172500D01*
G01*
X38230000Y-81112500D01*
G75*
G02*
X38402500Y-80940000I172500J0D01*
G01*
X38797500Y-80940000D01*
G75*
G02*
X38970000Y-81112500I0J-172500D01*
G01*
X38970000Y-81457500D01*
G75*
G02*
X38797500Y-81630000I-172500J0D01*
G01*
G37*
D10*
X91650000Y-50650000D03*
X91650000Y-53950000D03*
G36*
G01*
X92305000Y-48675000D02*
X90995000Y-48675000D01*
G75*
G02*
X90725000Y-48405000I0J270000D01*
G01*
X90725000Y-47595000D01*
G75*
G02*
X90995000Y-47325000I270000J0D01*
G01*
X92305000Y-47325000D01*
G75*
G02*
X92575000Y-47595000I0J-270000D01*
G01*
X92575000Y-48405000D01*
G75*
G02*
X92305000Y-48675000I-270000J0D01*
G01*
G37*
G36*
G01*
X92305000Y-45875000D02*
X90995000Y-45875000D01*
G75*
G02*
X90725000Y-45605000I0J270000D01*
G01*
X90725000Y-44795000D01*
G75*
G02*
X90995000Y-44525000I270000J0D01*
G01*
X92305000Y-44525000D01*
G75*
G02*
X92575000Y-44795000I0J-270000D01*
G01*
X92575000Y-45605000D01*
G75*
G02*
X92305000Y-45875000I-270000J0D01*
G01*
G37*
G36*
G01*
X88850000Y-43581250D02*
X88850000Y-42618750D01*
G75*
G02*
X89118750Y-42350000I268750J0D01*
G01*
X89656250Y-42350000D01*
G75*
G02*
X89925000Y-42618750I0J-268750D01*
G01*
X89925000Y-43581250D01*
G75*
G02*
X89656250Y-43850000I-268750J0D01*
G01*
X89118750Y-43850000D01*
G75*
G02*
X88850000Y-43581250I0J268750D01*
G01*
G37*
G36*
G01*
X86975000Y-43581250D02*
X86975000Y-42618750D01*
G75*
G02*
X87243750Y-42350000I268750J0D01*
G01*
X87781250Y-42350000D01*
G75*
G02*
X88050000Y-42618750I0J-268750D01*
G01*
X88050000Y-43581250D01*
G75*
G02*
X87781250Y-43850000I-268750J0D01*
G01*
X87243750Y-43850000D01*
G75*
G02*
X86975000Y-43581250I0J268750D01*
G01*
G37*
G36*
G01*
X41475000Y-83918750D02*
X41475000Y-84881250D01*
G75*
G02*
X41206250Y-85150000I-268750J0D01*
G01*
X40668750Y-85150000D01*
G75*
G02*
X40400000Y-84881250I0J268750D01*
G01*
X40400000Y-83918750D01*
G75*
G02*
X40668750Y-83650000I268750J0D01*
G01*
X41206250Y-83650000D01*
G75*
G02*
X41475000Y-83918750I0J-268750D01*
G01*
G37*
G36*
G01*
X39600000Y-83918750D02*
X39600000Y-84881250D01*
G75*
G02*
X39331250Y-85150000I-268750J0D01*
G01*
X38793750Y-85150000D01*
G75*
G02*
X38525000Y-84881250I0J268750D01*
G01*
X38525000Y-83918750D01*
G75*
G02*
X38793750Y-83650000I268750J0D01*
G01*
X39331250Y-83650000D01*
G75*
G02*
X39600000Y-83918750I0J-268750D01*
G01*
G37*
D11*
X104121320Y-122878680D03*
X102000000Y-122000000D03*
X99878680Y-122878680D03*
X99000000Y-125000000D03*
X99878680Y-127121320D03*
X102000000Y-128000000D03*
X104121320Y-127121320D03*
X105000000Y-125000000D03*
D12*
X102000000Y-125000000D03*
X102000000Y-35000000D03*
D11*
X105000000Y-35000000D03*
X104121320Y-37121320D03*
X102000000Y-38000000D03*
X99878680Y-37121320D03*
X99000000Y-35000000D03*
X99878680Y-32878680D03*
X102000000Y-32000000D03*
X104121320Y-32878680D03*
X37121320Y-32878680D03*
X35000000Y-32000000D03*
X32878680Y-32878680D03*
X32000000Y-35000000D03*
X32878680Y-37121320D03*
X35000000Y-38000000D03*
X37121320Y-37121320D03*
X38000000Y-35000000D03*
D12*
X35000000Y-35000000D03*
X35000000Y-125000000D03*
D11*
X38000000Y-125000000D03*
X37121320Y-127121320D03*
X35000000Y-128000000D03*
X32878680Y-127121320D03*
X32000000Y-125000000D03*
X32878680Y-122878680D03*
X35000000Y-122000000D03*
X37121320Y-122878680D03*
D13*
X75210000Y-126700000D03*
X75210000Y-122800000D03*
X76480000Y-126700000D03*
X76480000Y-122800000D03*
X77750000Y-126700000D03*
X77750000Y-122800000D03*
X79020000Y-126700000D03*
X79020000Y-122800000D03*
X80290000Y-126700000D03*
X80290000Y-122800000D03*
D14*
X48300000Y-127000000D03*
G36*
G01*
X51700000Y-126214706D02*
X51700000Y-127785294D01*
G75*
G02*
X51435294Y-128050000I-264706J0D01*
G01*
X50164706Y-128050000D01*
G75*
G02*
X49900000Y-127785294I0J264706D01*
G01*
X49900000Y-126214706D01*
G75*
G02*
X50164706Y-125950000I264706J0D01*
G01*
X51435294Y-125950000D01*
G75*
G02*
X51700000Y-126214706I0J-264706D01*
G01*
G37*
G36*
G01*
X70900000Y-126214706D02*
X70900000Y-127785294D01*
G75*
G02*
X70635294Y-128050000I-264706J0D01*
G01*
X69364706Y-128050000D01*
G75*
G02*
X69100000Y-127785294I0J264706D01*
G01*
X69100000Y-126214706D01*
G75*
G02*
X69364706Y-125950000I264706J0D01*
G01*
X70635294Y-125950000D01*
G75*
G02*
X70900000Y-126214706I0J-264706D01*
G01*
G37*
X67500000Y-127000000D03*
G36*
G01*
X100700000Y-109993750D02*
X100700000Y-106406250D01*
G75*
G02*
X100956250Y-106150000I256250J0D01*
G01*
X104543750Y-106150000D01*
G75*
G02*
X104800000Y-106406250I0J-256250D01*
G01*
X104800000Y-109993750D01*
G75*
G02*
X104543750Y-110250000I-256250J0D01*
G01*
X100956250Y-110250000D01*
G75*
G02*
X100700000Y-109993750I0J256250D01*
G01*
G37*
G36*
G01*
X89950000Y-109993750D02*
X89950000Y-106406250D01*
G75*
G02*
X90206250Y-106150000I256250J0D01*
G01*
X93793750Y-106150000D01*
G75*
G02*
X94050000Y-106406250I0J-256250D01*
G01*
X94050000Y-109993750D01*
G75*
G02*
X93793750Y-110250000I-256250J0D01*
G01*
X90206250Y-110250000D01*
G75*
G02*
X89950000Y-109993750I0J256250D01*
G01*
G37*
D15*
X102750000Y-61500000D03*
X102750000Y-100000000D03*
X94750000Y-61500000D03*
D16*
X92000000Y-100000000D03*
G36*
G01*
X48875000Y-121718750D02*
X48875000Y-122681250D01*
G75*
G02*
X48606250Y-122950000I-268750J0D01*
G01*
X48068750Y-122950000D01*
G75*
G02*
X47800000Y-122681250I0J268750D01*
G01*
X47800000Y-121718750D01*
G75*
G02*
X48068750Y-121450000I268750J0D01*
G01*
X48606250Y-121450000D01*
G75*
G02*
X48875000Y-121718750I0J-268750D01*
G01*
G37*
G36*
G01*
X47000000Y-121718750D02*
X47000000Y-122681250D01*
G75*
G02*
X46731250Y-122950000I-268750J0D01*
G01*
X46193750Y-122950000D01*
G75*
G02*
X45925000Y-122681250I0J268750D01*
G01*
X45925000Y-121718750D01*
G75*
G02*
X46193750Y-121450000I268750J0D01*
G01*
X46731250Y-121450000D01*
G75*
G02*
X47000000Y-121718750I0J-268750D01*
G01*
G37*
G36*
G01*
X43718750Y-81300000D02*
X44281250Y-81300000D01*
G75*
G02*
X44525000Y-81543750I0J-243750D01*
G01*
X44525000Y-82031250D01*
G75*
G02*
X44281250Y-82275000I-243750J0D01*
G01*
X43718750Y-82275000D01*
G75*
G02*
X43475000Y-82031250I0J243750D01*
G01*
X43475000Y-81543750D01*
G75*
G02*
X43718750Y-81300000I243750J0D01*
G01*
G37*
G36*
G01*
X43718750Y-79725000D02*
X44281250Y-79725000D01*
G75*
G02*
X44525000Y-79968750I0J-243750D01*
G01*
X44525000Y-80456250D01*
G75*
G02*
X44281250Y-80700000I-243750J0D01*
G01*
X43718750Y-80700000D01*
G75*
G02*
X43475000Y-80456250I0J243750D01*
G01*
X43475000Y-79968750D01*
G75*
G02*
X43718750Y-79725000I243750J0D01*
G01*
G37*
D17*
X71500000Y-37500000D03*
D18*
X71500000Y-42580000D03*
G36*
G01*
X52447500Y-63960000D02*
X52052500Y-63960000D01*
G75*
G02*
X51880000Y-63787500I0J172500D01*
G01*
X51880000Y-63442500D01*
G75*
G02*
X52052500Y-63270000I172500J0D01*
G01*
X52447500Y-63270000D01*
G75*
G02*
X52620000Y-63442500I0J-172500D01*
G01*
X52620000Y-63787500D01*
G75*
G02*
X52447500Y-63960000I-172500J0D01*
G01*
G37*
G36*
G01*
X52447500Y-64930000D02*
X52052500Y-64930000D01*
G75*
G02*
X51880000Y-64757500I0J172500D01*
G01*
X51880000Y-64412500D01*
G75*
G02*
X52052500Y-64240000I172500J0D01*
G01*
X52447500Y-64240000D01*
G75*
G02*
X52620000Y-64412500I0J-172500D01*
G01*
X52620000Y-64757500D01*
G75*
G02*
X52447500Y-64930000I-172500J0D01*
G01*
G37*
G36*
G01*
X54552500Y-89070000D02*
X54947500Y-89070000D01*
G75*
G02*
X55120000Y-89242500I0J-172500D01*
G01*
X55120000Y-89587500D01*
G75*
G02*
X54947500Y-89760000I-172500J0D01*
G01*
X54552500Y-89760000D01*
G75*
G02*
X54380000Y-89587500I0J172500D01*
G01*
X54380000Y-89242500D01*
G75*
G02*
X54552500Y-89070000I172500J0D01*
G01*
G37*
G36*
G01*
X54552500Y-90040000D02*
X54947500Y-90040000D01*
G75*
G02*
X55120000Y-90212500I0J-172500D01*
G01*
X55120000Y-90557500D01*
G75*
G02*
X54947500Y-90730000I-172500J0D01*
G01*
X54552500Y-90730000D01*
G75*
G02*
X54380000Y-90557500I0J172500D01*
G01*
X54380000Y-90212500D01*
G75*
G02*
X54552500Y-90040000I172500J0D01*
G01*
G37*
G36*
G01*
X70845000Y-45525000D02*
X72155000Y-45525000D01*
G75*
G02*
X72425000Y-45795000I0J-270000D01*
G01*
X72425000Y-46605000D01*
G75*
G02*
X72155000Y-46875000I-270000J0D01*
G01*
X70845000Y-46875000D01*
G75*
G02*
X70575000Y-46605000I0J270000D01*
G01*
X70575000Y-45795000D01*
G75*
G02*
X70845000Y-45525000I270000J0D01*
G01*
G37*
G36*
G01*
X70845000Y-48325000D02*
X72155000Y-48325000D01*
G75*
G02*
X72425000Y-48595000I0J-270000D01*
G01*
X72425000Y-49405000D01*
G75*
G02*
X72155000Y-49675000I-270000J0D01*
G01*
X70845000Y-49675000D01*
G75*
G02*
X70575000Y-49405000I0J270000D01*
G01*
X70575000Y-48595000D01*
G75*
G02*
X70845000Y-48325000I270000J0D01*
G01*
G37*
D19*
X91400000Y-35250000D03*
D20*
X85100000Y-35250000D03*
X85100000Y-37550000D03*
X85100000Y-32950000D03*
G36*
G01*
X46550000Y-68350000D02*
X46550000Y-68150000D01*
G75*
G02*
X46650000Y-68050000I100000J0D01*
G01*
X48025000Y-68050000D01*
G75*
G02*
X48125000Y-68150000I0J-100000D01*
G01*
X48125000Y-68350000D01*
G75*
G02*
X48025000Y-68450000I-100000J0D01*
G01*
X46650000Y-68450000D01*
G75*
G02*
X46550000Y-68350000I0J100000D01*
G01*
G37*
G36*
G01*
X46550000Y-68850000D02*
X46550000Y-68650000D01*
G75*
G02*
X46650000Y-68550000I100000J0D01*
G01*
X48025000Y-68550000D01*
G75*
G02*
X48125000Y-68650000I0J-100000D01*
G01*
X48125000Y-68850000D01*
G75*
G02*
X48025000Y-68950000I-100000J0D01*
G01*
X46650000Y-68950000D01*
G75*
G02*
X46550000Y-68850000I0J100000D01*
G01*
G37*
G36*
G01*
X46550000Y-69350000D02*
X46550000Y-69150000D01*
G75*
G02*
X46650000Y-69050000I100000J0D01*
G01*
X48025000Y-69050000D01*
G75*
G02*
X48125000Y-69150000I0J-100000D01*
G01*
X48125000Y-69350000D01*
G75*
G02*
X48025000Y-69450000I-100000J0D01*
G01*
X46650000Y-69450000D01*
G75*
G02*
X46550000Y-69350000I0J100000D01*
G01*
G37*
G36*
G01*
X46550000Y-69850000D02*
X46550000Y-69650000D01*
G75*
G02*
X46650000Y-69550000I100000J0D01*
G01*
X48025000Y-69550000D01*
G75*
G02*
X48125000Y-69650000I0J-100000D01*
G01*
X48125000Y-69850000D01*
G75*
G02*
X48025000Y-69950000I-100000J0D01*
G01*
X46650000Y-69950000D01*
G75*
G02*
X46550000Y-69850000I0J100000D01*
G01*
G37*
G36*
G01*
X46550000Y-70350000D02*
X46550000Y-70150000D01*
G75*
G02*
X46650000Y-70050000I100000J0D01*
G01*
X48025000Y-70050000D01*
G75*
G02*
X48125000Y-70150000I0J-100000D01*
G01*
X48125000Y-70350000D01*
G75*
G02*
X48025000Y-70450000I-100000J0D01*
G01*
X46650000Y-70450000D01*
G75*
G02*
X46550000Y-70350000I0J100000D01*
G01*
G37*
G36*
G01*
X46550000Y-70850000D02*
X46550000Y-70650000D01*
G75*
G02*
X46650000Y-70550000I100000J0D01*
G01*
X48025000Y-70550000D01*
G75*
G02*
X48125000Y-70650000I0J-100000D01*
G01*
X48125000Y-70850000D01*
G75*
G02*
X48025000Y-70950000I-100000J0D01*
G01*
X46650000Y-70950000D01*
G75*
G02*
X46550000Y-70850000I0J100000D01*
G01*
G37*
G36*
G01*
X46550000Y-71350000D02*
X46550000Y-71150000D01*
G75*
G02*
X46650000Y-71050000I100000J0D01*
G01*
X48025000Y-71050000D01*
G75*
G02*
X48125000Y-71150000I0J-100000D01*
G01*
X48125000Y-71350000D01*
G75*
G02*
X48025000Y-71450000I-100000J0D01*
G01*
X46650000Y-71450000D01*
G75*
G02*
X46550000Y-71350000I0J100000D01*
G01*
G37*
G36*
G01*
X46550000Y-71850000D02*
X46550000Y-71650000D01*
G75*
G02*
X46650000Y-71550000I100000J0D01*
G01*
X48025000Y-71550000D01*
G75*
G02*
X48125000Y-71650000I0J-100000D01*
G01*
X48125000Y-71850000D01*
G75*
G02*
X48025000Y-71950000I-100000J0D01*
G01*
X46650000Y-71950000D01*
G75*
G02*
X46550000Y-71850000I0J100000D01*
G01*
G37*
G36*
G01*
X46550000Y-72350000D02*
X46550000Y-72150000D01*
G75*
G02*
X46650000Y-72050000I100000J0D01*
G01*
X48025000Y-72050000D01*
G75*
G02*
X48125000Y-72150000I0J-100000D01*
G01*
X48125000Y-72350000D01*
G75*
G02*
X48025000Y-72450000I-100000J0D01*
G01*
X46650000Y-72450000D01*
G75*
G02*
X46550000Y-72350000I0J100000D01*
G01*
G37*
G36*
G01*
X46550000Y-72850000D02*
X46550000Y-72650000D01*
G75*
G02*
X46650000Y-72550000I100000J0D01*
G01*
X48025000Y-72550000D01*
G75*
G02*
X48125000Y-72650000I0J-100000D01*
G01*
X48125000Y-72850000D01*
G75*
G02*
X48025000Y-72950000I-100000J0D01*
G01*
X46650000Y-72950000D01*
G75*
G02*
X46550000Y-72850000I0J100000D01*
G01*
G37*
G36*
G01*
X46550000Y-73350000D02*
X46550000Y-73150000D01*
G75*
G02*
X46650000Y-73050000I100000J0D01*
G01*
X48025000Y-73050000D01*
G75*
G02*
X48125000Y-73150000I0J-100000D01*
G01*
X48125000Y-73350000D01*
G75*
G02*
X48025000Y-73450000I-100000J0D01*
G01*
X46650000Y-73450000D01*
G75*
G02*
X46550000Y-73350000I0J100000D01*
G01*
G37*
G36*
G01*
X46550000Y-73850000D02*
X46550000Y-73650000D01*
G75*
G02*
X46650000Y-73550000I100000J0D01*
G01*
X48025000Y-73550000D01*
G75*
G02*
X48125000Y-73650000I0J-100000D01*
G01*
X48125000Y-73850000D01*
G75*
G02*
X48025000Y-73950000I-100000J0D01*
G01*
X46650000Y-73950000D01*
G75*
G02*
X46550000Y-73850000I0J100000D01*
G01*
G37*
G36*
G01*
X46550000Y-74350000D02*
X46550000Y-74150000D01*
G75*
G02*
X46650000Y-74050000I100000J0D01*
G01*
X48025000Y-74050000D01*
G75*
G02*
X48125000Y-74150000I0J-100000D01*
G01*
X48125000Y-74350000D01*
G75*
G02*
X48025000Y-74450000I-100000J0D01*
G01*
X46650000Y-74450000D01*
G75*
G02*
X46550000Y-74350000I0J100000D01*
G01*
G37*
G36*
G01*
X46550000Y-74850000D02*
X46550000Y-74650000D01*
G75*
G02*
X46650000Y-74550000I100000J0D01*
G01*
X48025000Y-74550000D01*
G75*
G02*
X48125000Y-74650000I0J-100000D01*
G01*
X48125000Y-74850000D01*
G75*
G02*
X48025000Y-74950000I-100000J0D01*
G01*
X46650000Y-74950000D01*
G75*
G02*
X46550000Y-74850000I0J100000D01*
G01*
G37*
G36*
G01*
X46550000Y-75350000D02*
X46550000Y-75150000D01*
G75*
G02*
X46650000Y-75050000I100000J0D01*
G01*
X48025000Y-75050000D01*
G75*
G02*
X48125000Y-75150000I0J-100000D01*
G01*
X48125000Y-75350000D01*
G75*
G02*
X48025000Y-75450000I-100000J0D01*
G01*
X46650000Y-75450000D01*
G75*
G02*
X46550000Y-75350000I0J100000D01*
G01*
G37*
G36*
G01*
X46550000Y-75850000D02*
X46550000Y-75650000D01*
G75*
G02*
X46650000Y-75550000I100000J0D01*
G01*
X48025000Y-75550000D01*
G75*
G02*
X48125000Y-75650000I0J-100000D01*
G01*
X48125000Y-75850000D01*
G75*
G02*
X48025000Y-75950000I-100000J0D01*
G01*
X46650000Y-75950000D01*
G75*
G02*
X46550000Y-75850000I0J100000D01*
G01*
G37*
G36*
G01*
X46550000Y-76350000D02*
X46550000Y-76150000D01*
G75*
G02*
X46650000Y-76050000I100000J0D01*
G01*
X48025000Y-76050000D01*
G75*
G02*
X48125000Y-76150000I0J-100000D01*
G01*
X48125000Y-76350000D01*
G75*
G02*
X48025000Y-76450000I-100000J0D01*
G01*
X46650000Y-76450000D01*
G75*
G02*
X46550000Y-76350000I0J100000D01*
G01*
G37*
G36*
G01*
X46550000Y-76850000D02*
X46550000Y-76650000D01*
G75*
G02*
X46650000Y-76550000I100000J0D01*
G01*
X48025000Y-76550000D01*
G75*
G02*
X48125000Y-76650000I0J-100000D01*
G01*
X48125000Y-76850000D01*
G75*
G02*
X48025000Y-76950000I-100000J0D01*
G01*
X46650000Y-76950000D01*
G75*
G02*
X46550000Y-76850000I0J100000D01*
G01*
G37*
G36*
G01*
X46550000Y-77350000D02*
X46550000Y-77150000D01*
G75*
G02*
X46650000Y-77050000I100000J0D01*
G01*
X48025000Y-77050000D01*
G75*
G02*
X48125000Y-77150000I0J-100000D01*
G01*
X48125000Y-77350000D01*
G75*
G02*
X48025000Y-77450000I-100000J0D01*
G01*
X46650000Y-77450000D01*
G75*
G02*
X46550000Y-77350000I0J100000D01*
G01*
G37*
G36*
G01*
X46550000Y-77850000D02*
X46550000Y-77650000D01*
G75*
G02*
X46650000Y-77550000I100000J0D01*
G01*
X48025000Y-77550000D01*
G75*
G02*
X48125000Y-77650000I0J-100000D01*
G01*
X48125000Y-77850000D01*
G75*
G02*
X48025000Y-77950000I-100000J0D01*
G01*
X46650000Y-77950000D01*
G75*
G02*
X46550000Y-77850000I0J100000D01*
G01*
G37*
G36*
G01*
X46550000Y-78350000D02*
X46550000Y-78150000D01*
G75*
G02*
X46650000Y-78050000I100000J0D01*
G01*
X48025000Y-78050000D01*
G75*
G02*
X48125000Y-78150000I0J-100000D01*
G01*
X48125000Y-78350000D01*
G75*
G02*
X48025000Y-78450000I-100000J0D01*
G01*
X46650000Y-78450000D01*
G75*
G02*
X46550000Y-78350000I0J100000D01*
G01*
G37*
G36*
G01*
X46550000Y-78850000D02*
X46550000Y-78650000D01*
G75*
G02*
X46650000Y-78550000I100000J0D01*
G01*
X48025000Y-78550000D01*
G75*
G02*
X48125000Y-78650000I0J-100000D01*
G01*
X48125000Y-78850000D01*
G75*
G02*
X48025000Y-78950000I-100000J0D01*
G01*
X46650000Y-78950000D01*
G75*
G02*
X46550000Y-78850000I0J100000D01*
G01*
G37*
G36*
G01*
X46550000Y-79350000D02*
X46550000Y-79150000D01*
G75*
G02*
X46650000Y-79050000I100000J0D01*
G01*
X48025000Y-79050000D01*
G75*
G02*
X48125000Y-79150000I0J-100000D01*
G01*
X48125000Y-79350000D01*
G75*
G02*
X48025000Y-79450000I-100000J0D01*
G01*
X46650000Y-79450000D01*
G75*
G02*
X46550000Y-79350000I0J100000D01*
G01*
G37*
G36*
G01*
X46550000Y-79850000D02*
X46550000Y-79650000D01*
G75*
G02*
X46650000Y-79550000I100000J0D01*
G01*
X48025000Y-79550000D01*
G75*
G02*
X48125000Y-79650000I0J-100000D01*
G01*
X48125000Y-79850000D01*
G75*
G02*
X48025000Y-79950000I-100000J0D01*
G01*
X46650000Y-79950000D01*
G75*
G02*
X46550000Y-79850000I0J100000D01*
G01*
G37*
G36*
G01*
X46550000Y-80350000D02*
X46550000Y-80150000D01*
G75*
G02*
X46650000Y-80050000I100000J0D01*
G01*
X48025000Y-80050000D01*
G75*
G02*
X48125000Y-80150000I0J-100000D01*
G01*
X48125000Y-80350000D01*
G75*
G02*
X48025000Y-80450000I-100000J0D01*
G01*
X46650000Y-80450000D01*
G75*
G02*
X46550000Y-80350000I0J100000D01*
G01*
G37*
G36*
G01*
X46550000Y-80850000D02*
X46550000Y-80650000D01*
G75*
G02*
X46650000Y-80550000I100000J0D01*
G01*
X48025000Y-80550000D01*
G75*
G02*
X48125000Y-80650000I0J-100000D01*
G01*
X48125000Y-80850000D01*
G75*
G02*
X48025000Y-80950000I-100000J0D01*
G01*
X46650000Y-80950000D01*
G75*
G02*
X46550000Y-80850000I0J100000D01*
G01*
G37*
G36*
G01*
X46550000Y-81350000D02*
X46550000Y-81150000D01*
G75*
G02*
X46650000Y-81050000I100000J0D01*
G01*
X48025000Y-81050000D01*
G75*
G02*
X48125000Y-81150000I0J-100000D01*
G01*
X48125000Y-81350000D01*
G75*
G02*
X48025000Y-81450000I-100000J0D01*
G01*
X46650000Y-81450000D01*
G75*
G02*
X46550000Y-81350000I0J100000D01*
G01*
G37*
G36*
G01*
X46550000Y-81850000D02*
X46550000Y-81650000D01*
G75*
G02*
X46650000Y-81550000I100000J0D01*
G01*
X48025000Y-81550000D01*
G75*
G02*
X48125000Y-81650000I0J-100000D01*
G01*
X48125000Y-81850000D01*
G75*
G02*
X48025000Y-81950000I-100000J0D01*
G01*
X46650000Y-81950000D01*
G75*
G02*
X46550000Y-81850000I0J100000D01*
G01*
G37*
G36*
G01*
X46550000Y-82350000D02*
X46550000Y-82150000D01*
G75*
G02*
X46650000Y-82050000I100000J0D01*
G01*
X48025000Y-82050000D01*
G75*
G02*
X48125000Y-82150000I0J-100000D01*
G01*
X48125000Y-82350000D01*
G75*
G02*
X48025000Y-82450000I-100000J0D01*
G01*
X46650000Y-82450000D01*
G75*
G02*
X46550000Y-82350000I0J100000D01*
G01*
G37*
G36*
G01*
X46550000Y-82850000D02*
X46550000Y-82650000D01*
G75*
G02*
X46650000Y-82550000I100000J0D01*
G01*
X48025000Y-82550000D01*
G75*
G02*
X48125000Y-82650000I0J-100000D01*
G01*
X48125000Y-82850000D01*
G75*
G02*
X48025000Y-82950000I-100000J0D01*
G01*
X46650000Y-82950000D01*
G75*
G02*
X46550000Y-82850000I0J100000D01*
G01*
G37*
G36*
G01*
X46550000Y-83350000D02*
X46550000Y-83150000D01*
G75*
G02*
X46650000Y-83050000I100000J0D01*
G01*
X48025000Y-83050000D01*
G75*
G02*
X48125000Y-83150000I0J-100000D01*
G01*
X48125000Y-83350000D01*
G75*
G02*
X48025000Y-83450000I-100000J0D01*
G01*
X46650000Y-83450000D01*
G75*
G02*
X46550000Y-83350000I0J100000D01*
G01*
G37*
G36*
G01*
X46550000Y-83850000D02*
X46550000Y-83650000D01*
G75*
G02*
X46650000Y-83550000I100000J0D01*
G01*
X48025000Y-83550000D01*
G75*
G02*
X48125000Y-83650000I0J-100000D01*
G01*
X48125000Y-83850000D01*
G75*
G02*
X48025000Y-83950000I-100000J0D01*
G01*
X46650000Y-83950000D01*
G75*
G02*
X46550000Y-83850000I0J100000D01*
G01*
G37*
G36*
G01*
X46550000Y-84350000D02*
X46550000Y-84150000D01*
G75*
G02*
X46650000Y-84050000I100000J0D01*
G01*
X48025000Y-84050000D01*
G75*
G02*
X48125000Y-84150000I0J-100000D01*
G01*
X48125000Y-84350000D01*
G75*
G02*
X48025000Y-84450000I-100000J0D01*
G01*
X46650000Y-84450000D01*
G75*
G02*
X46550000Y-84350000I0J100000D01*
G01*
G37*
G36*
G01*
X46550000Y-84850000D02*
X46550000Y-84650000D01*
G75*
G02*
X46650000Y-84550000I100000J0D01*
G01*
X48025000Y-84550000D01*
G75*
G02*
X48125000Y-84650000I0J-100000D01*
G01*
X48125000Y-84850000D01*
G75*
G02*
X48025000Y-84950000I-100000J0D01*
G01*
X46650000Y-84950000D01*
G75*
G02*
X46550000Y-84850000I0J100000D01*
G01*
G37*
G36*
G01*
X46550000Y-85350000D02*
X46550000Y-85150000D01*
G75*
G02*
X46650000Y-85050000I100000J0D01*
G01*
X48025000Y-85050000D01*
G75*
G02*
X48125000Y-85150000I0J-100000D01*
G01*
X48125000Y-85350000D01*
G75*
G02*
X48025000Y-85450000I-100000J0D01*
G01*
X46650000Y-85450000D01*
G75*
G02*
X46550000Y-85350000I0J100000D01*
G01*
G37*
G36*
G01*
X46550000Y-85850000D02*
X46550000Y-85650000D01*
G75*
G02*
X46650000Y-85550000I100000J0D01*
G01*
X48025000Y-85550000D01*
G75*
G02*
X48125000Y-85650000I0J-100000D01*
G01*
X48125000Y-85850000D01*
G75*
G02*
X48025000Y-85950000I-100000J0D01*
G01*
X46650000Y-85950000D01*
G75*
G02*
X46550000Y-85850000I0J100000D01*
G01*
G37*
G36*
G01*
X49050000Y-88350000D02*
X49050000Y-86975000D01*
G75*
G02*
X49150000Y-86875000I100000J0D01*
G01*
X49350000Y-86875000D01*
G75*
G02*
X49450000Y-86975000I0J-100000D01*
G01*
X49450000Y-88350000D01*
G75*
G02*
X49350000Y-88450000I-100000J0D01*
G01*
X49150000Y-88450000D01*
G75*
G02*
X49050000Y-88350000I0J100000D01*
G01*
G37*
G36*
G01*
X49550000Y-88350000D02*
X49550000Y-86975000D01*
G75*
G02*
X49650000Y-86875000I100000J0D01*
G01*
X49850000Y-86875000D01*
G75*
G02*
X49950000Y-86975000I0J-100000D01*
G01*
X49950000Y-88350000D01*
G75*
G02*
X49850000Y-88450000I-100000J0D01*
G01*
X49650000Y-88450000D01*
G75*
G02*
X49550000Y-88350000I0J100000D01*
G01*
G37*
G36*
G01*
X50050000Y-88350000D02*
X50050000Y-86975000D01*
G75*
G02*
X50150000Y-86875000I100000J0D01*
G01*
X50350000Y-86875000D01*
G75*
G02*
X50450000Y-86975000I0J-100000D01*
G01*
X50450000Y-88350000D01*
G75*
G02*
X50350000Y-88450000I-100000J0D01*
G01*
X50150000Y-88450000D01*
G75*
G02*
X50050000Y-88350000I0J100000D01*
G01*
G37*
G36*
G01*
X50550000Y-88350000D02*
X50550000Y-86975000D01*
G75*
G02*
X50650000Y-86875000I100000J0D01*
G01*
X50850000Y-86875000D01*
G75*
G02*
X50950000Y-86975000I0J-100000D01*
G01*
X50950000Y-88350000D01*
G75*
G02*
X50850000Y-88450000I-100000J0D01*
G01*
X50650000Y-88450000D01*
G75*
G02*
X50550000Y-88350000I0J100000D01*
G01*
G37*
G36*
G01*
X51050000Y-88350000D02*
X51050000Y-86975000D01*
G75*
G02*
X51150000Y-86875000I100000J0D01*
G01*
X51350000Y-86875000D01*
G75*
G02*
X51450000Y-86975000I0J-100000D01*
G01*
X51450000Y-88350000D01*
G75*
G02*
X51350000Y-88450000I-100000J0D01*
G01*
X51150000Y-88450000D01*
G75*
G02*
X51050000Y-88350000I0J100000D01*
G01*
G37*
G36*
G01*
X51550000Y-88350000D02*
X51550000Y-86975000D01*
G75*
G02*
X51650000Y-86875000I100000J0D01*
G01*
X51850000Y-86875000D01*
G75*
G02*
X51950000Y-86975000I0J-100000D01*
G01*
X51950000Y-88350000D01*
G75*
G02*
X51850000Y-88450000I-100000J0D01*
G01*
X51650000Y-88450000D01*
G75*
G02*
X51550000Y-88350000I0J100000D01*
G01*
G37*
G36*
G01*
X52050000Y-88350000D02*
X52050000Y-86975000D01*
G75*
G02*
X52150000Y-86875000I100000J0D01*
G01*
X52350000Y-86875000D01*
G75*
G02*
X52450000Y-86975000I0J-100000D01*
G01*
X52450000Y-88350000D01*
G75*
G02*
X52350000Y-88450000I-100000J0D01*
G01*
X52150000Y-88450000D01*
G75*
G02*
X52050000Y-88350000I0J100000D01*
G01*
G37*
G36*
G01*
X52550000Y-88350000D02*
X52550000Y-86975000D01*
G75*
G02*
X52650000Y-86875000I100000J0D01*
G01*
X52850000Y-86875000D01*
G75*
G02*
X52950000Y-86975000I0J-100000D01*
G01*
X52950000Y-88350000D01*
G75*
G02*
X52850000Y-88450000I-100000J0D01*
G01*
X52650000Y-88450000D01*
G75*
G02*
X52550000Y-88350000I0J100000D01*
G01*
G37*
G36*
G01*
X53050000Y-88350000D02*
X53050000Y-86975000D01*
G75*
G02*
X53150000Y-86875000I100000J0D01*
G01*
X53350000Y-86875000D01*
G75*
G02*
X53450000Y-86975000I0J-100000D01*
G01*
X53450000Y-88350000D01*
G75*
G02*
X53350000Y-88450000I-100000J0D01*
G01*
X53150000Y-88450000D01*
G75*
G02*
X53050000Y-88350000I0J100000D01*
G01*
G37*
G36*
G01*
X53550000Y-88350000D02*
X53550000Y-86975000D01*
G75*
G02*
X53650000Y-86875000I100000J0D01*
G01*
X53850000Y-86875000D01*
G75*
G02*
X53950000Y-86975000I0J-100000D01*
G01*
X53950000Y-88350000D01*
G75*
G02*
X53850000Y-88450000I-100000J0D01*
G01*
X53650000Y-88450000D01*
G75*
G02*
X53550000Y-88350000I0J100000D01*
G01*
G37*
G36*
G01*
X54050000Y-88350000D02*
X54050000Y-86975000D01*
G75*
G02*
X54150000Y-86875000I100000J0D01*
G01*
X54350000Y-86875000D01*
G75*
G02*
X54450000Y-86975000I0J-100000D01*
G01*
X54450000Y-88350000D01*
G75*
G02*
X54350000Y-88450000I-100000J0D01*
G01*
X54150000Y-88450000D01*
G75*
G02*
X54050000Y-88350000I0J100000D01*
G01*
G37*
G36*
G01*
X54550000Y-88350000D02*
X54550000Y-86975000D01*
G75*
G02*
X54650000Y-86875000I100000J0D01*
G01*
X54850000Y-86875000D01*
G75*
G02*
X54950000Y-86975000I0J-100000D01*
G01*
X54950000Y-88350000D01*
G75*
G02*
X54850000Y-88450000I-100000J0D01*
G01*
X54650000Y-88450000D01*
G75*
G02*
X54550000Y-88350000I0J100000D01*
G01*
G37*
G36*
G01*
X55050000Y-88350000D02*
X55050000Y-86975000D01*
G75*
G02*
X55150000Y-86875000I100000J0D01*
G01*
X55350000Y-86875000D01*
G75*
G02*
X55450000Y-86975000I0J-100000D01*
G01*
X55450000Y-88350000D01*
G75*
G02*
X55350000Y-88450000I-100000J0D01*
G01*
X55150000Y-88450000D01*
G75*
G02*
X55050000Y-88350000I0J100000D01*
G01*
G37*
G36*
G01*
X55550000Y-88350000D02*
X55550000Y-86975000D01*
G75*
G02*
X55650000Y-86875000I100000J0D01*
G01*
X55850000Y-86875000D01*
G75*
G02*
X55950000Y-86975000I0J-100000D01*
G01*
X55950000Y-88350000D01*
G75*
G02*
X55850000Y-88450000I-100000J0D01*
G01*
X55650000Y-88450000D01*
G75*
G02*
X55550000Y-88350000I0J100000D01*
G01*
G37*
G36*
G01*
X56050000Y-88350000D02*
X56050000Y-86975000D01*
G75*
G02*
X56150000Y-86875000I100000J0D01*
G01*
X56350000Y-86875000D01*
G75*
G02*
X56450000Y-86975000I0J-100000D01*
G01*
X56450000Y-88350000D01*
G75*
G02*
X56350000Y-88450000I-100000J0D01*
G01*
X56150000Y-88450000D01*
G75*
G02*
X56050000Y-88350000I0J100000D01*
G01*
G37*
G36*
G01*
X56550000Y-88350000D02*
X56550000Y-86975000D01*
G75*
G02*
X56650000Y-86875000I100000J0D01*
G01*
X56850000Y-86875000D01*
G75*
G02*
X56950000Y-86975000I0J-100000D01*
G01*
X56950000Y-88350000D01*
G75*
G02*
X56850000Y-88450000I-100000J0D01*
G01*
X56650000Y-88450000D01*
G75*
G02*
X56550000Y-88350000I0J100000D01*
G01*
G37*
G36*
G01*
X57050000Y-88350000D02*
X57050000Y-86975000D01*
G75*
G02*
X57150000Y-86875000I100000J0D01*
G01*
X57350000Y-86875000D01*
G75*
G02*
X57450000Y-86975000I0J-100000D01*
G01*
X57450000Y-88350000D01*
G75*
G02*
X57350000Y-88450000I-100000J0D01*
G01*
X57150000Y-88450000D01*
G75*
G02*
X57050000Y-88350000I0J100000D01*
G01*
G37*
G36*
G01*
X57550000Y-88350000D02*
X57550000Y-86975000D01*
G75*
G02*
X57650000Y-86875000I100000J0D01*
G01*
X57850000Y-86875000D01*
G75*
G02*
X57950000Y-86975000I0J-100000D01*
G01*
X57950000Y-88350000D01*
G75*
G02*
X57850000Y-88450000I-100000J0D01*
G01*
X57650000Y-88450000D01*
G75*
G02*
X57550000Y-88350000I0J100000D01*
G01*
G37*
G36*
G01*
X58050000Y-88350000D02*
X58050000Y-86975000D01*
G75*
G02*
X58150000Y-86875000I100000J0D01*
G01*
X58350000Y-86875000D01*
G75*
G02*
X58450000Y-86975000I0J-100000D01*
G01*
X58450000Y-88350000D01*
G75*
G02*
X58350000Y-88450000I-100000J0D01*
G01*
X58150000Y-88450000D01*
G75*
G02*
X58050000Y-88350000I0J100000D01*
G01*
G37*
G36*
G01*
X58550000Y-88350000D02*
X58550000Y-86975000D01*
G75*
G02*
X58650000Y-86875000I100000J0D01*
G01*
X58850000Y-86875000D01*
G75*
G02*
X58950000Y-86975000I0J-100000D01*
G01*
X58950000Y-88350000D01*
G75*
G02*
X58850000Y-88450000I-100000J0D01*
G01*
X58650000Y-88450000D01*
G75*
G02*
X58550000Y-88350000I0J100000D01*
G01*
G37*
G36*
G01*
X59050000Y-88350000D02*
X59050000Y-86975000D01*
G75*
G02*
X59150000Y-86875000I100000J0D01*
G01*
X59350000Y-86875000D01*
G75*
G02*
X59450000Y-86975000I0J-100000D01*
G01*
X59450000Y-88350000D01*
G75*
G02*
X59350000Y-88450000I-100000J0D01*
G01*
X59150000Y-88450000D01*
G75*
G02*
X59050000Y-88350000I0J100000D01*
G01*
G37*
G36*
G01*
X59550000Y-88350000D02*
X59550000Y-86975000D01*
G75*
G02*
X59650000Y-86875000I100000J0D01*
G01*
X59850000Y-86875000D01*
G75*
G02*
X59950000Y-86975000I0J-100000D01*
G01*
X59950000Y-88350000D01*
G75*
G02*
X59850000Y-88450000I-100000J0D01*
G01*
X59650000Y-88450000D01*
G75*
G02*
X59550000Y-88350000I0J100000D01*
G01*
G37*
G36*
G01*
X60050000Y-88350000D02*
X60050000Y-86975000D01*
G75*
G02*
X60150000Y-86875000I100000J0D01*
G01*
X60350000Y-86875000D01*
G75*
G02*
X60450000Y-86975000I0J-100000D01*
G01*
X60450000Y-88350000D01*
G75*
G02*
X60350000Y-88450000I-100000J0D01*
G01*
X60150000Y-88450000D01*
G75*
G02*
X60050000Y-88350000I0J100000D01*
G01*
G37*
G36*
G01*
X60550000Y-88350000D02*
X60550000Y-86975000D01*
G75*
G02*
X60650000Y-86875000I100000J0D01*
G01*
X60850000Y-86875000D01*
G75*
G02*
X60950000Y-86975000I0J-100000D01*
G01*
X60950000Y-88350000D01*
G75*
G02*
X60850000Y-88450000I-100000J0D01*
G01*
X60650000Y-88450000D01*
G75*
G02*
X60550000Y-88350000I0J100000D01*
G01*
G37*
G36*
G01*
X61050000Y-88350000D02*
X61050000Y-86975000D01*
G75*
G02*
X61150000Y-86875000I100000J0D01*
G01*
X61350000Y-86875000D01*
G75*
G02*
X61450000Y-86975000I0J-100000D01*
G01*
X61450000Y-88350000D01*
G75*
G02*
X61350000Y-88450000I-100000J0D01*
G01*
X61150000Y-88450000D01*
G75*
G02*
X61050000Y-88350000I0J100000D01*
G01*
G37*
G36*
G01*
X61550000Y-88350000D02*
X61550000Y-86975000D01*
G75*
G02*
X61650000Y-86875000I100000J0D01*
G01*
X61850000Y-86875000D01*
G75*
G02*
X61950000Y-86975000I0J-100000D01*
G01*
X61950000Y-88350000D01*
G75*
G02*
X61850000Y-88450000I-100000J0D01*
G01*
X61650000Y-88450000D01*
G75*
G02*
X61550000Y-88350000I0J100000D01*
G01*
G37*
G36*
G01*
X62050000Y-88350000D02*
X62050000Y-86975000D01*
G75*
G02*
X62150000Y-86875000I100000J0D01*
G01*
X62350000Y-86875000D01*
G75*
G02*
X62450000Y-86975000I0J-100000D01*
G01*
X62450000Y-88350000D01*
G75*
G02*
X62350000Y-88450000I-100000J0D01*
G01*
X62150000Y-88450000D01*
G75*
G02*
X62050000Y-88350000I0J100000D01*
G01*
G37*
G36*
G01*
X62550000Y-88350000D02*
X62550000Y-86975000D01*
G75*
G02*
X62650000Y-86875000I100000J0D01*
G01*
X62850000Y-86875000D01*
G75*
G02*
X62950000Y-86975000I0J-100000D01*
G01*
X62950000Y-88350000D01*
G75*
G02*
X62850000Y-88450000I-100000J0D01*
G01*
X62650000Y-88450000D01*
G75*
G02*
X62550000Y-88350000I0J100000D01*
G01*
G37*
G36*
G01*
X63050000Y-88350000D02*
X63050000Y-86975000D01*
G75*
G02*
X63150000Y-86875000I100000J0D01*
G01*
X63350000Y-86875000D01*
G75*
G02*
X63450000Y-86975000I0J-100000D01*
G01*
X63450000Y-88350000D01*
G75*
G02*
X63350000Y-88450000I-100000J0D01*
G01*
X63150000Y-88450000D01*
G75*
G02*
X63050000Y-88350000I0J100000D01*
G01*
G37*
G36*
G01*
X63550000Y-88350000D02*
X63550000Y-86975000D01*
G75*
G02*
X63650000Y-86875000I100000J0D01*
G01*
X63850000Y-86875000D01*
G75*
G02*
X63950000Y-86975000I0J-100000D01*
G01*
X63950000Y-88350000D01*
G75*
G02*
X63850000Y-88450000I-100000J0D01*
G01*
X63650000Y-88450000D01*
G75*
G02*
X63550000Y-88350000I0J100000D01*
G01*
G37*
G36*
G01*
X64050000Y-88350000D02*
X64050000Y-86975000D01*
G75*
G02*
X64150000Y-86875000I100000J0D01*
G01*
X64350000Y-86875000D01*
G75*
G02*
X64450000Y-86975000I0J-100000D01*
G01*
X64450000Y-88350000D01*
G75*
G02*
X64350000Y-88450000I-100000J0D01*
G01*
X64150000Y-88450000D01*
G75*
G02*
X64050000Y-88350000I0J100000D01*
G01*
G37*
G36*
G01*
X64550000Y-88350000D02*
X64550000Y-86975000D01*
G75*
G02*
X64650000Y-86875000I100000J0D01*
G01*
X64850000Y-86875000D01*
G75*
G02*
X64950000Y-86975000I0J-100000D01*
G01*
X64950000Y-88350000D01*
G75*
G02*
X64850000Y-88450000I-100000J0D01*
G01*
X64650000Y-88450000D01*
G75*
G02*
X64550000Y-88350000I0J100000D01*
G01*
G37*
G36*
G01*
X65050000Y-88350000D02*
X65050000Y-86975000D01*
G75*
G02*
X65150000Y-86875000I100000J0D01*
G01*
X65350000Y-86875000D01*
G75*
G02*
X65450000Y-86975000I0J-100000D01*
G01*
X65450000Y-88350000D01*
G75*
G02*
X65350000Y-88450000I-100000J0D01*
G01*
X65150000Y-88450000D01*
G75*
G02*
X65050000Y-88350000I0J100000D01*
G01*
G37*
G36*
G01*
X65550000Y-88350000D02*
X65550000Y-86975000D01*
G75*
G02*
X65650000Y-86875000I100000J0D01*
G01*
X65850000Y-86875000D01*
G75*
G02*
X65950000Y-86975000I0J-100000D01*
G01*
X65950000Y-88350000D01*
G75*
G02*
X65850000Y-88450000I-100000J0D01*
G01*
X65650000Y-88450000D01*
G75*
G02*
X65550000Y-88350000I0J100000D01*
G01*
G37*
G36*
G01*
X66050000Y-88350000D02*
X66050000Y-86975000D01*
G75*
G02*
X66150000Y-86875000I100000J0D01*
G01*
X66350000Y-86875000D01*
G75*
G02*
X66450000Y-86975000I0J-100000D01*
G01*
X66450000Y-88350000D01*
G75*
G02*
X66350000Y-88450000I-100000J0D01*
G01*
X66150000Y-88450000D01*
G75*
G02*
X66050000Y-88350000I0J100000D01*
G01*
G37*
G36*
G01*
X66550000Y-88350000D02*
X66550000Y-86975000D01*
G75*
G02*
X66650000Y-86875000I100000J0D01*
G01*
X66850000Y-86875000D01*
G75*
G02*
X66950000Y-86975000I0J-100000D01*
G01*
X66950000Y-88350000D01*
G75*
G02*
X66850000Y-88450000I-100000J0D01*
G01*
X66650000Y-88450000D01*
G75*
G02*
X66550000Y-88350000I0J100000D01*
G01*
G37*
G36*
G01*
X67875000Y-85850000D02*
X67875000Y-85650000D01*
G75*
G02*
X67975000Y-85550000I100000J0D01*
G01*
X69350000Y-85550000D01*
G75*
G02*
X69450000Y-85650000I0J-100000D01*
G01*
X69450000Y-85850000D01*
G75*
G02*
X69350000Y-85950000I-100000J0D01*
G01*
X67975000Y-85950000D01*
G75*
G02*
X67875000Y-85850000I0J100000D01*
G01*
G37*
G36*
G01*
X67875000Y-85350000D02*
X67875000Y-85150000D01*
G75*
G02*
X67975000Y-85050000I100000J0D01*
G01*
X69350000Y-85050000D01*
G75*
G02*
X69450000Y-85150000I0J-100000D01*
G01*
X69450000Y-85350000D01*
G75*
G02*
X69350000Y-85450000I-100000J0D01*
G01*
X67975000Y-85450000D01*
G75*
G02*
X67875000Y-85350000I0J100000D01*
G01*
G37*
G36*
G01*
X67875000Y-84850000D02*
X67875000Y-84650000D01*
G75*
G02*
X67975000Y-84550000I100000J0D01*
G01*
X69350000Y-84550000D01*
G75*
G02*
X69450000Y-84650000I0J-100000D01*
G01*
X69450000Y-84850000D01*
G75*
G02*
X69350000Y-84950000I-100000J0D01*
G01*
X67975000Y-84950000D01*
G75*
G02*
X67875000Y-84850000I0J100000D01*
G01*
G37*
G36*
G01*
X67875000Y-84350000D02*
X67875000Y-84150000D01*
G75*
G02*
X67975000Y-84050000I100000J0D01*
G01*
X69350000Y-84050000D01*
G75*
G02*
X69450000Y-84150000I0J-100000D01*
G01*
X69450000Y-84350000D01*
G75*
G02*
X69350000Y-84450000I-100000J0D01*
G01*
X67975000Y-84450000D01*
G75*
G02*
X67875000Y-84350000I0J100000D01*
G01*
G37*
G36*
G01*
X67875000Y-83850000D02*
X67875000Y-83650000D01*
G75*
G02*
X67975000Y-83550000I100000J0D01*
G01*
X69350000Y-83550000D01*
G75*
G02*
X69450000Y-83650000I0J-100000D01*
G01*
X69450000Y-83850000D01*
G75*
G02*
X69350000Y-83950000I-100000J0D01*
G01*
X67975000Y-83950000D01*
G75*
G02*
X67875000Y-83850000I0J100000D01*
G01*
G37*
G36*
G01*
X67875000Y-83350000D02*
X67875000Y-83150000D01*
G75*
G02*
X67975000Y-83050000I100000J0D01*
G01*
X69350000Y-83050000D01*
G75*
G02*
X69450000Y-83150000I0J-100000D01*
G01*
X69450000Y-83350000D01*
G75*
G02*
X69350000Y-83450000I-100000J0D01*
G01*
X67975000Y-83450000D01*
G75*
G02*
X67875000Y-83350000I0J100000D01*
G01*
G37*
G36*
G01*
X67875000Y-82850000D02*
X67875000Y-82650000D01*
G75*
G02*
X67975000Y-82550000I100000J0D01*
G01*
X69350000Y-82550000D01*
G75*
G02*
X69450000Y-82650000I0J-100000D01*
G01*
X69450000Y-82850000D01*
G75*
G02*
X69350000Y-82950000I-100000J0D01*
G01*
X67975000Y-82950000D01*
G75*
G02*
X67875000Y-82850000I0J100000D01*
G01*
G37*
G36*
G01*
X67875000Y-82350000D02*
X67875000Y-82150000D01*
G75*
G02*
X67975000Y-82050000I100000J0D01*
G01*
X69350000Y-82050000D01*
G75*
G02*
X69450000Y-82150000I0J-100000D01*
G01*
X69450000Y-82350000D01*
G75*
G02*
X69350000Y-82450000I-100000J0D01*
G01*
X67975000Y-82450000D01*
G75*
G02*
X67875000Y-82350000I0J100000D01*
G01*
G37*
G36*
G01*
X67875000Y-81850000D02*
X67875000Y-81650000D01*
G75*
G02*
X67975000Y-81550000I100000J0D01*
G01*
X69350000Y-81550000D01*
G75*
G02*
X69450000Y-81650000I0J-100000D01*
G01*
X69450000Y-81850000D01*
G75*
G02*
X69350000Y-81950000I-100000J0D01*
G01*
X67975000Y-81950000D01*
G75*
G02*
X67875000Y-81850000I0J100000D01*
G01*
G37*
G36*
G01*
X67875000Y-81350000D02*
X67875000Y-81150000D01*
G75*
G02*
X67975000Y-81050000I100000J0D01*
G01*
X69350000Y-81050000D01*
G75*
G02*
X69450000Y-81150000I0J-100000D01*
G01*
X69450000Y-81350000D01*
G75*
G02*
X69350000Y-81450000I-100000J0D01*
G01*
X67975000Y-81450000D01*
G75*
G02*
X67875000Y-81350000I0J100000D01*
G01*
G37*
G36*
G01*
X67875000Y-80850000D02*
X67875000Y-80650000D01*
G75*
G02*
X67975000Y-80550000I100000J0D01*
G01*
X69350000Y-80550000D01*
G75*
G02*
X69450000Y-80650000I0J-100000D01*
G01*
X69450000Y-80850000D01*
G75*
G02*
X69350000Y-80950000I-100000J0D01*
G01*
X67975000Y-80950000D01*
G75*
G02*
X67875000Y-80850000I0J100000D01*
G01*
G37*
G36*
G01*
X67875000Y-80350000D02*
X67875000Y-80150000D01*
G75*
G02*
X67975000Y-80050000I100000J0D01*
G01*
X69350000Y-80050000D01*
G75*
G02*
X69450000Y-80150000I0J-100000D01*
G01*
X69450000Y-80350000D01*
G75*
G02*
X69350000Y-80450000I-100000J0D01*
G01*
X67975000Y-80450000D01*
G75*
G02*
X67875000Y-80350000I0J100000D01*
G01*
G37*
G36*
G01*
X67875000Y-79850000D02*
X67875000Y-79650000D01*
G75*
G02*
X67975000Y-79550000I100000J0D01*
G01*
X69350000Y-79550000D01*
G75*
G02*
X69450000Y-79650000I0J-100000D01*
G01*
X69450000Y-79850000D01*
G75*
G02*
X69350000Y-79950000I-100000J0D01*
G01*
X67975000Y-79950000D01*
G75*
G02*
X67875000Y-79850000I0J100000D01*
G01*
G37*
G36*
G01*
X67875000Y-79350000D02*
X67875000Y-79150000D01*
G75*
G02*
X67975000Y-79050000I100000J0D01*
G01*
X69350000Y-79050000D01*
G75*
G02*
X69450000Y-79150000I0J-100000D01*
G01*
X69450000Y-79350000D01*
G75*
G02*
X69350000Y-79450000I-100000J0D01*
G01*
X67975000Y-79450000D01*
G75*
G02*
X67875000Y-79350000I0J100000D01*
G01*
G37*
G36*
G01*
X67875000Y-78850000D02*
X67875000Y-78650000D01*
G75*
G02*
X67975000Y-78550000I100000J0D01*
G01*
X69350000Y-78550000D01*
G75*
G02*
X69450000Y-78650000I0J-100000D01*
G01*
X69450000Y-78850000D01*
G75*
G02*
X69350000Y-78950000I-100000J0D01*
G01*
X67975000Y-78950000D01*
G75*
G02*
X67875000Y-78850000I0J100000D01*
G01*
G37*
G36*
G01*
X67875000Y-78350000D02*
X67875000Y-78150000D01*
G75*
G02*
X67975000Y-78050000I100000J0D01*
G01*
X69350000Y-78050000D01*
G75*
G02*
X69450000Y-78150000I0J-100000D01*
G01*
X69450000Y-78350000D01*
G75*
G02*
X69350000Y-78450000I-100000J0D01*
G01*
X67975000Y-78450000D01*
G75*
G02*
X67875000Y-78350000I0J100000D01*
G01*
G37*
G36*
G01*
X67875000Y-77850000D02*
X67875000Y-77650000D01*
G75*
G02*
X67975000Y-77550000I100000J0D01*
G01*
X69350000Y-77550000D01*
G75*
G02*
X69450000Y-77650000I0J-100000D01*
G01*
X69450000Y-77850000D01*
G75*
G02*
X69350000Y-77950000I-100000J0D01*
G01*
X67975000Y-77950000D01*
G75*
G02*
X67875000Y-77850000I0J100000D01*
G01*
G37*
G36*
G01*
X67875000Y-77350000D02*
X67875000Y-77150000D01*
G75*
G02*
X67975000Y-77050000I100000J0D01*
G01*
X69350000Y-77050000D01*
G75*
G02*
X69450000Y-77150000I0J-100000D01*
G01*
X69450000Y-77350000D01*
G75*
G02*
X69350000Y-77450000I-100000J0D01*
G01*
X67975000Y-77450000D01*
G75*
G02*
X67875000Y-77350000I0J100000D01*
G01*
G37*
G36*
G01*
X67875000Y-76850000D02*
X67875000Y-76650000D01*
G75*
G02*
X67975000Y-76550000I100000J0D01*
G01*
X69350000Y-76550000D01*
G75*
G02*
X69450000Y-76650000I0J-100000D01*
G01*
X69450000Y-76850000D01*
G75*
G02*
X69350000Y-76950000I-100000J0D01*
G01*
X67975000Y-76950000D01*
G75*
G02*
X67875000Y-76850000I0J100000D01*
G01*
G37*
G36*
G01*
X67875000Y-76350000D02*
X67875000Y-76150000D01*
G75*
G02*
X67975000Y-76050000I100000J0D01*
G01*
X69350000Y-76050000D01*
G75*
G02*
X69450000Y-76150000I0J-100000D01*
G01*
X69450000Y-76350000D01*
G75*
G02*
X69350000Y-76450000I-100000J0D01*
G01*
X67975000Y-76450000D01*
G75*
G02*
X67875000Y-76350000I0J100000D01*
G01*
G37*
G36*
G01*
X67875000Y-75850000D02*
X67875000Y-75650000D01*
G75*
G02*
X67975000Y-75550000I100000J0D01*
G01*
X69350000Y-75550000D01*
G75*
G02*
X69450000Y-75650000I0J-100000D01*
G01*
X69450000Y-75850000D01*
G75*
G02*
X69350000Y-75950000I-100000J0D01*
G01*
X67975000Y-75950000D01*
G75*
G02*
X67875000Y-75850000I0J100000D01*
G01*
G37*
G36*
G01*
X67875000Y-75350000D02*
X67875000Y-75150000D01*
G75*
G02*
X67975000Y-75050000I100000J0D01*
G01*
X69350000Y-75050000D01*
G75*
G02*
X69450000Y-75150000I0J-100000D01*
G01*
X69450000Y-75350000D01*
G75*
G02*
X69350000Y-75450000I-100000J0D01*
G01*
X67975000Y-75450000D01*
G75*
G02*
X67875000Y-75350000I0J100000D01*
G01*
G37*
G36*
G01*
X67875000Y-74850000D02*
X67875000Y-74650000D01*
G75*
G02*
X67975000Y-74550000I100000J0D01*
G01*
X69350000Y-74550000D01*
G75*
G02*
X69450000Y-74650000I0J-100000D01*
G01*
X69450000Y-74850000D01*
G75*
G02*
X69350000Y-74950000I-100000J0D01*
G01*
X67975000Y-74950000D01*
G75*
G02*
X67875000Y-74850000I0J100000D01*
G01*
G37*
G36*
G01*
X67875000Y-74350000D02*
X67875000Y-74150000D01*
G75*
G02*
X67975000Y-74050000I100000J0D01*
G01*
X69350000Y-74050000D01*
G75*
G02*
X69450000Y-74150000I0J-100000D01*
G01*
X69450000Y-74350000D01*
G75*
G02*
X69350000Y-74450000I-100000J0D01*
G01*
X67975000Y-74450000D01*
G75*
G02*
X67875000Y-74350000I0J100000D01*
G01*
G37*
G36*
G01*
X67875000Y-73850000D02*
X67875000Y-73650000D01*
G75*
G02*
X67975000Y-73550000I100000J0D01*
G01*
X69350000Y-73550000D01*
G75*
G02*
X69450000Y-73650000I0J-100000D01*
G01*
X69450000Y-73850000D01*
G75*
G02*
X69350000Y-73950000I-100000J0D01*
G01*
X67975000Y-73950000D01*
G75*
G02*
X67875000Y-73850000I0J100000D01*
G01*
G37*
G36*
G01*
X67875000Y-73350000D02*
X67875000Y-73150000D01*
G75*
G02*
X67975000Y-73050000I100000J0D01*
G01*
X69350000Y-73050000D01*
G75*
G02*
X69450000Y-73150000I0J-100000D01*
G01*
X69450000Y-73350000D01*
G75*
G02*
X69350000Y-73450000I-100000J0D01*
G01*
X67975000Y-73450000D01*
G75*
G02*
X67875000Y-73350000I0J100000D01*
G01*
G37*
G36*
G01*
X67875000Y-72850000D02*
X67875000Y-72650000D01*
G75*
G02*
X67975000Y-72550000I100000J0D01*
G01*
X69350000Y-72550000D01*
G75*
G02*
X69450000Y-72650000I0J-100000D01*
G01*
X69450000Y-72850000D01*
G75*
G02*
X69350000Y-72950000I-100000J0D01*
G01*
X67975000Y-72950000D01*
G75*
G02*
X67875000Y-72850000I0J100000D01*
G01*
G37*
G36*
G01*
X67875000Y-72350000D02*
X67875000Y-72150000D01*
G75*
G02*
X67975000Y-72050000I100000J0D01*
G01*
X69350000Y-72050000D01*
G75*
G02*
X69450000Y-72150000I0J-100000D01*
G01*
X69450000Y-72350000D01*
G75*
G02*
X69350000Y-72450000I-100000J0D01*
G01*
X67975000Y-72450000D01*
G75*
G02*
X67875000Y-72350000I0J100000D01*
G01*
G37*
G36*
G01*
X67875000Y-71850000D02*
X67875000Y-71650000D01*
G75*
G02*
X67975000Y-71550000I100000J0D01*
G01*
X69350000Y-71550000D01*
G75*
G02*
X69450000Y-71650000I0J-100000D01*
G01*
X69450000Y-71850000D01*
G75*
G02*
X69350000Y-71950000I-100000J0D01*
G01*
X67975000Y-71950000D01*
G75*
G02*
X67875000Y-71850000I0J100000D01*
G01*
G37*
G36*
G01*
X67875000Y-71350000D02*
X67875000Y-71150000D01*
G75*
G02*
X67975000Y-71050000I100000J0D01*
G01*
X69350000Y-71050000D01*
G75*
G02*
X69450000Y-71150000I0J-100000D01*
G01*
X69450000Y-71350000D01*
G75*
G02*
X69350000Y-71450000I-100000J0D01*
G01*
X67975000Y-71450000D01*
G75*
G02*
X67875000Y-71350000I0J100000D01*
G01*
G37*
G36*
G01*
X67875000Y-70850000D02*
X67875000Y-70650000D01*
G75*
G02*
X67975000Y-70550000I100000J0D01*
G01*
X69350000Y-70550000D01*
G75*
G02*
X69450000Y-70650000I0J-100000D01*
G01*
X69450000Y-70850000D01*
G75*
G02*
X69350000Y-70950000I-100000J0D01*
G01*
X67975000Y-70950000D01*
G75*
G02*
X67875000Y-70850000I0J100000D01*
G01*
G37*
G36*
G01*
X67875000Y-70350000D02*
X67875000Y-70150000D01*
G75*
G02*
X67975000Y-70050000I100000J0D01*
G01*
X69350000Y-70050000D01*
G75*
G02*
X69450000Y-70150000I0J-100000D01*
G01*
X69450000Y-70350000D01*
G75*
G02*
X69350000Y-70450000I-100000J0D01*
G01*
X67975000Y-70450000D01*
G75*
G02*
X67875000Y-70350000I0J100000D01*
G01*
G37*
G36*
G01*
X67875000Y-69850000D02*
X67875000Y-69650000D01*
G75*
G02*
X67975000Y-69550000I100000J0D01*
G01*
X69350000Y-69550000D01*
G75*
G02*
X69450000Y-69650000I0J-100000D01*
G01*
X69450000Y-69850000D01*
G75*
G02*
X69350000Y-69950000I-100000J0D01*
G01*
X67975000Y-69950000D01*
G75*
G02*
X67875000Y-69850000I0J100000D01*
G01*
G37*
G36*
G01*
X67875000Y-69350000D02*
X67875000Y-69150000D01*
G75*
G02*
X67975000Y-69050000I100000J0D01*
G01*
X69350000Y-69050000D01*
G75*
G02*
X69450000Y-69150000I0J-100000D01*
G01*
X69450000Y-69350000D01*
G75*
G02*
X69350000Y-69450000I-100000J0D01*
G01*
X67975000Y-69450000D01*
G75*
G02*
X67875000Y-69350000I0J100000D01*
G01*
G37*
G36*
G01*
X67875000Y-68850000D02*
X67875000Y-68650000D01*
G75*
G02*
X67975000Y-68550000I100000J0D01*
G01*
X69350000Y-68550000D01*
G75*
G02*
X69450000Y-68650000I0J-100000D01*
G01*
X69450000Y-68850000D01*
G75*
G02*
X69350000Y-68950000I-100000J0D01*
G01*
X67975000Y-68950000D01*
G75*
G02*
X67875000Y-68850000I0J100000D01*
G01*
G37*
G36*
G01*
X67875000Y-68350000D02*
X67875000Y-68150000D01*
G75*
G02*
X67975000Y-68050000I100000J0D01*
G01*
X69350000Y-68050000D01*
G75*
G02*
X69450000Y-68150000I0J-100000D01*
G01*
X69450000Y-68350000D01*
G75*
G02*
X69350000Y-68450000I-100000J0D01*
G01*
X67975000Y-68450000D01*
G75*
G02*
X67875000Y-68350000I0J100000D01*
G01*
G37*
G36*
G01*
X66550000Y-67025000D02*
X66550000Y-65650000D01*
G75*
G02*
X66650000Y-65550000I100000J0D01*
G01*
X66850000Y-65550000D01*
G75*
G02*
X66950000Y-65650000I0J-100000D01*
G01*
X66950000Y-67025000D01*
G75*
G02*
X66850000Y-67125000I-100000J0D01*
G01*
X66650000Y-67125000D01*
G75*
G02*
X66550000Y-67025000I0J100000D01*
G01*
G37*
G36*
G01*
X66050000Y-67025000D02*
X66050000Y-65650000D01*
G75*
G02*
X66150000Y-65550000I100000J0D01*
G01*
X66350000Y-65550000D01*
G75*
G02*
X66450000Y-65650000I0J-100000D01*
G01*
X66450000Y-67025000D01*
G75*
G02*
X66350000Y-67125000I-100000J0D01*
G01*
X66150000Y-67125000D01*
G75*
G02*
X66050000Y-67025000I0J100000D01*
G01*
G37*
G36*
G01*
X65550000Y-67025000D02*
X65550000Y-65650000D01*
G75*
G02*
X65650000Y-65550000I100000J0D01*
G01*
X65850000Y-65550000D01*
G75*
G02*
X65950000Y-65650000I0J-100000D01*
G01*
X65950000Y-67025000D01*
G75*
G02*
X65850000Y-67125000I-100000J0D01*
G01*
X65650000Y-67125000D01*
G75*
G02*
X65550000Y-67025000I0J100000D01*
G01*
G37*
G36*
G01*
X65050000Y-67025000D02*
X65050000Y-65650000D01*
G75*
G02*
X65150000Y-65550000I100000J0D01*
G01*
X65350000Y-65550000D01*
G75*
G02*
X65450000Y-65650000I0J-100000D01*
G01*
X65450000Y-67025000D01*
G75*
G02*
X65350000Y-67125000I-100000J0D01*
G01*
X65150000Y-67125000D01*
G75*
G02*
X65050000Y-67025000I0J100000D01*
G01*
G37*
G36*
G01*
X64550000Y-67025000D02*
X64550000Y-65650000D01*
G75*
G02*
X64650000Y-65550000I100000J0D01*
G01*
X64850000Y-65550000D01*
G75*
G02*
X64950000Y-65650000I0J-100000D01*
G01*
X64950000Y-67025000D01*
G75*
G02*
X64850000Y-67125000I-100000J0D01*
G01*
X64650000Y-67125000D01*
G75*
G02*
X64550000Y-67025000I0J100000D01*
G01*
G37*
G36*
G01*
X64050000Y-67025000D02*
X64050000Y-65650000D01*
G75*
G02*
X64150000Y-65550000I100000J0D01*
G01*
X64350000Y-65550000D01*
G75*
G02*
X64450000Y-65650000I0J-100000D01*
G01*
X64450000Y-67025000D01*
G75*
G02*
X64350000Y-67125000I-100000J0D01*
G01*
X64150000Y-67125000D01*
G75*
G02*
X64050000Y-67025000I0J100000D01*
G01*
G37*
G36*
G01*
X63550000Y-67025000D02*
X63550000Y-65650000D01*
G75*
G02*
X63650000Y-65550000I100000J0D01*
G01*
X63850000Y-65550000D01*
G75*
G02*
X63950000Y-65650000I0J-100000D01*
G01*
X63950000Y-67025000D01*
G75*
G02*
X63850000Y-67125000I-100000J0D01*
G01*
X63650000Y-67125000D01*
G75*
G02*
X63550000Y-67025000I0J100000D01*
G01*
G37*
G36*
G01*
X63050000Y-67025000D02*
X63050000Y-65650000D01*
G75*
G02*
X63150000Y-65550000I100000J0D01*
G01*
X63350000Y-65550000D01*
G75*
G02*
X63450000Y-65650000I0J-100000D01*
G01*
X63450000Y-67025000D01*
G75*
G02*
X63350000Y-67125000I-100000J0D01*
G01*
X63150000Y-67125000D01*
G75*
G02*
X63050000Y-67025000I0J100000D01*
G01*
G37*
G36*
G01*
X62550000Y-67025000D02*
X62550000Y-65650000D01*
G75*
G02*
X62650000Y-65550000I100000J0D01*
G01*
X62850000Y-65550000D01*
G75*
G02*
X62950000Y-65650000I0J-100000D01*
G01*
X62950000Y-67025000D01*
G75*
G02*
X62850000Y-67125000I-100000J0D01*
G01*
X62650000Y-67125000D01*
G75*
G02*
X62550000Y-67025000I0J100000D01*
G01*
G37*
G36*
G01*
X62050000Y-67025000D02*
X62050000Y-65650000D01*
G75*
G02*
X62150000Y-65550000I100000J0D01*
G01*
X62350000Y-65550000D01*
G75*
G02*
X62450000Y-65650000I0J-100000D01*
G01*
X62450000Y-67025000D01*
G75*
G02*
X62350000Y-67125000I-100000J0D01*
G01*
X62150000Y-67125000D01*
G75*
G02*
X62050000Y-67025000I0J100000D01*
G01*
G37*
G36*
G01*
X61550000Y-67025000D02*
X61550000Y-65650000D01*
G75*
G02*
X61650000Y-65550000I100000J0D01*
G01*
X61850000Y-65550000D01*
G75*
G02*
X61950000Y-65650000I0J-100000D01*
G01*
X61950000Y-67025000D01*
G75*
G02*
X61850000Y-67125000I-100000J0D01*
G01*
X61650000Y-67125000D01*
G75*
G02*
X61550000Y-67025000I0J100000D01*
G01*
G37*
G36*
G01*
X61050000Y-67025000D02*
X61050000Y-65650000D01*
G75*
G02*
X61150000Y-65550000I100000J0D01*
G01*
X61350000Y-65550000D01*
G75*
G02*
X61450000Y-65650000I0J-100000D01*
G01*
X61450000Y-67025000D01*
G75*
G02*
X61350000Y-67125000I-100000J0D01*
G01*
X61150000Y-67125000D01*
G75*
G02*
X61050000Y-67025000I0J100000D01*
G01*
G37*
G36*
G01*
X60550000Y-67025000D02*
X60550000Y-65650000D01*
G75*
G02*
X60650000Y-65550000I100000J0D01*
G01*
X60850000Y-65550000D01*
G75*
G02*
X60950000Y-65650000I0J-100000D01*
G01*
X60950000Y-67025000D01*
G75*
G02*
X60850000Y-67125000I-100000J0D01*
G01*
X60650000Y-67125000D01*
G75*
G02*
X60550000Y-67025000I0J100000D01*
G01*
G37*
G36*
G01*
X60050000Y-67025000D02*
X60050000Y-65650000D01*
G75*
G02*
X60150000Y-65550000I100000J0D01*
G01*
X60350000Y-65550000D01*
G75*
G02*
X60450000Y-65650000I0J-100000D01*
G01*
X60450000Y-67025000D01*
G75*
G02*
X60350000Y-67125000I-100000J0D01*
G01*
X60150000Y-67125000D01*
G75*
G02*
X60050000Y-67025000I0J100000D01*
G01*
G37*
G36*
G01*
X59550000Y-67025000D02*
X59550000Y-65650000D01*
G75*
G02*
X59650000Y-65550000I100000J0D01*
G01*
X59850000Y-65550000D01*
G75*
G02*
X59950000Y-65650000I0J-100000D01*
G01*
X59950000Y-67025000D01*
G75*
G02*
X59850000Y-67125000I-100000J0D01*
G01*
X59650000Y-67125000D01*
G75*
G02*
X59550000Y-67025000I0J100000D01*
G01*
G37*
G36*
G01*
X59050000Y-67025000D02*
X59050000Y-65650000D01*
G75*
G02*
X59150000Y-65550000I100000J0D01*
G01*
X59350000Y-65550000D01*
G75*
G02*
X59450000Y-65650000I0J-100000D01*
G01*
X59450000Y-67025000D01*
G75*
G02*
X59350000Y-67125000I-100000J0D01*
G01*
X59150000Y-67125000D01*
G75*
G02*
X59050000Y-67025000I0J100000D01*
G01*
G37*
G36*
G01*
X58550000Y-67025000D02*
X58550000Y-65650000D01*
G75*
G02*
X58650000Y-65550000I100000J0D01*
G01*
X58850000Y-65550000D01*
G75*
G02*
X58950000Y-65650000I0J-100000D01*
G01*
X58950000Y-67025000D01*
G75*
G02*
X58850000Y-67125000I-100000J0D01*
G01*
X58650000Y-67125000D01*
G75*
G02*
X58550000Y-67025000I0J100000D01*
G01*
G37*
G36*
G01*
X58050000Y-67025000D02*
X58050000Y-65650000D01*
G75*
G02*
X58150000Y-65550000I100000J0D01*
G01*
X58350000Y-65550000D01*
G75*
G02*
X58450000Y-65650000I0J-100000D01*
G01*
X58450000Y-67025000D01*
G75*
G02*
X58350000Y-67125000I-100000J0D01*
G01*
X58150000Y-67125000D01*
G75*
G02*
X58050000Y-67025000I0J100000D01*
G01*
G37*
G36*
G01*
X57550000Y-67025000D02*
X57550000Y-65650000D01*
G75*
G02*
X57650000Y-65550000I100000J0D01*
G01*
X57850000Y-65550000D01*
G75*
G02*
X57950000Y-65650000I0J-100000D01*
G01*
X57950000Y-67025000D01*
G75*
G02*
X57850000Y-67125000I-100000J0D01*
G01*
X57650000Y-67125000D01*
G75*
G02*
X57550000Y-67025000I0J100000D01*
G01*
G37*
G36*
G01*
X57050000Y-67025000D02*
X57050000Y-65650000D01*
G75*
G02*
X57150000Y-65550000I100000J0D01*
G01*
X57350000Y-65550000D01*
G75*
G02*
X57450000Y-65650000I0J-100000D01*
G01*
X57450000Y-67025000D01*
G75*
G02*
X57350000Y-67125000I-100000J0D01*
G01*
X57150000Y-67125000D01*
G75*
G02*
X57050000Y-67025000I0J100000D01*
G01*
G37*
G36*
G01*
X56550000Y-67025000D02*
X56550000Y-65650000D01*
G75*
G02*
X56650000Y-65550000I100000J0D01*
G01*
X56850000Y-65550000D01*
G75*
G02*
X56950000Y-65650000I0J-100000D01*
G01*
X56950000Y-67025000D01*
G75*
G02*
X56850000Y-67125000I-100000J0D01*
G01*
X56650000Y-67125000D01*
G75*
G02*
X56550000Y-67025000I0J100000D01*
G01*
G37*
G36*
G01*
X56050000Y-67025000D02*
X56050000Y-65650000D01*
G75*
G02*
X56150000Y-65550000I100000J0D01*
G01*
X56350000Y-65550000D01*
G75*
G02*
X56450000Y-65650000I0J-100000D01*
G01*
X56450000Y-67025000D01*
G75*
G02*
X56350000Y-67125000I-100000J0D01*
G01*
X56150000Y-67125000D01*
G75*
G02*
X56050000Y-67025000I0J100000D01*
G01*
G37*
G36*
G01*
X55550000Y-67025000D02*
X55550000Y-65650000D01*
G75*
G02*
X55650000Y-65550000I100000J0D01*
G01*
X55850000Y-65550000D01*
G75*
G02*
X55950000Y-65650000I0J-100000D01*
G01*
X55950000Y-67025000D01*
G75*
G02*
X55850000Y-67125000I-100000J0D01*
G01*
X55650000Y-67125000D01*
G75*
G02*
X55550000Y-67025000I0J100000D01*
G01*
G37*
G36*
G01*
X55050000Y-67025000D02*
X55050000Y-65650000D01*
G75*
G02*
X55150000Y-65550000I100000J0D01*
G01*
X55350000Y-65550000D01*
G75*
G02*
X55450000Y-65650000I0J-100000D01*
G01*
X55450000Y-67025000D01*
G75*
G02*
X55350000Y-67125000I-100000J0D01*
G01*
X55150000Y-67125000D01*
G75*
G02*
X55050000Y-67025000I0J100000D01*
G01*
G37*
G36*
G01*
X54550000Y-67025000D02*
X54550000Y-65650000D01*
G75*
G02*
X54650000Y-65550000I100000J0D01*
G01*
X54850000Y-65550000D01*
G75*
G02*
X54950000Y-65650000I0J-100000D01*
G01*
X54950000Y-67025000D01*
G75*
G02*
X54850000Y-67125000I-100000J0D01*
G01*
X54650000Y-67125000D01*
G75*
G02*
X54550000Y-67025000I0J100000D01*
G01*
G37*
G36*
G01*
X54050000Y-67025000D02*
X54050000Y-65650000D01*
G75*
G02*
X54150000Y-65550000I100000J0D01*
G01*
X54350000Y-65550000D01*
G75*
G02*
X54450000Y-65650000I0J-100000D01*
G01*
X54450000Y-67025000D01*
G75*
G02*
X54350000Y-67125000I-100000J0D01*
G01*
X54150000Y-67125000D01*
G75*
G02*
X54050000Y-67025000I0J100000D01*
G01*
G37*
G36*
G01*
X53550000Y-67025000D02*
X53550000Y-65650000D01*
G75*
G02*
X53650000Y-65550000I100000J0D01*
G01*
X53850000Y-65550000D01*
G75*
G02*
X53950000Y-65650000I0J-100000D01*
G01*
X53950000Y-67025000D01*
G75*
G02*
X53850000Y-67125000I-100000J0D01*
G01*
X53650000Y-67125000D01*
G75*
G02*
X53550000Y-67025000I0J100000D01*
G01*
G37*
G36*
G01*
X53050000Y-67025000D02*
X53050000Y-65650000D01*
G75*
G02*
X53150000Y-65550000I100000J0D01*
G01*
X53350000Y-65550000D01*
G75*
G02*
X53450000Y-65650000I0J-100000D01*
G01*
X53450000Y-67025000D01*
G75*
G02*
X53350000Y-67125000I-100000J0D01*
G01*
X53150000Y-67125000D01*
G75*
G02*
X53050000Y-67025000I0J100000D01*
G01*
G37*
G36*
G01*
X52550000Y-67025000D02*
X52550000Y-65650000D01*
G75*
G02*
X52650000Y-65550000I100000J0D01*
G01*
X52850000Y-65550000D01*
G75*
G02*
X52950000Y-65650000I0J-100000D01*
G01*
X52950000Y-67025000D01*
G75*
G02*
X52850000Y-67125000I-100000J0D01*
G01*
X52650000Y-67125000D01*
G75*
G02*
X52550000Y-67025000I0J100000D01*
G01*
G37*
G36*
G01*
X52050000Y-67025000D02*
X52050000Y-65650000D01*
G75*
G02*
X52150000Y-65550000I100000J0D01*
G01*
X52350000Y-65550000D01*
G75*
G02*
X52450000Y-65650000I0J-100000D01*
G01*
X52450000Y-67025000D01*
G75*
G02*
X52350000Y-67125000I-100000J0D01*
G01*
X52150000Y-67125000D01*
G75*
G02*
X52050000Y-67025000I0J100000D01*
G01*
G37*
G36*
G01*
X51550000Y-67025000D02*
X51550000Y-65650000D01*
G75*
G02*
X51650000Y-65550000I100000J0D01*
G01*
X51850000Y-65550000D01*
G75*
G02*
X51950000Y-65650000I0J-100000D01*
G01*
X51950000Y-67025000D01*
G75*
G02*
X51850000Y-67125000I-100000J0D01*
G01*
X51650000Y-67125000D01*
G75*
G02*
X51550000Y-67025000I0J100000D01*
G01*
G37*
G36*
G01*
X51050000Y-67025000D02*
X51050000Y-65650000D01*
G75*
G02*
X51150000Y-65550000I100000J0D01*
G01*
X51350000Y-65550000D01*
G75*
G02*
X51450000Y-65650000I0J-100000D01*
G01*
X51450000Y-67025000D01*
G75*
G02*
X51350000Y-67125000I-100000J0D01*
G01*
X51150000Y-67125000D01*
G75*
G02*
X51050000Y-67025000I0J100000D01*
G01*
G37*
G36*
G01*
X50550000Y-67025000D02*
X50550000Y-65650000D01*
G75*
G02*
X50650000Y-65550000I100000J0D01*
G01*
X50850000Y-65550000D01*
G75*
G02*
X50950000Y-65650000I0J-100000D01*
G01*
X50950000Y-67025000D01*
G75*
G02*
X50850000Y-67125000I-100000J0D01*
G01*
X50650000Y-67125000D01*
G75*
G02*
X50550000Y-67025000I0J100000D01*
G01*
G37*
G36*
G01*
X50050000Y-67025000D02*
X50050000Y-65650000D01*
G75*
G02*
X50150000Y-65550000I100000J0D01*
G01*
X50350000Y-65550000D01*
G75*
G02*
X50450000Y-65650000I0J-100000D01*
G01*
X50450000Y-67025000D01*
G75*
G02*
X50350000Y-67125000I-100000J0D01*
G01*
X50150000Y-67125000D01*
G75*
G02*
X50050000Y-67025000I0J100000D01*
G01*
G37*
G36*
G01*
X49550000Y-67025000D02*
X49550000Y-65650000D01*
G75*
G02*
X49650000Y-65550000I100000J0D01*
G01*
X49850000Y-65550000D01*
G75*
G02*
X49950000Y-65650000I0J-100000D01*
G01*
X49950000Y-67025000D01*
G75*
G02*
X49850000Y-67125000I-100000J0D01*
G01*
X49650000Y-67125000D01*
G75*
G02*
X49550000Y-67025000I0J100000D01*
G01*
G37*
G36*
G01*
X49050000Y-67025000D02*
X49050000Y-65650000D01*
G75*
G02*
X49150000Y-65550000I100000J0D01*
G01*
X49350000Y-65550000D01*
G75*
G02*
X49450000Y-65650000I0J-100000D01*
G01*
X49450000Y-67025000D01*
G75*
G02*
X49350000Y-67125000I-100000J0D01*
G01*
X49150000Y-67125000D01*
G75*
G02*
X49050000Y-67025000I0J100000D01*
G01*
G37*
D21*
X41250000Y-77400000D03*
X41250000Y-81100000D03*
D22*
X49000000Y-35000000D03*
D23*
X49000000Y-32460000D03*
X51540000Y-35000000D03*
X51540000Y-32460000D03*
X54080000Y-35000000D03*
X54080000Y-32460000D03*
X56620000Y-35000000D03*
X56620000Y-32460000D03*
X59160000Y-35000000D03*
X59160000Y-32460000D03*
X61700000Y-35000000D03*
X61700000Y-32460000D03*
X64240000Y-35000000D03*
X64240000Y-32460000D03*
D22*
X56860000Y-127300000D03*
D23*
X56860000Y-124760000D03*
X59400000Y-127300000D03*
X59400000Y-124760000D03*
X61940000Y-127300000D03*
X61940000Y-124760000D03*
G36*
G01*
X100700000Y-117193750D02*
X100700000Y-113606250D01*
G75*
G02*
X100956250Y-113350000I256250J0D01*
G01*
X104543750Y-113350000D01*
G75*
G02*
X104800000Y-113606250I0J-256250D01*
G01*
X104800000Y-117193750D01*
G75*
G02*
X104543750Y-117450000I-256250J0D01*
G01*
X100956250Y-117450000D01*
G75*
G02*
X100700000Y-117193750I0J256250D01*
G01*
G37*
G36*
G01*
X89950000Y-117193750D02*
X89950000Y-113606250D01*
G75*
G02*
X90206250Y-113350000I256250J0D01*
G01*
X93793750Y-113350000D01*
G75*
G02*
X94050000Y-113606250I0J-256250D01*
G01*
X94050000Y-117193750D01*
G75*
G02*
X93793750Y-117450000I-256250J0D01*
G01*
X90206250Y-117450000D01*
G75*
G02*
X89950000Y-117193750I0J256250D01*
G01*
G37*
G36*
G01*
X40900000Y-73031250D02*
X40900000Y-72468750D01*
G75*
G02*
X41143750Y-72225000I243750J0D01*
G01*
X41631250Y-72225000D01*
G75*
G02*
X41875000Y-72468750I0J-243750D01*
G01*
X41875000Y-73031250D01*
G75*
G02*
X41631250Y-73275000I-243750J0D01*
G01*
X41143750Y-73275000D01*
G75*
G02*
X40900000Y-73031250I0J243750D01*
G01*
G37*
G36*
G01*
X39325000Y-73031250D02*
X39325000Y-72468750D01*
G75*
G02*
X39568750Y-72225000I243750J0D01*
G01*
X40056250Y-72225000D01*
G75*
G02*
X40300000Y-72468750I0J-243750D01*
G01*
X40300000Y-73031250D01*
G75*
G02*
X40056250Y-73275000I-243750J0D01*
G01*
X39568750Y-73275000D01*
G75*
G02*
X39325000Y-73031250I0J243750D01*
G01*
G37*
G36*
G01*
X94681250Y-37275000D02*
X94118750Y-37275000D01*
G75*
G02*
X93875000Y-37031250I0J243750D01*
G01*
X93875000Y-36543750D01*
G75*
G02*
X94118750Y-36300000I243750J0D01*
G01*
X94681250Y-36300000D01*
G75*
G02*
X94925000Y-36543750I0J-243750D01*
G01*
X94925000Y-37031250D01*
G75*
G02*
X94681250Y-37275000I-243750J0D01*
G01*
G37*
G36*
G01*
X94681250Y-35700000D02*
X94118750Y-35700000D01*
G75*
G02*
X93875000Y-35456250I0J243750D01*
G01*
X93875000Y-34968750D01*
G75*
G02*
X94118750Y-34725000I243750J0D01*
G01*
X94681250Y-34725000D01*
G75*
G02*
X94925000Y-34968750I0J-243750D01*
G01*
X94925000Y-35456250D01*
G75*
G02*
X94681250Y-35700000I-243750J0D01*
G01*
G37*
G36*
G01*
X36537500Y-72468750D02*
X36537500Y-73031250D01*
G75*
G02*
X36293750Y-73275000I-243750J0D01*
G01*
X35806250Y-73275000D01*
G75*
G02*
X35562500Y-73031250I0J243750D01*
G01*
X35562500Y-72468750D01*
G75*
G02*
X35806250Y-72225000I243750J0D01*
G01*
X36293750Y-72225000D01*
G75*
G02*
X36537500Y-72468750I0J-243750D01*
G01*
G37*
G36*
G01*
X38112500Y-72468750D02*
X38112500Y-73031250D01*
G75*
G02*
X37868750Y-73275000I-243750J0D01*
G01*
X37381250Y-73275000D01*
G75*
G02*
X37137500Y-73031250I0J243750D01*
G01*
X37137500Y-72468750D01*
G75*
G02*
X37381250Y-72225000I243750J0D01*
G01*
X37868750Y-72225000D01*
G75*
G02*
X38112500Y-72468750I0J-243750D01*
G01*
G37*
G36*
G01*
X94681250Y-41112500D02*
X94118750Y-41112500D01*
G75*
G02*
X93875000Y-40868750I0J243750D01*
G01*
X93875000Y-40381250D01*
G75*
G02*
X94118750Y-40137500I243750J0D01*
G01*
X94681250Y-40137500D01*
G75*
G02*
X94925000Y-40381250I0J-243750D01*
G01*
X94925000Y-40868750D01*
G75*
G02*
X94681250Y-41112500I-243750J0D01*
G01*
G37*
G36*
G01*
X94681250Y-39537500D02*
X94118750Y-39537500D01*
G75*
G02*
X93875000Y-39293750I0J243750D01*
G01*
X93875000Y-38806250D01*
G75*
G02*
X94118750Y-38562500I243750J0D01*
G01*
X94681250Y-38562500D01*
G75*
G02*
X94925000Y-38806250I0J-243750D01*
G01*
X94925000Y-39293750D01*
G75*
G02*
X94681250Y-39537500I-243750J0D01*
G01*
G37*
M02*
