G04 #@! TF.GenerationSoftware,KiCad,Pcbnew,(5.1.6)-1*
G04 #@! TF.CreationDate,2020-05-29T02:21:24-04:00*
G04 #@! TF.ProjectId,T-ShirtPress,542d5368-6972-4745-9072-6573732e6b69,rev?*
G04 #@! TF.SameCoordinates,Original*
G04 #@! TF.FileFunction,Paste,Top*
G04 #@! TF.FilePolarity,Positive*
%FSLAX46Y46*%
G04 Gerber Fmt 4.6, Leading zero omitted, Abs format (unit mm)*
G04 Created by KiCad (PCBNEW (5.1.6)-1) date 2020-05-29 02:21:24*
%MOMM*%
%LPD*%
G01*
G04 APERTURE LIST*
%ADD10R,1.200000X0.900000*%
%ADD11R,0.740000X2.400000*%
%ADD12R,2.000000X3.800000*%
%ADD13R,2.000000X1.500000*%
%ADD14R,2.400000X2.000000*%
G04 APERTURE END LIST*
G36*
G01*
X83750000Y-39743750D02*
X83750000Y-40656250D01*
G75*
G02*
X83506250Y-40900000I-243750J0D01*
G01*
X83018750Y-40900000D01*
G75*
G02*
X82775000Y-40656250I0J243750D01*
G01*
X82775000Y-39743750D01*
G75*
G02*
X83018750Y-39500000I243750J0D01*
G01*
X83506250Y-39500000D01*
G75*
G02*
X83750000Y-39743750I0J-243750D01*
G01*
G37*
G36*
G01*
X85625000Y-39743750D02*
X85625000Y-40656250D01*
G75*
G02*
X85381250Y-40900000I-243750J0D01*
G01*
X84893750Y-40900000D01*
G75*
G02*
X84650000Y-40656250I0J243750D01*
G01*
X84650000Y-39743750D01*
G75*
G02*
X84893750Y-39500000I243750J0D01*
G01*
X85381250Y-39500000D01*
G75*
G02*
X85625000Y-39743750I0J-243750D01*
G01*
G37*
G36*
G01*
X82256250Y-35525000D02*
X81343750Y-35525000D01*
G75*
G02*
X81100000Y-35281250I0J243750D01*
G01*
X81100000Y-34793750D01*
G75*
G02*
X81343750Y-34550000I243750J0D01*
G01*
X82256250Y-34550000D01*
G75*
G02*
X82500000Y-34793750I0J-243750D01*
G01*
X82500000Y-35281250D01*
G75*
G02*
X82256250Y-35525000I-243750J0D01*
G01*
G37*
G36*
G01*
X82256250Y-33650000D02*
X81343750Y-33650000D01*
G75*
G02*
X81100000Y-33406250I0J243750D01*
G01*
X81100000Y-32918750D01*
G75*
G02*
X81343750Y-32675000I243750J0D01*
G01*
X82256250Y-32675000D01*
G75*
G02*
X82500000Y-32918750I0J-243750D01*
G01*
X82500000Y-33406250D01*
G75*
G02*
X82256250Y-33650000I-243750J0D01*
G01*
G37*
G36*
G01*
X42477500Y-84120000D02*
X42822500Y-84120000D01*
G75*
G02*
X42970000Y-84267500I0J-147500D01*
G01*
X42970000Y-84562500D01*
G75*
G02*
X42822500Y-84710000I-147500J0D01*
G01*
X42477500Y-84710000D01*
G75*
G02*
X42330000Y-84562500I0J147500D01*
G01*
X42330000Y-84267500D01*
G75*
G02*
X42477500Y-84120000I147500J0D01*
G01*
G37*
G36*
G01*
X42477500Y-85090000D02*
X42822500Y-85090000D01*
G75*
G02*
X42970000Y-85237500I0J-147500D01*
G01*
X42970000Y-85532500D01*
G75*
G02*
X42822500Y-85680000I-147500J0D01*
G01*
X42477500Y-85680000D01*
G75*
G02*
X42330000Y-85532500I0J147500D01*
G01*
X42330000Y-85237500D01*
G75*
G02*
X42477500Y-85090000I147500J0D01*
G01*
G37*
G36*
G01*
X43477500Y-84135000D02*
X43822500Y-84135000D01*
G75*
G02*
X43970000Y-84282500I0J-147500D01*
G01*
X43970000Y-84577500D01*
G75*
G02*
X43822500Y-84725000I-147500J0D01*
G01*
X43477500Y-84725000D01*
G75*
G02*
X43330000Y-84577500I0J147500D01*
G01*
X43330000Y-84282500D01*
G75*
G02*
X43477500Y-84135000I147500J0D01*
G01*
G37*
G36*
G01*
X43477500Y-85105000D02*
X43822500Y-85105000D01*
G75*
G02*
X43970000Y-85252500I0J-147500D01*
G01*
X43970000Y-85547500D01*
G75*
G02*
X43822500Y-85695000I-147500J0D01*
G01*
X43477500Y-85695000D01*
G75*
G02*
X43330000Y-85547500I0J147500D01*
G01*
X43330000Y-85252500D01*
G75*
G02*
X43477500Y-85105000I147500J0D01*
G01*
G37*
G36*
G01*
X45822500Y-85680000D02*
X45477500Y-85680000D01*
G75*
G02*
X45330000Y-85532500I0J147500D01*
G01*
X45330000Y-85237500D01*
G75*
G02*
X45477500Y-85090000I147500J0D01*
G01*
X45822500Y-85090000D01*
G75*
G02*
X45970000Y-85237500I0J-147500D01*
G01*
X45970000Y-85532500D01*
G75*
G02*
X45822500Y-85680000I-147500J0D01*
G01*
G37*
G36*
G01*
X45822500Y-84710000D02*
X45477500Y-84710000D01*
G75*
G02*
X45330000Y-84562500I0J147500D01*
G01*
X45330000Y-84267500D01*
G75*
G02*
X45477500Y-84120000I147500J0D01*
G01*
X45822500Y-84120000D01*
G75*
G02*
X45970000Y-84267500I0J-147500D01*
G01*
X45970000Y-84562500D01*
G75*
G02*
X45822500Y-84710000I-147500J0D01*
G01*
G37*
G36*
G01*
X44822500Y-84710000D02*
X44477500Y-84710000D01*
G75*
G02*
X44330000Y-84562500I0J147500D01*
G01*
X44330000Y-84267500D01*
G75*
G02*
X44477500Y-84120000I147500J0D01*
G01*
X44822500Y-84120000D01*
G75*
G02*
X44970000Y-84267500I0J-147500D01*
G01*
X44970000Y-84562500D01*
G75*
G02*
X44822500Y-84710000I-147500J0D01*
G01*
G37*
G36*
G01*
X44822500Y-85680000D02*
X44477500Y-85680000D01*
G75*
G02*
X44330000Y-85532500I0J147500D01*
G01*
X44330000Y-85237500D01*
G75*
G02*
X44477500Y-85090000I147500J0D01*
G01*
X44822500Y-85090000D01*
G75*
G02*
X44970000Y-85237500I0J-147500D01*
G01*
X44970000Y-85532500D01*
G75*
G02*
X44822500Y-85680000I-147500J0D01*
G01*
G37*
G36*
G01*
X45172500Y-75810000D02*
X44827500Y-75810000D01*
G75*
G02*
X44680000Y-75662500I0J147500D01*
G01*
X44680000Y-75367500D01*
G75*
G02*
X44827500Y-75220000I147500J0D01*
G01*
X45172500Y-75220000D01*
G75*
G02*
X45320000Y-75367500I0J-147500D01*
G01*
X45320000Y-75662500D01*
G75*
G02*
X45172500Y-75810000I-147500J0D01*
G01*
G37*
G36*
G01*
X45172500Y-76780000D02*
X44827500Y-76780000D01*
G75*
G02*
X44680000Y-76632500I0J147500D01*
G01*
X44680000Y-76337500D01*
G75*
G02*
X44827500Y-76190000I147500J0D01*
G01*
X45172500Y-76190000D01*
G75*
G02*
X45320000Y-76337500I0J-147500D01*
G01*
X45320000Y-76632500D01*
G75*
G02*
X45172500Y-76780000I-147500J0D01*
G01*
G37*
G36*
G01*
X45427500Y-81920000D02*
X45772500Y-81920000D01*
G75*
G02*
X45920000Y-82067500I0J-147500D01*
G01*
X45920000Y-82362500D01*
G75*
G02*
X45772500Y-82510000I-147500J0D01*
G01*
X45427500Y-82510000D01*
G75*
G02*
X45280000Y-82362500I0J147500D01*
G01*
X45280000Y-82067500D01*
G75*
G02*
X45427500Y-81920000I147500J0D01*
G01*
G37*
G36*
G01*
X45427500Y-82890000D02*
X45772500Y-82890000D01*
G75*
G02*
X45920000Y-83037500I0J-147500D01*
G01*
X45920000Y-83332500D01*
G75*
G02*
X45772500Y-83480000I-147500J0D01*
G01*
X45427500Y-83480000D01*
G75*
G02*
X45280000Y-83332500I0J147500D01*
G01*
X45280000Y-83037500D01*
G75*
G02*
X45427500Y-82890000I147500J0D01*
G01*
G37*
G36*
G01*
X49810000Y-89127500D02*
X49810000Y-89472500D01*
G75*
G02*
X49662500Y-89620000I-147500J0D01*
G01*
X49367500Y-89620000D01*
G75*
G02*
X49220000Y-89472500I0J147500D01*
G01*
X49220000Y-89127500D01*
G75*
G02*
X49367500Y-88980000I147500J0D01*
G01*
X49662500Y-88980000D01*
G75*
G02*
X49810000Y-89127500I0J-147500D01*
G01*
G37*
G36*
G01*
X50780000Y-89127500D02*
X50780000Y-89472500D01*
G75*
G02*
X50632500Y-89620000I-147500J0D01*
G01*
X50337500Y-89620000D01*
G75*
G02*
X50190000Y-89472500I0J147500D01*
G01*
X50190000Y-89127500D01*
G75*
G02*
X50337500Y-88980000I147500J0D01*
G01*
X50632500Y-88980000D01*
G75*
G02*
X50780000Y-89127500I0J-147500D01*
G01*
G37*
G36*
G01*
X57280000Y-89127500D02*
X57280000Y-89472500D01*
G75*
G02*
X57132500Y-89620000I-147500J0D01*
G01*
X56837500Y-89620000D01*
G75*
G02*
X56690000Y-89472500I0J147500D01*
G01*
X56690000Y-89127500D01*
G75*
G02*
X56837500Y-88980000I147500J0D01*
G01*
X57132500Y-88980000D01*
G75*
G02*
X57280000Y-89127500I0J-147500D01*
G01*
G37*
G36*
G01*
X56310000Y-89127500D02*
X56310000Y-89472500D01*
G75*
G02*
X56162500Y-89620000I-147500J0D01*
G01*
X55867500Y-89620000D01*
G75*
G02*
X55720000Y-89472500I0J147500D01*
G01*
X55720000Y-89127500D01*
G75*
G02*
X55867500Y-88980000I147500J0D01*
G01*
X56162500Y-88980000D01*
G75*
G02*
X56310000Y-89127500I0J-147500D01*
G01*
G37*
G36*
G01*
X61410000Y-89127500D02*
X61410000Y-89472500D01*
G75*
G02*
X61262500Y-89620000I-147500J0D01*
G01*
X60967500Y-89620000D01*
G75*
G02*
X60820000Y-89472500I0J147500D01*
G01*
X60820000Y-89127500D01*
G75*
G02*
X60967500Y-88980000I147500J0D01*
G01*
X61262500Y-88980000D01*
G75*
G02*
X61410000Y-89127500I0J-147500D01*
G01*
G37*
G36*
G01*
X62380000Y-89127500D02*
X62380000Y-89472500D01*
G75*
G02*
X62232500Y-89620000I-147500J0D01*
G01*
X61937500Y-89620000D01*
G75*
G02*
X61790000Y-89472500I0J147500D01*
G01*
X61790000Y-89127500D01*
G75*
G02*
X61937500Y-88980000I147500J0D01*
G01*
X62232500Y-88980000D01*
G75*
G02*
X62380000Y-89127500I0J-147500D01*
G01*
G37*
G36*
G01*
X67520000Y-88172500D02*
X67520000Y-87827500D01*
G75*
G02*
X67667500Y-87680000I147500J0D01*
G01*
X67962500Y-87680000D01*
G75*
G02*
X68110000Y-87827500I0J-147500D01*
G01*
X68110000Y-88172500D01*
G75*
G02*
X67962500Y-88320000I-147500J0D01*
G01*
X67667500Y-88320000D01*
G75*
G02*
X67520000Y-88172500I0J147500D01*
G01*
G37*
G36*
G01*
X68490000Y-88172500D02*
X68490000Y-87827500D01*
G75*
G02*
X68637500Y-87680000I147500J0D01*
G01*
X68932500Y-87680000D01*
G75*
G02*
X69080000Y-87827500I0J-147500D01*
G01*
X69080000Y-88172500D01*
G75*
G02*
X68932500Y-88320000I-147500J0D01*
G01*
X68637500Y-88320000D01*
G75*
G02*
X68490000Y-88172500I0J147500D01*
G01*
G37*
G36*
G01*
X70127500Y-80690000D02*
X70472500Y-80690000D01*
G75*
G02*
X70620000Y-80837500I0J-147500D01*
G01*
X70620000Y-81132500D01*
G75*
G02*
X70472500Y-81280000I-147500J0D01*
G01*
X70127500Y-81280000D01*
G75*
G02*
X69980000Y-81132500I0J147500D01*
G01*
X69980000Y-80837500D01*
G75*
G02*
X70127500Y-80690000I147500J0D01*
G01*
G37*
G36*
G01*
X70127500Y-79720000D02*
X70472500Y-79720000D01*
G75*
G02*
X70620000Y-79867500I0J-147500D01*
G01*
X70620000Y-80162500D01*
G75*
G02*
X70472500Y-80310000I-147500J0D01*
G01*
X70127500Y-80310000D01*
G75*
G02*
X69980000Y-80162500I0J147500D01*
G01*
X69980000Y-79867500D01*
G75*
G02*
X70127500Y-79720000I147500J0D01*
G01*
G37*
G36*
G01*
X70227500Y-74220000D02*
X70572500Y-74220000D01*
G75*
G02*
X70720000Y-74367500I0J-147500D01*
G01*
X70720000Y-74662500D01*
G75*
G02*
X70572500Y-74810000I-147500J0D01*
G01*
X70227500Y-74810000D01*
G75*
G02*
X70080000Y-74662500I0J147500D01*
G01*
X70080000Y-74367500D01*
G75*
G02*
X70227500Y-74220000I147500J0D01*
G01*
G37*
G36*
G01*
X70227500Y-75190000D02*
X70572500Y-75190000D01*
G75*
G02*
X70720000Y-75337500I0J-147500D01*
G01*
X70720000Y-75632500D01*
G75*
G02*
X70572500Y-75780000I-147500J0D01*
G01*
X70227500Y-75780000D01*
G75*
G02*
X70080000Y-75632500I0J147500D01*
G01*
X70080000Y-75337500D01*
G75*
G02*
X70227500Y-75190000I147500J0D01*
G01*
G37*
G36*
G01*
X69220000Y-67372500D02*
X69220000Y-67027500D01*
G75*
G02*
X69367500Y-66880000I147500J0D01*
G01*
X69662500Y-66880000D01*
G75*
G02*
X69810000Y-67027500I0J-147500D01*
G01*
X69810000Y-67372500D01*
G75*
G02*
X69662500Y-67520000I-147500J0D01*
G01*
X69367500Y-67520000D01*
G75*
G02*
X69220000Y-67372500I0J147500D01*
G01*
G37*
G36*
G01*
X70190000Y-67372500D02*
X70190000Y-67027500D01*
G75*
G02*
X70337500Y-66880000I147500J0D01*
G01*
X70632500Y-66880000D01*
G75*
G02*
X70780000Y-67027500I0J-147500D01*
G01*
X70780000Y-67372500D01*
G75*
G02*
X70632500Y-67520000I-147500J0D01*
G01*
X70337500Y-67520000D01*
G75*
G02*
X70190000Y-67372500I0J147500D01*
G01*
G37*
G36*
G01*
X59920000Y-63422500D02*
X59920000Y-63077500D01*
G75*
G02*
X60067500Y-62930000I147500J0D01*
G01*
X60362500Y-62930000D01*
G75*
G02*
X60510000Y-63077500I0J-147500D01*
G01*
X60510000Y-63422500D01*
G75*
G02*
X60362500Y-63570000I-147500J0D01*
G01*
X60067500Y-63570000D01*
G75*
G02*
X59920000Y-63422500I0J147500D01*
G01*
G37*
G36*
G01*
X60890000Y-63422500D02*
X60890000Y-63077500D01*
G75*
G02*
X61037500Y-62930000I147500J0D01*
G01*
X61332500Y-62930000D01*
G75*
G02*
X61480000Y-63077500I0J-147500D01*
G01*
X61480000Y-63422500D01*
G75*
G02*
X61332500Y-63570000I-147500J0D01*
G01*
X61037500Y-63570000D01*
G75*
G02*
X60890000Y-63422500I0J147500D01*
G01*
G37*
G36*
G01*
X56190000Y-64772500D02*
X56190000Y-64427500D01*
G75*
G02*
X56337500Y-64280000I147500J0D01*
G01*
X56632500Y-64280000D01*
G75*
G02*
X56780000Y-64427500I0J-147500D01*
G01*
X56780000Y-64772500D01*
G75*
G02*
X56632500Y-64920000I-147500J0D01*
G01*
X56337500Y-64920000D01*
G75*
G02*
X56190000Y-64772500I0J147500D01*
G01*
G37*
G36*
G01*
X55220000Y-64772500D02*
X55220000Y-64427500D01*
G75*
G02*
X55367500Y-64280000I147500J0D01*
G01*
X55662500Y-64280000D01*
G75*
G02*
X55810000Y-64427500I0J-147500D01*
G01*
X55810000Y-64772500D01*
G75*
G02*
X55662500Y-64920000I-147500J0D01*
G01*
X55367500Y-64920000D01*
G75*
G02*
X55220000Y-64772500I0J147500D01*
G01*
G37*
G36*
G01*
X48465000Y-65827500D02*
X48465000Y-66172500D01*
G75*
G02*
X48317500Y-66320000I-147500J0D01*
G01*
X48022500Y-66320000D01*
G75*
G02*
X47875000Y-66172500I0J147500D01*
G01*
X47875000Y-65827500D01*
G75*
G02*
X48022500Y-65680000I147500J0D01*
G01*
X48317500Y-65680000D01*
G75*
G02*
X48465000Y-65827500I0J-147500D01*
G01*
G37*
G36*
G01*
X47495000Y-65827500D02*
X47495000Y-66172500D01*
G75*
G02*
X47347500Y-66320000I-147500J0D01*
G01*
X47052500Y-66320000D01*
G75*
G02*
X46905000Y-66172500I0J147500D01*
G01*
X46905000Y-65827500D01*
G75*
G02*
X47052500Y-65680000I147500J0D01*
G01*
X47347500Y-65680000D01*
G75*
G02*
X47495000Y-65827500I0J-147500D01*
G01*
G37*
G36*
G01*
X45010000Y-70577500D02*
X45010000Y-70922500D01*
G75*
G02*
X44862500Y-71070000I-147500J0D01*
G01*
X44567500Y-71070000D01*
G75*
G02*
X44420000Y-70922500I0J147500D01*
G01*
X44420000Y-70577500D01*
G75*
G02*
X44567500Y-70430000I147500J0D01*
G01*
X44862500Y-70430000D01*
G75*
G02*
X45010000Y-70577500I0J-147500D01*
G01*
G37*
G36*
G01*
X45980000Y-70577500D02*
X45980000Y-70922500D01*
G75*
G02*
X45832500Y-71070000I-147500J0D01*
G01*
X45537500Y-71070000D01*
G75*
G02*
X45390000Y-70922500I0J147500D01*
G01*
X45390000Y-70577500D01*
G75*
G02*
X45537500Y-70430000I147500J0D01*
G01*
X45832500Y-70430000D01*
G75*
G02*
X45980000Y-70577500I0J-147500D01*
G01*
G37*
G36*
G01*
X49956250Y-64825000D02*
X49443750Y-64825000D01*
G75*
G02*
X49225000Y-64606250I0J218750D01*
G01*
X49225000Y-64168750D01*
G75*
G02*
X49443750Y-63950000I218750J0D01*
G01*
X49956250Y-63950000D01*
G75*
G02*
X50175000Y-64168750I0J-218750D01*
G01*
X50175000Y-64606250D01*
G75*
G02*
X49956250Y-64825000I-218750J0D01*
G01*
G37*
G36*
G01*
X49956250Y-63250000D02*
X49443750Y-63250000D01*
G75*
G02*
X49225000Y-63031250I0J218750D01*
G01*
X49225000Y-62593750D01*
G75*
G02*
X49443750Y-62375000I218750J0D01*
G01*
X49956250Y-62375000D01*
G75*
G02*
X50175000Y-62593750I0J-218750D01*
G01*
X50175000Y-63031250D01*
G75*
G02*
X49956250Y-63250000I-218750J0D01*
G01*
G37*
G36*
G01*
X66043750Y-89175000D02*
X66556250Y-89175000D01*
G75*
G02*
X66775000Y-89393750I0J-218750D01*
G01*
X66775000Y-89831250D01*
G75*
G02*
X66556250Y-90050000I-218750J0D01*
G01*
X66043750Y-90050000D01*
G75*
G02*
X65825000Y-89831250I0J218750D01*
G01*
X65825000Y-89393750D01*
G75*
G02*
X66043750Y-89175000I218750J0D01*
G01*
G37*
G36*
G01*
X66043750Y-90750000D02*
X66556250Y-90750000D01*
G75*
G02*
X66775000Y-90968750I0J-218750D01*
G01*
X66775000Y-91406250D01*
G75*
G02*
X66556250Y-91625000I-218750J0D01*
G01*
X66043750Y-91625000D01*
G75*
G02*
X65825000Y-91406250I0J218750D01*
G01*
X65825000Y-90968750D01*
G75*
G02*
X66043750Y-90750000I218750J0D01*
G01*
G37*
G36*
G01*
X72150000Y-69456250D02*
X72150000Y-68943750D01*
G75*
G02*
X72368750Y-68725000I218750J0D01*
G01*
X72806250Y-68725000D01*
G75*
G02*
X73025000Y-68943750I0J-218750D01*
G01*
X73025000Y-69456250D01*
G75*
G02*
X72806250Y-69675000I-218750J0D01*
G01*
X72368750Y-69675000D01*
G75*
G02*
X72150000Y-69456250I0J218750D01*
G01*
G37*
G36*
G01*
X70575000Y-69456250D02*
X70575000Y-68943750D01*
G75*
G02*
X70793750Y-68725000I218750J0D01*
G01*
X71231250Y-68725000D01*
G75*
G02*
X71450000Y-68943750I0J-218750D01*
G01*
X71450000Y-69456250D01*
G75*
G02*
X71231250Y-69675000I-218750J0D01*
G01*
X70793750Y-69675000D01*
G75*
G02*
X70575000Y-69456250I0J218750D01*
G01*
G37*
G36*
G01*
X38427500Y-77990000D02*
X38772500Y-77990000D01*
G75*
G02*
X38920000Y-78137500I0J-147500D01*
G01*
X38920000Y-78432500D01*
G75*
G02*
X38772500Y-78580000I-147500J0D01*
G01*
X38427500Y-78580000D01*
G75*
G02*
X38280000Y-78432500I0J147500D01*
G01*
X38280000Y-78137500D01*
G75*
G02*
X38427500Y-77990000I147500J0D01*
G01*
G37*
G36*
G01*
X38427500Y-77020000D02*
X38772500Y-77020000D01*
G75*
G02*
X38920000Y-77167500I0J-147500D01*
G01*
X38920000Y-77462500D01*
G75*
G02*
X38772500Y-77610000I-147500J0D01*
G01*
X38427500Y-77610000D01*
G75*
G02*
X38280000Y-77462500I0J147500D01*
G01*
X38280000Y-77167500D01*
G75*
G02*
X38427500Y-77020000I147500J0D01*
G01*
G37*
G36*
G01*
X38772500Y-80610000D02*
X38427500Y-80610000D01*
G75*
G02*
X38280000Y-80462500I0J147500D01*
G01*
X38280000Y-80167500D01*
G75*
G02*
X38427500Y-80020000I147500J0D01*
G01*
X38772500Y-80020000D01*
G75*
G02*
X38920000Y-80167500I0J-147500D01*
G01*
X38920000Y-80462500D01*
G75*
G02*
X38772500Y-80610000I-147500J0D01*
G01*
G37*
G36*
G01*
X38772500Y-81580000D02*
X38427500Y-81580000D01*
G75*
G02*
X38280000Y-81432500I0J147500D01*
G01*
X38280000Y-81137500D01*
G75*
G02*
X38427500Y-80990000I147500J0D01*
G01*
X38772500Y-80990000D01*
G75*
G02*
X38920000Y-81137500I0J-147500D01*
G01*
X38920000Y-81432500D01*
G75*
G02*
X38772500Y-81580000I-147500J0D01*
G01*
G37*
D10*
X91650000Y-50650000D03*
X91650000Y-53950000D03*
G36*
G01*
X92275000Y-48625000D02*
X91025000Y-48625000D01*
G75*
G02*
X90775000Y-48375000I0J250000D01*
G01*
X90775000Y-47625000D01*
G75*
G02*
X91025000Y-47375000I250000J0D01*
G01*
X92275000Y-47375000D01*
G75*
G02*
X92525000Y-47625000I0J-250000D01*
G01*
X92525000Y-48375000D01*
G75*
G02*
X92275000Y-48625000I-250000J0D01*
G01*
G37*
G36*
G01*
X92275000Y-45825000D02*
X91025000Y-45825000D01*
G75*
G02*
X90775000Y-45575000I0J250000D01*
G01*
X90775000Y-44825000D01*
G75*
G02*
X91025000Y-44575000I250000J0D01*
G01*
X92275000Y-44575000D01*
G75*
G02*
X92525000Y-44825000I0J-250000D01*
G01*
X92525000Y-45575000D01*
G75*
G02*
X92275000Y-45825000I-250000J0D01*
G01*
G37*
G36*
G01*
X88900000Y-43556250D02*
X88900000Y-42643750D01*
G75*
G02*
X89143750Y-42400000I243750J0D01*
G01*
X89631250Y-42400000D01*
G75*
G02*
X89875000Y-42643750I0J-243750D01*
G01*
X89875000Y-43556250D01*
G75*
G02*
X89631250Y-43800000I-243750J0D01*
G01*
X89143750Y-43800000D01*
G75*
G02*
X88900000Y-43556250I0J243750D01*
G01*
G37*
G36*
G01*
X87025000Y-43556250D02*
X87025000Y-42643750D01*
G75*
G02*
X87268750Y-42400000I243750J0D01*
G01*
X87756250Y-42400000D01*
G75*
G02*
X88000000Y-42643750I0J-243750D01*
G01*
X88000000Y-43556250D01*
G75*
G02*
X87756250Y-43800000I-243750J0D01*
G01*
X87268750Y-43800000D01*
G75*
G02*
X87025000Y-43556250I0J243750D01*
G01*
G37*
G36*
G01*
X41425000Y-83943750D02*
X41425000Y-84856250D01*
G75*
G02*
X41181250Y-85100000I-243750J0D01*
G01*
X40693750Y-85100000D01*
G75*
G02*
X40450000Y-84856250I0J243750D01*
G01*
X40450000Y-83943750D01*
G75*
G02*
X40693750Y-83700000I243750J0D01*
G01*
X41181250Y-83700000D01*
G75*
G02*
X41425000Y-83943750I0J-243750D01*
G01*
G37*
G36*
G01*
X39550000Y-83943750D02*
X39550000Y-84856250D01*
G75*
G02*
X39306250Y-85100000I-243750J0D01*
G01*
X38818750Y-85100000D01*
G75*
G02*
X38575000Y-84856250I0J243750D01*
G01*
X38575000Y-83943750D01*
G75*
G02*
X38818750Y-83700000I243750J0D01*
G01*
X39306250Y-83700000D01*
G75*
G02*
X39550000Y-83943750I0J-243750D01*
G01*
G37*
D11*
X75210000Y-126700000D03*
X75210000Y-122800000D03*
X76480000Y-126700000D03*
X76480000Y-122800000D03*
X77750000Y-126700000D03*
X77750000Y-122800000D03*
X79020000Y-126700000D03*
X79020000Y-122800000D03*
X80290000Y-126700000D03*
X80290000Y-122800000D03*
G36*
G01*
X48825000Y-121743750D02*
X48825000Y-122656250D01*
G75*
G02*
X48581250Y-122900000I-243750J0D01*
G01*
X48093750Y-122900000D01*
G75*
G02*
X47850000Y-122656250I0J243750D01*
G01*
X47850000Y-121743750D01*
G75*
G02*
X48093750Y-121500000I243750J0D01*
G01*
X48581250Y-121500000D01*
G75*
G02*
X48825000Y-121743750I0J-243750D01*
G01*
G37*
G36*
G01*
X46950000Y-121743750D02*
X46950000Y-122656250D01*
G75*
G02*
X46706250Y-122900000I-243750J0D01*
G01*
X46218750Y-122900000D01*
G75*
G02*
X45975000Y-122656250I0J243750D01*
G01*
X45975000Y-121743750D01*
G75*
G02*
X46218750Y-121500000I243750J0D01*
G01*
X46706250Y-121500000D01*
G75*
G02*
X46950000Y-121743750I0J-243750D01*
G01*
G37*
G36*
G01*
X43743750Y-81350000D02*
X44256250Y-81350000D01*
G75*
G02*
X44475000Y-81568750I0J-218750D01*
G01*
X44475000Y-82006250D01*
G75*
G02*
X44256250Y-82225000I-218750J0D01*
G01*
X43743750Y-82225000D01*
G75*
G02*
X43525000Y-82006250I0J218750D01*
G01*
X43525000Y-81568750D01*
G75*
G02*
X43743750Y-81350000I218750J0D01*
G01*
G37*
G36*
G01*
X43743750Y-79775000D02*
X44256250Y-79775000D01*
G75*
G02*
X44475000Y-79993750I0J-218750D01*
G01*
X44475000Y-80431250D01*
G75*
G02*
X44256250Y-80650000I-218750J0D01*
G01*
X43743750Y-80650000D01*
G75*
G02*
X43525000Y-80431250I0J218750D01*
G01*
X43525000Y-79993750D01*
G75*
G02*
X43743750Y-79775000I218750J0D01*
G01*
G37*
G36*
G01*
X52422500Y-63910000D02*
X52077500Y-63910000D01*
G75*
G02*
X51930000Y-63762500I0J147500D01*
G01*
X51930000Y-63467500D01*
G75*
G02*
X52077500Y-63320000I147500J0D01*
G01*
X52422500Y-63320000D01*
G75*
G02*
X52570000Y-63467500I0J-147500D01*
G01*
X52570000Y-63762500D01*
G75*
G02*
X52422500Y-63910000I-147500J0D01*
G01*
G37*
G36*
G01*
X52422500Y-64880000D02*
X52077500Y-64880000D01*
G75*
G02*
X51930000Y-64732500I0J147500D01*
G01*
X51930000Y-64437500D01*
G75*
G02*
X52077500Y-64290000I147500J0D01*
G01*
X52422500Y-64290000D01*
G75*
G02*
X52570000Y-64437500I0J-147500D01*
G01*
X52570000Y-64732500D01*
G75*
G02*
X52422500Y-64880000I-147500J0D01*
G01*
G37*
G36*
G01*
X54577500Y-89120000D02*
X54922500Y-89120000D01*
G75*
G02*
X55070000Y-89267500I0J-147500D01*
G01*
X55070000Y-89562500D01*
G75*
G02*
X54922500Y-89710000I-147500J0D01*
G01*
X54577500Y-89710000D01*
G75*
G02*
X54430000Y-89562500I0J147500D01*
G01*
X54430000Y-89267500D01*
G75*
G02*
X54577500Y-89120000I147500J0D01*
G01*
G37*
G36*
G01*
X54577500Y-90090000D02*
X54922500Y-90090000D01*
G75*
G02*
X55070000Y-90237500I0J-147500D01*
G01*
X55070000Y-90532500D01*
G75*
G02*
X54922500Y-90680000I-147500J0D01*
G01*
X54577500Y-90680000D01*
G75*
G02*
X54430000Y-90532500I0J147500D01*
G01*
X54430000Y-90237500D01*
G75*
G02*
X54577500Y-90090000I147500J0D01*
G01*
G37*
G36*
G01*
X70875000Y-45575000D02*
X72125000Y-45575000D01*
G75*
G02*
X72375000Y-45825000I0J-250000D01*
G01*
X72375000Y-46575000D01*
G75*
G02*
X72125000Y-46825000I-250000J0D01*
G01*
X70875000Y-46825000D01*
G75*
G02*
X70625000Y-46575000I0J250000D01*
G01*
X70625000Y-45825000D01*
G75*
G02*
X70875000Y-45575000I250000J0D01*
G01*
G37*
G36*
G01*
X70875000Y-48375000D02*
X72125000Y-48375000D01*
G75*
G02*
X72375000Y-48625000I0J-250000D01*
G01*
X72375000Y-49375000D01*
G75*
G02*
X72125000Y-49625000I-250000J0D01*
G01*
X70875000Y-49625000D01*
G75*
G02*
X70625000Y-49375000I0J250000D01*
G01*
X70625000Y-48625000D01*
G75*
G02*
X70875000Y-48375000I250000J0D01*
G01*
G37*
D12*
X91400000Y-35250000D03*
D13*
X85100000Y-35250000D03*
X85100000Y-37550000D03*
X85100000Y-32950000D03*
G36*
G01*
X46600000Y-68325000D02*
X46600000Y-68175000D01*
G75*
G02*
X46675000Y-68100000I75000J0D01*
G01*
X48000000Y-68100000D01*
G75*
G02*
X48075000Y-68175000I0J-75000D01*
G01*
X48075000Y-68325000D01*
G75*
G02*
X48000000Y-68400000I-75000J0D01*
G01*
X46675000Y-68400000D01*
G75*
G02*
X46600000Y-68325000I0J75000D01*
G01*
G37*
G36*
G01*
X46600000Y-68825000D02*
X46600000Y-68675000D01*
G75*
G02*
X46675000Y-68600000I75000J0D01*
G01*
X48000000Y-68600000D01*
G75*
G02*
X48075000Y-68675000I0J-75000D01*
G01*
X48075000Y-68825000D01*
G75*
G02*
X48000000Y-68900000I-75000J0D01*
G01*
X46675000Y-68900000D01*
G75*
G02*
X46600000Y-68825000I0J75000D01*
G01*
G37*
G36*
G01*
X46600000Y-69325000D02*
X46600000Y-69175000D01*
G75*
G02*
X46675000Y-69100000I75000J0D01*
G01*
X48000000Y-69100000D01*
G75*
G02*
X48075000Y-69175000I0J-75000D01*
G01*
X48075000Y-69325000D01*
G75*
G02*
X48000000Y-69400000I-75000J0D01*
G01*
X46675000Y-69400000D01*
G75*
G02*
X46600000Y-69325000I0J75000D01*
G01*
G37*
G36*
G01*
X46600000Y-69825000D02*
X46600000Y-69675000D01*
G75*
G02*
X46675000Y-69600000I75000J0D01*
G01*
X48000000Y-69600000D01*
G75*
G02*
X48075000Y-69675000I0J-75000D01*
G01*
X48075000Y-69825000D01*
G75*
G02*
X48000000Y-69900000I-75000J0D01*
G01*
X46675000Y-69900000D01*
G75*
G02*
X46600000Y-69825000I0J75000D01*
G01*
G37*
G36*
G01*
X46600000Y-70325000D02*
X46600000Y-70175000D01*
G75*
G02*
X46675000Y-70100000I75000J0D01*
G01*
X48000000Y-70100000D01*
G75*
G02*
X48075000Y-70175000I0J-75000D01*
G01*
X48075000Y-70325000D01*
G75*
G02*
X48000000Y-70400000I-75000J0D01*
G01*
X46675000Y-70400000D01*
G75*
G02*
X46600000Y-70325000I0J75000D01*
G01*
G37*
G36*
G01*
X46600000Y-70825000D02*
X46600000Y-70675000D01*
G75*
G02*
X46675000Y-70600000I75000J0D01*
G01*
X48000000Y-70600000D01*
G75*
G02*
X48075000Y-70675000I0J-75000D01*
G01*
X48075000Y-70825000D01*
G75*
G02*
X48000000Y-70900000I-75000J0D01*
G01*
X46675000Y-70900000D01*
G75*
G02*
X46600000Y-70825000I0J75000D01*
G01*
G37*
G36*
G01*
X46600000Y-71325000D02*
X46600000Y-71175000D01*
G75*
G02*
X46675000Y-71100000I75000J0D01*
G01*
X48000000Y-71100000D01*
G75*
G02*
X48075000Y-71175000I0J-75000D01*
G01*
X48075000Y-71325000D01*
G75*
G02*
X48000000Y-71400000I-75000J0D01*
G01*
X46675000Y-71400000D01*
G75*
G02*
X46600000Y-71325000I0J75000D01*
G01*
G37*
G36*
G01*
X46600000Y-71825000D02*
X46600000Y-71675000D01*
G75*
G02*
X46675000Y-71600000I75000J0D01*
G01*
X48000000Y-71600000D01*
G75*
G02*
X48075000Y-71675000I0J-75000D01*
G01*
X48075000Y-71825000D01*
G75*
G02*
X48000000Y-71900000I-75000J0D01*
G01*
X46675000Y-71900000D01*
G75*
G02*
X46600000Y-71825000I0J75000D01*
G01*
G37*
G36*
G01*
X46600000Y-72325000D02*
X46600000Y-72175000D01*
G75*
G02*
X46675000Y-72100000I75000J0D01*
G01*
X48000000Y-72100000D01*
G75*
G02*
X48075000Y-72175000I0J-75000D01*
G01*
X48075000Y-72325000D01*
G75*
G02*
X48000000Y-72400000I-75000J0D01*
G01*
X46675000Y-72400000D01*
G75*
G02*
X46600000Y-72325000I0J75000D01*
G01*
G37*
G36*
G01*
X46600000Y-72825000D02*
X46600000Y-72675000D01*
G75*
G02*
X46675000Y-72600000I75000J0D01*
G01*
X48000000Y-72600000D01*
G75*
G02*
X48075000Y-72675000I0J-75000D01*
G01*
X48075000Y-72825000D01*
G75*
G02*
X48000000Y-72900000I-75000J0D01*
G01*
X46675000Y-72900000D01*
G75*
G02*
X46600000Y-72825000I0J75000D01*
G01*
G37*
G36*
G01*
X46600000Y-73325000D02*
X46600000Y-73175000D01*
G75*
G02*
X46675000Y-73100000I75000J0D01*
G01*
X48000000Y-73100000D01*
G75*
G02*
X48075000Y-73175000I0J-75000D01*
G01*
X48075000Y-73325000D01*
G75*
G02*
X48000000Y-73400000I-75000J0D01*
G01*
X46675000Y-73400000D01*
G75*
G02*
X46600000Y-73325000I0J75000D01*
G01*
G37*
G36*
G01*
X46600000Y-73825000D02*
X46600000Y-73675000D01*
G75*
G02*
X46675000Y-73600000I75000J0D01*
G01*
X48000000Y-73600000D01*
G75*
G02*
X48075000Y-73675000I0J-75000D01*
G01*
X48075000Y-73825000D01*
G75*
G02*
X48000000Y-73900000I-75000J0D01*
G01*
X46675000Y-73900000D01*
G75*
G02*
X46600000Y-73825000I0J75000D01*
G01*
G37*
G36*
G01*
X46600000Y-74325000D02*
X46600000Y-74175000D01*
G75*
G02*
X46675000Y-74100000I75000J0D01*
G01*
X48000000Y-74100000D01*
G75*
G02*
X48075000Y-74175000I0J-75000D01*
G01*
X48075000Y-74325000D01*
G75*
G02*
X48000000Y-74400000I-75000J0D01*
G01*
X46675000Y-74400000D01*
G75*
G02*
X46600000Y-74325000I0J75000D01*
G01*
G37*
G36*
G01*
X46600000Y-74825000D02*
X46600000Y-74675000D01*
G75*
G02*
X46675000Y-74600000I75000J0D01*
G01*
X48000000Y-74600000D01*
G75*
G02*
X48075000Y-74675000I0J-75000D01*
G01*
X48075000Y-74825000D01*
G75*
G02*
X48000000Y-74900000I-75000J0D01*
G01*
X46675000Y-74900000D01*
G75*
G02*
X46600000Y-74825000I0J75000D01*
G01*
G37*
G36*
G01*
X46600000Y-75325000D02*
X46600000Y-75175000D01*
G75*
G02*
X46675000Y-75100000I75000J0D01*
G01*
X48000000Y-75100000D01*
G75*
G02*
X48075000Y-75175000I0J-75000D01*
G01*
X48075000Y-75325000D01*
G75*
G02*
X48000000Y-75400000I-75000J0D01*
G01*
X46675000Y-75400000D01*
G75*
G02*
X46600000Y-75325000I0J75000D01*
G01*
G37*
G36*
G01*
X46600000Y-75825000D02*
X46600000Y-75675000D01*
G75*
G02*
X46675000Y-75600000I75000J0D01*
G01*
X48000000Y-75600000D01*
G75*
G02*
X48075000Y-75675000I0J-75000D01*
G01*
X48075000Y-75825000D01*
G75*
G02*
X48000000Y-75900000I-75000J0D01*
G01*
X46675000Y-75900000D01*
G75*
G02*
X46600000Y-75825000I0J75000D01*
G01*
G37*
G36*
G01*
X46600000Y-76325000D02*
X46600000Y-76175000D01*
G75*
G02*
X46675000Y-76100000I75000J0D01*
G01*
X48000000Y-76100000D01*
G75*
G02*
X48075000Y-76175000I0J-75000D01*
G01*
X48075000Y-76325000D01*
G75*
G02*
X48000000Y-76400000I-75000J0D01*
G01*
X46675000Y-76400000D01*
G75*
G02*
X46600000Y-76325000I0J75000D01*
G01*
G37*
G36*
G01*
X46600000Y-76825000D02*
X46600000Y-76675000D01*
G75*
G02*
X46675000Y-76600000I75000J0D01*
G01*
X48000000Y-76600000D01*
G75*
G02*
X48075000Y-76675000I0J-75000D01*
G01*
X48075000Y-76825000D01*
G75*
G02*
X48000000Y-76900000I-75000J0D01*
G01*
X46675000Y-76900000D01*
G75*
G02*
X46600000Y-76825000I0J75000D01*
G01*
G37*
G36*
G01*
X46600000Y-77325000D02*
X46600000Y-77175000D01*
G75*
G02*
X46675000Y-77100000I75000J0D01*
G01*
X48000000Y-77100000D01*
G75*
G02*
X48075000Y-77175000I0J-75000D01*
G01*
X48075000Y-77325000D01*
G75*
G02*
X48000000Y-77400000I-75000J0D01*
G01*
X46675000Y-77400000D01*
G75*
G02*
X46600000Y-77325000I0J75000D01*
G01*
G37*
G36*
G01*
X46600000Y-77825000D02*
X46600000Y-77675000D01*
G75*
G02*
X46675000Y-77600000I75000J0D01*
G01*
X48000000Y-77600000D01*
G75*
G02*
X48075000Y-77675000I0J-75000D01*
G01*
X48075000Y-77825000D01*
G75*
G02*
X48000000Y-77900000I-75000J0D01*
G01*
X46675000Y-77900000D01*
G75*
G02*
X46600000Y-77825000I0J75000D01*
G01*
G37*
G36*
G01*
X46600000Y-78325000D02*
X46600000Y-78175000D01*
G75*
G02*
X46675000Y-78100000I75000J0D01*
G01*
X48000000Y-78100000D01*
G75*
G02*
X48075000Y-78175000I0J-75000D01*
G01*
X48075000Y-78325000D01*
G75*
G02*
X48000000Y-78400000I-75000J0D01*
G01*
X46675000Y-78400000D01*
G75*
G02*
X46600000Y-78325000I0J75000D01*
G01*
G37*
G36*
G01*
X46600000Y-78825000D02*
X46600000Y-78675000D01*
G75*
G02*
X46675000Y-78600000I75000J0D01*
G01*
X48000000Y-78600000D01*
G75*
G02*
X48075000Y-78675000I0J-75000D01*
G01*
X48075000Y-78825000D01*
G75*
G02*
X48000000Y-78900000I-75000J0D01*
G01*
X46675000Y-78900000D01*
G75*
G02*
X46600000Y-78825000I0J75000D01*
G01*
G37*
G36*
G01*
X46600000Y-79325000D02*
X46600000Y-79175000D01*
G75*
G02*
X46675000Y-79100000I75000J0D01*
G01*
X48000000Y-79100000D01*
G75*
G02*
X48075000Y-79175000I0J-75000D01*
G01*
X48075000Y-79325000D01*
G75*
G02*
X48000000Y-79400000I-75000J0D01*
G01*
X46675000Y-79400000D01*
G75*
G02*
X46600000Y-79325000I0J75000D01*
G01*
G37*
G36*
G01*
X46600000Y-79825000D02*
X46600000Y-79675000D01*
G75*
G02*
X46675000Y-79600000I75000J0D01*
G01*
X48000000Y-79600000D01*
G75*
G02*
X48075000Y-79675000I0J-75000D01*
G01*
X48075000Y-79825000D01*
G75*
G02*
X48000000Y-79900000I-75000J0D01*
G01*
X46675000Y-79900000D01*
G75*
G02*
X46600000Y-79825000I0J75000D01*
G01*
G37*
G36*
G01*
X46600000Y-80325000D02*
X46600000Y-80175000D01*
G75*
G02*
X46675000Y-80100000I75000J0D01*
G01*
X48000000Y-80100000D01*
G75*
G02*
X48075000Y-80175000I0J-75000D01*
G01*
X48075000Y-80325000D01*
G75*
G02*
X48000000Y-80400000I-75000J0D01*
G01*
X46675000Y-80400000D01*
G75*
G02*
X46600000Y-80325000I0J75000D01*
G01*
G37*
G36*
G01*
X46600000Y-80825000D02*
X46600000Y-80675000D01*
G75*
G02*
X46675000Y-80600000I75000J0D01*
G01*
X48000000Y-80600000D01*
G75*
G02*
X48075000Y-80675000I0J-75000D01*
G01*
X48075000Y-80825000D01*
G75*
G02*
X48000000Y-80900000I-75000J0D01*
G01*
X46675000Y-80900000D01*
G75*
G02*
X46600000Y-80825000I0J75000D01*
G01*
G37*
G36*
G01*
X46600000Y-81325000D02*
X46600000Y-81175000D01*
G75*
G02*
X46675000Y-81100000I75000J0D01*
G01*
X48000000Y-81100000D01*
G75*
G02*
X48075000Y-81175000I0J-75000D01*
G01*
X48075000Y-81325000D01*
G75*
G02*
X48000000Y-81400000I-75000J0D01*
G01*
X46675000Y-81400000D01*
G75*
G02*
X46600000Y-81325000I0J75000D01*
G01*
G37*
G36*
G01*
X46600000Y-81825000D02*
X46600000Y-81675000D01*
G75*
G02*
X46675000Y-81600000I75000J0D01*
G01*
X48000000Y-81600000D01*
G75*
G02*
X48075000Y-81675000I0J-75000D01*
G01*
X48075000Y-81825000D01*
G75*
G02*
X48000000Y-81900000I-75000J0D01*
G01*
X46675000Y-81900000D01*
G75*
G02*
X46600000Y-81825000I0J75000D01*
G01*
G37*
G36*
G01*
X46600000Y-82325000D02*
X46600000Y-82175000D01*
G75*
G02*
X46675000Y-82100000I75000J0D01*
G01*
X48000000Y-82100000D01*
G75*
G02*
X48075000Y-82175000I0J-75000D01*
G01*
X48075000Y-82325000D01*
G75*
G02*
X48000000Y-82400000I-75000J0D01*
G01*
X46675000Y-82400000D01*
G75*
G02*
X46600000Y-82325000I0J75000D01*
G01*
G37*
G36*
G01*
X46600000Y-82825000D02*
X46600000Y-82675000D01*
G75*
G02*
X46675000Y-82600000I75000J0D01*
G01*
X48000000Y-82600000D01*
G75*
G02*
X48075000Y-82675000I0J-75000D01*
G01*
X48075000Y-82825000D01*
G75*
G02*
X48000000Y-82900000I-75000J0D01*
G01*
X46675000Y-82900000D01*
G75*
G02*
X46600000Y-82825000I0J75000D01*
G01*
G37*
G36*
G01*
X46600000Y-83325000D02*
X46600000Y-83175000D01*
G75*
G02*
X46675000Y-83100000I75000J0D01*
G01*
X48000000Y-83100000D01*
G75*
G02*
X48075000Y-83175000I0J-75000D01*
G01*
X48075000Y-83325000D01*
G75*
G02*
X48000000Y-83400000I-75000J0D01*
G01*
X46675000Y-83400000D01*
G75*
G02*
X46600000Y-83325000I0J75000D01*
G01*
G37*
G36*
G01*
X46600000Y-83825000D02*
X46600000Y-83675000D01*
G75*
G02*
X46675000Y-83600000I75000J0D01*
G01*
X48000000Y-83600000D01*
G75*
G02*
X48075000Y-83675000I0J-75000D01*
G01*
X48075000Y-83825000D01*
G75*
G02*
X48000000Y-83900000I-75000J0D01*
G01*
X46675000Y-83900000D01*
G75*
G02*
X46600000Y-83825000I0J75000D01*
G01*
G37*
G36*
G01*
X46600000Y-84325000D02*
X46600000Y-84175000D01*
G75*
G02*
X46675000Y-84100000I75000J0D01*
G01*
X48000000Y-84100000D01*
G75*
G02*
X48075000Y-84175000I0J-75000D01*
G01*
X48075000Y-84325000D01*
G75*
G02*
X48000000Y-84400000I-75000J0D01*
G01*
X46675000Y-84400000D01*
G75*
G02*
X46600000Y-84325000I0J75000D01*
G01*
G37*
G36*
G01*
X46600000Y-84825000D02*
X46600000Y-84675000D01*
G75*
G02*
X46675000Y-84600000I75000J0D01*
G01*
X48000000Y-84600000D01*
G75*
G02*
X48075000Y-84675000I0J-75000D01*
G01*
X48075000Y-84825000D01*
G75*
G02*
X48000000Y-84900000I-75000J0D01*
G01*
X46675000Y-84900000D01*
G75*
G02*
X46600000Y-84825000I0J75000D01*
G01*
G37*
G36*
G01*
X46600000Y-85325000D02*
X46600000Y-85175000D01*
G75*
G02*
X46675000Y-85100000I75000J0D01*
G01*
X48000000Y-85100000D01*
G75*
G02*
X48075000Y-85175000I0J-75000D01*
G01*
X48075000Y-85325000D01*
G75*
G02*
X48000000Y-85400000I-75000J0D01*
G01*
X46675000Y-85400000D01*
G75*
G02*
X46600000Y-85325000I0J75000D01*
G01*
G37*
G36*
G01*
X46600000Y-85825000D02*
X46600000Y-85675000D01*
G75*
G02*
X46675000Y-85600000I75000J0D01*
G01*
X48000000Y-85600000D01*
G75*
G02*
X48075000Y-85675000I0J-75000D01*
G01*
X48075000Y-85825000D01*
G75*
G02*
X48000000Y-85900000I-75000J0D01*
G01*
X46675000Y-85900000D01*
G75*
G02*
X46600000Y-85825000I0J75000D01*
G01*
G37*
G36*
G01*
X49100000Y-88325000D02*
X49100000Y-87000000D01*
G75*
G02*
X49175000Y-86925000I75000J0D01*
G01*
X49325000Y-86925000D01*
G75*
G02*
X49400000Y-87000000I0J-75000D01*
G01*
X49400000Y-88325000D01*
G75*
G02*
X49325000Y-88400000I-75000J0D01*
G01*
X49175000Y-88400000D01*
G75*
G02*
X49100000Y-88325000I0J75000D01*
G01*
G37*
G36*
G01*
X49600000Y-88325000D02*
X49600000Y-87000000D01*
G75*
G02*
X49675000Y-86925000I75000J0D01*
G01*
X49825000Y-86925000D01*
G75*
G02*
X49900000Y-87000000I0J-75000D01*
G01*
X49900000Y-88325000D01*
G75*
G02*
X49825000Y-88400000I-75000J0D01*
G01*
X49675000Y-88400000D01*
G75*
G02*
X49600000Y-88325000I0J75000D01*
G01*
G37*
G36*
G01*
X50100000Y-88325000D02*
X50100000Y-87000000D01*
G75*
G02*
X50175000Y-86925000I75000J0D01*
G01*
X50325000Y-86925000D01*
G75*
G02*
X50400000Y-87000000I0J-75000D01*
G01*
X50400000Y-88325000D01*
G75*
G02*
X50325000Y-88400000I-75000J0D01*
G01*
X50175000Y-88400000D01*
G75*
G02*
X50100000Y-88325000I0J75000D01*
G01*
G37*
G36*
G01*
X50600000Y-88325000D02*
X50600000Y-87000000D01*
G75*
G02*
X50675000Y-86925000I75000J0D01*
G01*
X50825000Y-86925000D01*
G75*
G02*
X50900000Y-87000000I0J-75000D01*
G01*
X50900000Y-88325000D01*
G75*
G02*
X50825000Y-88400000I-75000J0D01*
G01*
X50675000Y-88400000D01*
G75*
G02*
X50600000Y-88325000I0J75000D01*
G01*
G37*
G36*
G01*
X51100000Y-88325000D02*
X51100000Y-87000000D01*
G75*
G02*
X51175000Y-86925000I75000J0D01*
G01*
X51325000Y-86925000D01*
G75*
G02*
X51400000Y-87000000I0J-75000D01*
G01*
X51400000Y-88325000D01*
G75*
G02*
X51325000Y-88400000I-75000J0D01*
G01*
X51175000Y-88400000D01*
G75*
G02*
X51100000Y-88325000I0J75000D01*
G01*
G37*
G36*
G01*
X51600000Y-88325000D02*
X51600000Y-87000000D01*
G75*
G02*
X51675000Y-86925000I75000J0D01*
G01*
X51825000Y-86925000D01*
G75*
G02*
X51900000Y-87000000I0J-75000D01*
G01*
X51900000Y-88325000D01*
G75*
G02*
X51825000Y-88400000I-75000J0D01*
G01*
X51675000Y-88400000D01*
G75*
G02*
X51600000Y-88325000I0J75000D01*
G01*
G37*
G36*
G01*
X52100000Y-88325000D02*
X52100000Y-87000000D01*
G75*
G02*
X52175000Y-86925000I75000J0D01*
G01*
X52325000Y-86925000D01*
G75*
G02*
X52400000Y-87000000I0J-75000D01*
G01*
X52400000Y-88325000D01*
G75*
G02*
X52325000Y-88400000I-75000J0D01*
G01*
X52175000Y-88400000D01*
G75*
G02*
X52100000Y-88325000I0J75000D01*
G01*
G37*
G36*
G01*
X52600000Y-88325000D02*
X52600000Y-87000000D01*
G75*
G02*
X52675000Y-86925000I75000J0D01*
G01*
X52825000Y-86925000D01*
G75*
G02*
X52900000Y-87000000I0J-75000D01*
G01*
X52900000Y-88325000D01*
G75*
G02*
X52825000Y-88400000I-75000J0D01*
G01*
X52675000Y-88400000D01*
G75*
G02*
X52600000Y-88325000I0J75000D01*
G01*
G37*
G36*
G01*
X53100000Y-88325000D02*
X53100000Y-87000000D01*
G75*
G02*
X53175000Y-86925000I75000J0D01*
G01*
X53325000Y-86925000D01*
G75*
G02*
X53400000Y-87000000I0J-75000D01*
G01*
X53400000Y-88325000D01*
G75*
G02*
X53325000Y-88400000I-75000J0D01*
G01*
X53175000Y-88400000D01*
G75*
G02*
X53100000Y-88325000I0J75000D01*
G01*
G37*
G36*
G01*
X53600000Y-88325000D02*
X53600000Y-87000000D01*
G75*
G02*
X53675000Y-86925000I75000J0D01*
G01*
X53825000Y-86925000D01*
G75*
G02*
X53900000Y-87000000I0J-75000D01*
G01*
X53900000Y-88325000D01*
G75*
G02*
X53825000Y-88400000I-75000J0D01*
G01*
X53675000Y-88400000D01*
G75*
G02*
X53600000Y-88325000I0J75000D01*
G01*
G37*
G36*
G01*
X54100000Y-88325000D02*
X54100000Y-87000000D01*
G75*
G02*
X54175000Y-86925000I75000J0D01*
G01*
X54325000Y-86925000D01*
G75*
G02*
X54400000Y-87000000I0J-75000D01*
G01*
X54400000Y-88325000D01*
G75*
G02*
X54325000Y-88400000I-75000J0D01*
G01*
X54175000Y-88400000D01*
G75*
G02*
X54100000Y-88325000I0J75000D01*
G01*
G37*
G36*
G01*
X54600000Y-88325000D02*
X54600000Y-87000000D01*
G75*
G02*
X54675000Y-86925000I75000J0D01*
G01*
X54825000Y-86925000D01*
G75*
G02*
X54900000Y-87000000I0J-75000D01*
G01*
X54900000Y-88325000D01*
G75*
G02*
X54825000Y-88400000I-75000J0D01*
G01*
X54675000Y-88400000D01*
G75*
G02*
X54600000Y-88325000I0J75000D01*
G01*
G37*
G36*
G01*
X55100000Y-88325000D02*
X55100000Y-87000000D01*
G75*
G02*
X55175000Y-86925000I75000J0D01*
G01*
X55325000Y-86925000D01*
G75*
G02*
X55400000Y-87000000I0J-75000D01*
G01*
X55400000Y-88325000D01*
G75*
G02*
X55325000Y-88400000I-75000J0D01*
G01*
X55175000Y-88400000D01*
G75*
G02*
X55100000Y-88325000I0J75000D01*
G01*
G37*
G36*
G01*
X55600000Y-88325000D02*
X55600000Y-87000000D01*
G75*
G02*
X55675000Y-86925000I75000J0D01*
G01*
X55825000Y-86925000D01*
G75*
G02*
X55900000Y-87000000I0J-75000D01*
G01*
X55900000Y-88325000D01*
G75*
G02*
X55825000Y-88400000I-75000J0D01*
G01*
X55675000Y-88400000D01*
G75*
G02*
X55600000Y-88325000I0J75000D01*
G01*
G37*
G36*
G01*
X56100000Y-88325000D02*
X56100000Y-87000000D01*
G75*
G02*
X56175000Y-86925000I75000J0D01*
G01*
X56325000Y-86925000D01*
G75*
G02*
X56400000Y-87000000I0J-75000D01*
G01*
X56400000Y-88325000D01*
G75*
G02*
X56325000Y-88400000I-75000J0D01*
G01*
X56175000Y-88400000D01*
G75*
G02*
X56100000Y-88325000I0J75000D01*
G01*
G37*
G36*
G01*
X56600000Y-88325000D02*
X56600000Y-87000000D01*
G75*
G02*
X56675000Y-86925000I75000J0D01*
G01*
X56825000Y-86925000D01*
G75*
G02*
X56900000Y-87000000I0J-75000D01*
G01*
X56900000Y-88325000D01*
G75*
G02*
X56825000Y-88400000I-75000J0D01*
G01*
X56675000Y-88400000D01*
G75*
G02*
X56600000Y-88325000I0J75000D01*
G01*
G37*
G36*
G01*
X57100000Y-88325000D02*
X57100000Y-87000000D01*
G75*
G02*
X57175000Y-86925000I75000J0D01*
G01*
X57325000Y-86925000D01*
G75*
G02*
X57400000Y-87000000I0J-75000D01*
G01*
X57400000Y-88325000D01*
G75*
G02*
X57325000Y-88400000I-75000J0D01*
G01*
X57175000Y-88400000D01*
G75*
G02*
X57100000Y-88325000I0J75000D01*
G01*
G37*
G36*
G01*
X57600000Y-88325000D02*
X57600000Y-87000000D01*
G75*
G02*
X57675000Y-86925000I75000J0D01*
G01*
X57825000Y-86925000D01*
G75*
G02*
X57900000Y-87000000I0J-75000D01*
G01*
X57900000Y-88325000D01*
G75*
G02*
X57825000Y-88400000I-75000J0D01*
G01*
X57675000Y-88400000D01*
G75*
G02*
X57600000Y-88325000I0J75000D01*
G01*
G37*
G36*
G01*
X58100000Y-88325000D02*
X58100000Y-87000000D01*
G75*
G02*
X58175000Y-86925000I75000J0D01*
G01*
X58325000Y-86925000D01*
G75*
G02*
X58400000Y-87000000I0J-75000D01*
G01*
X58400000Y-88325000D01*
G75*
G02*
X58325000Y-88400000I-75000J0D01*
G01*
X58175000Y-88400000D01*
G75*
G02*
X58100000Y-88325000I0J75000D01*
G01*
G37*
G36*
G01*
X58600000Y-88325000D02*
X58600000Y-87000000D01*
G75*
G02*
X58675000Y-86925000I75000J0D01*
G01*
X58825000Y-86925000D01*
G75*
G02*
X58900000Y-87000000I0J-75000D01*
G01*
X58900000Y-88325000D01*
G75*
G02*
X58825000Y-88400000I-75000J0D01*
G01*
X58675000Y-88400000D01*
G75*
G02*
X58600000Y-88325000I0J75000D01*
G01*
G37*
G36*
G01*
X59100000Y-88325000D02*
X59100000Y-87000000D01*
G75*
G02*
X59175000Y-86925000I75000J0D01*
G01*
X59325000Y-86925000D01*
G75*
G02*
X59400000Y-87000000I0J-75000D01*
G01*
X59400000Y-88325000D01*
G75*
G02*
X59325000Y-88400000I-75000J0D01*
G01*
X59175000Y-88400000D01*
G75*
G02*
X59100000Y-88325000I0J75000D01*
G01*
G37*
G36*
G01*
X59600000Y-88325000D02*
X59600000Y-87000000D01*
G75*
G02*
X59675000Y-86925000I75000J0D01*
G01*
X59825000Y-86925000D01*
G75*
G02*
X59900000Y-87000000I0J-75000D01*
G01*
X59900000Y-88325000D01*
G75*
G02*
X59825000Y-88400000I-75000J0D01*
G01*
X59675000Y-88400000D01*
G75*
G02*
X59600000Y-88325000I0J75000D01*
G01*
G37*
G36*
G01*
X60100000Y-88325000D02*
X60100000Y-87000000D01*
G75*
G02*
X60175000Y-86925000I75000J0D01*
G01*
X60325000Y-86925000D01*
G75*
G02*
X60400000Y-87000000I0J-75000D01*
G01*
X60400000Y-88325000D01*
G75*
G02*
X60325000Y-88400000I-75000J0D01*
G01*
X60175000Y-88400000D01*
G75*
G02*
X60100000Y-88325000I0J75000D01*
G01*
G37*
G36*
G01*
X60600000Y-88325000D02*
X60600000Y-87000000D01*
G75*
G02*
X60675000Y-86925000I75000J0D01*
G01*
X60825000Y-86925000D01*
G75*
G02*
X60900000Y-87000000I0J-75000D01*
G01*
X60900000Y-88325000D01*
G75*
G02*
X60825000Y-88400000I-75000J0D01*
G01*
X60675000Y-88400000D01*
G75*
G02*
X60600000Y-88325000I0J75000D01*
G01*
G37*
G36*
G01*
X61100000Y-88325000D02*
X61100000Y-87000000D01*
G75*
G02*
X61175000Y-86925000I75000J0D01*
G01*
X61325000Y-86925000D01*
G75*
G02*
X61400000Y-87000000I0J-75000D01*
G01*
X61400000Y-88325000D01*
G75*
G02*
X61325000Y-88400000I-75000J0D01*
G01*
X61175000Y-88400000D01*
G75*
G02*
X61100000Y-88325000I0J75000D01*
G01*
G37*
G36*
G01*
X61600000Y-88325000D02*
X61600000Y-87000000D01*
G75*
G02*
X61675000Y-86925000I75000J0D01*
G01*
X61825000Y-86925000D01*
G75*
G02*
X61900000Y-87000000I0J-75000D01*
G01*
X61900000Y-88325000D01*
G75*
G02*
X61825000Y-88400000I-75000J0D01*
G01*
X61675000Y-88400000D01*
G75*
G02*
X61600000Y-88325000I0J75000D01*
G01*
G37*
G36*
G01*
X62100000Y-88325000D02*
X62100000Y-87000000D01*
G75*
G02*
X62175000Y-86925000I75000J0D01*
G01*
X62325000Y-86925000D01*
G75*
G02*
X62400000Y-87000000I0J-75000D01*
G01*
X62400000Y-88325000D01*
G75*
G02*
X62325000Y-88400000I-75000J0D01*
G01*
X62175000Y-88400000D01*
G75*
G02*
X62100000Y-88325000I0J75000D01*
G01*
G37*
G36*
G01*
X62600000Y-88325000D02*
X62600000Y-87000000D01*
G75*
G02*
X62675000Y-86925000I75000J0D01*
G01*
X62825000Y-86925000D01*
G75*
G02*
X62900000Y-87000000I0J-75000D01*
G01*
X62900000Y-88325000D01*
G75*
G02*
X62825000Y-88400000I-75000J0D01*
G01*
X62675000Y-88400000D01*
G75*
G02*
X62600000Y-88325000I0J75000D01*
G01*
G37*
G36*
G01*
X63100000Y-88325000D02*
X63100000Y-87000000D01*
G75*
G02*
X63175000Y-86925000I75000J0D01*
G01*
X63325000Y-86925000D01*
G75*
G02*
X63400000Y-87000000I0J-75000D01*
G01*
X63400000Y-88325000D01*
G75*
G02*
X63325000Y-88400000I-75000J0D01*
G01*
X63175000Y-88400000D01*
G75*
G02*
X63100000Y-88325000I0J75000D01*
G01*
G37*
G36*
G01*
X63600000Y-88325000D02*
X63600000Y-87000000D01*
G75*
G02*
X63675000Y-86925000I75000J0D01*
G01*
X63825000Y-86925000D01*
G75*
G02*
X63900000Y-87000000I0J-75000D01*
G01*
X63900000Y-88325000D01*
G75*
G02*
X63825000Y-88400000I-75000J0D01*
G01*
X63675000Y-88400000D01*
G75*
G02*
X63600000Y-88325000I0J75000D01*
G01*
G37*
G36*
G01*
X64100000Y-88325000D02*
X64100000Y-87000000D01*
G75*
G02*
X64175000Y-86925000I75000J0D01*
G01*
X64325000Y-86925000D01*
G75*
G02*
X64400000Y-87000000I0J-75000D01*
G01*
X64400000Y-88325000D01*
G75*
G02*
X64325000Y-88400000I-75000J0D01*
G01*
X64175000Y-88400000D01*
G75*
G02*
X64100000Y-88325000I0J75000D01*
G01*
G37*
G36*
G01*
X64600000Y-88325000D02*
X64600000Y-87000000D01*
G75*
G02*
X64675000Y-86925000I75000J0D01*
G01*
X64825000Y-86925000D01*
G75*
G02*
X64900000Y-87000000I0J-75000D01*
G01*
X64900000Y-88325000D01*
G75*
G02*
X64825000Y-88400000I-75000J0D01*
G01*
X64675000Y-88400000D01*
G75*
G02*
X64600000Y-88325000I0J75000D01*
G01*
G37*
G36*
G01*
X65100000Y-88325000D02*
X65100000Y-87000000D01*
G75*
G02*
X65175000Y-86925000I75000J0D01*
G01*
X65325000Y-86925000D01*
G75*
G02*
X65400000Y-87000000I0J-75000D01*
G01*
X65400000Y-88325000D01*
G75*
G02*
X65325000Y-88400000I-75000J0D01*
G01*
X65175000Y-88400000D01*
G75*
G02*
X65100000Y-88325000I0J75000D01*
G01*
G37*
G36*
G01*
X65600000Y-88325000D02*
X65600000Y-87000000D01*
G75*
G02*
X65675000Y-86925000I75000J0D01*
G01*
X65825000Y-86925000D01*
G75*
G02*
X65900000Y-87000000I0J-75000D01*
G01*
X65900000Y-88325000D01*
G75*
G02*
X65825000Y-88400000I-75000J0D01*
G01*
X65675000Y-88400000D01*
G75*
G02*
X65600000Y-88325000I0J75000D01*
G01*
G37*
G36*
G01*
X66100000Y-88325000D02*
X66100000Y-87000000D01*
G75*
G02*
X66175000Y-86925000I75000J0D01*
G01*
X66325000Y-86925000D01*
G75*
G02*
X66400000Y-87000000I0J-75000D01*
G01*
X66400000Y-88325000D01*
G75*
G02*
X66325000Y-88400000I-75000J0D01*
G01*
X66175000Y-88400000D01*
G75*
G02*
X66100000Y-88325000I0J75000D01*
G01*
G37*
G36*
G01*
X66600000Y-88325000D02*
X66600000Y-87000000D01*
G75*
G02*
X66675000Y-86925000I75000J0D01*
G01*
X66825000Y-86925000D01*
G75*
G02*
X66900000Y-87000000I0J-75000D01*
G01*
X66900000Y-88325000D01*
G75*
G02*
X66825000Y-88400000I-75000J0D01*
G01*
X66675000Y-88400000D01*
G75*
G02*
X66600000Y-88325000I0J75000D01*
G01*
G37*
G36*
G01*
X67925000Y-85825000D02*
X67925000Y-85675000D01*
G75*
G02*
X68000000Y-85600000I75000J0D01*
G01*
X69325000Y-85600000D01*
G75*
G02*
X69400000Y-85675000I0J-75000D01*
G01*
X69400000Y-85825000D01*
G75*
G02*
X69325000Y-85900000I-75000J0D01*
G01*
X68000000Y-85900000D01*
G75*
G02*
X67925000Y-85825000I0J75000D01*
G01*
G37*
G36*
G01*
X67925000Y-85325000D02*
X67925000Y-85175000D01*
G75*
G02*
X68000000Y-85100000I75000J0D01*
G01*
X69325000Y-85100000D01*
G75*
G02*
X69400000Y-85175000I0J-75000D01*
G01*
X69400000Y-85325000D01*
G75*
G02*
X69325000Y-85400000I-75000J0D01*
G01*
X68000000Y-85400000D01*
G75*
G02*
X67925000Y-85325000I0J75000D01*
G01*
G37*
G36*
G01*
X67925000Y-84825000D02*
X67925000Y-84675000D01*
G75*
G02*
X68000000Y-84600000I75000J0D01*
G01*
X69325000Y-84600000D01*
G75*
G02*
X69400000Y-84675000I0J-75000D01*
G01*
X69400000Y-84825000D01*
G75*
G02*
X69325000Y-84900000I-75000J0D01*
G01*
X68000000Y-84900000D01*
G75*
G02*
X67925000Y-84825000I0J75000D01*
G01*
G37*
G36*
G01*
X67925000Y-84325000D02*
X67925000Y-84175000D01*
G75*
G02*
X68000000Y-84100000I75000J0D01*
G01*
X69325000Y-84100000D01*
G75*
G02*
X69400000Y-84175000I0J-75000D01*
G01*
X69400000Y-84325000D01*
G75*
G02*
X69325000Y-84400000I-75000J0D01*
G01*
X68000000Y-84400000D01*
G75*
G02*
X67925000Y-84325000I0J75000D01*
G01*
G37*
G36*
G01*
X67925000Y-83825000D02*
X67925000Y-83675000D01*
G75*
G02*
X68000000Y-83600000I75000J0D01*
G01*
X69325000Y-83600000D01*
G75*
G02*
X69400000Y-83675000I0J-75000D01*
G01*
X69400000Y-83825000D01*
G75*
G02*
X69325000Y-83900000I-75000J0D01*
G01*
X68000000Y-83900000D01*
G75*
G02*
X67925000Y-83825000I0J75000D01*
G01*
G37*
G36*
G01*
X67925000Y-83325000D02*
X67925000Y-83175000D01*
G75*
G02*
X68000000Y-83100000I75000J0D01*
G01*
X69325000Y-83100000D01*
G75*
G02*
X69400000Y-83175000I0J-75000D01*
G01*
X69400000Y-83325000D01*
G75*
G02*
X69325000Y-83400000I-75000J0D01*
G01*
X68000000Y-83400000D01*
G75*
G02*
X67925000Y-83325000I0J75000D01*
G01*
G37*
G36*
G01*
X67925000Y-82825000D02*
X67925000Y-82675000D01*
G75*
G02*
X68000000Y-82600000I75000J0D01*
G01*
X69325000Y-82600000D01*
G75*
G02*
X69400000Y-82675000I0J-75000D01*
G01*
X69400000Y-82825000D01*
G75*
G02*
X69325000Y-82900000I-75000J0D01*
G01*
X68000000Y-82900000D01*
G75*
G02*
X67925000Y-82825000I0J75000D01*
G01*
G37*
G36*
G01*
X67925000Y-82325000D02*
X67925000Y-82175000D01*
G75*
G02*
X68000000Y-82100000I75000J0D01*
G01*
X69325000Y-82100000D01*
G75*
G02*
X69400000Y-82175000I0J-75000D01*
G01*
X69400000Y-82325000D01*
G75*
G02*
X69325000Y-82400000I-75000J0D01*
G01*
X68000000Y-82400000D01*
G75*
G02*
X67925000Y-82325000I0J75000D01*
G01*
G37*
G36*
G01*
X67925000Y-81825000D02*
X67925000Y-81675000D01*
G75*
G02*
X68000000Y-81600000I75000J0D01*
G01*
X69325000Y-81600000D01*
G75*
G02*
X69400000Y-81675000I0J-75000D01*
G01*
X69400000Y-81825000D01*
G75*
G02*
X69325000Y-81900000I-75000J0D01*
G01*
X68000000Y-81900000D01*
G75*
G02*
X67925000Y-81825000I0J75000D01*
G01*
G37*
G36*
G01*
X67925000Y-81325000D02*
X67925000Y-81175000D01*
G75*
G02*
X68000000Y-81100000I75000J0D01*
G01*
X69325000Y-81100000D01*
G75*
G02*
X69400000Y-81175000I0J-75000D01*
G01*
X69400000Y-81325000D01*
G75*
G02*
X69325000Y-81400000I-75000J0D01*
G01*
X68000000Y-81400000D01*
G75*
G02*
X67925000Y-81325000I0J75000D01*
G01*
G37*
G36*
G01*
X67925000Y-80825000D02*
X67925000Y-80675000D01*
G75*
G02*
X68000000Y-80600000I75000J0D01*
G01*
X69325000Y-80600000D01*
G75*
G02*
X69400000Y-80675000I0J-75000D01*
G01*
X69400000Y-80825000D01*
G75*
G02*
X69325000Y-80900000I-75000J0D01*
G01*
X68000000Y-80900000D01*
G75*
G02*
X67925000Y-80825000I0J75000D01*
G01*
G37*
G36*
G01*
X67925000Y-80325000D02*
X67925000Y-80175000D01*
G75*
G02*
X68000000Y-80100000I75000J0D01*
G01*
X69325000Y-80100000D01*
G75*
G02*
X69400000Y-80175000I0J-75000D01*
G01*
X69400000Y-80325000D01*
G75*
G02*
X69325000Y-80400000I-75000J0D01*
G01*
X68000000Y-80400000D01*
G75*
G02*
X67925000Y-80325000I0J75000D01*
G01*
G37*
G36*
G01*
X67925000Y-79825000D02*
X67925000Y-79675000D01*
G75*
G02*
X68000000Y-79600000I75000J0D01*
G01*
X69325000Y-79600000D01*
G75*
G02*
X69400000Y-79675000I0J-75000D01*
G01*
X69400000Y-79825000D01*
G75*
G02*
X69325000Y-79900000I-75000J0D01*
G01*
X68000000Y-79900000D01*
G75*
G02*
X67925000Y-79825000I0J75000D01*
G01*
G37*
G36*
G01*
X67925000Y-79325000D02*
X67925000Y-79175000D01*
G75*
G02*
X68000000Y-79100000I75000J0D01*
G01*
X69325000Y-79100000D01*
G75*
G02*
X69400000Y-79175000I0J-75000D01*
G01*
X69400000Y-79325000D01*
G75*
G02*
X69325000Y-79400000I-75000J0D01*
G01*
X68000000Y-79400000D01*
G75*
G02*
X67925000Y-79325000I0J75000D01*
G01*
G37*
G36*
G01*
X67925000Y-78825000D02*
X67925000Y-78675000D01*
G75*
G02*
X68000000Y-78600000I75000J0D01*
G01*
X69325000Y-78600000D01*
G75*
G02*
X69400000Y-78675000I0J-75000D01*
G01*
X69400000Y-78825000D01*
G75*
G02*
X69325000Y-78900000I-75000J0D01*
G01*
X68000000Y-78900000D01*
G75*
G02*
X67925000Y-78825000I0J75000D01*
G01*
G37*
G36*
G01*
X67925000Y-78325000D02*
X67925000Y-78175000D01*
G75*
G02*
X68000000Y-78100000I75000J0D01*
G01*
X69325000Y-78100000D01*
G75*
G02*
X69400000Y-78175000I0J-75000D01*
G01*
X69400000Y-78325000D01*
G75*
G02*
X69325000Y-78400000I-75000J0D01*
G01*
X68000000Y-78400000D01*
G75*
G02*
X67925000Y-78325000I0J75000D01*
G01*
G37*
G36*
G01*
X67925000Y-77825000D02*
X67925000Y-77675000D01*
G75*
G02*
X68000000Y-77600000I75000J0D01*
G01*
X69325000Y-77600000D01*
G75*
G02*
X69400000Y-77675000I0J-75000D01*
G01*
X69400000Y-77825000D01*
G75*
G02*
X69325000Y-77900000I-75000J0D01*
G01*
X68000000Y-77900000D01*
G75*
G02*
X67925000Y-77825000I0J75000D01*
G01*
G37*
G36*
G01*
X67925000Y-77325000D02*
X67925000Y-77175000D01*
G75*
G02*
X68000000Y-77100000I75000J0D01*
G01*
X69325000Y-77100000D01*
G75*
G02*
X69400000Y-77175000I0J-75000D01*
G01*
X69400000Y-77325000D01*
G75*
G02*
X69325000Y-77400000I-75000J0D01*
G01*
X68000000Y-77400000D01*
G75*
G02*
X67925000Y-77325000I0J75000D01*
G01*
G37*
G36*
G01*
X67925000Y-76825000D02*
X67925000Y-76675000D01*
G75*
G02*
X68000000Y-76600000I75000J0D01*
G01*
X69325000Y-76600000D01*
G75*
G02*
X69400000Y-76675000I0J-75000D01*
G01*
X69400000Y-76825000D01*
G75*
G02*
X69325000Y-76900000I-75000J0D01*
G01*
X68000000Y-76900000D01*
G75*
G02*
X67925000Y-76825000I0J75000D01*
G01*
G37*
G36*
G01*
X67925000Y-76325000D02*
X67925000Y-76175000D01*
G75*
G02*
X68000000Y-76100000I75000J0D01*
G01*
X69325000Y-76100000D01*
G75*
G02*
X69400000Y-76175000I0J-75000D01*
G01*
X69400000Y-76325000D01*
G75*
G02*
X69325000Y-76400000I-75000J0D01*
G01*
X68000000Y-76400000D01*
G75*
G02*
X67925000Y-76325000I0J75000D01*
G01*
G37*
G36*
G01*
X67925000Y-75825000D02*
X67925000Y-75675000D01*
G75*
G02*
X68000000Y-75600000I75000J0D01*
G01*
X69325000Y-75600000D01*
G75*
G02*
X69400000Y-75675000I0J-75000D01*
G01*
X69400000Y-75825000D01*
G75*
G02*
X69325000Y-75900000I-75000J0D01*
G01*
X68000000Y-75900000D01*
G75*
G02*
X67925000Y-75825000I0J75000D01*
G01*
G37*
G36*
G01*
X67925000Y-75325000D02*
X67925000Y-75175000D01*
G75*
G02*
X68000000Y-75100000I75000J0D01*
G01*
X69325000Y-75100000D01*
G75*
G02*
X69400000Y-75175000I0J-75000D01*
G01*
X69400000Y-75325000D01*
G75*
G02*
X69325000Y-75400000I-75000J0D01*
G01*
X68000000Y-75400000D01*
G75*
G02*
X67925000Y-75325000I0J75000D01*
G01*
G37*
G36*
G01*
X67925000Y-74825000D02*
X67925000Y-74675000D01*
G75*
G02*
X68000000Y-74600000I75000J0D01*
G01*
X69325000Y-74600000D01*
G75*
G02*
X69400000Y-74675000I0J-75000D01*
G01*
X69400000Y-74825000D01*
G75*
G02*
X69325000Y-74900000I-75000J0D01*
G01*
X68000000Y-74900000D01*
G75*
G02*
X67925000Y-74825000I0J75000D01*
G01*
G37*
G36*
G01*
X67925000Y-74325000D02*
X67925000Y-74175000D01*
G75*
G02*
X68000000Y-74100000I75000J0D01*
G01*
X69325000Y-74100000D01*
G75*
G02*
X69400000Y-74175000I0J-75000D01*
G01*
X69400000Y-74325000D01*
G75*
G02*
X69325000Y-74400000I-75000J0D01*
G01*
X68000000Y-74400000D01*
G75*
G02*
X67925000Y-74325000I0J75000D01*
G01*
G37*
G36*
G01*
X67925000Y-73825000D02*
X67925000Y-73675000D01*
G75*
G02*
X68000000Y-73600000I75000J0D01*
G01*
X69325000Y-73600000D01*
G75*
G02*
X69400000Y-73675000I0J-75000D01*
G01*
X69400000Y-73825000D01*
G75*
G02*
X69325000Y-73900000I-75000J0D01*
G01*
X68000000Y-73900000D01*
G75*
G02*
X67925000Y-73825000I0J75000D01*
G01*
G37*
G36*
G01*
X67925000Y-73325000D02*
X67925000Y-73175000D01*
G75*
G02*
X68000000Y-73100000I75000J0D01*
G01*
X69325000Y-73100000D01*
G75*
G02*
X69400000Y-73175000I0J-75000D01*
G01*
X69400000Y-73325000D01*
G75*
G02*
X69325000Y-73400000I-75000J0D01*
G01*
X68000000Y-73400000D01*
G75*
G02*
X67925000Y-73325000I0J75000D01*
G01*
G37*
G36*
G01*
X67925000Y-72825000D02*
X67925000Y-72675000D01*
G75*
G02*
X68000000Y-72600000I75000J0D01*
G01*
X69325000Y-72600000D01*
G75*
G02*
X69400000Y-72675000I0J-75000D01*
G01*
X69400000Y-72825000D01*
G75*
G02*
X69325000Y-72900000I-75000J0D01*
G01*
X68000000Y-72900000D01*
G75*
G02*
X67925000Y-72825000I0J75000D01*
G01*
G37*
G36*
G01*
X67925000Y-72325000D02*
X67925000Y-72175000D01*
G75*
G02*
X68000000Y-72100000I75000J0D01*
G01*
X69325000Y-72100000D01*
G75*
G02*
X69400000Y-72175000I0J-75000D01*
G01*
X69400000Y-72325000D01*
G75*
G02*
X69325000Y-72400000I-75000J0D01*
G01*
X68000000Y-72400000D01*
G75*
G02*
X67925000Y-72325000I0J75000D01*
G01*
G37*
G36*
G01*
X67925000Y-71825000D02*
X67925000Y-71675000D01*
G75*
G02*
X68000000Y-71600000I75000J0D01*
G01*
X69325000Y-71600000D01*
G75*
G02*
X69400000Y-71675000I0J-75000D01*
G01*
X69400000Y-71825000D01*
G75*
G02*
X69325000Y-71900000I-75000J0D01*
G01*
X68000000Y-71900000D01*
G75*
G02*
X67925000Y-71825000I0J75000D01*
G01*
G37*
G36*
G01*
X67925000Y-71325000D02*
X67925000Y-71175000D01*
G75*
G02*
X68000000Y-71100000I75000J0D01*
G01*
X69325000Y-71100000D01*
G75*
G02*
X69400000Y-71175000I0J-75000D01*
G01*
X69400000Y-71325000D01*
G75*
G02*
X69325000Y-71400000I-75000J0D01*
G01*
X68000000Y-71400000D01*
G75*
G02*
X67925000Y-71325000I0J75000D01*
G01*
G37*
G36*
G01*
X67925000Y-70825000D02*
X67925000Y-70675000D01*
G75*
G02*
X68000000Y-70600000I75000J0D01*
G01*
X69325000Y-70600000D01*
G75*
G02*
X69400000Y-70675000I0J-75000D01*
G01*
X69400000Y-70825000D01*
G75*
G02*
X69325000Y-70900000I-75000J0D01*
G01*
X68000000Y-70900000D01*
G75*
G02*
X67925000Y-70825000I0J75000D01*
G01*
G37*
G36*
G01*
X67925000Y-70325000D02*
X67925000Y-70175000D01*
G75*
G02*
X68000000Y-70100000I75000J0D01*
G01*
X69325000Y-70100000D01*
G75*
G02*
X69400000Y-70175000I0J-75000D01*
G01*
X69400000Y-70325000D01*
G75*
G02*
X69325000Y-70400000I-75000J0D01*
G01*
X68000000Y-70400000D01*
G75*
G02*
X67925000Y-70325000I0J75000D01*
G01*
G37*
G36*
G01*
X67925000Y-69825000D02*
X67925000Y-69675000D01*
G75*
G02*
X68000000Y-69600000I75000J0D01*
G01*
X69325000Y-69600000D01*
G75*
G02*
X69400000Y-69675000I0J-75000D01*
G01*
X69400000Y-69825000D01*
G75*
G02*
X69325000Y-69900000I-75000J0D01*
G01*
X68000000Y-69900000D01*
G75*
G02*
X67925000Y-69825000I0J75000D01*
G01*
G37*
G36*
G01*
X67925000Y-69325000D02*
X67925000Y-69175000D01*
G75*
G02*
X68000000Y-69100000I75000J0D01*
G01*
X69325000Y-69100000D01*
G75*
G02*
X69400000Y-69175000I0J-75000D01*
G01*
X69400000Y-69325000D01*
G75*
G02*
X69325000Y-69400000I-75000J0D01*
G01*
X68000000Y-69400000D01*
G75*
G02*
X67925000Y-69325000I0J75000D01*
G01*
G37*
G36*
G01*
X67925000Y-68825000D02*
X67925000Y-68675000D01*
G75*
G02*
X68000000Y-68600000I75000J0D01*
G01*
X69325000Y-68600000D01*
G75*
G02*
X69400000Y-68675000I0J-75000D01*
G01*
X69400000Y-68825000D01*
G75*
G02*
X69325000Y-68900000I-75000J0D01*
G01*
X68000000Y-68900000D01*
G75*
G02*
X67925000Y-68825000I0J75000D01*
G01*
G37*
G36*
G01*
X67925000Y-68325000D02*
X67925000Y-68175000D01*
G75*
G02*
X68000000Y-68100000I75000J0D01*
G01*
X69325000Y-68100000D01*
G75*
G02*
X69400000Y-68175000I0J-75000D01*
G01*
X69400000Y-68325000D01*
G75*
G02*
X69325000Y-68400000I-75000J0D01*
G01*
X68000000Y-68400000D01*
G75*
G02*
X67925000Y-68325000I0J75000D01*
G01*
G37*
G36*
G01*
X66600000Y-67000000D02*
X66600000Y-65675000D01*
G75*
G02*
X66675000Y-65600000I75000J0D01*
G01*
X66825000Y-65600000D01*
G75*
G02*
X66900000Y-65675000I0J-75000D01*
G01*
X66900000Y-67000000D01*
G75*
G02*
X66825000Y-67075000I-75000J0D01*
G01*
X66675000Y-67075000D01*
G75*
G02*
X66600000Y-67000000I0J75000D01*
G01*
G37*
G36*
G01*
X66100000Y-67000000D02*
X66100000Y-65675000D01*
G75*
G02*
X66175000Y-65600000I75000J0D01*
G01*
X66325000Y-65600000D01*
G75*
G02*
X66400000Y-65675000I0J-75000D01*
G01*
X66400000Y-67000000D01*
G75*
G02*
X66325000Y-67075000I-75000J0D01*
G01*
X66175000Y-67075000D01*
G75*
G02*
X66100000Y-67000000I0J75000D01*
G01*
G37*
G36*
G01*
X65600000Y-67000000D02*
X65600000Y-65675000D01*
G75*
G02*
X65675000Y-65600000I75000J0D01*
G01*
X65825000Y-65600000D01*
G75*
G02*
X65900000Y-65675000I0J-75000D01*
G01*
X65900000Y-67000000D01*
G75*
G02*
X65825000Y-67075000I-75000J0D01*
G01*
X65675000Y-67075000D01*
G75*
G02*
X65600000Y-67000000I0J75000D01*
G01*
G37*
G36*
G01*
X65100000Y-67000000D02*
X65100000Y-65675000D01*
G75*
G02*
X65175000Y-65600000I75000J0D01*
G01*
X65325000Y-65600000D01*
G75*
G02*
X65400000Y-65675000I0J-75000D01*
G01*
X65400000Y-67000000D01*
G75*
G02*
X65325000Y-67075000I-75000J0D01*
G01*
X65175000Y-67075000D01*
G75*
G02*
X65100000Y-67000000I0J75000D01*
G01*
G37*
G36*
G01*
X64600000Y-67000000D02*
X64600000Y-65675000D01*
G75*
G02*
X64675000Y-65600000I75000J0D01*
G01*
X64825000Y-65600000D01*
G75*
G02*
X64900000Y-65675000I0J-75000D01*
G01*
X64900000Y-67000000D01*
G75*
G02*
X64825000Y-67075000I-75000J0D01*
G01*
X64675000Y-67075000D01*
G75*
G02*
X64600000Y-67000000I0J75000D01*
G01*
G37*
G36*
G01*
X64100000Y-67000000D02*
X64100000Y-65675000D01*
G75*
G02*
X64175000Y-65600000I75000J0D01*
G01*
X64325000Y-65600000D01*
G75*
G02*
X64400000Y-65675000I0J-75000D01*
G01*
X64400000Y-67000000D01*
G75*
G02*
X64325000Y-67075000I-75000J0D01*
G01*
X64175000Y-67075000D01*
G75*
G02*
X64100000Y-67000000I0J75000D01*
G01*
G37*
G36*
G01*
X63600000Y-67000000D02*
X63600000Y-65675000D01*
G75*
G02*
X63675000Y-65600000I75000J0D01*
G01*
X63825000Y-65600000D01*
G75*
G02*
X63900000Y-65675000I0J-75000D01*
G01*
X63900000Y-67000000D01*
G75*
G02*
X63825000Y-67075000I-75000J0D01*
G01*
X63675000Y-67075000D01*
G75*
G02*
X63600000Y-67000000I0J75000D01*
G01*
G37*
G36*
G01*
X63100000Y-67000000D02*
X63100000Y-65675000D01*
G75*
G02*
X63175000Y-65600000I75000J0D01*
G01*
X63325000Y-65600000D01*
G75*
G02*
X63400000Y-65675000I0J-75000D01*
G01*
X63400000Y-67000000D01*
G75*
G02*
X63325000Y-67075000I-75000J0D01*
G01*
X63175000Y-67075000D01*
G75*
G02*
X63100000Y-67000000I0J75000D01*
G01*
G37*
G36*
G01*
X62600000Y-67000000D02*
X62600000Y-65675000D01*
G75*
G02*
X62675000Y-65600000I75000J0D01*
G01*
X62825000Y-65600000D01*
G75*
G02*
X62900000Y-65675000I0J-75000D01*
G01*
X62900000Y-67000000D01*
G75*
G02*
X62825000Y-67075000I-75000J0D01*
G01*
X62675000Y-67075000D01*
G75*
G02*
X62600000Y-67000000I0J75000D01*
G01*
G37*
G36*
G01*
X62100000Y-67000000D02*
X62100000Y-65675000D01*
G75*
G02*
X62175000Y-65600000I75000J0D01*
G01*
X62325000Y-65600000D01*
G75*
G02*
X62400000Y-65675000I0J-75000D01*
G01*
X62400000Y-67000000D01*
G75*
G02*
X62325000Y-67075000I-75000J0D01*
G01*
X62175000Y-67075000D01*
G75*
G02*
X62100000Y-67000000I0J75000D01*
G01*
G37*
G36*
G01*
X61600000Y-67000000D02*
X61600000Y-65675000D01*
G75*
G02*
X61675000Y-65600000I75000J0D01*
G01*
X61825000Y-65600000D01*
G75*
G02*
X61900000Y-65675000I0J-75000D01*
G01*
X61900000Y-67000000D01*
G75*
G02*
X61825000Y-67075000I-75000J0D01*
G01*
X61675000Y-67075000D01*
G75*
G02*
X61600000Y-67000000I0J75000D01*
G01*
G37*
G36*
G01*
X61100000Y-67000000D02*
X61100000Y-65675000D01*
G75*
G02*
X61175000Y-65600000I75000J0D01*
G01*
X61325000Y-65600000D01*
G75*
G02*
X61400000Y-65675000I0J-75000D01*
G01*
X61400000Y-67000000D01*
G75*
G02*
X61325000Y-67075000I-75000J0D01*
G01*
X61175000Y-67075000D01*
G75*
G02*
X61100000Y-67000000I0J75000D01*
G01*
G37*
G36*
G01*
X60600000Y-67000000D02*
X60600000Y-65675000D01*
G75*
G02*
X60675000Y-65600000I75000J0D01*
G01*
X60825000Y-65600000D01*
G75*
G02*
X60900000Y-65675000I0J-75000D01*
G01*
X60900000Y-67000000D01*
G75*
G02*
X60825000Y-67075000I-75000J0D01*
G01*
X60675000Y-67075000D01*
G75*
G02*
X60600000Y-67000000I0J75000D01*
G01*
G37*
G36*
G01*
X60100000Y-67000000D02*
X60100000Y-65675000D01*
G75*
G02*
X60175000Y-65600000I75000J0D01*
G01*
X60325000Y-65600000D01*
G75*
G02*
X60400000Y-65675000I0J-75000D01*
G01*
X60400000Y-67000000D01*
G75*
G02*
X60325000Y-67075000I-75000J0D01*
G01*
X60175000Y-67075000D01*
G75*
G02*
X60100000Y-67000000I0J75000D01*
G01*
G37*
G36*
G01*
X59600000Y-67000000D02*
X59600000Y-65675000D01*
G75*
G02*
X59675000Y-65600000I75000J0D01*
G01*
X59825000Y-65600000D01*
G75*
G02*
X59900000Y-65675000I0J-75000D01*
G01*
X59900000Y-67000000D01*
G75*
G02*
X59825000Y-67075000I-75000J0D01*
G01*
X59675000Y-67075000D01*
G75*
G02*
X59600000Y-67000000I0J75000D01*
G01*
G37*
G36*
G01*
X59100000Y-67000000D02*
X59100000Y-65675000D01*
G75*
G02*
X59175000Y-65600000I75000J0D01*
G01*
X59325000Y-65600000D01*
G75*
G02*
X59400000Y-65675000I0J-75000D01*
G01*
X59400000Y-67000000D01*
G75*
G02*
X59325000Y-67075000I-75000J0D01*
G01*
X59175000Y-67075000D01*
G75*
G02*
X59100000Y-67000000I0J75000D01*
G01*
G37*
G36*
G01*
X58600000Y-67000000D02*
X58600000Y-65675000D01*
G75*
G02*
X58675000Y-65600000I75000J0D01*
G01*
X58825000Y-65600000D01*
G75*
G02*
X58900000Y-65675000I0J-75000D01*
G01*
X58900000Y-67000000D01*
G75*
G02*
X58825000Y-67075000I-75000J0D01*
G01*
X58675000Y-67075000D01*
G75*
G02*
X58600000Y-67000000I0J75000D01*
G01*
G37*
G36*
G01*
X58100000Y-67000000D02*
X58100000Y-65675000D01*
G75*
G02*
X58175000Y-65600000I75000J0D01*
G01*
X58325000Y-65600000D01*
G75*
G02*
X58400000Y-65675000I0J-75000D01*
G01*
X58400000Y-67000000D01*
G75*
G02*
X58325000Y-67075000I-75000J0D01*
G01*
X58175000Y-67075000D01*
G75*
G02*
X58100000Y-67000000I0J75000D01*
G01*
G37*
G36*
G01*
X57600000Y-67000000D02*
X57600000Y-65675000D01*
G75*
G02*
X57675000Y-65600000I75000J0D01*
G01*
X57825000Y-65600000D01*
G75*
G02*
X57900000Y-65675000I0J-75000D01*
G01*
X57900000Y-67000000D01*
G75*
G02*
X57825000Y-67075000I-75000J0D01*
G01*
X57675000Y-67075000D01*
G75*
G02*
X57600000Y-67000000I0J75000D01*
G01*
G37*
G36*
G01*
X57100000Y-67000000D02*
X57100000Y-65675000D01*
G75*
G02*
X57175000Y-65600000I75000J0D01*
G01*
X57325000Y-65600000D01*
G75*
G02*
X57400000Y-65675000I0J-75000D01*
G01*
X57400000Y-67000000D01*
G75*
G02*
X57325000Y-67075000I-75000J0D01*
G01*
X57175000Y-67075000D01*
G75*
G02*
X57100000Y-67000000I0J75000D01*
G01*
G37*
G36*
G01*
X56600000Y-67000000D02*
X56600000Y-65675000D01*
G75*
G02*
X56675000Y-65600000I75000J0D01*
G01*
X56825000Y-65600000D01*
G75*
G02*
X56900000Y-65675000I0J-75000D01*
G01*
X56900000Y-67000000D01*
G75*
G02*
X56825000Y-67075000I-75000J0D01*
G01*
X56675000Y-67075000D01*
G75*
G02*
X56600000Y-67000000I0J75000D01*
G01*
G37*
G36*
G01*
X56100000Y-67000000D02*
X56100000Y-65675000D01*
G75*
G02*
X56175000Y-65600000I75000J0D01*
G01*
X56325000Y-65600000D01*
G75*
G02*
X56400000Y-65675000I0J-75000D01*
G01*
X56400000Y-67000000D01*
G75*
G02*
X56325000Y-67075000I-75000J0D01*
G01*
X56175000Y-67075000D01*
G75*
G02*
X56100000Y-67000000I0J75000D01*
G01*
G37*
G36*
G01*
X55600000Y-67000000D02*
X55600000Y-65675000D01*
G75*
G02*
X55675000Y-65600000I75000J0D01*
G01*
X55825000Y-65600000D01*
G75*
G02*
X55900000Y-65675000I0J-75000D01*
G01*
X55900000Y-67000000D01*
G75*
G02*
X55825000Y-67075000I-75000J0D01*
G01*
X55675000Y-67075000D01*
G75*
G02*
X55600000Y-67000000I0J75000D01*
G01*
G37*
G36*
G01*
X55100000Y-67000000D02*
X55100000Y-65675000D01*
G75*
G02*
X55175000Y-65600000I75000J0D01*
G01*
X55325000Y-65600000D01*
G75*
G02*
X55400000Y-65675000I0J-75000D01*
G01*
X55400000Y-67000000D01*
G75*
G02*
X55325000Y-67075000I-75000J0D01*
G01*
X55175000Y-67075000D01*
G75*
G02*
X55100000Y-67000000I0J75000D01*
G01*
G37*
G36*
G01*
X54600000Y-67000000D02*
X54600000Y-65675000D01*
G75*
G02*
X54675000Y-65600000I75000J0D01*
G01*
X54825000Y-65600000D01*
G75*
G02*
X54900000Y-65675000I0J-75000D01*
G01*
X54900000Y-67000000D01*
G75*
G02*
X54825000Y-67075000I-75000J0D01*
G01*
X54675000Y-67075000D01*
G75*
G02*
X54600000Y-67000000I0J75000D01*
G01*
G37*
G36*
G01*
X54100000Y-67000000D02*
X54100000Y-65675000D01*
G75*
G02*
X54175000Y-65600000I75000J0D01*
G01*
X54325000Y-65600000D01*
G75*
G02*
X54400000Y-65675000I0J-75000D01*
G01*
X54400000Y-67000000D01*
G75*
G02*
X54325000Y-67075000I-75000J0D01*
G01*
X54175000Y-67075000D01*
G75*
G02*
X54100000Y-67000000I0J75000D01*
G01*
G37*
G36*
G01*
X53600000Y-67000000D02*
X53600000Y-65675000D01*
G75*
G02*
X53675000Y-65600000I75000J0D01*
G01*
X53825000Y-65600000D01*
G75*
G02*
X53900000Y-65675000I0J-75000D01*
G01*
X53900000Y-67000000D01*
G75*
G02*
X53825000Y-67075000I-75000J0D01*
G01*
X53675000Y-67075000D01*
G75*
G02*
X53600000Y-67000000I0J75000D01*
G01*
G37*
G36*
G01*
X53100000Y-67000000D02*
X53100000Y-65675000D01*
G75*
G02*
X53175000Y-65600000I75000J0D01*
G01*
X53325000Y-65600000D01*
G75*
G02*
X53400000Y-65675000I0J-75000D01*
G01*
X53400000Y-67000000D01*
G75*
G02*
X53325000Y-67075000I-75000J0D01*
G01*
X53175000Y-67075000D01*
G75*
G02*
X53100000Y-67000000I0J75000D01*
G01*
G37*
G36*
G01*
X52600000Y-67000000D02*
X52600000Y-65675000D01*
G75*
G02*
X52675000Y-65600000I75000J0D01*
G01*
X52825000Y-65600000D01*
G75*
G02*
X52900000Y-65675000I0J-75000D01*
G01*
X52900000Y-67000000D01*
G75*
G02*
X52825000Y-67075000I-75000J0D01*
G01*
X52675000Y-67075000D01*
G75*
G02*
X52600000Y-67000000I0J75000D01*
G01*
G37*
G36*
G01*
X52100000Y-67000000D02*
X52100000Y-65675000D01*
G75*
G02*
X52175000Y-65600000I75000J0D01*
G01*
X52325000Y-65600000D01*
G75*
G02*
X52400000Y-65675000I0J-75000D01*
G01*
X52400000Y-67000000D01*
G75*
G02*
X52325000Y-67075000I-75000J0D01*
G01*
X52175000Y-67075000D01*
G75*
G02*
X52100000Y-67000000I0J75000D01*
G01*
G37*
G36*
G01*
X51600000Y-67000000D02*
X51600000Y-65675000D01*
G75*
G02*
X51675000Y-65600000I75000J0D01*
G01*
X51825000Y-65600000D01*
G75*
G02*
X51900000Y-65675000I0J-75000D01*
G01*
X51900000Y-67000000D01*
G75*
G02*
X51825000Y-67075000I-75000J0D01*
G01*
X51675000Y-67075000D01*
G75*
G02*
X51600000Y-67000000I0J75000D01*
G01*
G37*
G36*
G01*
X51100000Y-67000000D02*
X51100000Y-65675000D01*
G75*
G02*
X51175000Y-65600000I75000J0D01*
G01*
X51325000Y-65600000D01*
G75*
G02*
X51400000Y-65675000I0J-75000D01*
G01*
X51400000Y-67000000D01*
G75*
G02*
X51325000Y-67075000I-75000J0D01*
G01*
X51175000Y-67075000D01*
G75*
G02*
X51100000Y-67000000I0J75000D01*
G01*
G37*
G36*
G01*
X50600000Y-67000000D02*
X50600000Y-65675000D01*
G75*
G02*
X50675000Y-65600000I75000J0D01*
G01*
X50825000Y-65600000D01*
G75*
G02*
X50900000Y-65675000I0J-75000D01*
G01*
X50900000Y-67000000D01*
G75*
G02*
X50825000Y-67075000I-75000J0D01*
G01*
X50675000Y-67075000D01*
G75*
G02*
X50600000Y-67000000I0J75000D01*
G01*
G37*
G36*
G01*
X50100000Y-67000000D02*
X50100000Y-65675000D01*
G75*
G02*
X50175000Y-65600000I75000J0D01*
G01*
X50325000Y-65600000D01*
G75*
G02*
X50400000Y-65675000I0J-75000D01*
G01*
X50400000Y-67000000D01*
G75*
G02*
X50325000Y-67075000I-75000J0D01*
G01*
X50175000Y-67075000D01*
G75*
G02*
X50100000Y-67000000I0J75000D01*
G01*
G37*
G36*
G01*
X49600000Y-67000000D02*
X49600000Y-65675000D01*
G75*
G02*
X49675000Y-65600000I75000J0D01*
G01*
X49825000Y-65600000D01*
G75*
G02*
X49900000Y-65675000I0J-75000D01*
G01*
X49900000Y-67000000D01*
G75*
G02*
X49825000Y-67075000I-75000J0D01*
G01*
X49675000Y-67075000D01*
G75*
G02*
X49600000Y-67000000I0J75000D01*
G01*
G37*
G36*
G01*
X49100000Y-67000000D02*
X49100000Y-65675000D01*
G75*
G02*
X49175000Y-65600000I75000J0D01*
G01*
X49325000Y-65600000D01*
G75*
G02*
X49400000Y-65675000I0J-75000D01*
G01*
X49400000Y-67000000D01*
G75*
G02*
X49325000Y-67075000I-75000J0D01*
G01*
X49175000Y-67075000D01*
G75*
G02*
X49100000Y-67000000I0J75000D01*
G01*
G37*
D14*
X41250000Y-77400000D03*
X41250000Y-81100000D03*
G36*
G01*
X40950000Y-73006250D02*
X40950000Y-72493750D01*
G75*
G02*
X41168750Y-72275000I218750J0D01*
G01*
X41606250Y-72275000D01*
G75*
G02*
X41825000Y-72493750I0J-218750D01*
G01*
X41825000Y-73006250D01*
G75*
G02*
X41606250Y-73225000I-218750J0D01*
G01*
X41168750Y-73225000D01*
G75*
G02*
X40950000Y-73006250I0J218750D01*
G01*
G37*
G36*
G01*
X39375000Y-73006250D02*
X39375000Y-72493750D01*
G75*
G02*
X39593750Y-72275000I218750J0D01*
G01*
X40031250Y-72275000D01*
G75*
G02*
X40250000Y-72493750I0J-218750D01*
G01*
X40250000Y-73006250D01*
G75*
G02*
X40031250Y-73225000I-218750J0D01*
G01*
X39593750Y-73225000D01*
G75*
G02*
X39375000Y-73006250I0J218750D01*
G01*
G37*
G36*
G01*
X94656250Y-37225000D02*
X94143750Y-37225000D01*
G75*
G02*
X93925000Y-37006250I0J218750D01*
G01*
X93925000Y-36568750D01*
G75*
G02*
X94143750Y-36350000I218750J0D01*
G01*
X94656250Y-36350000D01*
G75*
G02*
X94875000Y-36568750I0J-218750D01*
G01*
X94875000Y-37006250D01*
G75*
G02*
X94656250Y-37225000I-218750J0D01*
G01*
G37*
G36*
G01*
X94656250Y-35650000D02*
X94143750Y-35650000D01*
G75*
G02*
X93925000Y-35431250I0J218750D01*
G01*
X93925000Y-34993750D01*
G75*
G02*
X94143750Y-34775000I218750J0D01*
G01*
X94656250Y-34775000D01*
G75*
G02*
X94875000Y-34993750I0J-218750D01*
G01*
X94875000Y-35431250D01*
G75*
G02*
X94656250Y-35650000I-218750J0D01*
G01*
G37*
G36*
G01*
X36487500Y-72493750D02*
X36487500Y-73006250D01*
G75*
G02*
X36268750Y-73225000I-218750J0D01*
G01*
X35831250Y-73225000D01*
G75*
G02*
X35612500Y-73006250I0J218750D01*
G01*
X35612500Y-72493750D01*
G75*
G02*
X35831250Y-72275000I218750J0D01*
G01*
X36268750Y-72275000D01*
G75*
G02*
X36487500Y-72493750I0J-218750D01*
G01*
G37*
G36*
G01*
X38062500Y-72493750D02*
X38062500Y-73006250D01*
G75*
G02*
X37843750Y-73225000I-218750J0D01*
G01*
X37406250Y-73225000D01*
G75*
G02*
X37187500Y-73006250I0J218750D01*
G01*
X37187500Y-72493750D01*
G75*
G02*
X37406250Y-72275000I218750J0D01*
G01*
X37843750Y-72275000D01*
G75*
G02*
X38062500Y-72493750I0J-218750D01*
G01*
G37*
G36*
G01*
X94656250Y-41062500D02*
X94143750Y-41062500D01*
G75*
G02*
X93925000Y-40843750I0J218750D01*
G01*
X93925000Y-40406250D01*
G75*
G02*
X94143750Y-40187500I218750J0D01*
G01*
X94656250Y-40187500D01*
G75*
G02*
X94875000Y-40406250I0J-218750D01*
G01*
X94875000Y-40843750D01*
G75*
G02*
X94656250Y-41062500I-218750J0D01*
G01*
G37*
G36*
G01*
X94656250Y-39487500D02*
X94143750Y-39487500D01*
G75*
G02*
X93925000Y-39268750I0J218750D01*
G01*
X93925000Y-38831250D01*
G75*
G02*
X94143750Y-38612500I218750J0D01*
G01*
X94656250Y-38612500D01*
G75*
G02*
X94875000Y-38831250I0J-218750D01*
G01*
X94875000Y-39268750D01*
G75*
G02*
X94656250Y-39487500I-218750J0D01*
G01*
G37*
M02*
