G04 #@! TF.GenerationSoftware,KiCad,Pcbnew,(5.1.6)-1*
G04 #@! TF.CreationDate,2020-07-01T23:55:18-04:00*
G04 #@! TF.ProjectId,T-ShirtPress,542d5368-6972-4745-9072-6573732e6b69,rev?*
G04 #@! TF.SameCoordinates,Original*
G04 #@! TF.FileFunction,Legend,Top*
G04 #@! TF.FilePolarity,Positive*
%FSLAX46Y46*%
G04 Gerber Fmt 4.6, Leading zero omitted, Abs format (unit mm)*
G04 Created by KiCad (PCBNEW (5.1.6)-1) date 2020-07-01 23:55:18*
%MOMM*%
%LPD*%
G01*
G04 APERTURE LIST*
%ADD10C,0.150000*%
%ADD11C,0.120000*%
G04 APERTURE END LIST*
D10*
X75000000Y-128571428D02*
X75142857Y-128714285D01*
X75000000Y-128857142D01*
X74857142Y-128714285D01*
X75000000Y-128571428D01*
X75000000Y-128857142D01*
X93214285Y-64321428D02*
X93976190Y-64321428D01*
X93595238Y-64702380D02*
X93595238Y-63940476D01*
X94928571Y-63702380D02*
X94452380Y-63702380D01*
X94404761Y-64178571D01*
X94452380Y-64130952D01*
X94547619Y-64083333D01*
X94785714Y-64083333D01*
X94880952Y-64130952D01*
X94928571Y-64178571D01*
X94976190Y-64273809D01*
X94976190Y-64511904D01*
X94928571Y-64607142D01*
X94880952Y-64654761D01*
X94785714Y-64702380D01*
X94547619Y-64702380D01*
X94452380Y-64654761D01*
X94404761Y-64607142D01*
X95261904Y-63702380D02*
X95595238Y-64702380D01*
X95928571Y-63702380D01*
X53761904Y-38202380D02*
X53761904Y-37202380D01*
X54000000Y-37202380D01*
X54142857Y-37250000D01*
X54238095Y-37345238D01*
X54285714Y-37440476D01*
X54333333Y-37630952D01*
X54333333Y-37773809D01*
X54285714Y-37964285D01*
X54238095Y-38059523D01*
X54142857Y-38154761D01*
X54000000Y-38202380D01*
X53761904Y-38202380D01*
X54761904Y-38202380D02*
X54761904Y-37202380D01*
X55190476Y-38154761D02*
X55333333Y-38202380D01*
X55571428Y-38202380D01*
X55666666Y-38154761D01*
X55714285Y-38107142D01*
X55761904Y-38011904D01*
X55761904Y-37916666D01*
X55714285Y-37821428D01*
X55666666Y-37773809D01*
X55571428Y-37726190D01*
X55380952Y-37678571D01*
X55285714Y-37630952D01*
X55238095Y-37583333D01*
X55190476Y-37488095D01*
X55190476Y-37392857D01*
X55238095Y-37297619D01*
X55285714Y-37250000D01*
X55380952Y-37202380D01*
X55619047Y-37202380D01*
X55761904Y-37250000D01*
X56190476Y-38202380D02*
X56190476Y-37202380D01*
X56571428Y-37202380D01*
X56666666Y-37250000D01*
X56714285Y-37297619D01*
X56761904Y-37392857D01*
X56761904Y-37535714D01*
X56714285Y-37630952D01*
X56666666Y-37678571D01*
X56571428Y-37726190D01*
X56190476Y-37726190D01*
X57666666Y-38202380D02*
X57190476Y-38202380D01*
X57190476Y-37202380D01*
X57952380Y-37916666D02*
X58428571Y-37916666D01*
X57857142Y-38202380D02*
X58190476Y-37202380D01*
X58523809Y-38202380D01*
X59047619Y-37726190D02*
X59047619Y-38202380D01*
X58714285Y-37202380D02*
X59047619Y-37726190D01*
X59380952Y-37202380D01*
X43702380Y-129107142D02*
X43702380Y-128535714D01*
X44702380Y-128821428D02*
X43702380Y-128821428D01*
X44607142Y-128202380D02*
X44654761Y-128154761D01*
X44702380Y-128202380D01*
X44654761Y-128250000D01*
X44607142Y-128202380D01*
X44702380Y-128202380D01*
X44654761Y-127011904D02*
X44702380Y-126869047D01*
X44702380Y-126630952D01*
X44654761Y-126535714D01*
X44607142Y-126488095D01*
X44511904Y-126440476D01*
X44416666Y-126440476D01*
X44321428Y-126488095D01*
X44273809Y-126535714D01*
X44226190Y-126630952D01*
X44178571Y-126821428D01*
X44130952Y-126916666D01*
X44083333Y-126964285D01*
X43988095Y-127011904D01*
X43892857Y-127011904D01*
X43797619Y-126964285D01*
X43750000Y-126916666D01*
X43702380Y-126821428D01*
X43702380Y-126583333D01*
X43750000Y-126440476D01*
X44178571Y-126011904D02*
X44178571Y-125678571D01*
X44702380Y-125535714D02*
X44702380Y-126011904D01*
X43702380Y-126011904D01*
X43702380Y-125535714D01*
X44702380Y-125107142D02*
X43702380Y-125107142D01*
X44702380Y-124535714D01*
X43702380Y-124535714D01*
X44654761Y-124107142D02*
X44702380Y-123964285D01*
X44702380Y-123726190D01*
X44654761Y-123630952D01*
X44607142Y-123583333D01*
X44511904Y-123535714D01*
X44416666Y-123535714D01*
X44321428Y-123583333D01*
X44273809Y-123630952D01*
X44226190Y-123726190D01*
X44178571Y-123916666D01*
X44130952Y-124011904D01*
X44083333Y-124059523D01*
X43988095Y-124107142D01*
X43892857Y-124107142D01*
X43797619Y-124059523D01*
X43750000Y-124011904D01*
X43702380Y-123916666D01*
X43702380Y-123678571D01*
X43750000Y-123535714D01*
X43702380Y-122916666D02*
X43702380Y-122726190D01*
X43750000Y-122630952D01*
X43845238Y-122535714D01*
X44035714Y-122488095D01*
X44369047Y-122488095D01*
X44559523Y-122535714D01*
X44654761Y-122630952D01*
X44702380Y-122726190D01*
X44702380Y-122916666D01*
X44654761Y-123011904D01*
X44559523Y-123107142D01*
X44369047Y-123154761D01*
X44035714Y-123154761D01*
X43845238Y-123107142D01*
X43750000Y-123011904D01*
X43702380Y-122916666D01*
X44702380Y-121488095D02*
X44226190Y-121821428D01*
X44702380Y-122059523D02*
X43702380Y-122059523D01*
X43702380Y-121678571D01*
X43750000Y-121583333D01*
X43797619Y-121535714D01*
X43892857Y-121488095D01*
X44035714Y-121488095D01*
X44130952Y-121535714D01*
X44178571Y-121583333D01*
X44226190Y-121678571D01*
X44226190Y-122059523D01*
X56761904Y-121928571D02*
X56904761Y-121976190D01*
X56952380Y-122023809D01*
X57000000Y-122119047D01*
X57000000Y-122261904D01*
X56952380Y-122357142D01*
X56904761Y-122404761D01*
X56809523Y-122452380D01*
X56428571Y-122452380D01*
X56428571Y-121452380D01*
X56761904Y-121452380D01*
X56857142Y-121500000D01*
X56904761Y-121547619D01*
X56952380Y-121642857D01*
X56952380Y-121738095D01*
X56904761Y-121833333D01*
X56857142Y-121880952D01*
X56761904Y-121928571D01*
X56428571Y-121928571D01*
X57428571Y-121452380D02*
X57428571Y-122261904D01*
X57476190Y-122357142D01*
X57523809Y-122404761D01*
X57619047Y-122452380D01*
X57809523Y-122452380D01*
X57904761Y-122404761D01*
X57952380Y-122357142D01*
X58000000Y-122261904D01*
X58000000Y-121452380D01*
X58333333Y-121452380D02*
X58904761Y-121452380D01*
X58619047Y-122452380D02*
X58619047Y-121452380D01*
X59095238Y-121452380D02*
X59666666Y-121452380D01*
X59380952Y-122452380D02*
X59380952Y-121452380D01*
X60190476Y-121452380D02*
X60380952Y-121452380D01*
X60476190Y-121500000D01*
X60571428Y-121595238D01*
X60619047Y-121785714D01*
X60619047Y-122119047D01*
X60571428Y-122309523D01*
X60476190Y-122404761D01*
X60380952Y-122452380D01*
X60190476Y-122452380D01*
X60095238Y-122404761D01*
X60000000Y-122309523D01*
X59952380Y-122119047D01*
X59952380Y-121785714D01*
X60000000Y-121595238D01*
X60095238Y-121500000D01*
X60190476Y-121452380D01*
X61047619Y-122452380D02*
X61047619Y-121452380D01*
X61619047Y-122452380D01*
X61619047Y-121452380D01*
X62047619Y-122404761D02*
X62190476Y-122452380D01*
X62428571Y-122452380D01*
X62523809Y-122404761D01*
X62571428Y-122357142D01*
X62619047Y-122261904D01*
X62619047Y-122166666D01*
X62571428Y-122071428D01*
X62523809Y-122023809D01*
X62428571Y-121976190D01*
X62238095Y-121928571D01*
X62142857Y-121880952D01*
X62095238Y-121833333D01*
X62047619Y-121738095D01*
X62047619Y-121642857D01*
X62095238Y-121547619D01*
X62142857Y-121500000D01*
X62238095Y-121452380D01*
X62476190Y-121452380D01*
X62619047Y-121500000D01*
X65369047Y-123702380D02*
X65369047Y-122702380D01*
X65750000Y-122702380D01*
X65845238Y-122750000D01*
X65892857Y-122797619D01*
X65940476Y-122892857D01*
X65940476Y-123035714D01*
X65892857Y-123130952D01*
X65845238Y-123178571D01*
X65750000Y-123226190D01*
X65369047Y-123226190D01*
X66273809Y-122702380D02*
X66511904Y-123702380D01*
X66702380Y-122988095D01*
X66892857Y-123702380D01*
X67130952Y-122702380D01*
X67511904Y-123702380D02*
X67511904Y-122702380D01*
X67845238Y-123416666D01*
X68178571Y-122702380D01*
X68178571Y-123702380D01*
X69369047Y-122654761D02*
X68511904Y-123940476D01*
X69654761Y-123654761D02*
X69797619Y-123702380D01*
X70035714Y-123702380D01*
X70130952Y-123654761D01*
X70178571Y-123607142D01*
X70226190Y-123511904D01*
X70226190Y-123416666D01*
X70178571Y-123321428D01*
X70130952Y-123273809D01*
X70035714Y-123226190D01*
X69845238Y-123178571D01*
X69750000Y-123130952D01*
X69702380Y-123083333D01*
X69654761Y-122988095D01*
X69654761Y-122892857D01*
X69702380Y-122797619D01*
X69750000Y-122750000D01*
X69845238Y-122702380D01*
X70083333Y-122702380D01*
X70226190Y-122750000D01*
X70607142Y-123654761D02*
X70750000Y-123702380D01*
X70988095Y-123702380D01*
X71083333Y-123654761D01*
X71130952Y-123607142D01*
X71178571Y-123511904D01*
X71178571Y-123416666D01*
X71130952Y-123321428D01*
X71083333Y-123273809D01*
X70988095Y-123226190D01*
X70797619Y-123178571D01*
X70702380Y-123130952D01*
X70654761Y-123083333D01*
X70607142Y-122988095D01*
X70607142Y-122892857D01*
X70654761Y-122797619D01*
X70702380Y-122750000D01*
X70797619Y-122702380D01*
X71035714Y-122702380D01*
X71178571Y-122750000D01*
X72178571Y-123702380D02*
X71845238Y-123226190D01*
X71607142Y-123702380D02*
X71607142Y-122702380D01*
X71988095Y-122702380D01*
X72083333Y-122750000D01*
X72130952Y-122797619D01*
X72178571Y-122892857D01*
X72178571Y-123035714D01*
X72130952Y-123130952D01*
X72083333Y-123178571D01*
X71988095Y-123226190D01*
X71607142Y-123226190D01*
X76392857Y-119904761D02*
X76535714Y-119952380D01*
X76773809Y-119952380D01*
X76869047Y-119904761D01*
X76916666Y-119857142D01*
X76964285Y-119761904D01*
X76964285Y-119666666D01*
X76916666Y-119571428D01*
X76869047Y-119523809D01*
X76773809Y-119476190D01*
X76583333Y-119428571D01*
X76488095Y-119380952D01*
X76440476Y-119333333D01*
X76392857Y-119238095D01*
X76392857Y-119142857D01*
X76440476Y-119047619D01*
X76488095Y-119000000D01*
X76583333Y-118952380D01*
X76821428Y-118952380D01*
X76964285Y-119000000D01*
X77297619Y-118952380D02*
X77535714Y-119952380D01*
X77726190Y-119238095D01*
X77916666Y-119952380D01*
X78154761Y-118952380D01*
X78535714Y-119952380D02*
X78535714Y-118952380D01*
X78773809Y-118952380D01*
X78916666Y-119000000D01*
X79011904Y-119095238D01*
X79059523Y-119190476D01*
X79107142Y-119380952D01*
X79107142Y-119523809D01*
X79059523Y-119714285D01*
X79011904Y-119809523D01*
X78916666Y-119904761D01*
X78773809Y-119952380D01*
X78535714Y-119952380D01*
D11*
X84458578Y-40910000D02*
X83941422Y-40910000D01*
X84458578Y-39490000D02*
X83941422Y-39490000D01*
X82510000Y-34358578D02*
X82510000Y-33841422D01*
X81090000Y-34358578D02*
X81090000Y-33841422D01*
X50210000Y-63762779D02*
X50210000Y-63437221D01*
X49190000Y-63762779D02*
X49190000Y-63437221D01*
X65790000Y-90237221D02*
X65790000Y-90562779D01*
X66810000Y-90237221D02*
X66810000Y-90562779D01*
X71637221Y-68690000D02*
X71962779Y-68690000D01*
X71637221Y-69710000D02*
X71962779Y-69710000D01*
X92650000Y-50050000D02*
X92650000Y-53950000D01*
X90650000Y-50050000D02*
X90650000Y-53950000D01*
X92650000Y-50050000D02*
X90650000Y-50050000D01*
X92560000Y-47202064D02*
X92560000Y-45997936D01*
X90740000Y-47202064D02*
X90740000Y-45997936D01*
X88191422Y-42390000D02*
X88708578Y-42390000D01*
X88191422Y-43810000D02*
X88708578Y-43810000D01*
X40258578Y-83690000D02*
X39741422Y-83690000D01*
X40258578Y-85110000D02*
X39741422Y-85110000D01*
X80920000Y-122985000D02*
X80985000Y-122985000D01*
X80920000Y-126515000D02*
X80985000Y-126515000D01*
X74515000Y-122985000D02*
X74580000Y-122985000D01*
X74515000Y-126515000D02*
X74580000Y-126515000D01*
X74580000Y-127840000D02*
X74580000Y-126515000D01*
X80985000Y-126515000D02*
X80985000Y-122985000D01*
X74515000Y-126515000D02*
X74515000Y-122985000D01*
X53410000Y-128710000D02*
X53410000Y-124690000D01*
X53410000Y-124690000D02*
X45690000Y-124690000D01*
X45690000Y-124690000D02*
X45690000Y-128710000D01*
X45690000Y-128710000D02*
X53410000Y-128710000D01*
X53410000Y-127000000D02*
X52910000Y-127000000D01*
X52910000Y-127000000D02*
X52910000Y-128210000D01*
X52910000Y-128210000D02*
X46190000Y-128210000D01*
X46190000Y-128210000D02*
X46190000Y-127000000D01*
X46190000Y-127000000D02*
X45690000Y-127000000D01*
X53410000Y-126190000D02*
X52410000Y-126190000D01*
X52410000Y-126190000D02*
X52410000Y-124690000D01*
X45690000Y-126190000D02*
X46690000Y-126190000D01*
X46690000Y-126190000D02*
X46690000Y-124690000D01*
X53710000Y-126890000D02*
X53710000Y-124390000D01*
X53710000Y-124390000D02*
X51210000Y-124390000D01*
X72910000Y-124390000D02*
X70410000Y-124390000D01*
X72910000Y-126890000D02*
X72910000Y-124390000D01*
X65890000Y-126190000D02*
X65890000Y-124690000D01*
X64890000Y-126190000D02*
X65890000Y-126190000D01*
X71610000Y-126190000D02*
X71610000Y-124690000D01*
X72610000Y-126190000D02*
X71610000Y-126190000D01*
X65390000Y-127000000D02*
X64890000Y-127000000D01*
X65390000Y-128210000D02*
X65390000Y-127000000D01*
X72110000Y-128210000D02*
X65390000Y-128210000D01*
X72110000Y-127000000D02*
X72110000Y-128210000D01*
X72610000Y-127000000D02*
X72110000Y-127000000D01*
X64890000Y-128710000D02*
X72610000Y-128710000D01*
X64890000Y-124690000D02*
X64890000Y-128710000D01*
X72610000Y-124690000D02*
X64890000Y-124690000D01*
X72610000Y-128710000D02*
X72610000Y-124690000D01*
X80700000Y-103700000D02*
X106300000Y-103700000D01*
X106300000Y-103700000D02*
X106300000Y-57800000D01*
X80700000Y-103700000D02*
X80700000Y-57800000D01*
X80700000Y-57800000D02*
X106300000Y-57800000D01*
X91000000Y-104000000D02*
X93000000Y-104000000D01*
X47658578Y-121490000D02*
X47141422Y-121490000D01*
X47658578Y-122910000D02*
X47141422Y-122910000D01*
X44510000Y-80837221D02*
X44510000Y-81162779D01*
X43490000Y-80837221D02*
X43490000Y-81162779D01*
X70580000Y-38120000D02*
X70580000Y-41960000D01*
X72420000Y-38120000D02*
X72420000Y-41960000D01*
X70590000Y-46997936D02*
X70590000Y-48202064D01*
X72410000Y-46997936D02*
X72410000Y-48202064D01*
X84150000Y-31840000D02*
X90160000Y-31840000D01*
X86400000Y-38660000D02*
X90160000Y-38660000D01*
X90160000Y-31840000D02*
X90160000Y-33100000D01*
X90160000Y-38660000D02*
X90160000Y-37400000D01*
X47890000Y-67840000D02*
X46600000Y-67840000D01*
X47890000Y-66890000D02*
X47890000Y-67840000D01*
X48840000Y-66890000D02*
X47890000Y-66890000D01*
X68110000Y-66890000D02*
X68110000Y-67840000D01*
X67160000Y-66890000D02*
X68110000Y-66890000D01*
X47890000Y-87110000D02*
X47890000Y-86160000D01*
X48840000Y-87110000D02*
X47890000Y-87110000D01*
X68110000Y-87110000D02*
X68110000Y-86160000D01*
X67160000Y-87110000D02*
X68110000Y-87110000D01*
X39450000Y-76200000D02*
X39450000Y-81950000D01*
X43050000Y-76200000D02*
X39450000Y-76200000D01*
X43050000Y-81950000D02*
X43050000Y-76200000D01*
X47670000Y-36330000D02*
X47670000Y-35000000D01*
X49000000Y-36330000D02*
X47670000Y-36330000D01*
X47670000Y-33730000D02*
X47670000Y-31130000D01*
X50270000Y-33730000D02*
X47670000Y-33730000D01*
X50270000Y-36330000D02*
X50270000Y-33730000D01*
X47670000Y-31130000D02*
X65570000Y-31130000D01*
X50270000Y-36330000D02*
X65570000Y-36330000D01*
X65570000Y-36330000D02*
X65570000Y-31130000D01*
X63270000Y-128630000D02*
X63270000Y-123430000D01*
X58130000Y-128630000D02*
X63270000Y-128630000D01*
X55530000Y-123430000D02*
X63270000Y-123430000D01*
X58130000Y-128630000D02*
X58130000Y-126030000D01*
X58130000Y-126030000D02*
X55530000Y-126030000D01*
X55530000Y-126030000D02*
X55530000Y-123430000D01*
X56860000Y-128630000D02*
X55530000Y-128630000D01*
X55530000Y-128630000D02*
X55530000Y-127300000D01*
X39115000Y-73485000D02*
X41400000Y-73485000D01*
X39115000Y-72015000D02*
X39115000Y-73485000D01*
X41400000Y-72015000D02*
X39115000Y-72015000D01*
X93665000Y-35200000D02*
X93665000Y-37485000D01*
X93665000Y-37485000D02*
X95135000Y-37485000D01*
X95135000Y-37485000D02*
X95135000Y-35200000D01*
X37000279Y-72240000D02*
X36674721Y-72240000D01*
X37000279Y-73260000D02*
X36674721Y-73260000D01*
X93890000Y-40000279D02*
X93890000Y-39674721D01*
X94910000Y-40000279D02*
X94910000Y-39674721D01*
D10*
X79952380Y-82333333D02*
X78952380Y-82333333D01*
X78952380Y-81952380D01*
X79000000Y-81857142D01*
X79047619Y-81809523D01*
X79142857Y-81761904D01*
X79285714Y-81761904D01*
X79380952Y-81809523D01*
X79428571Y-81857142D01*
X79476190Y-81952380D01*
X79476190Y-82333333D01*
X79952380Y-81190476D02*
X79904761Y-81285714D01*
X79857142Y-81333333D01*
X79761904Y-81380952D01*
X79476190Y-81380952D01*
X79380952Y-81333333D01*
X79333333Y-81285714D01*
X79285714Y-81190476D01*
X79285714Y-81047619D01*
X79333333Y-80952380D01*
X79380952Y-80904761D01*
X79476190Y-80857142D01*
X79761904Y-80857142D01*
X79857142Y-80904761D01*
X79904761Y-80952380D01*
X79952380Y-81047619D01*
X79952380Y-81190476D01*
X79285714Y-80523809D02*
X79952380Y-80333333D01*
X79476190Y-80142857D01*
X79952380Y-79952380D01*
X79285714Y-79761904D01*
X79904761Y-79000000D02*
X79952380Y-79095238D01*
X79952380Y-79285714D01*
X79904761Y-79380952D01*
X79809523Y-79428571D01*
X79428571Y-79428571D01*
X79333333Y-79380952D01*
X79285714Y-79285714D01*
X79285714Y-79095238D01*
X79333333Y-79000000D01*
X79428571Y-78952380D01*
X79523809Y-78952380D01*
X79619047Y-79428571D01*
X79952380Y-78523809D02*
X79285714Y-78523809D01*
X79476190Y-78523809D02*
X79380952Y-78476190D01*
X79333333Y-78428571D01*
X79285714Y-78333333D01*
X79285714Y-78238095D01*
X79904761Y-77190476D02*
X79952380Y-77047619D01*
X79952380Y-76809523D01*
X79904761Y-76714285D01*
X79857142Y-76666666D01*
X79761904Y-76619047D01*
X79666666Y-76619047D01*
X79571428Y-76666666D01*
X79523809Y-76714285D01*
X79476190Y-76809523D01*
X79428571Y-77000000D01*
X79380952Y-77095238D01*
X79333333Y-77142857D01*
X79238095Y-77190476D01*
X79142857Y-77190476D01*
X79047619Y-77142857D01*
X79000000Y-77095238D01*
X78952380Y-77000000D01*
X78952380Y-76761904D01*
X79000000Y-76619047D01*
X79285714Y-75761904D02*
X79952380Y-75761904D01*
X79285714Y-76190476D02*
X79809523Y-76190476D01*
X79904761Y-76142857D01*
X79952380Y-76047619D01*
X79952380Y-75904761D01*
X79904761Y-75809523D01*
X79857142Y-75761904D01*
X79285714Y-75285714D02*
X80285714Y-75285714D01*
X79333333Y-75285714D02*
X79285714Y-75190476D01*
X79285714Y-75000000D01*
X79333333Y-74904761D01*
X79380952Y-74857142D01*
X79476190Y-74809523D01*
X79761904Y-74809523D01*
X79857142Y-74857142D01*
X79904761Y-74904761D01*
X79952380Y-75000000D01*
X79952380Y-75190476D01*
X79904761Y-75285714D01*
X79285714Y-74380952D02*
X80285714Y-74380952D01*
X79333333Y-74380952D02*
X79285714Y-74285714D01*
X79285714Y-74095238D01*
X79333333Y-74000000D01*
X79380952Y-73952380D01*
X79476190Y-73904761D01*
X79761904Y-73904761D01*
X79857142Y-73952380D01*
X79904761Y-74000000D01*
X79952380Y-74095238D01*
X79952380Y-74285714D01*
X79904761Y-74380952D01*
X79952380Y-73333333D02*
X79904761Y-73428571D01*
X79809523Y-73476190D01*
X78952380Y-73476190D01*
X79285714Y-73047619D02*
X79952380Y-72809523D01*
X79285714Y-72571428D02*
X79952380Y-72809523D01*
X80190476Y-72904761D01*
X80238095Y-72952380D01*
X80285714Y-73047619D01*
X101845238Y-112352380D02*
X101369047Y-112352380D01*
X101369047Y-111352380D01*
X102178571Y-112352380D02*
X102178571Y-111352380D01*
X102654761Y-112352380D02*
X102654761Y-111352380D01*
X103226190Y-112352380D01*
X103226190Y-111352380D01*
X103702380Y-111828571D02*
X104035714Y-111828571D01*
X104178571Y-112352380D02*
X103702380Y-112352380D01*
X103702380Y-111352380D01*
X104178571Y-111352380D01*
X89023809Y-112352380D02*
X89023809Y-111352380D01*
X89595238Y-112352380D01*
X89595238Y-111352380D01*
X90071428Y-111828571D02*
X90404761Y-111828571D01*
X90547619Y-112352380D02*
X90071428Y-112352380D01*
X90071428Y-111352380D01*
X90547619Y-111352380D01*
X90976190Y-111352380D02*
X90976190Y-112161904D01*
X91023809Y-112257142D01*
X91071428Y-112304761D01*
X91166666Y-112352380D01*
X91357142Y-112352380D01*
X91452380Y-112304761D01*
X91500000Y-112257142D01*
X91547619Y-112161904D01*
X91547619Y-111352380D01*
X91880952Y-111352380D02*
X92452380Y-111352380D01*
X92166666Y-112352380D02*
X92166666Y-111352380D01*
X93357142Y-112352380D02*
X93023809Y-111876190D01*
X92785714Y-112352380D02*
X92785714Y-111352380D01*
X93166666Y-111352380D01*
X93261904Y-111400000D01*
X93309523Y-111447619D01*
X93357142Y-111542857D01*
X93357142Y-111685714D01*
X93309523Y-111780952D01*
X93261904Y-111828571D01*
X93166666Y-111876190D01*
X92785714Y-111876190D01*
X93738095Y-112066666D02*
X94214285Y-112066666D01*
X93642857Y-112352380D02*
X93976190Y-111352380D01*
X94309523Y-112352380D01*
X95119047Y-112352380D02*
X94642857Y-112352380D01*
X94642857Y-111352380D01*
X38433333Y-71724761D02*
X38576190Y-71772380D01*
X38814285Y-71772380D01*
X38909523Y-71724761D01*
X38957142Y-71677142D01*
X39004761Y-71581904D01*
X39004761Y-71486666D01*
X38957142Y-71391428D01*
X38909523Y-71343809D01*
X38814285Y-71296190D01*
X38623809Y-71248571D01*
X38528571Y-71200952D01*
X38480952Y-71153333D01*
X38433333Y-71058095D01*
X38433333Y-70962857D01*
X38480952Y-70867619D01*
X38528571Y-70820000D01*
X38623809Y-70772380D01*
X38861904Y-70772380D01*
X39004761Y-70820000D01*
X39290476Y-71105714D02*
X39671428Y-71105714D01*
X39433333Y-70772380D02*
X39433333Y-71629523D01*
X39480952Y-71724761D01*
X39576190Y-71772380D01*
X39671428Y-71772380D01*
X40433333Y-71772380D02*
X40433333Y-71248571D01*
X40385714Y-71153333D01*
X40290476Y-71105714D01*
X40100000Y-71105714D01*
X40004761Y-71153333D01*
X40433333Y-71724761D02*
X40338095Y-71772380D01*
X40100000Y-71772380D01*
X40004761Y-71724761D01*
X39957142Y-71629523D01*
X39957142Y-71534285D01*
X40004761Y-71439047D01*
X40100000Y-71391428D01*
X40338095Y-71391428D01*
X40433333Y-71343809D01*
X40766666Y-71105714D02*
X41147619Y-71105714D01*
X40909523Y-70772380D02*
X40909523Y-71629523D01*
X40957142Y-71724761D01*
X41052380Y-71772380D01*
X41147619Y-71772380D01*
X41909523Y-71105714D02*
X41909523Y-71772380D01*
X41480952Y-71105714D02*
X41480952Y-71629523D01*
X41528571Y-71724761D01*
X41623809Y-71772380D01*
X41766666Y-71772380D01*
X41861904Y-71724761D01*
X41909523Y-71677142D01*
X42338095Y-71724761D02*
X42433333Y-71772380D01*
X42623809Y-71772380D01*
X42719047Y-71724761D01*
X42766666Y-71629523D01*
X42766666Y-71581904D01*
X42719047Y-71486666D01*
X42623809Y-71439047D01*
X42480952Y-71439047D01*
X42385714Y-71391428D01*
X42338095Y-71296190D01*
X42338095Y-71248571D01*
X42385714Y-71153333D01*
X42480952Y-71105714D01*
X42623809Y-71105714D01*
X42719047Y-71153333D01*
X96452380Y-37876190D02*
X95452380Y-37876190D01*
X95452380Y-37495238D01*
X95500000Y-37400000D01*
X95547619Y-37352380D01*
X95642857Y-37304761D01*
X95785714Y-37304761D01*
X95880952Y-37352380D01*
X95928571Y-37400000D01*
X95976190Y-37495238D01*
X95976190Y-37876190D01*
X96452380Y-36733333D02*
X96404761Y-36828571D01*
X96357142Y-36876190D01*
X96261904Y-36923809D01*
X95976190Y-36923809D01*
X95880952Y-36876190D01*
X95833333Y-36828571D01*
X95785714Y-36733333D01*
X95785714Y-36590476D01*
X95833333Y-36495238D01*
X95880952Y-36447619D01*
X95976190Y-36400000D01*
X96261904Y-36400000D01*
X96357142Y-36447619D01*
X96404761Y-36495238D01*
X96452380Y-36590476D01*
X96452380Y-36733333D01*
X95785714Y-36066666D02*
X96452380Y-35876190D01*
X95976190Y-35685714D01*
X96452380Y-35495238D01*
X95785714Y-35304761D01*
X96404761Y-34542857D02*
X96452380Y-34638095D01*
X96452380Y-34828571D01*
X96404761Y-34923809D01*
X96309523Y-34971428D01*
X95928571Y-34971428D01*
X95833333Y-34923809D01*
X95785714Y-34828571D01*
X95785714Y-34638095D01*
X95833333Y-34542857D01*
X95928571Y-34495238D01*
X96023809Y-34495238D01*
X96119047Y-34971428D01*
X96452380Y-34066666D02*
X95785714Y-34066666D01*
X95976190Y-34066666D02*
X95880952Y-34019047D01*
X95833333Y-33971428D01*
X95785714Y-33876190D01*
X95785714Y-33780952D01*
M02*
